<?xml version="1.0" encoding="utf-8" standalone="no"?>
<!DOCTYPE svg PUBLIC "-//W3C//DTD SVG 1.1//EN"
  "http://www.w3.org/Graphics/SVG/1.1/DTD/svg11.dtd">
<svg xmlns:xlink="http://www.w3.org/1999/xlink" width="453.6pt" height="336.764839pt" viewBox="0 0 453.6 336.764839" xmlns="http://www.w3.org/2000/svg" version="1.1">
 <metadata>
  <rdf:RDF xmlns:dc="http://purl.org/dc/elements/1.1/" xmlns:cc="http://creativecommons.org/ns#" xmlns:rdf="http://www.w3.org/1999/02/22-rdf-syntax-ns#">
   <cc:Work>
    <dc:type rdf:resource="http://purl.org/dc/dcmitype/StillImage"/>
    <dc:date>2022-11-01T14:20:57.187821</dc:date>
    <dc:format>image/svg+xml</dc:format>
    <dc:creator>
     <cc:Agent>
      <dc:title>Matplotlib v3.5.1, https://matplotlib.org/</dc:title>
     </cc:Agent>
    </dc:creator>
   </cc:Work>
  </rdf:RDF>
 </metadata>
 <defs>
  <style type="text/css">*{stroke-linejoin: round; stroke-linecap: butt}</style>
 </defs>
 <g id="figure_1">
  <g id="patch_1">
   <path d="M 0 336.764839 
L 453.6 336.764839 
L 453.6 0 
L 0 0 
z
" style="fill: #ffffff"/>
  </g>
  <g id="axes_1">
   <g id="patch_2">
    <path d="M 7.2 327.566087 
L 446.4 327.566087 
L 446.4 7.2 
L 7.2 7.2 
z
" style="fill: #ffffff"/>
   </g>
   <g id="matplotlib.axis_1">
    <g id="xtick_1">
     <g id="line2d_1">
      <defs>
       <path id="m523e11839c" d="M 0 0 
L 0 3.5 
" style="stroke: #000000; stroke-width: 0.8"/>
      </defs>
      <g>
       <use xlink:href="#m523e11839c" x="114.779405" y="167.383037" style="stroke: #000000; stroke-width: 0.8"/>
      </g>
     </g>
     <g id="text_1">
      <!-- −5 -->
      <g transform="translate(107.408312 181.981474)scale(0.1 -0.1)">
       <defs>
        <path id="DejaVuSans-2212" d="M 678 2272 
L 4684 2272 
L 4684 1741 
L 678 1741 
L 678 2272 
z
" transform="scale(0.015625)"/>
        <path id="DejaVuSans-35" d="M 691 4666 
L 3169 4666 
L 3169 4134 
L 1269 4134 
L 1269 2991 
Q 1406 3038 1543 3061 
Q 1681 3084 1819 3084 
Q 2600 3084 3056 2656 
Q 3513 2228 3513 1497 
Q 3513 744 3044 326 
Q 2575 -91 1722 -91 
Q 1428 -91 1123 -41 
Q 819 9 494 109 
L 494 744 
Q 775 591 1075 516 
Q 1375 441 1709 441 
Q 2250 441 2565 725 
Q 2881 1009 2881 1497 
Q 2881 1984 2565 2268 
Q 2250 2553 1709 2553 
Q 1456 2553 1204 2497 
Q 953 2441 691 2322 
L 691 4666 
z
" transform="scale(0.015625)"/>
       </defs>
       <use xlink:href="#DejaVuSans-2212"/>
       <use xlink:href="#DejaVuSans-35" x="83.789062"/>
      </g>
     </g>
    </g>
    <g id="xtick_2">
     <g id="line2d_2">
      <g>
       <use xlink:href="#m523e11839c" x="226.8" y="167.383037" style="stroke: #000000; stroke-width: 0.8"/>
      </g>
     </g>
    </g>
    <g id="xtick_3">
     <g id="line2d_3">
      <g>
       <use xlink:href="#m523e11839c" x="338.820595" y="167.383037" style="stroke: #000000; stroke-width: 0.8"/>
      </g>
     </g>
     <g id="text_2">
      <!-- 5 -->
      <g transform="translate(335.639345 181.981474)scale(0.1 -0.1)">
       <use xlink:href="#DejaVuSans-35"/>
      </g>
     </g>
    </g>
    <g id="xtick_4">
     <g id="line2d_4">
      <defs>
       <path id="m3a3a58380c" d="M 0 0 
L 0 2 
" style="stroke: #000000; stroke-width: 0.6"/>
      </defs>
      <g>
       <use xlink:href="#m3a3a58380c" x="25.16293" y="167.383037" style="stroke: #000000; stroke-width: 0.6"/>
      </g>
     </g>
    </g>
    <g id="xtick_5">
     <g id="line2d_5">
      <g>
       <use xlink:href="#m3a3a58380c" x="47.567049" y="167.383037" style="stroke: #000000; stroke-width: 0.6"/>
      </g>
     </g>
    </g>
    <g id="xtick_6">
     <g id="line2d_6">
      <g>
       <use xlink:href="#m3a3a58380c" x="69.971168" y="167.383037" style="stroke: #000000; stroke-width: 0.6"/>
      </g>
     </g>
    </g>
    <g id="xtick_7">
     <g id="line2d_7">
      <g>
       <use xlink:href="#m3a3a58380c" x="92.375287" y="167.383037" style="stroke: #000000; stroke-width: 0.6"/>
      </g>
     </g>
    </g>
    <g id="xtick_8">
     <g id="line2d_8">
      <g>
       <use xlink:href="#m3a3a58380c" x="137.183524" y="167.383037" style="stroke: #000000; stroke-width: 0.6"/>
      </g>
     </g>
    </g>
    <g id="xtick_9">
     <g id="line2d_9">
      <g>
       <use xlink:href="#m3a3a58380c" x="159.587643" y="167.383037" style="stroke: #000000; stroke-width: 0.6"/>
      </g>
     </g>
    </g>
    <g id="xtick_10">
     <g id="line2d_10">
      <g>
       <use xlink:href="#m3a3a58380c" x="181.991762" y="167.383037" style="stroke: #000000; stroke-width: 0.6"/>
      </g>
     </g>
    </g>
    <g id="xtick_11">
     <g id="line2d_11">
      <g>
       <use xlink:href="#m3a3a58380c" x="204.395881" y="167.383037" style="stroke: #000000; stroke-width: 0.6"/>
      </g>
     </g>
    </g>
    <g id="xtick_12">
     <g id="line2d_12">
      <g>
       <use xlink:href="#m3a3a58380c" x="249.204119" y="167.383037" style="stroke: #000000; stroke-width: 0.6"/>
      </g>
     </g>
    </g>
    <g id="xtick_13">
     <g id="line2d_13">
      <g>
       <use xlink:href="#m3a3a58380c" x="271.608238" y="167.383037" style="stroke: #000000; stroke-width: 0.6"/>
      </g>
     </g>
    </g>
    <g id="xtick_14">
     <g id="line2d_14">
      <g>
       <use xlink:href="#m3a3a58380c" x="294.012357" y="167.383037" style="stroke: #000000; stroke-width: 0.6"/>
      </g>
     </g>
    </g>
    <g id="xtick_15">
     <g id="line2d_15">
      <g>
       <use xlink:href="#m3a3a58380c" x="316.416476" y="167.383037" style="stroke: #000000; stroke-width: 0.6"/>
      </g>
     </g>
    </g>
    <g id="xtick_16">
     <g id="line2d_16">
      <g>
       <use xlink:href="#m3a3a58380c" x="361.224713" y="167.383037" style="stroke: #000000; stroke-width: 0.6"/>
      </g>
     </g>
    </g>
    <g id="xtick_17">
     <g id="line2d_17">
      <g>
       <use xlink:href="#m3a3a58380c" x="383.628832" y="167.383037" style="stroke: #000000; stroke-width: 0.6"/>
      </g>
     </g>
    </g>
    <g id="xtick_18">
     <g id="line2d_18">
      <g>
       <use xlink:href="#m3a3a58380c" x="406.032951" y="167.383037" style="stroke: #000000; stroke-width: 0.6"/>
      </g>
     </g>
    </g>
    <g id="xtick_19">
     <g id="line2d_19">
      <g>
       <use xlink:href="#m3a3a58380c" x="428.43707" y="167.383037" style="stroke: #000000; stroke-width: 0.6"/>
      </g>
     </g>
    </g>
   </g>
   <g id="matplotlib.axis_2">
    <g id="ytick_1">
     <g id="line2d_20">
      <defs>
       <path id="m319cd884f9" d="M 0 0 
L -3.5 0 
" style="stroke: #000000; stroke-width: 0.8"/>
      </defs>
      <g>
       <use xlink:href="#m319cd884f9" x="226.8" y="323.685932" style="stroke: #000000; stroke-width: 0.8"/>
      </g>
     </g>
     <g id="text_3">
      <!-- −6 -->
      <g transform="translate(205.057812 327.485151)scale(0.1 -0.1)">
       <defs>
        <path id="DejaVuSans-36" d="M 2113 2584 
Q 1688 2584 1439 2293 
Q 1191 2003 1191 1497 
Q 1191 994 1439 701 
Q 1688 409 2113 409 
Q 2538 409 2786 701 
Q 3034 994 3034 1497 
Q 3034 2003 2786 2293 
Q 2538 2584 2113 2584 
z
M 3366 4563 
L 3366 3988 
Q 3128 4100 2886 4159 
Q 2644 4219 2406 4219 
Q 1781 4219 1451 3797 
Q 1122 3375 1075 2522 
Q 1259 2794 1537 2939 
Q 1816 3084 2150 3084 
Q 2853 3084 3261 2657 
Q 3669 2231 3669 1497 
Q 3669 778 3244 343 
Q 2819 -91 2113 -91 
Q 1303 -91 875 529 
Q 447 1150 447 2328 
Q 447 3434 972 4092 
Q 1497 4750 2381 4750 
Q 2619 4750 2861 4703 
Q 3103 4656 3366 4563 
z
" transform="scale(0.015625)"/>
       </defs>
       <use xlink:href="#DejaVuSans-2212"/>
       <use xlink:href="#DejaVuSans-36" x="83.789062"/>
      </g>
     </g>
    </g>
    <g id="ytick_2">
     <g id="line2d_21">
      <g>
       <use xlink:href="#m319cd884f9" x="226.8" y="271.584967" style="stroke: #000000; stroke-width: 0.8"/>
      </g>
     </g>
     <g id="text_4">
      <!-- −4 -->
      <g transform="translate(205.057812 275.384186)scale(0.1 -0.1)">
       <defs>
        <path id="DejaVuSans-34" d="M 2419 4116 
L 825 1625 
L 2419 1625 
L 2419 4116 
z
M 2253 4666 
L 3047 4666 
L 3047 1625 
L 3713 1625 
L 3713 1100 
L 3047 1100 
L 3047 0 
L 2419 0 
L 2419 1100 
L 313 1100 
L 313 1709 
L 2253 4666 
z
" transform="scale(0.015625)"/>
       </defs>
       <use xlink:href="#DejaVuSans-2212"/>
       <use xlink:href="#DejaVuSans-34" x="83.789062"/>
      </g>
     </g>
    </g>
    <g id="ytick_3">
     <g id="line2d_22">
      <g>
       <use xlink:href="#m319cd884f9" x="226.8" y="219.484002" style="stroke: #000000; stroke-width: 0.8"/>
      </g>
     </g>
     <g id="text_5">
      <!-- −2 -->
      <g transform="translate(205.057812 223.283221)scale(0.1 -0.1)">
       <defs>
        <path id="DejaVuSans-32" d="M 1228 531 
L 3431 531 
L 3431 0 
L 469 0 
L 469 531 
Q 828 903 1448 1529 
Q 2069 2156 2228 2338 
Q 2531 2678 2651 2914 
Q 2772 3150 2772 3378 
Q 2772 3750 2511 3984 
Q 2250 4219 1831 4219 
Q 1534 4219 1204 4116 
Q 875 4013 500 3803 
L 500 4441 
Q 881 4594 1212 4672 
Q 1544 4750 1819 4750 
Q 2544 4750 2975 4387 
Q 3406 4025 3406 3419 
Q 3406 3131 3298 2873 
Q 3191 2616 2906 2266 
Q 2828 2175 2409 1742 
Q 1991 1309 1228 531 
z
" transform="scale(0.015625)"/>
       </defs>
       <use xlink:href="#DejaVuSans-2212"/>
       <use xlink:href="#DejaVuSans-32" x="83.789062"/>
      </g>
     </g>
    </g>
    <g id="ytick_4">
     <g id="line2d_23">
      <g>
       <use xlink:href="#m319cd884f9" x="226.8" y="167.383037" style="stroke: #000000; stroke-width: 0.8"/>
      </g>
     </g>
    </g>
    <g id="ytick_5">
     <g id="line2d_24">
      <g>
       <use xlink:href="#m319cd884f9" x="226.8" y="115.282071" style="stroke: #000000; stroke-width: 0.8"/>
      </g>
     </g>
     <g id="text_6">
      <!-- 2 -->
      <g transform="translate(213.4375 119.08129)scale(0.1 -0.1)">
       <use xlink:href="#DejaVuSans-32"/>
      </g>
     </g>
    </g>
    <g id="ytick_6">
     <g id="line2d_25">
      <g>
       <use xlink:href="#m319cd884f9" x="226.8" y="63.181106" style="stroke: #000000; stroke-width: 0.8"/>
      </g>
     </g>
     <g id="text_7">
      <!-- 4 -->
      <g transform="translate(213.4375 66.980325)scale(0.1 -0.1)">
       <use xlink:href="#DejaVuSans-34"/>
      </g>
     </g>
    </g>
    <g id="ytick_7">
     <g id="line2d_26">
      <g>
       <use xlink:href="#m319cd884f9" x="226.8" y="11.080141" style="stroke: #000000; stroke-width: 0.8"/>
      </g>
     </g>
     <g id="text_8">
      <!-- 6 -->
      <g transform="translate(213.4375 14.879359)scale(0.1 -0.1)">
       <use xlink:href="#DejaVuSans-36"/>
      </g>
     </g>
    </g>
    <g id="ytick_8">
     <g id="line2d_27">
      <defs>
       <path id="m99dc8794cc" d="M 0 0 
L -2 0 
" style="stroke: #000000; stroke-width: 0.6"/>
      </defs>
      <g>
       <use xlink:href="#m99dc8794cc" x="226.8" y="310.660691" style="stroke: #000000; stroke-width: 0.6"/>
      </g>
     </g>
    </g>
    <g id="ytick_9">
     <g id="line2d_28">
      <g>
       <use xlink:href="#m99dc8794cc" x="226.8" y="297.63545" style="stroke: #000000; stroke-width: 0.6"/>
      </g>
     </g>
    </g>
    <g id="ytick_10">
     <g id="line2d_29">
      <g>
       <use xlink:href="#m99dc8794cc" x="226.8" y="284.610208" style="stroke: #000000; stroke-width: 0.6"/>
      </g>
     </g>
    </g>
    <g id="ytick_11">
     <g id="line2d_30">
      <g>
       <use xlink:href="#m99dc8794cc" x="226.8" y="258.559726" style="stroke: #000000; stroke-width: 0.6"/>
      </g>
     </g>
    </g>
    <g id="ytick_12">
     <g id="line2d_31">
      <g>
       <use xlink:href="#m99dc8794cc" x="226.8" y="245.534485" style="stroke: #000000; stroke-width: 0.6"/>
      </g>
     </g>
    </g>
    <g id="ytick_13">
     <g id="line2d_32">
      <g>
       <use xlink:href="#m99dc8794cc" x="226.8" y="232.509243" style="stroke: #000000; stroke-width: 0.6"/>
      </g>
     </g>
    </g>
    <g id="ytick_14">
     <g id="line2d_33">
      <g>
       <use xlink:href="#m99dc8794cc" x="226.8" y="206.458761" style="stroke: #000000; stroke-width: 0.6"/>
      </g>
     </g>
    </g>
    <g id="ytick_15">
     <g id="line2d_34">
      <g>
       <use xlink:href="#m99dc8794cc" x="226.8" y="193.433519" style="stroke: #000000; stroke-width: 0.6"/>
      </g>
     </g>
    </g>
    <g id="ytick_16">
     <g id="line2d_35">
      <g>
       <use xlink:href="#m99dc8794cc" x="226.8" y="180.408278" style="stroke: #000000; stroke-width: 0.6"/>
      </g>
     </g>
    </g>
    <g id="ytick_17">
     <g id="line2d_36">
      <g>
       <use xlink:href="#m99dc8794cc" x="226.8" y="154.357795" style="stroke: #000000; stroke-width: 0.6"/>
      </g>
     </g>
    </g>
    <g id="ytick_18">
     <g id="line2d_37">
      <g>
       <use xlink:href="#m99dc8794cc" x="226.8" y="141.332554" style="stroke: #000000; stroke-width: 0.6"/>
      </g>
     </g>
    </g>
    <g id="ytick_19">
     <g id="line2d_38">
      <g>
       <use xlink:href="#m99dc8794cc" x="226.8" y="128.307313" style="stroke: #000000; stroke-width: 0.6"/>
      </g>
     </g>
    </g>
    <g id="ytick_20">
     <g id="line2d_39">
      <g>
       <use xlink:href="#m99dc8794cc" x="226.8" y="102.25683" style="stroke: #000000; stroke-width: 0.6"/>
      </g>
     </g>
    </g>
    <g id="ytick_21">
     <g id="line2d_40">
      <g>
       <use xlink:href="#m99dc8794cc" x="226.8" y="89.231589" style="stroke: #000000; stroke-width: 0.6"/>
      </g>
     </g>
    </g>
    <g id="ytick_22">
     <g id="line2d_41">
      <g>
       <use xlink:href="#m99dc8794cc" x="226.8" y="76.206347" style="stroke: #000000; stroke-width: 0.6"/>
      </g>
     </g>
    </g>
    <g id="ytick_23">
     <g id="line2d_42">
      <g>
       <use xlink:href="#m99dc8794cc" x="226.8" y="50.155865" style="stroke: #000000; stroke-width: 0.6"/>
      </g>
     </g>
    </g>
    <g id="ytick_24">
     <g id="line2d_43">
      <g>
       <use xlink:href="#m99dc8794cc" x="226.8" y="37.130623" style="stroke: #000000; stroke-width: 0.6"/>
      </g>
     </g>
    </g>
    <g id="ytick_25">
     <g id="line2d_44">
      <g>
       <use xlink:href="#m99dc8794cc" x="226.8" y="24.105382" style="stroke: #000000; stroke-width: 0.6"/>
      </g>
     </g>
    </g>
   </g>
   <g id="line2d_45">
    <path d="M 15.646154 193.433519 
L 17.557781 158.120188 
L 22.258431 69.01893 
L 23.655828 47.365591 
L 24.820325 32.737177 
L 25.789962 23.417529 
L 26.519363 18.317608 
L 27.109838 15.469525 
L 27.552694 14.112859 
L 27.995551 13.438976 
L 28.290788 13.373717 
L 28.586025 13.617808 
L 28.988189 14.449609 
L 29.49728 16.328051 
L 30.006371 19.122807 
L 30.642734 23.884139 
L 31.414143 31.487399 
L 32.272992 42.189538 
L 33.438497 60.135208 
L 34.777169 84.852052 
L 36.598915 123.499797 
L 41.454614 230.2086 
L 42.880073 255.919104 
L 44.150481 274.773603 
L 45.139322 286.408112 
L 45.988498 294.124455 
L 46.696145 298.902986 
L 47.266501 301.654336 
L 47.849574 303.458566 
L 48.286879 304.152027 
L 48.578415 304.305611 
L 48.869952 304.216467 
L 49.161488 303.888817 
L 49.633606 302.864606 
L 50.175348 300.963447 
L 50.897671 297.287135 
L 51.619994 292.402208 
L 52.577157 284.264628 
L 53.751356 272.085229 
L 55.097749 255.820756 
L 57.231068 226.97888 
L 61.320896 170.327141 
L 63.749808 140.177639 
L 65.587936 120.050344 
L 67.273388 103.740343 
L 69.087079 88.49376 
L 70.704908 76.979033 
L 72.170651 68.409481 
L 73.269959 63.302428 
L 74.148266 60.145943 
L 75.026573 57.908209 
L 75.61211 56.975998 
L 76.220827 56.520212 
L 76.525185 56.499413 
L 76.829543 56.622535 
L 77.133901 56.893916 
L 77.742618 57.898355 
L 78.347696 59.533446 
L 78.949136 61.816785 
L 79.796451 66.19483 
L 80.707443 72.472763 
L 81.618435 80.417439 
L 82.724736 92.310735 
L 83.930866 107.996909 
L 85.223717 127.705284 
L 86.958841 158.034496 
L 88.48558 187.19337 
L 92.111117 256.570088 
L 93.591208 280.876777 
L 94.686235 295.945007 
L 95.781262 307.904916 
L 96.657284 314.915353 
L 97.41502 318.981927 
L 97.885493 320.529533 
L 98.337736 321.292388 
L 98.639231 321.400962 
L 98.940726 321.187116 
L 99.242221 320.649729 
L 99.694464 319.236661 
L 100.146706 317.097976 
L 100.773124 312.951043 
L 101.608348 305.3373 
L 102.443572 295.454863 
L 103.487602 280.17172 
L 104.667503 259.487463 
L 106.13153 229.889363 
L 108.826196 169.445356 
L 111.175295 117.884339 
L 112.698528 88.533612 
L 114.004959 67.349967 
L 115.184666 52.034747 
L 116.101456 42.876515 
L 116.874004 37.102926 
L 117.521598 33.65053 
L 118.007293 31.889244 
L 118.492988 30.829512 
L 118.816785 30.50692 
L 119.140582 30.486112 
L 119.521476 30.840467 
L 119.959467 31.741351 
L 120.397457 33.152945 
L 121.054444 36.183667 
L 121.71143 40.242573 
L 122.587412 47.108149 
L 123.739827 58.331856 
L 125.014718 73.066621 
L 126.728013 95.483962 
L 133.160762 182.961386 
L 134.890966 203.166088 
L 136.931053 224.243336 
L 138.590729 239.167076 
L 140.340217 252.707784 
L 141.580102 260.86373 
L 142.748162 267.339448 
L 143.870323 272.319007 
L 144.855951 275.555213 
L 145.467524 276.967726 
L 146.079097 277.883121 
L 146.486813 278.199719 
L 146.894528 278.26901 
L 147.302244 278.080431 
L 147.834579 277.428861 
L 148.491534 275.961261 
L 149.148489 273.724152 
L 149.805444 270.682869 
L 150.412631 267.131772 
L 151.248759 261.046057 
L 152.17564 252.65464 
L 153.287896 240.308549 
L 154.426481 225.189613 
L 155.908406 202.102533 
L 157.544668 172.989351 
L 161.135456 103.316566 
L 163.124615 67.395451 
L 164.526288 45.959074 
L 165.488687 33.862973 
L 166.362232 25.082962 
L 167.109255 19.412398 
L 167.729759 16.078672 
L 168.195136 14.43201 
L 168.660513 13.535636 
L 168.970765 13.360886 
L 169.281017 13.527249 
L 169.626169 14.114797 
L 169.971321 15.126689 
L 170.413332 17.040479 
L 171.076349 21.199333 
L 171.739366 26.870686 
L 172.623389 36.686405 
L 173.657284 51.199201 
L 174.706391 68.881866 
L 176.061964 95.31434 
L 178.242833 143.231625 
L 181.694232 219.637104 
L 183.299328 250.01804 
L 184.522351 269.329542 
L 185.593483 283.004649 
L 186.506459 292.06496 
L 187.236841 297.52503 
L 187.918471 301.168695 
L 188.453847 303.050788 
L 188.855379 303.903228 
L 189.256911 304.284012 
L 189.524599 304.280197 
L 189.792287 304.073847 
L 190.219928 303.33277 
L 190.660624 302.054605 
L 191.248218 299.572243 
L 191.982711 295.293531 
L 192.846454 288.73715 
L 193.986347 277.895571 
L 195.289314 263.049793 
L 197.212961 237.907603 
L 203.355083 154.151674 
L 205.269365 131.66881 
L 207.091525 112.691139 
L 208.885753 96.353529 
L 210.534045 83.422441 
L 211.84493 74.634884 
L 213.114021 67.520629 
L 214.144332 62.879271 
L 215.000411 59.893917 
L 215.64247 58.22837 
L 216.284529 57.097587 
L 216.712569 56.660889 
L 217.140608 56.49221 
L 217.568648 56.603808 
L 218.08462 57.128057 
L 218.600591 58.097705 
L 219.116563 59.532268 
L 219.804526 62.199144 
L 220.501176 65.812621 
L 221.179767 70.244897 
L 222.175593 78.418236 
L 223.171419 88.591238 
L 224.416201 104.058737 
L 225.797334 124.546722 
L 227.323495 150.633096 
L 229.507707 192.14394 
L 232.797844 255.108755 
L 234.206183 278.535443 
L 235.490283 296.375868 
L 236.464349 307.088241 
L 237.295737 314.022386 
L 237.960847 317.982247 
L 238.597144 320.381147 
L 239.052756 321.238806 
L 239.356498 321.405201 
L 239.660239 321.244638 
L 239.963981 320.755824 
L 240.419593 319.406468 
L 240.978981 316.742561 
L 241.618097 312.357651 
L 242.385037 305.258876 
L 243.230154 295.22663 
L 244.261242 280.100785 
L 245.569626 256.961157 
L 247.173455 224.015158 
L 253.32529 91.084786 
L 254.711165 68.274434 
L 255.899058 52.660311 
L 256.812649 43.382617 
L 257.528259 37.848273 
L 258.243458 33.860186 
L 258.779858 31.879589 
L 259.316258 30.754486 
L 259.673858 30.471661 
L 260.031457 30.555183 
L 260.389057 30.997343 
L 260.787731 31.902251 
L 261.385742 34.044348 
L 261.983753 37.080974 
L 262.68516 41.702833 
L 263.561918 48.936829 
L 264.438676 57.583397 
L 265.65757 71.516617 
L 267.644372 97.501206 
L 273.585604 178.696628 
L 275.632566 202.859991 
L 277.367238 221.008272 
L 279.192358 237.750771 
L 281.003622 251.954608 
L 282.368148 260.977676 
L 283.526403 267.384488 
L 284.575447 272.07013 
L 285.62449 275.553348 
L 286.319253 277.120991 
L 286.782429 277.809451 
L 287.245605 278.194653 
L 287.748913 278.251278 
L 288.292354 277.866888 
L 288.835795 276.996135 
L 289.379236 275.615782 
L 290.167481 272.664372 
L 290.85618 269.126173 
L 291.717055 263.397682 
L 292.581709 256.149291 
L 293.516816 246.613047 
L 294.655544 232.66506 
L 295.794272 216.299081 
L 297.44559 188.838532 
L 299.523851 149.828067 
L 303.149762 80.239074 
L 304.712859 54.37383 
L 305.87392 38.402265 
L 306.803256 28.120107 
L 307.732592 20.380378 
L 308.429593 16.387554 
L 308.894261 14.632418 
L 309.368376 13.610426 
L 309.731048 13.361158 
L 309.97283 13.453705 
L 310.335502 13.982397 
L 310.698174 14.979614 
L 311.231961 17.297273 
L 311.916422 21.733947 
L 312.600883 27.77709 
L 313.456459 37.490859 
L 314.379773 50.47732 
L 315.644648 71.976782 
L 317.203844 103.138751 
L 319.747454 160.015909 
L 322.511179 220.608999 
L 323.981951 248.514039 
L 325.333352 269.921829 
L 326.493586 284.45337 
L 327.421773 293.285343 
L 328.117913 298.219097 
L 328.778542 301.548519 
L 329.349985 303.371653 
L 329.778568 304.104536 
L 330.06429 304.295966 
L 330.350011 304.253571 
L 330.635733 303.981238 
L 331.058681 303.165355 
L 331.48163 301.871042 
L 332.116052 299.071775 
L 332.857003 294.580668 
L 333.651218 288.434853 
L 334.752481 277.928003 
L 335.980671 263.997518 
L 337.897344 239.070303 
L 344.249799 152.601335 
L 346.214483 129.73236 
L 348.180763 109.606442 
L 350.056138 93.020756 
L 351.756771 80.226479 
L 353.234891 70.973835 
L 354.526491 64.495145 
L 355.497242 60.752485 
L 356.145094 58.857329 
L 356.792945 57.489853 
L 357.440797 56.691308 
L 357.774454 56.515836 
L 358.108111 56.508319 
L 358.441769 56.674532 
L 358.775426 57.020169 
L 359.442741 58.271799 
L 360.110056 60.305363 
L 360.947251 64.020052 
L 361.746555 68.827011 
L 362.54586 74.90357 
L 363.542836 84.288428 
L 364.760405 98.442635 
L 366.097009 117.214566 
L 367.65638 142.857447 
L 369.500197 177.018823 
L 374.005304 262.756382 
L 375.415857 285.085022 
L 376.629296 300.753262 
L 377.5071 309.604361 
L 378.351556 315.906835 
L 379.027121 319.274326 
L 379.533794 320.78061 
L 379.939123 321.341588 
L 380.141787 321.404913 
L 380.344451 321.322622 
L 380.749779 320.719709 
L 381.155107 319.53163 
L 381.627919 317.408622 
L 382.258335 313.356453 
L 382.964172 307.200945 
L 383.877894 296.805556 
L 384.974361 280.999677 
L 386.227472 259.08108 
L 387.706842 229.100984 
L 390.165348 173.990538 
L 392.694629 118.27898 
L 394.291356 87.571784 
L 395.545443 67.320473 
L 396.661154 52.742333 
L 397.617478 43.071003 
L 398.342508 37.55168 
L 399.096698 33.493 
L 399.662341 31.571265 
L 400.039436 30.817887 
L 400.416531 30.479984 
L 400.793626 30.550035 
L 401.06146 30.842694 
L 401.597129 32.017009 
L 402.132797 33.948598 
L 402.9363 38.182051 
L 403.783746 44.240354 
L 404.843571 53.833443 
L 406.107905 67.68603 
L 407.67589 87.507078 
L 409.439307 111.790482 
L 413.50492 167.853339 
L 415.808431 196.155077 
L 417.602392 215.652755 
L 419.269847 231.689127 
L 420.744117 244.187107 
L 422.171891 254.748766 
L 423.599664 263.680464 
L 424.842282 269.967151 
L 425.864539 273.956056 
L 426.511956 275.863659 
L 427.295661 277.465429 
L 427.687513 277.954557 
L 428.212617 278.262909 
L 428.737721 278.152981 
L 429.262825 277.602414 
L 429.787929 276.589562 
L 430.304714 275.121493 
L 430.993761 272.405807 
L 431.697241 268.704221 
L 432.582604 262.664828 
L 433.467968 255.052224 
L 434.3133 246.308856 
L 435.569755 230.711315 
L 437.052752 208.58669 
L 437.953846 193.433519 
L 437.953846 193.433519 
" clip-path="url(#p9b2e2d7d70)" style="fill: none; stroke: #0000ff; stroke-linecap: square"/>
   </g>
   <g id="patch_3">
    <path d="M 226.8 327.566087 
L 226.8 7.2 
" style="fill: none; stroke: #000000; stroke-width: 0.8; stroke-linejoin: miter; stroke-linecap: square"/>
   </g>
   <g id="patch_4">
    <path d="M 7.2 167.383037 
L 446.4 167.383037 
" style="fill: none; stroke: #000000; stroke-width: 0.8; stroke-linejoin: miter; stroke-linecap: square"/>
   </g>
  </g>
 </g>
 <defs>
  <clipPath id="p9b2e2d7d70">
   <rect x="7.2" y="7.2" width="439.2" height="320.366087"/>
  </clipPath>
 </defs>
</svg>
