<svg xmlns="http://www.w3.org/2000/svg" xmlns:xlink="http://www.w3.org/1999/xlink" version="1.1" width="178" height="136" viewBox="0 0 178 136">
<defs>
<path id="font_1_5" d="M.44898988 .20022583C.44898988 .3193512 .36698915 .41944886 .25898744 .41944886 .21099854 .41944886 .16799927 .40345765 .13198853 .36842347V.5637665C.1519928 .5577698 .18499756 .55078127 .21699524 .55078127 .33999635 .55078127 .4099884 .6417694 .4099884 .6547699 .4099884 .6607666 .40699769 .6657715 .3999939 .6657715 .39898683 .6657715 .39698792 .6657715 .3919983 .66278079 .37199403 .6537781 .32299806 .6337738 .2559967 .6337738 .21598816 .6337738 .16999817 .6407776 .12298584 .6617737 .114990238 .66477969 .11299133 .66477969 .11099243 .66477969 .100997928 .66477969 .100997928 .6567688 .100997928 .6407776V.34439088C.100997928 .32637025 .100997928 .31835938 .114990238 .31835938 .12199402 .31835938 .12399292 .32136537 .12799073 .32736207 .13899231 .3433838 .17599488 .39746095 .25698854 .39746095 .30899049 .39746095 .33399964 .35139466 .34199525 .33337403 .35798646 .29632569 .3600006 .25727845 .3600006 .20722962 .3600006 .17222595 .3600006 .11222839 .33599855 .07035828 .31199647 .031463624 .2749939 .0055389406 .22898865 .0055389406 .1559906 .0055389406 .09899902 .058380128 .08198547 .11723328 .084991458 .1162262 .08799744 .115234378 .09899902 .115234378 .13198853 .115234378 .14898682 .14022827 .14898682 .16423035 .14898682 .18823242 .13198853 .21322632 .09899902 .21322632 .084991458 .21322632 .049987794 .20622254 .049987794 .16023255 .049987794 .07434082 .11898804-.022460938 .23098755-.022460938 .34700013-.022460938 .44898988 .073349 .44898988 .20022583Z"/>
<path id="font_1_4" d="M.2939911 .64004519C.2939911 .66400149 .2939911 .6660156 .2709961 .6660156 .20899964 .60227969 .12098694 .60227969 .08898926 .60227969V.57128909C.10899353 .57128909 .16799927 .57128909 .21998596 .5972748V.07902527C.21998596 .042999269 .21699524 .0309906 .1269989 .0309906H.09498596V0C.12998963 .0029907227 .21699524 .0029907227 .25698854 .0029907227 .29699708 .0029907227 .38398744 .0029907227 .4189911 0V.0309906H.3869934C.29699708 .0309906 .2939911 .041992189 .2939911 .07902527V.64004519Z"/>
<path id="font_1_3" d="M.45999146 .31976319C.45999146 .39982606 .45498658 .47988893 .41999818 .5539398 .37399293 .65000918 .2919922 .6660156 .25 .6660156 .18998719 .6660156 .116989139 .64001467 .07598877 .54693606 .04399109 .47789 .038986207 .39982606 .038986207 .31976319 .038986207 .24472046 .042999269 .15464783 .083999637 .07859802 .1269989-.0024719239 .19999695-.022460938 .24899292-.022460938 .30299378-.022460938 .3789978-.0014648438 .4229889 .09359741 .45498658 .16265869 .45999146 .2407074 .45999146 .31976319M.24899292-.00047302247C.20999146-.00047302247 .15098572 .024551392 .1329956 .12062073 .12199402 .18066406 .12199402 .2727356 .12199402 .3317871 .12199402 .39582826 .12199402 .46188355 .12998963 .5159149 .14898682 .63500979 .22399903 .64401248 .24899292 .64401248 .28199769 .64401248 .34799195 .6259918 .36698915 .52693179 .3769989 .47088624 .3769989 .39482118 .3769989 .3317871 .3769989 .25672914 .3769989 .18867493 .3659973 .12461853 .35099793 .029556275 .2939911-.00047302247 .24899292-.00047302247Z"/>
<path id="font_2_1" d="M.6589966 .23046875C.6759949 .23046875 .69400027 .23046875 .69400027 .25045777 .69400027 .27046205 .6759949 .27046205 .6589966 .27046205H.117996219C.100997928 .27046205 .08299255 .27046205 .08299255 .25045777 .08299255 .23046875 .100997928 .23046875 .117996219 .23046875H.6589966Z"/>
<path id="font_3_1" d="M.19198609 .052993776C.19198609 .08198547 .16799927 .10598755 .13899231 .10598755 .10998535 .10598755 .085998538 .08198547 .085998538 .052993776 .085998538 .023986817 .10998535 0 .13899231 0 .16799927 0 .19198609 .023986817 .19198609 .052993776Z"/>
<clipPath id="clip_4">
<path transform="matrix(.80003997,0,0,-.80008,21.453713,132.95502)" d="M0 0H194.27262V161.39636H0Z"/>
</clipPath>
<path id="font_3_3" d="M.20599365 .3996582H.2999878C.31999208 .3996582 .32998658 .3996582 .32998658 .41966249 .32998658 .43066407 .31999208 .43066407 .3019867 .43066407H.21398926C.25 .5724945 .25498963 .59246829 .25498963 .59846499 .25498963 .61546328 .24299622 .62545779 .22599793 .62545779 .22299195 .62545779 .19499207 .62446597 .18598938 .58947756L.14698792 .43066407H.052993776C.032989503 .43066407 .022994996 .43066407 .022994996 .4116516 .022994996 .3996582 .0309906 .3996582 .050994874 .3996582H.13899231C.066986087 .11608887 .06298828 .099121097 .06298828 .08114624 .06298828 .02722168 .100997928-.0107421879 .15499878-.0107421879 .25698854-.0107421879 .31399537 .13505554 .31399537 .14305115 .31399537 .1530304 .30599977 .1530304 .3019867 .1530304 .29299928 .1530304 .2919922 .15003968 .2869873 .13905335 .24398804 .035217287 .19099427 .011245728 .15699768 .011245728 .13598633 .011245728 .12599182 .024230957 .12599182 .057174684 .12599182 .08114624 .12799073 .088134769 .13198853 .10510254L.20599365 .3996582Z"/>
<path id="font_3_4" d="M.33399964 .30233766C.33999635 .32835389 .36299134 .42037965 .43299867 .42037965 .43798829 .42037965 .46199037 .42037965 .48298646 .40734864 .45498658 .402359 .43499757 .37734986 .43499757 .35334779 .43499757 .33735658 .44599916 .31835938 .47299195 .31835938 .49499513 .31835938 .5269928 .3363495 .5269928 .37635804 .5269928 .42837525 .46798707 .4423828 .43399049 .4423828 .37599183 .4423828 .34098817 .38935853 .32899476 .36634828 .3039856 .43237306 .25 .4423828 .22099304 .4423828 .116989139 .4423828 .05999756 .3133545 .05999756 .28834535 .05999756 .27833558 .069992069 .27833558 .07199097 .27833558 .07998657 .27833558 .08299255 .28033448 .084991458 .28933717 .11898804 .39535523 .18499756 .42037965 .21899414 .42037965 .23799134 .42037965 .272995 .4113617 .272995 .35334779 .272995 .32235719 .2559967 .25532533 .21899414 .11528015 .20298767 .053268434 .16799927 .011245728 .12399292 .011245728 .117996219 .011245728 .09498596 .011245728 .07398987 .024276734 .09899902 .029266358 .12098694 .05027771 .12098694 .07827759 .12098694 .105270389 .09899902 .11328125 .083999637 .11328125 .053985597 .11328125 .0289917 .08728027 .0289917 .055267335 .0289917 .009246826 .07899475-.0107421879 .12298584-.0107421879 .18899536-.0107421879 .22499085 .059280397 .22799683 .0652771 .23999024 .028274537 .27598573-.0107421879 .33599855-.0107421879 .43899537-.0107421879 .49598695 .118270877 .49598695 .14328003 .49598695 .1532898 .4869995 .1532898 .48399354 .1532898 .47499085 .1532898 .47299195 .14929199 .47099305 .14228821 .43798829 .03527832 .36999513 .011245728 .33799745 .011245728 .29899598 .011245728 .2829895 .043273927 .2829895 .07727051 .2829895 .09927368 .2889862 .121276859 .2999878 .16529846L.33399964 .30233766Z"/>
<path id="font_1_1" d="M.33099366-.2400055C.33099366-.23701477 .33099366-.23500061 .31399537-.21800232 .18899536-.0920105 .15699768 .09700012 .15699768 .25 .15699768 .42399598 .19499207 .59799197 .31799317 .72299197 .33099366 .73498538 .33099366 .7369995 .33099366 .73999026 .33099366 .746994 .32699586 .75 .32099916 .75 .31098939 .75 .22099304 .6819916 .1619873 .5549927 .11099243 .44499208 .09899902 .33399964 .09899902 .25 .09899902 .17199707 .10998535 .050994874 .16499329-.06201172 .22499085-.18501282 .31098939-.25 .32099916-.25 .32699586-.25 .33099366-.24700928 .33099366-.2400055Z"/>
<path id="font_1_2" d="M.2889862 .25C.2889862 .32798768 .27799989 .44898988 .22299195 .56199648 .16299439 .68499758 .07699585 .75 .066986087 .75 .06098938 .75 .056991579 .74598696 .056991579 .73999026 .056991579 .7369995 .056991579 .73498538 .07598877 .71699526 .17399597 .6179962 .23098755 .45899964 .23098755 .25 .23098755 .07899475 .19400025-.09700012 .069992069-.2230072 .056991579-.23500061 .056991579-.23701477 .056991579-.2400055 .056991579-.2460022 .06098938-.25 .066986087-.25 .07699585-.25 .16699219-.18200684 .22599793-.055007936 .2769928 .054992677 .2889862 .16600037 .2889862 .25Z"/>
<path id="font_3_2" d="M.18699646 .23144531C.21598816 .23144531 .2899933 .23344422 .33999635 .2544403 .4099884 .28442384 .4149933 .34339906 .4149933 .35740663 .4149933 .40138246 .3769989 .4423828 .30799867 .4423828 .19699097 .4423828 .04598999 .34539796 .04598999 .17037964 .04598999 .06829834 .10499573-.0107421879 .20298767-.0107421879 .34599305-.0107421879 .42999269 .095321658 .42999269 .10733032 .42999269 .113342288 .42399598 .12034607 .41799928 .12034607 .41299439 .12034607 .41099549 .11834717 .40499879 .1103363 .32598878 .011245728 .21699524 .011245728 .20498657 .011245728 .1269989 .011245728 .117996219 .095321658 .117996219 .12734986 .117996219 .13935852 .11898804 .17037964 .13398743 .23144531H.18699646M.13999939 .25343324C.1789856 .40538026 .28199769 .42037965 .30799867 .42037965 .35499574 .42037965 .38198854 .39138795 .38198854 .35740663 .38198854 .25343324 .22200012 .25343324 .18099976 .25343324H.13999939Z"/>
<path id="font_5_1" d="M.74398806 .2263794C.7599945 .2263794 .7839966 .2263794 .7839966 .25038148 .7839966 .27539063 .7609863 .27539063 .74398806 .27539063H.147995C.13198853 .27539063 .10798645 .27539063 .10798645 .25138856 .10798645 .2263794 .1309967 .2263794 .147995 .2263794H.74398806Z"/>
<path id="font_6_1" d="M.31399537 .3856659H.43199159C.45298768 .3856659 .45399476 .3866577 .45899964 .39065553 .46398927 .39465333 .46699525 .4076538 .46699525 .4136505 .46699525 .43066407 .45199586 .43066407 .43499757 .43066407H.32499696L.34599305 .51356509C.35198976 .5395355 .3639984 .5844879 .3639984 .5904846 .3639984 .60746768 .35099793 .62545779 .32699586 .62545779 .30999757 .62545779 .28599549 .6144562 .27799989 .58747866 .272995 .5704956 .2849884 .61746218 .23799134 .43066407H.11898804C.09899902 .43066407 .083999637 .43066407 .083999637 .40264894 .083999637 .3856659 .09799194 .3856659 .115997318 .3856659H.22698975L.16799927 .15104676C.16299439 .1290741 .15499878 .09812927 .15499878 .08615112 .15499878 .02923584 .20799256-.0107421879 .27799989-.0107421879 .39898683-.0107421879 .47299195 .12408447 .47299195 .14405823 .47299195 .15803528 .45599366 .15803528 .45199586 .15803528 .43598939 .15803528 .43399049 .15403748 .42900086 .14105225 .3959961 .06916809 .33399964 .023254395 .28199769 .023254395 .25 .023254395 .23999024 .046218873 .23999024 .076156619 .23999024 .09213257 .24099732 .09513855 .24299622 .10411072L.31399537 .3856659Z"/>
<path id="font_7_1" d="M.19599915 .55078127C.24899292 .53778079 .2939911 .53778079 .30499269 .53778079 .37298585 .53778079 .4229889 .55778506 .44898988 .57177737 .47299195 .583786 .54100039 .6267853 .54100039 .64878848 .54100039 .66378787 .5299988 .66578677 .5269928 .66578677 .5249939 .66578677 .522995 .66578677 .5119934 .66078189 .47399903 .6477814 .4119873 .63378909 .34599305 .63378909 .2889862 .63378909 .23399353 .64378359 .18099976 .66178897 .16999817 .66578677 .16799927 .66578677 .1659851 .66578677 .1519928 .66578677 .1519928 .6537781 .1519928 .63778689V.33763124C.1519928 .32061769 .1519928 .30760194 .17098999 .30760194 .18199158 .30760194 .18299866 .30960084 .19198609 .32061769 .22999573 .36468507 .2829895 .38671876 .35099793 .38671876 .40899659 .38671876 .44099427 .35266114 .45498658 .33163453 .47799684 .2975769 .48298646 .2525177 .48298646 .20446778 .48298646 .16246033 .47898866 .10646057 .43998719 .067489627 .394989 .021530152 .33799745 .01852417 .31599427 .01852417 .25099183 .01852417 .17799378 .04650879 .14698792 .10546875 .18899536 .10845947 .20298767 .13845825 .20298767 .1614685 .20298767 .19346619 .1789856 .21746826 .14698792 .21746826 .125 .21746826 .09098816 .20446778 .09098816 .15846253 .09098816 .0605011 .18699646-.022460938 .31799317-.022460938 .46699525-.022460938 .58898928 .07748413 .58898928 .20146179 .58898928 .3146057 .49198915 .41970826 .35299684 .41970826 .2899933 .41970826 .23899842 .40371705 .19599915 .37068177V.55078127Z"/>
</defs>
<path transform="matrix(.80003997,0,0,-.80008,21.453713,132.95502)" stroke-width=".3985" stroke-linecap="butt" stroke-miterlimit="10" stroke-linejoin="miter" fill="none" stroke="#cbcbcb" d="M51.53317 0V161.39636M103.06636 0V161.39636M154.59955 0V161.39636"/>
<path transform="matrix(.80003997,0,0,-.80008,21.453713,132.95502)" stroke-width=".3985" stroke-linecap="butt" stroke-miterlimit="10" stroke-linejoin="miter" fill="none" stroke="#cbcbcb" d="M0 0H194.27262M0 40.34909H194.27262M0 121.04727H194.27262M0 161.39636H194.27262"/>
<path transform="matrix(.80003997,0,0,-.80008,21.453713,132.95502)" stroke-width=".19925" stroke-linecap="butt" stroke-miterlimit="10" stroke-linejoin="miter" fill="none" stroke="#929292" d="M51.53317 78.5723V82.82404M103.06636 78.5723V82.82404M154.59955 78.5723V82.82404"/>
<path transform="matrix(.80003997,0,0,-.80008,21.453713,132.95502)" stroke-width=".19925" stroke-linecap="butt" stroke-miterlimit="10" stroke-linejoin="miter" fill="none" stroke="#929292" d="M-2.12631 0H2.12631M-2.12631 40.34909H2.12631M-2.12631 121.04727H2.12631M-2.12631 161.39636H2.12631"/>
<path transform="matrix(.80003997,0,0,-.80008,21.453713,132.95502)" stroke-width=".3985" stroke-linecap="butt" stroke-miterlimit="10" stroke-linejoin="miter" fill="none" stroke="#000000" d="M0 80.69818H192.28009"/>
<path transform="matrix(.80003997,0,0,-.80008,175.28546,68.390018)" d="M1.99252 0-1.19551 1.59401 0 0-1.19551-1.59401"/>
<path transform="matrix(.80003997,0,0,-.80008,21.453713,132.95502)" stroke-width=".3985" stroke-linecap="butt" stroke-miterlimit="10" stroke-linejoin="miter" fill="none" stroke="#000000" d="M0 0V159.40384"/>
<path transform="matrix(0,-.80008,-.80003997,-0,21.453713,5.419197)" d="M1.99252 0-1.19551 1.59401 0 0-1.19551-1.59401"/>
<use data-text="5" xlink:href="#font_1_5" transform="matrix(7.9704778,0,0,-7.9708769,60.68927,78.04392)"/>
<use data-text="1" xlink:href="#font_1_4" transform="matrix(7.9704778,0,0,-7.9708769,99.92563,78.04392)"/>
<use data-text="0" xlink:href="#font_1_3" transform="matrix(7.9704778,0,0,-7.9708769,103.910869,78.04392)"/>
<use data-text="1" xlink:href="#font_1_4" transform="matrix(7.9704778,0,0,-7.9708769,141.15409,78.04392)"/>
<use data-text="5" xlink:href="#font_1_5" transform="matrix(7.9704778,0,0,-7.9708769,145.13932,78.04392)"/>
<use data-text="&#x2212;" xlink:href="#font_2_1" transform="matrix(7.9704778,0,0,-7.9708769,6.752182,135.19124)"/>
<use data-text="1" xlink:href="#font_1_4" transform="matrix(7.9704778,0,0,-7.9708769,12.951691,135.19124)"/>
<use data-text="&#x2212;" xlink:href="#font_2_1" transform="matrix(7.9704778,0,0,-7.9708769,.5526657,102.90881)"/>
<use data-text="0" xlink:href="#font_1_3" transform="matrix(7.9704778,0,0,-7.9708769,6.7521746,102.90881)"/>
<use data-text="." xlink:href="#font_3_1" transform="matrix(7.9704778,0,0,-7.9708769,10.737968,102.90881)"/>
<use data-text="5" xlink:href="#font_1_5" transform="matrix(7.9704778,0,0,-7.9708769,12.951675,102.90881)"/>
<use data-text="0" xlink:href="#font_1_3" transform="matrix(7.9704778,0,0,-7.9708769,6.752182,38.675996)"/>
<use data-text="." xlink:href="#font_3_1" transform="matrix(7.9704778,0,0,-7.9708769,10.737976,38.675996)"/>
<use data-text="5" xlink:href="#font_1_5" transform="matrix(7.9704778,0,0,-7.9708769,12.951691,38.675996)"/>
<use data-text="1" xlink:href="#font_1_4" transform="matrix(7.9704778,0,0,-7.9708769,12.95089,6.3935549)"/>
<g clip-path="url(#clip_4)">
<path transform="matrix(.80003997,0,0,-.80008,21.453713,132.95502)" stroke-width=".3985" stroke-linecap="butt" stroke-miterlimit="10" stroke-linejoin="miter" fill="none" stroke="#0000ff" d="M0 0C0 0 .35178 .34943 .48688 .79149 .62198 1.23354 .83868 2.31477 .97379 3.18614 1.10889 4.05753 1.32558 5.79959 1.46068 7.07187 1.59578 8.34413 1.81247 10.71373 1.94757 12.3558 2.08266 13.9979 2.29935 16.9359 2.43445 18.90694 2.56955 20.87798 2.78625 24.30672 2.92136 26.56177 3.05646 28.81682 3.27316 32.67036 3.40826 35.15979 3.54337 37.64923 3.76006 41.83507 3.89516 44.50394 4.03024 47.1728 4.24695 51.60307 4.38205 54.39525 4.51715 57.18744 4.73384 61.77097 4.86894 64.62805 5.00404 67.48515 5.22073 72.12367 5.35583 74.98726 5.49094 77.85086 5.70764 82.45366 5.84274 85.2669 5.97783 88.08015 6.19452 92.55544 6.32962 95.26323 6.46472 97.97104 6.68143 102.23303 6.81653 104.78293 6.95163 107.33281 7.16832 111.29645 7.30342 113.64107 7.43852 115.9857 7.65523 119.58528 7.79033 121.6814 7.92542 123.77753 8.14212 126.9383 8.27722 128.74857 8.41232 130.55886 8.629 133.23548 8.7641 134.72869 8.8992 136.2219 9.1159 138.35758 9.251 139.51064 9.38611 140.66368 9.6028 142.24236 9.7379 143.03916 9.87299 143.83594 10.08969 144.82352 10.2248 145.25347 10.3599 145.68343 10.5766 146.07523 10.7117 146.13809 10.8468 146.20095 11.06349 146.00608 11.1986 145.70653 11.3337 145.407 11.5504 144.62889 11.6855 143.97914 11.82059 143.32939 12.03726 142.00296 12.17236 141.02352 12.30746 140.04407 12.52417 138.20407 12.65927 136.91989 12.79437 135.63573 13.01106 133.3254 13.14616 131.768 13.28127 130.21062 13.49797 127.48898 13.63307 125.6953 13.76817 123.90163 13.98486 120.83018 14.11996 118.84033 14.25507 116.85048 14.47176 113.49684 14.60686 111.35387 14.74196 109.21088 14.95866 105.64616 15.09377 103.39522 15.22887 101.14426 15.44556 97.4424 15.58066 95.13052 15.71576 92.81865 15.93243 89.05757 16.06754 86.73285 16.20264 84.40811 16.41934 80.66678 16.55444 78.37537 16.68954 76.08397 16.90623 72.43105 17.04134 70.21785 17.17644 68.00465 17.39314 64.51678 17.52824 62.42413 17.66335 60.3315 17.88002 57.06729 18.01512 55.13553 18.15022 53.20377 18.36693 50.23628 18.50203 48.5013 18.63713 46.76631 18.85384 44.13963 18.98894 42.63095 19.12404 41.12225 19.34071 38.88417 19.47581 37.62766 19.61092 36.37114 19.8276 34.55789 19.9627 33.57483 20.09781 32.59175 20.3145 31.23737 20.4496 30.54234 20.5847 29.84734 20.8014 28.96394 20.93651 28.56555 21.07161 28.16718 21.28831 27.77058 21.42342 27.67102 21.55852 27.57144 21.77519 27.6534 21.9103 27.84782 22.0454 28.04227 22.2621 28.59238 22.3972 29.07239 22.5323 29.55241 22.74898 30.55692 22.88408 31.30751 23.01918 32.0581 23.23589 33.48091 23.37099 34.4822 23.50609 35.48349 23.72278 37.2966 23.85786 38.52423 23.99297 39.75188 24.20967 41.90521 24.34477 43.33017 24.47987 44.75513 24.69658 47.20433 24.83168 48.7944 24.96678 50.38449 25.18347 53.07013 25.31857 54.79044 25.45367 56.51073 25.67038 59.37941 25.80547 61.19316 25.94057 63.0069 26.15724 65.99374 26.29234 67.86273 26.42744 69.73172 26.64415 72.77737 26.77925 74.66359 26.91435 76.54979 27.13106 79.59158 27.26616 81.45726 27.40126 83.32294 27.61795 86.30191 27.75304 88.11018 27.88814 89.91846 28.10484 92.7746 28.23994 94.4901 28.37505 96.2056 28.59174 98.8835 28.72684 100.4743 28.86194 102.06512 29.07864 104.51955 29.21375 105.9556 29.34885 107.39163 29.56554 109.56892 29.70062 110.8243 29.83572 112.07968 30.05241 113.94936 30.18752 115.00357 30.32262 116.05779 30.53932 117.58728 30.67442 118.42235 30.80952 119.25743 31.02621 120.41856 31.16132 121.02225 31.29642 121.62593 31.51312 122.4092 31.64821 122.77338 31.78331 123.13756 32.00002 123.52626 32.13512 123.64703 32.27022 123.76779 32.48691 123.76181 32.62201 123.6438 32.75711 123.52579 32.9738 123.1476 33.1089 122.7964 33.244 122.4452 33.4607 121.68665 33.59578 121.11258 33.73088 120.5385 33.94759 119.43806 34.08269 118.65886 34.21779 117.87964 34.43448 116.46242 34.56958 115.49649 34.70468 114.53056 34.92139 112.82756 35.05649 111.69699 35.19159 110.5664 35.4083 108.61714 35.5434 107.34811 35.67848 106.07907 35.89517 103.93018 36.03027 102.55066 36.16537 101.17113 36.38208 98.86595 36.51718 97.4054 36.65228 95.94482 36.86896 93.53459 37.00406 92.02393 37.13916 90.51326 37.35587 88.0472 37.49097 86.51749 37.62605 84.9878 37.84276 82.5168 37.97786 80.9989 38.11296 79.481 38.32965 77.05388 38.46475 75.57742 38.59985 74.10095 38.81656 71.76375 38.95166 70.35757 39.08676 68.9514 39.30345 66.75136 39.43855 65.44267 39.57364 64.13397 39.79034 62.11273 39.92545 60.92535 40.06055 59.73798 40.27724 57.92944 40.41234 56.88481 40.54744 55.84018 40.76413 54.27917 40.89923 53.39632 41.03433 52.51346 41.25104 51.22913 41.38614 50.52177 41.52122 49.81442 41.73792 48.8193 41.87302 48.29825 42.00812 47.77718 42.22482 47.09418 42.35992 46.76628 42.49503 46.43839 42.71173 46.06671 42.84683 45.93492 42.98193 45.80315 43.19862 45.75209 43.33372 45.81642 43.46881 45.88074 43.6855 46.14442 43.8206 46.39857 43.9557 46.65273 44.1724 47.21263 44.3075 47.64821 44.4426 48.08379 44.6593 48.93271 44.7944 49.538 44.9295 50.14328 45.1462 51.25136 45.2813 52.01071 45.41638 52.77007 45.63309 54.11472 45.76819 55.01096 45.90329 55.90718 46.12 57.45822 46.2551 58.47014 46.3902 59.48207 46.60689 61.19897 46.74199 62.30417 46.87709 63.40938 47.09378 65.26039 47.22888 66.43573 47.36397 67.61105 47.58066 69.55505 47.71576 70.77518 47.85086 71.9953 48.06757 73.98999 48.20267 75.2296 48.33777 76.4692 48.55446 78.47507 48.68958 79.70943 48.82469 80.94377 49.0414 82.92152 49.1765 84.12607 49.3116 85.33061 49.52824 87.23943 49.66335 88.39099 49.79845 89.54257 50.01515 91.34991 50.15025 92.4259 50.28535 93.5019 50.50203 95.16562 50.63713 96.1461 50.77223 97.12659 50.98894 98.6249 51.12405 99.49265 51.25917 100.36038 51.47586 101.66168 51.61096 102.40025 51.74606 103.13884 51.96272 104.21773 52.09782 104.81578 52.23293 105.41382 52.44965 106.26184 52.58475 106.71057 52.71985 107.1593 52.93651 107.75711 53.07161 108.04999 53.20671 108.34286 53.42342 108.68866 53.55853 108.82147 53.69365 108.95427 53.91034 109.03352 54.04544 109.0072 54.18054 108.9809 54.3972 108.81177 54.5323 108.63177 54.6674 108.45178 54.88412 108.03836 55.01923 107.70995 55.15433 107.38153 55.37097 106.73412 55.50607 106.26476 55.64117 105.7954 55.8579 104.92357 55.99301 104.32712 56.12813 103.73065 56.34483 102.67484 56.47993 101.9658 56.61504 101.25677 56.8317 100.02327 56.9668 99.21681 57.1019 98.41037 57.31859 97.03847 57.45369 96.15337 57.58879 95.26828 57.80545 93.78246 57.94055 92.8376 58.07565 91.89276 58.29236 90.32806 58.42747 89.34349 58.56259 88.35892 58.77931 86.74567 58.91441 85.74146 59.04951 84.73724 59.26617 83.1091 59.40126 82.10573 59.53636 81.10236 59.75308 79.49194 59.88818 78.50975 60.02328 77.52754 60.23994 75.96877 60.37505 75.02666 60.51015 74.08453 60.72685 72.60364 60.86197 71.71965 60.99709 70.83565 61.21379 69.46492 61.34888 68.65541 61.48398 67.8459 61.70064 66.60486 61.83574 65.88524 61.97084 65.16563 62.18756 64.08574 62.32266 63.46881 62.45776 62.85188 62.67442 61.94456 62.80952 61.43886 62.94463 60.93317 63.16133 60.20895 63.29643 59.82408 63.43155 59.43921 63.64827 58.92337 63.78337 58.66498 63.91847 58.40657 64.13513 58.09177 64.27023 57.96161 64.40533 57.83145 64.62204 57.72737 64.75714 57.72687 64.89224 57.72635 65.1089 57.83115 65.24399 57.95782 65.37909 58.0845 65.5958 58.39209 65.73091 58.6399 65.86603 58.8877 66.08275 59.38216 66.21785 59.74387 66.35295 60.10556 66.5696 60.77963 66.7047 61.24687 66.8398 61.71413 67.05653 62.55095 67.19162 63.11148 67.32672 63.672 67.54338 64.64587 67.67848 65.28677 67.81358 65.92767 68.03027 67.0227 68.16539 67.73065 68.3005 68.43861 68.51723 69.6298 68.65233 70.38931 68.78743 71.14882 69.00407 72.41002 69.13916 73.20474 69.27426 73.99945 69.491 75.3041 69.6261 76.11711 69.7612 76.93011 69.97786 78.24959 70.11296 79.06447 70.24806 79.87933 70.46477 81.18947 70.59988 81.99016 70.735 82.79085 70.9517 84.06477 71.08679 84.83534 71.2219 85.60593 71.43854 86.81798 71.57364 87.54398 71.70874 88.26997 71.92548 89.40088 72.06058 90.0679 72.19568 90.73491 72.41234 91.7553 72.54744 92.35143 72.68254 92.94756 72.89925 93.84856 73.03436 94.3645 73.16946 94.88043 73.38618 95.64459 73.52129 96.07002 73.65639 96.49545 73.87303 97.10214 74.00813 97.43076 74.14323 97.75935 74.35997 98.21112 74.49507 98.43849 74.63017 98.66585 74.8468 98.94676 74.9819 99.0695 75.11699 99.19225 75.33371 99.3053 75.46883 99.32314 75.60394 99.34097 75.82066 99.28387 75.95576 99.19806 76.09087 99.11224 76.30751 98.88925 76.44261 98.70462 76.57771 98.51997 76.79445 98.14528 76.92955 97.86726 77.06464 97.58925 77.28128 97.06587 77.41638 96.70079 77.55148 96.33572 77.7682 95.6791 77.90332 95.23595 78.03844 94.79282 78.25514 94.0169 78.39024 93.5069 78.52534 92.99687 78.74199 92.12633 78.87709 91.56013 79.01218 90.99396 79.22891 90.03632 79.36401 89.42616 79.49911 88.81601 79.71576 87.80286 79.85086 87.16254 79.98596 86.52223 80.20268 85.46901 80.3378 84.81122 80.47292 84.15343 80.68964 83.08313 80.82474 82.42165 80.95982 81.76016 81.17647 80.69559 81.31157 80.04364 81.44667 79.3917 81.66339 78.35263 81.7985 77.7228 81.9336 77.09297 82.15024 76.09975 82.28534 75.5042 82.42044 74.90863 82.63716 73.9803 82.77228 73.43047 82.90738 72.88062 83.1241 72.03578 83.2592 71.5413 83.3943 71.04683 83.61095 70.29616 83.74605 69.8666 83.88115 69.43704 84.09789 68.80278 84.23299 68.44525 84.36809 68.08774 84.58473 67.57024 84.71983 67.28981 84.85493 67.0094 85.07162 66.62134 85.20674 66.4242 85.34186 66.22707 85.55858 65.98244 85.69368 65.86893 85.82878 65.75543 86.04543 65.63533 86.18053 65.60611 86.31563 65.57689 86.53236 65.60207 86.66747 65.65831 86.80257 65.71455 87.0192 65.87494 87.1543 66.01157 87.2894 66.14821 87.50612 66.43025 87.64124 66.64316 87.77635 66.85606 87.99306 67.26146 88.12816 67.54605 88.26326 67.83063 88.47992 68.34512 88.61502 68.6943 88.75012 69.0435 88.96683 69.65726 89.10193 70.06282 89.23703 70.4684 89.45367 71.16534 89.58878 71.61745 89.72388 72.06953 89.9406 72.83232 90.07571 73.32126 90.21083 73.81021 90.42755 74.62535 90.56265 75.14142 90.69775 75.6575 90.91438 76.5088 91.04948 77.0408 91.18459 77.57281 91.40132 78.43915 91.53642 78.97577 91.67152 79.5124 91.88817 80.37764 92.02327 80.90855 92.15837 81.43947 92.37508 82.28764 92.5102 82.80228 92.64531 83.31691 92.86201 84.12978 92.99712 84.61774 93.13222 85.10568 93.34886 85.86653 93.48396 86.31914 93.61906 86.77174 93.8358 87.47093 93.9709 87.87993 94.106 88.28891 94.32265 88.90935 94.45775 89.26694 94.59285 89.62453 94.80957 90.15718 94.94467 90.4573 95.07979 90.75745 95.29648 91.19278 95.43158 91.43015 95.56668 91.66751 95.78334 91.99605 95.91844 92.16809 96.05354 92.34015 96.27028 92.56638 96.40538 92.67023 96.54048 92.7741 96.75713 92.88208 96.89221 92.91672 97.02731 92.95137 97.24403 92.95287 97.37915 92.91998 97.51427 92.8871 97.73097 92.77916 97.86607 92.67969 98.00117 92.58023 98.21783 92.3661 98.35294 92.20308 98.48804 92.04005 98.70477 91.72672 98.83986 91.50465 98.97496 91.2826 99.1916 90.87799 99.3267 90.6026 99.4618 90.3272 99.67851 89.84106 99.81363 89.51968 99.94875 89.1983 100.16545 88.64711 100.30055 88.28621 100.43565 87.92532 100.65231 87.31123 100.7874 86.91856 100.9225 86.5259 101.13924 85.8714 101.27434 85.45612 101.40944 85.04085 101.62608 84.35529 101.76118 83.92554 101.89629 83.49579 102.113 82.79408 102.24812 82.35873 102.38324 81.92337 102.59993 81.21977 102.73502 80.78777 102.87012 80.35574 103.08678 79.66508 103.22188 79.24509 103.35698 78.8251 103.5737 78.161 103.7088 77.76076 103.8439 77.36052 104.06056 76.73274 104.19566 76.36035 104.33076 75.98796 104.54749 75.41473 104.68259 75.07683 104.8177 74.73894 105.03441 74.22266 105.16951 73.92496 105.30461 73.62726 105.52127 73.18199 105.65637 72.93114 105.79147 72.68027 106.00818 72.31744 106.14328 72.11682 106.27838 71.9162 106.49504 71.63432 106.63014 71.48515 106.76523 71.33597 106.98195 71.13559 107.11707 71.04156 107.25218 70.94754 107.46889 70.84442 107.60399 70.80739 107.73909 70.77036 107.95575 70.75706 108.09085 70.77464 108.22595 70.79222 108.44267 70.86188 108.57777 70.9341 108.71286 71.00632 108.92952 71.17099 109.06462 71.2952 109.19972 71.41942 109.41644 71.65791 109.55156 71.8294 109.68668 72.0009 109.90337 72.3155 110.03847 72.53122 110.17357 72.74693 110.39023 73.12917 110.52533 73.38414 110.66042 73.6391 110.87714 74.08081 111.01224 74.36894 111.14734 74.65706 111.364 75.1462 111.4991 75.46082 111.6342 75.77544 111.85092 76.30205 111.98604 76.63655 112.12115 76.97105 112.33786 77.52446 112.47296 77.87173 112.60805 78.21901 112.82469 78.78694 112.9598 79.13956 113.0949 79.49219 113.31161 80.06213 113.44672 80.41325 113.58182 80.76437 113.79848 81.32759 113.93358 81.67027 114.06868 82.01297 114.28539 82.55566 114.4205 82.88315 114.5556 83.21065 114.77232 83.7244 114.90742 84.03069 115.04253 84.33698 115.25919 84.81163 115.39429 85.09074 115.52939 85.36984 115.74611 85.79556 115.88121 86.04239 116.01631 86.2892 116.23297 86.65947 116.36807 86.8697 116.50316 87.07996 116.71985 87.3877 116.85497 87.5577 116.99008 87.72768 117.2068 87.96687 117.3419 88.09497 117.477 88.22307 117.69366 88.39755 117.82877 88.48096 117.96387 88.56438 118.18059 88.65814 118.31569 88.6962 118.45078 88.73424 118.66743 88.76187 118.80254 88.75528 118.93764 88.7487 119.15434 88.70001 119.28946 88.6487 119.42458 88.5974 119.64128 88.4791 119.77638 88.38548 119.91148 88.29187 120.12814 88.1072 120.26324 87.97392 120.39835 87.84064 120.61505 87.59439 120.75015 87.42487 120.88525 87.25536 121.10191 86.95384 121.23701 86.75212 121.37212 86.55038 121.58882 86.20029 121.72394 85.97092 121.85905 85.74155 122.07578 85.35074 122.21088 85.09892 122.34598 84.84709 122.5626 84.4248 122.69771 84.1559 122.83281 83.887 123.04953 83.44104 123.18463 83.16081 123.31973 82.8806 123.5364 82.42188 123.67151 82.13618 123.80661 81.8505 124.0233 81.38728 124.15842 81.10173 124.29353 80.81618 124.51024 80.35768 124.64534 80.0781 124.78044 79.79852 124.99709 79.35481 125.13219 79.08667 125.26729 78.81854 125.48402 78.39716 125.61913 78.14554 125.75423 77.8939 125.97089 77.50345 126.10599 77.27309 126.24109 77.04274 126.45778 76.69019 126.5929 76.48526 126.72801 76.28035 126.94472 75.9719 127.07982 75.79608 127.21492 75.62027 127.43156 75.36182 127.56667 75.21806 127.70177 75.0743 127.9185 74.86943 128.0536 74.75992 128.1887 74.6504 128.40537 74.50241 128.54045 74.42873 128.67555 74.35504 128.89226 74.26588 129.02738 74.22884 129.16249 74.19179 129.37921 74.16199 129.51432 74.16165 129.64942 74.16133 129.86606 74.19066 130.00116 74.2264 130.13626 74.26212 130.35298 74.34883 130.48807 74.41914 130.62317 74.48947 130.83982 74.63042 130.97492 74.7333 131.11002 74.83621 131.32674 75.028 131.46186 75.16083 131.59697 75.29364 131.81369 75.53108 131.94879 75.6906 132.0839 75.85011 132.30054 76.12794 132.43563 76.3105 132.57073 76.49306 132.78746 76.8049 132.92256 77.00638 133.05767 77.20784 133.2743 77.54659 133.40941 77.76263 133.54451 77.97867 133.76123 78.3374 133.89635 78.56346 134.03147 78.78954 134.24817 79.16069 134.38326 79.39204 134.51836 79.62341 134.735 79.99913 134.8701 80.23103 135.0052 80.46294 135.22194 80.8357 135.35704 81.06352 135.49214 81.29135 135.70879 81.65384 135.84389 81.87317 135.97899 82.0925 136.19571 82.43777 136.33081 82.64438 136.46593 82.85098 136.68264 83.1724 136.81774 83.36234 136.95284 83.55229 137.1695 83.84366 137.3046 84.0135 137.4397 84.18333 137.65642 84.43968 137.79152 84.58643 137.92662 84.73317 138.14327 84.95006 138.27835 85.07118 138.41345 85.19229 138.63018 85.36586 138.76529 85.4594 138.9004 85.55295 139.11713 85.68077 139.25223 85.74542 139.38733 85.81009 139.60398 85.89043 139.73908 85.92542 139.87418 85.96042 140.09091 85.99251 140.226 85.99771 140.3611 86.0029 140.57775 85.9871 140.71285 85.96298 140.84795 85.93886 141.06465 85.87622 141.19977 85.82379 141.33489 85.77136 141.5516 85.66425 141.6867 85.5851 141.82181 85.50594 142.03845 85.35712 142.17356 85.25327 142.30864 85.14941 142.52538 84.96255 142.66048 84.8366 142.79558 84.71063 143.01222 84.49051 143.14733 84.34535 143.28243 84.20021 143.49915 83.95155 143.63426 83.79045 143.76938 83.62936 143.98609 83.35776 144.12119 83.18425 144.25627 83.01073 144.47292 82.72209 144.60802 82.53986 144.74312 82.3576 144.95986 82.05786 145.09496 81.87067 145.23006 81.68349 145.4467 81.37895 145.5818 81.19069 145.7169 81.00243 145.93363 80.69931 146.06874 80.51373 146.20384 80.32814 146.42057 80.0324 146.55567 79.8531 146.69077 79.6738 146.90741 79.39104 147.04251 79.22151 147.17761 79.052 147.39435 78.7878 147.52945 78.63127 147.66455 78.47473 147.88118 78.23395 148.01628 78.0933 148.15137 77.95265 148.36809 77.73975 148.5032 77.61746 148.63832 77.49518 148.85504 77.3137 148.99015 77.21188 149.12525 77.11006 149.34189 76.96323 149.47699 76.88353 149.61209 76.80382 149.82883 76.69376 149.96393 76.63734 150.09902 76.58093 150.31566 76.50932 150.45076 76.47691 150.58586 76.4445 150.80258 76.41193 150.9377 76.4037 151.07282 76.39548 151.2895 76.40192 151.4246 76.41756 151.55971 76.4332 151.77637 76.47774 151.91147 76.51651 152.04656 76.55527 152.26329 76.63635 152.39839 76.69704 152.5335 76.75774 152.75014 76.8729 152.88524 76.9539 153.02034 77.0349 153.23706 77.18153 153.37218 77.28085 153.5073 77.38016 153.724 77.55443 153.8591 77.66971 153.99419 77.78499 154.21085 77.98299 154.34595 78.11168 154.48105 78.24039 154.69777 78.45805 154.83287 78.5973 154.96797 78.73656 155.18462 78.96849 155.31972 79.11533 155.45482 79.26216 155.67154 79.50426 155.80666 79.65564 155.94178 79.80702 156.15847 80.05367 156.29357 80.2064 156.42867 80.35915 156.64533 80.60541 156.78043 80.7565 156.91553 80.9076 157.13227 81.14897 157.26737 81.29544 157.40247 81.44191 157.61911 81.67322 157.75421 81.8122 157.88932 81.95117 158.106 82.16821 158.24112 82.2971 158.37624 82.426 158.59294 82.62483 158.72805 82.74121 158.86315 82.8576 159.0798 83.03418 159.2149 83.13597 159.35 83.23775 159.56673 83.38937 159.70183 83.47484 159.83693 83.56029 160.05358 83.6842 160.18868 83.75192 160.32378 83.81963 160.5405 83.9139 160.67562 83.96288 160.81073 84.01186 161.02742 84.07535 161.16252 84.10493 161.29763 84.13452 161.5143 84.16621 161.6494 84.17618 161.7845 84.18613 162.00119 84.1862 162.13629 84.17674 162.2714 84.16727 162.48805 84.13618 162.62316 84.1078 162.75826 84.07944 162.97498 84.01855 163.11009 83.97223 163.24521 83.92589 163.46192 83.83687 163.59702 83.77382 163.73212 83.71078 163.94878 83.596 164.08386 83.5178 164.21897 83.43962 164.43569 83.30176 164.57079 83.21028 164.70589 83.11882 164.92255 82.96115 165.05765 82.85846 165.19275 82.75578 165.40946 82.58179 165.54457 82.47014 165.67969 82.35847 165.8964 82.17186 166.03148 82.05362 166.16658 81.93538 166.38324 81.74017 166.51834 81.61786 166.65345 81.49554 166.87017 81.29584 167.00527 81.17197 167.14037 81.04808 167.35703 80.84795 167.49213 80.725 167.62723 80.60207 167.84395 80.40544 167.97905 80.28587 168.11417 80.16629 168.33086 79.977 168.46596 79.86311 168.60106 79.74922 168.81772 79.57098 168.95282 79.46495 169.08792 79.35892 169.30464 79.19507 169.43975 79.09886 169.57485 79.00267 169.7915 78.85617 169.92659 78.7715 170.06169 78.68684 170.2784 78.5603 170.41352 78.4887 170.54863 78.41707 170.76535 78.31271 170.90045 78.25533 171.03556 78.19794 171.25222 78.11737 171.38732 78.07507 171.52242 78.03278 171.73914 77.97714 171.87422 77.9505 172.00933 77.92387 172.22599 77.89383 172.36109 77.8831 172.49619 77.87238 172.71288 77.86809 172.84799 77.87314 172.98311 77.8782 173.19983 77.89917 173.33493 77.91963 173.47003 77.9401 173.68669 77.98553 173.82178 78.02072 173.95688 78.05592 174.1736 78.1244 174.3087 78.17336 174.4438 78.2223 174.66046 78.3121 174.79557 78.37357 174.93067 78.43503 175.14737 78.54388 175.28249 78.6164 175.4176 78.68892 175.63431 78.8143 175.7694 78.89621 175.9045 78.97812 176.12116 79.11725 176.25626 79.20674 176.39136 79.29623 176.60808 79.44609 176.74318 79.54123 176.87828 79.63637 177.09494 79.79372 177.23004 79.8925 177.36515 79.99129 177.58185 80.15288 177.71697 80.25327 177.85207 80.35364 178.06879 80.5161 178.20389 80.61607 178.33899 80.71603 178.55565 80.87627 178.69075 80.97383 178.82585 81.0714 179.04256 81.22609 179.17766 81.31935 179.31276 81.41263 179.52942 81.55888 179.66452 81.64606 179.7996 81.73325 180.01631 81.86826 180.15143 81.94772 180.28655 82.02718 180.50327 82.14853 180.63837 82.21884 180.77347 82.28915 180.99011 82.39455 181.12522 82.45445 181.26032 82.51437 181.47705 82.60213 181.61215 82.65067 181.74724 82.6992 181.9639 82.76793 182.099 82.80432 182.2341 82.84071 182.4508 82.88927 182.58592 82.91301 182.72104 82.93675 182.93775 82.96461 183.07285 82.97548 183.20795 82.98633 183.42459 82.99327 183.5597 82.99129 183.69478 82.98929 183.91152 82.97562 184.04662 82.96104 184.18172 82.94649 184.39838 82.91292 184.53348 82.88632 184.66858 82.85971 184.88529 82.80716 185.0204 82.76926 185.15552 82.73137 185.37224 82.66136 185.50734 82.61314 185.64243 82.56491 185.85906 82.47903 185.99416 82.42165 186.12926 82.36427 186.346 82.26468 186.4811 82.19945 186.6162 82.13422 186.83286 82.02315 186.96796 81.95149 187.10306 81.87982 187.31977 81.75948 187.45488 81.68294 187.58998 81.60641 187.8067 81.47963 187.9418 81.3999 188.0769 81.32016 188.29355 81.18958 188.42865 81.10826 188.56375 81.02695 188.78049 80.89497 188.91559 80.81374 189.05069 80.7325 189.26734 80.6022 189.40244 80.52264 189.53754 80.44307 189.75423 80.31659 189.88935 80.24025 190.02446 80.1639 190.24118 80.04398 190.37628 79.97235 190.51139 79.90074 190.72803 79.7896 190.86313 79.72403 190.99823 79.65846 191.21497 79.55804 191.35007 79.49971 191.48517 79.44138 191.7018 79.35365 191.8369 79.3036 191.972 79.25356 192.18872 79.17989 192.32384 79.13892 192.45896 79.09795 192.67566 79.03952 192.81076 79.00832 192.94586 78.97713 193.1625 78.935 193.2976 78.91403 193.43271 78.89305 193.64943 78.86765 193.78453 78.85707 193.91963 78.84651 194.27138 78.83784 194.27138 78.83784"/>
<path transform="matrix(.80003997,0,0,-.80008,21.453713,132.95502)" stroke-width=".3985" stroke-linecap="butt" stroke-dasharray="2.98883,2.98883" stroke-miterlimit="10" stroke-linejoin="miter" fill="none" stroke="#000000" d="M0 0 .97623 1.49854 1.95247 2.9834 2.92871 4.44484 3.90497 5.8732 4.8812 7.27734 5.85745 8.65727 6.8337 10.00656 7.80995 11.33002 8.7862 12.63731 9.76244 13.91316 10.73868 15.16399 11.7149 16.39948 12.69116 17.60188 13.6674 18.78813 14.64366 19.95018 15.6199 21.08804 16.59615 22.21136 17.5724 23.30803 18.54863 24.38214 19.52489 25.44008 20.50113 26.48029 21.47736 27.49709 22.45361 28.49129 23.42986 29.47499 24.4061 30.4353 25.38234 31.37947 26.3586 32.30104 27.33484 33.21213 28.31108 34.09981 29.28732 34.97136 30.26358 35.83644 31.2398 36.67569 32.21605 37.50688 33.1923 38.31386 34.16853 39.10551 35.14479 39.88748 36.12103 40.65413 37.09729 41.40543 38.07353 42.14865 39.04977 42.86606 40.02603 43.57701 41.00226 44.27101 41.9785 44.95694 42.95474 45.62674 43.93098 46.28926 44.90724 46.93405 45.88348 47.5635 46.85974 48.18486 47.83597 48.79817 48.81223 49.39534 49.78847 49.98605 50.76471 50.5582 51.74097 51.1231 52.7172 51.68152 53.69345 52.22946 54.66968 52.76207 55.64594 53.2866 56.62218 53.80388 57.59842 54.30421 58.57466 54.79646 59.55092 55.28874 60.52716 55.76566 61.5034 56.2337 62.47964 56.69289 63.45589 57.13753 64.43213 57.58055 65.40837 58.01634 66.38463 58.44484 67.36087 58.8564 68.33711 59.26877 69.31337 59.67145 70.2896 60.06686 71.26585 60.45502 72.2421 60.8343 73.21832 61.20554 74.19458 61.56866 75.17082 61.9326 76.14708 62.28688 77.1233 62.63388 78.09956 62.96555 79.0758 63.30368 80.05205 63.62648 81.0283 63.94926 82.00455 64.26479 82.98079 64.57144 83.95702 64.8781 84.93327 65.16861 85.90952 65.45912 86.88576 65.74963 87.862 66.03288 88.83826 66.30727 89.8145 66.57356 90.79074 66.83907 91.767 67.0981 92.74324 67.35632 93.71947 67.60649 94.69571 67.8486 95.67197 68.09068 96.64821 68.33278 97.62445 68.55792 98.60075 68.79356 99.5769 69.01146 100.55322 69.22932 101.52937 69.44722 102.50568 69.65623 103.482 69.86604 104.45813 70.0678 105.43443 70.26955 106.41058 70.46402 107.3869 70.6577 108.36319 70.84329 109.33936 71.0281 110.31567 71.21451 111.29182 71.39124 112.26813 71.56151 113.24443 71.73906 114.2206 71.90045 115.19687 72.06992 116.17303 72.23131 117.14934 72.39272 118.12564 72.54684 119.1018 72.69759 120.07811 72.84763 121.05428 72.99503 122.03058 73.13951 123.00688 73.28142 123.98303 73.4205 124.95932 73.5571 125.93549 73.69115 126.91179 73.82266 127.88809 73.95161 128.86426 74.07826 129.84056 74.20245 130.81671 74.32442 131.79303 74.44395 132.76934 74.56137 133.74549 74.67645 134.72179 74.78955 135.69794 74.90038 136.67424 75.0092 137.65053 75.11598 138.62671 75.22072 139.60301 75.32355 140.57917 75.42435 141.55548 75.52336 142.53177 75.62044 143.50794 75.71577 144.48423 75.80923 145.4604 75.90097 146.43668 75.991 147.41298 76.07938 148.38916 76.166 149.36545 76.25108 150.34162 76.3345 151.31792 76.41643 152.29422 76.49672 153.27037 76.5756 154.24668 76.65292 155.22284 76.72888 156.19913 76.8033 157.17543 76.87645 158.1516 76.94815 159.1279 77.01857 160.10405 77.08757 161.08036 77.15533 162.05667 77.22183 163.03282 77.28706 164.00913 77.35106 164.98528 77.41388 165.9616 77.47551 166.93787 77.53598 167.91403 77.59529 168.89035 77.65353 169.8665 77.71068 170.8428 77.76675 171.8191 77.8218 172.79528 77.87575 173.77156 77.92873 174.74773 77.98067 175.72403 78.03172 176.70032 78.0817 177.67649 78.13083 178.65279 78.179 179.62895 78.22626 180.60524 78.27266 181.58156 78.31818 182.55771 78.36282 183.53401 78.40668 184.51016 78.44965 185.48648 78.49188 186.46279 78.53326 187.43892 78.57391 188.41524 78.61374 189.39139 78.65286 190.36769 78.69124 191.34401 78.72893 192.32016 78.76585 193.29647 78.80211 194.27262 78.83769"/>
<path transform="matrix(.80003997,0,0,-.80008,21.453713,132.95502)" stroke-width=".3985" stroke-linecap="butt" stroke-dasharray="2.98883,2.98883" stroke-miterlimit="10" stroke-linejoin="miter" fill="none" stroke="#000000" d="M0 161.39636 .97623 159.8978 1.95247 158.41294 2.92871 156.95149 3.90497 155.52313 4.8812 154.11899 5.85745 152.73906 6.8337 151.38977 7.80995 150.06632 8.7862 148.75902 9.76244 147.48317 10.73868 146.23235 11.7149 144.99686 12.69116 143.79447 13.6674 142.6082 14.64366 141.44615 15.6199 140.30829 16.59615 139.18497 17.5724 138.0883 18.54863 137.01419 19.52489 135.95626 20.50113 134.91605 21.47736 133.89925 22.45361 132.90505 23.42986 131.92134 24.4061 130.96105 25.38234 130.01686 26.3586 129.0953 27.33484 128.1842 28.31108 127.29652 29.28732 126.42499 30.26358 125.55989 31.2398 124.72064 32.21605 123.88947 33.1923 123.08247 34.16853 122.29082 35.14479 121.50887 36.12103 120.7422 37.09729 119.9909 38.07353 119.24768 39.04977 118.53027 40.02603 117.81934 41.00226 117.12532 41.9785 116.43939 42.95474 115.76959 43.93098 115.10707 44.90724 114.46228 45.88348 113.83282 46.85974 113.21147 47.83597 112.59816 48.81223 112.00099 49.78847 111.41028 50.76471 110.83813 51.74097 110.27324 52.7172 109.71481 53.69345 109.16687 54.66968 108.63426 55.64594 108.10973 56.62218 107.59245 57.59842 107.09212 58.57466 106.59987 59.55092 106.10759 60.52716 105.63068 61.5034 105.16263 62.47964 104.70345 63.45589 104.2588 64.43213 103.81578 65.40837 103.38 66.38463 102.95149 67.36087 102.53993 68.33711 102.12756 69.31337 101.72488 70.2896 101.32947 71.26585 100.94131 72.2421 100.56203 73.21832 100.19081 74.19458 99.82768 75.17082 99.46373 76.14708 99.10945 77.1233 98.76245 78.09956 98.43079 79.0758 98.09265 80.05205 97.76987 81.0283 97.44708 82.00455 97.13155 82.98079 96.82489 83.95702 96.51823 84.93327 96.22772 85.90952 95.93721 86.88576 95.6467 87.862 95.36345 88.83826 95.08907 89.8145 94.82277 90.79074 94.55727 91.767 94.29823 92.74324 94.04001 93.71947 93.78984 94.69571 93.54774 95.67197 93.30565 96.64821 93.06355 97.62445 92.83841 98.60075 92.60277 99.5769 92.38487 100.55322 92.167 101.52937 91.94911 102.50568 91.7401 103.482 91.53029 104.45813 91.32854 105.43443 91.12679 106.41058 90.93231 107.3869 90.73865 108.36319 90.55304 109.33936 90.36823 110.31567 90.18182 111.29182 90.0051 112.26813 89.83482 113.24443 89.65727 114.2206 89.49588 115.19687 89.32642 116.17303 89.16502 117.14934 89.00362 118.12564 88.84949 119.1018 88.69875 120.07811 88.5487 121.05428 88.4013 122.03058 88.25682 123.00688 88.11491 123.98303 87.97583 124.95932 87.83923 125.93549 87.70518 126.91179 87.57367 127.88809 87.44472 128.86426 87.31807 129.84056 87.19388 130.81671 87.07193 131.79303 86.95238 132.76934 86.83498 133.74549 86.71988 134.72179 86.60678 135.69794 86.49597 136.67424 86.38713 137.65053 86.28035 138.62671 86.17561 139.60301 86.07278 140.57917 85.97198 141.55548 85.87297 142.53177 85.7759 143.50794 85.68056 144.48423 85.5871 145.4604 85.49536 146.43668 85.40533 147.41298 85.31696 148.38916 85.23035 149.36545 85.14525 150.34162 85.06183 151.31792 84.9799 152.29422 84.89963 153.27037 84.82072 154.24668 84.74341 155.22284 84.66745 156.19913 84.59303 157.17543 84.5199 158.1516 84.44818 159.1279 84.37776 160.10405 84.30876 161.08036 84.241 162.05667 84.1745 163.03282 84.10927 164.00913 84.04527 164.98528 83.98245 165.9616 83.92082 166.93787 83.86035 167.91403 83.80104 168.89035 83.7428 169.8665 83.68565 170.8428 83.62958 171.8191 83.57454 172.79528 83.52058 173.77156 83.4676 174.74773 83.41566 175.72403 83.36462 176.70032 83.31464 177.67649 83.2655 178.65279 83.21735 179.62895 83.17007 180.60524 83.12369 181.58156 83.07816 182.55771 83.03352 183.53401 82.98965 184.51016 82.94669 185.48648 82.90445 186.46279 82.86307 187.43892 82.82242 188.41524 82.7826 189.39139 82.74347 190.36769 82.7051 191.34401 82.6674 192.32016 82.63048 193.29647 82.59422 194.27262 82.55864"/>
</g>
<use data-text="t" xlink:href="#font_3_3" transform="matrix(7.9704778,0,0,-7.9708769,171.18518,65.573879)"/>
<use data-text="x" xlink:href="#font_3_4" transform="matrix(7.9704778,0,0,-7.9708769,24.269852,10.073128)"/>
<path transform="matrix(.80003997,0,0,-.80008,21.453713,132.95502)" d="M145.67252 126.19571H190.18706V157.96848H145.67252Z" fill="#ffffff"/>
<path transform="matrix(.80003997,0,0,-.80008,21.453713,132.95502)" stroke-width=".3985" stroke-linecap="butt" stroke-miterlimit="10" stroke-linejoin="miter" fill="none" stroke="#000000" d="M145.67252 126.19571H190.18706V157.96848H145.67252Z"/>
<path transform="matrix(.80003997,0,0,-.80008,140.54846,13.343048)" stroke-width=".3985" stroke-linecap="butt" stroke-miterlimit="10" stroke-linejoin="miter" fill="none" stroke="#0000ff" d="M0 0C0 0 6.14426 0 8.50412 0 10.86398 0 17.00826 0 17.00826 0"/>
<use data-text="x" xlink:href="#font_3_4" transform="matrix(7.9704778,0,0,-7.9708769,155.90924,15.734486)"/>
<use data-text="(" xlink:href="#font_1_1" transform="matrix(7.9704778,0,0,-7.9708769,160.46466,15.734486)"/>
<use data-text="t" xlink:href="#font_3_3" transform="matrix(7.9704778,0,0,-7.9708769,163.56401,15.734486)"/>
<use data-text=")" xlink:href="#font_1_2" transform="matrix(7.9704778,0,0,-7.9708769,166.44257,15.734486)"/>
<path transform="matrix(.80003997,0,0,-.80008,140.54846,24.459366)" stroke-width=".3985" stroke-linecap="butt" stroke-dasharray="2.98883,2.98883" stroke-miterlimit="10" stroke-linejoin="miter" fill="none" stroke="#000000" d="M0 0H8.50412 17.00826"/>
<use data-text="e" xlink:href="#font_3_2" transform="matrix(7.9704778,0,0,-7.9708769,155.90924,27.60448)"/>
<use data-text="&#x2212;" xlink:href="#font_5_1" transform="matrix(5.5793187,0,0,-5.579598,159.62062,24.711392)"/>
<use data-text="t" xlink:href="#font_6_1" transform="matrix(3.9852389,0,0,-3.9854384,165.79132,22.569577)"/>
<path transform="matrix(.80003997,0,0,-.80008,33.418317,-62.812566)" stroke-width=".3387" stroke-linecap="butt" stroke-miterlimit="10" stroke-linejoin="miter" fill="none" stroke="#000000" d="M165.167-107.651H168.557"/>
<use data-text="5" xlink:href="#font_7_1" transform="matrix(3.9852389,0,0,-3.9854384,165.55852,26.632374)"/>
</svg>
