<svg xmlns="http://www.w3.org/2000/svg" xmlns:xlink="http://www.w3.org/1999/xlink" version="1.1" width="283" height="135" viewBox="0 0 283 135">
<defs>
<path id="font_1_1" d="M.69898989 .22743225C.71499636 .22743225 .7369995 .22743225 .7369995 .25042726 .7369995 .2734375 .71499636 .2734375 .69898989 .2734375H.12599182C.10998535 .2734375 .08799744 .2734375 .08799744 .25042726 .08799744 .22743225 .10998535 .22743225 .12599182 .22743225H.69898989Z"/>
<path id="font_2_3" d="M.25299073 .33370973C.33198548 .33370973 .38198854 .27557374 .38198854 .17037964 .38198854 .045440675 .31098939 .008514404 .2579956 .008514404 .20298767 .008514404 .12799073 .0284729 .09298706 .08137512 .1289978 .08137512 .1539917 .10437012 .1539917 .13737488 .1539917 .16937256 .1309967 .19238281 .09899902 .19238281 .07199097 .19238281 .04399109 .17536927 .04399109 .13537598 .04399109 .04045105 .1459961-.021484375 .2599945-.021484375 .3929901-.021484375 .48599244 .070388797 .48599244 .17037964 .48599244 .25352479 .41999818 .32969667 .31799317 .3517456 .39698792 .37982179 .45599366 .4479828 .45599366 .52804568 .45599366 .6080475 .3659973 .66503909 .2619934 .66503909 .15499878 .66503909 .07398987 .6070404 .07398987 .53105166 .07398987 .49404908 .09899902 .4780426 .125 .4780426 .1559906 .4780426 .17599488 .5000458 .17599488 .52905276 .17599488 .56604006 .14399719 .5800476 .12199402 .5810547 .1639862 .6360321 .24099732 .6390381 .25898744 .6390381 .2849884 .6390381 .36099244 .6310272 .36099244 .52804568 .36099244 .45799256 .33198548 .41589356 .31799317 .39985658 .28799439 .36878968 .2649994 .36679078 .20399475 .3627777 .18499756 .36177064 .1769867 .36076356 .1769867 .3477478 .1769867 .33370973 .18598938 .33370973 .20298767 .33370973H.25299073Z"/>
<path id="font_2_2" d="M.28199769 .20405579C.2979889 .21907044 .33999635 .2520752 .35598756 .26608277 .41799928 .32312013 .47698976 .3781433 .47698976 .46917726 .47698976 .588089 .3769989 .66503909 .2519989 .66503909 .13198853 .66503909 .052993776 .57411196 .052993776 .48516847 .052993776 .4361725 .09199524 .4291687 .10598755 .4291687 .1269989 .4291687 .1579895 .4441681 .1579895 .48217774 .1579895 .5341797 .10798645 .5341797 .09599304 .5341797 .125 .6070709 .19198609 .6320343 .24099732 .6320343 .33399964 .6320343 .38198854 .55314639 .38198854 .46917726 .38198854 .36514283 .30899049 .28910829 .19099427 .16804505L.06498718 .037994386C.052993776 .026992798 .052993776 .024993897 .052993776 0H.44799806L.47698976 .17904663H.44599916C.44299317 .1590271 .43499757 .10900879 .4229889 .08999634 .4169922 .08198547 .34098817 .08198547 .32499696 .08198547H.14698792L.28199769 .20405579Z"/>
<path id="font_2_1" d="M.31399537 .63708499C.31399537 .664032 .31199647 .66503909 .2849884 .66503909 .24398804 .6251831 .19099427 .6013489 .09599304 .6013489V.5683594C.12298584 .5683594 .1769867 .5683594 .23498535 .5953522V.08203125C.23498535 .04499817 .23199463 .032989503 .13699341 .032989503H.101989749V0C.14299011 .0029907227 .22898865 .0029907227 .27398683 .0029907227 .31900025 .0029907227 .4059906 .0029907227 .44699098 0V.032989503H.4119873C.31698609 .032989503 .31399537 .04499817 .31399537 .08203125V.63708499Z"/>
<clipPath id="clip_3">
<path transform="matrix(1.00009,0,0,-1.00002,-5.9830629,124.11923)" d="M17.07866 0H256.17994V102.47197H17.07866Z"/>
</clipPath>
<path id="font_4_1" d="M.33399964 .30233766C.33999635 .32835389 .36299134 .42037965 .43299867 .42037965 .43798829 .42037965 .46199037 .42037965 .48298646 .40734864 .45498658 .402359 .43499757 .37734986 .43499757 .35334779 .43499757 .33735658 .44599916 .31835938 .47299195 .31835938 .49499513 .31835938 .5269928 .3363495 .5269928 .37635804 .5269928 .42837525 .46798707 .4423828 .43399049 .4423828 .37599183 .4423828 .34098817 .38935853 .32899476 .36634828 .3039856 .43237306 .25 .4423828 .22099304 .4423828 .116989139 .4423828 .05999756 .3133545 .05999756 .28834535 .05999756 .27833558 .069992069 .27833558 .07199097 .27833558 .07998657 .27833558 .08299255 .28033448 .084991458 .28933717 .11898804 .39535523 .18499756 .42037965 .21899414 .42037965 .23799134 .42037965 .272995 .4113617 .272995 .35334779 .272995 .32235719 .2559967 .25532533 .21899414 .11528015 .20298767 .053268434 .16799927 .011245728 .12399292 .011245728 .117996219 .011245728 .09498596 .011245728 .07398987 .024276734 .09899902 .029266358 .12098694 .05027771 .12098694 .07827759 .12098694 .105270389 .09899902 .11328125 .083999637 .11328125 .053985597 .11328125 .0289917 .08728027 .0289917 .055267335 .0289917 .009246826 .07899475-.0107421879 .12298584-.0107421879 .18899536-.0107421879 .22499085 .059280397 .22799683 .0652771 .23999024 .028274537 .27598573-.0107421879 .33599855-.0107421879 .43899537-.0107421879 .49598695 .118270877 .49598695 .14328003 .49598695 .1532898 .4869995 .1532898 .48399354 .1532898 .47499085 .1532898 .47299195 .14929199 .47099305 .14228821 .43798829 .03527832 .36999513 .011245728 .33799745 .011245728 .29899598 .011245728 .2829895 .043273927 .2829895 .07727051 .2829895 .09927368 .2889862 .121276859 .2999878 .16529846L.33399964 .30233766Z"/>
<path id="font_4_2" d="M.48599244 .38136292C.48999024 .39537049 .48999024 .39736939 .48999024 .40437318 .48999024 .42237855 .47599793 .43138124 .46099855 .43138124 .45098878 .43138124 .43499757 .42536927 .42599488 .41036988 .42399598 .405365 .41600038 .37435914 .4119873 .35635377 .40499879 .33035279 .397995 .30334474 .3919983 .27633668L.34700013 .09628296C.34298707 .08126831 .2999878 .011245728 .23399353 .011245728 .18299866 .011245728 .17199707 .055267335 .17199707 .0922699 .17199707 .1382904 .18899536 .20030213 .22299195 .28833009 .23899842 .3293457 .24299622 .3403473 .24299622 .36035157 .24299622 .405365 .21099854 .4423828 .16099549 .4423828 .06599426 .4423828 .0289917 .29733277 .0289917 .28833009 .0289917 .27833558 .038986207 .27833558 .040985109 .27833558 .050994874 .27833558 .051986696 .28033448 .056991579 .29634095 .083999637 .3903656 .12399292 .42037965 .1579895 .42037965 .1659851 .42037965 .18299866 .42037965 .18299866 .3883667 .18299866 .36335755 .17298889 .3373413 .1659851 .31834413 .12599182 .21231079 .10798645 .1552887 .10798645 .10827637 .10798645 .019256592 .17098999-.0107421879 .22999573-.0107421879 .2689972-.0107421879 .30299378 .0062561037 .33099366 .03425598 .31799317-.017745972 .30599977-.06674194 .2659912-.11973572 .23999024-.15385437 .20199585-.18309021 .1559906-.18309021 .14199829-.18309021 .09700012-.18005371 .07998657-.14074707 .09599304-.14074707 .10899353-.14074707 .12298584-.1287384 .1329956-.11973572 .14299011-.10673523 .14299011-.08773804 .14299011-.056747438 .115997318-.052734376 .10598755-.052734376 .08299255-.052734376 .049987794-.068740848 .049987794-.11773682 .049987794-.16796875 .09399414-.20507813 .1559906-.20507813 .25898744-.20507813 .3619995-.11373901 .3899994-.00074768069L.48599244 .38136292Z"/>
<path id="font_5_98" d="M.3600006 .12823487C.3600006 .18122864 .32998658 .21122742 .31799317 .22323609 .2849884 .25523377 .24598694 .26322938 .20399475 .27124024 .147995 .28224183 .08099365 .29522706 .08099365 .35324098 .08099365 .38822938 .10699463 .42922975 .19299317 .42922975 .30299378 .42922975 .30799867 .3392334 .30999757 .30822755 .31098939 .2992401 .32199098 .2992401 .32199098 .2992401 .33499146 .2992401 .33499146 .30422975 .33499146 .32322694V.4242401C.33499146 .4412384 .33499146 .4482422 .32398988 .4482422 .31900025 .4482422 .31698609 .4482422 .3039856 .43623353 .30099488 .43223573 .29100038 .42323304 .2869873 .42022706 .24899292 .4482422 .20799256 .4482422 .19299317 .4482422 .070999149 .4482422 .032989503 .38124085 .032989503 .3252411 .032989503 .29023744 .04899597 .26223756 .07598877 .24023438 .10798645 .2142334 .13598633 .2082367 .20799256 .19422913 .22999573 .19021607 .31199647 .17422486 .31199647 .10221863 .31199647 .051223756 .2769928 .011245728 .19898987 .011245728 .114990238 .011245728 .07899475 .068222049 .05999756 .1532135 .056991579 .16621399 .055999757 .17021179 .04598999 .17021179 .032989503 .17021179 .032989503 .16322327 .032989503 .1452179V.013214111C.032989503-.003753662 .032989503-.0107421879 .04399109-.0107421879 .04899597-.0107421879 .049987794-.009750366 .068984989 .009246826 .070999149 .011245728 .070999149 .013214111 .08898926 .032226564 .1329956-.009750366 .17799378-.0107421879 .19898987-.0107421879 .31399537-.0107421879 .3600006 .05621338 .3600006 .1282196V.12823487Z"/>
<path id="font_5_28" d="M.48298646 .08912659V.14511109H.45799256V.08912659C.45799256 .03112793 .43299867 .025131226 .42199708 .025131226 .3889923 .025131226 .3849945 .070129398 .3849945 .07511902V.27508546C.3849945 .31707765 .3849945 .3560791 .34899903 .39312745 .30999757 .43223573 .2599945 .4482422 .21199036 .4482422 .12998963 .4482422 .06098938 .40115357 .06098938 .335083 .06098938 .30508424 .08099365 .28808595 .10699463 .28808595 .1349945 .28808595 .15299988 .30807496 .15299988 .33407594 .15299988 .3460846 .147995 .37908937 .101989749 .38008119 .1289978 .41519166 .17799378 .426239 .20999146 .426239 .25898744 .426239 .31599427 .38710023 .31599427 .29808045V.26107789C.2649994 .25808717 .19499207 .25508119 .13198853 .22509766 .056991579 .19110108 .03199768 .13911438 .03199768 .09512329 .03199768 .014251709 .1289978-.0107421879 .19198609-.0107421879 .2579956-.0107421879 .3039856 .029251099 .32299806 .07624817 .32699586 .036132814 .35398866-.005859375 .40098573-.005859375 .42199708-.005859375 .48298646 .008132935 .48298646 .08912659M.31599427 .14013672C.31599427 .04525757 .24398804 .011245728 .19898987 .011245728 .1499939 .011245728 .10899353 .04624939 .10899353 .09625244 .10899353 .15124512 .15098572 .23425293 .31599427 .24024964V.14013672Z"/>
<path id="font_5_114" d="M.7029877 .3996582V.43066407C.68099978 .4286499 .6519928 .42765809 .6299896 .42765809L.5369873 .43066407V.3996582C.57299807 .39866639 .59498599 .38075257 .59498599 .35176087 .59498599 .34576417 .59498599 .34376527 .58999636 .33078004L.49899293 .07513428 .3999939 .35375978C.3959961 .36575318 .394989 .36775209 .394989 .37275697 .394989 .3996582 .43399049 .3996582 .45399476 .3996582V.43066407L.34999085 .42765809C.31999208 .42765809 .29100038 .4286499 .26098634 .43066407V.3996582C.2979889 .3996582 .31399537 .39767457 .32398988 .38476563 .32899476 .37875367 .33999635 .34877015 .34700013 .3297882L.26098634 .08811951 .1659851 .3547516C.16099549 .36676026 .16099549 .36875917 .16099549 .37275697 .16099549 .3996582 .19999695 .3996582 .21998596 .3996582V.43066407L.11099243 .42765809 .017990113 .43066407V.3996582C.067993167 .3996582 .07998657 .39668275 .09199524 .36476136L.21798706 .01121521C.22299195-.0027618409 .22599793-.0107421879 .23899842-.0107421879 .2519989-.0107421879 .2539978-.004760742 .25898744 .009216309L.3600006 .2918396 .46199037 .008224487C.46598817-.0027618409 .46899415-.0107421879 .48199464-.0107421879 .49499513-.0107421879 .49798585-.0017547608 .5019989 .008224487L.61898806 .3357849C.6369934 .38575746 .66799929 .39866639 .7029877 .3996582Z"/>
<path id="font_5_105" d="M.33198548 .12385559V.18066406H.30699159V.12585449C.30699159 .052108766 .2769928 .014251709 .23999024 .014251709 .17298889 .014251709 .17298889 .10491943 .17298889 .12187195V.3996582H.31599427V.43066407H.17298889V.6142578H.147995C.14698792 .5324249 .116989139 .42565919 .018997193 .42166139V.3996582H.10398865V.12408447C.10398865 .0012512207 .19699097-.0107421879 .23298645-.0107421879 .3039856-.0107421879 .33198548 .060180665 .33198548 .12408447V.12385559Z"/>
<path id="font_5_81" d="M.47099305 .21424866C.47099305 .34223939 .37098695 .4482422 .25 .4482422 .125 .4482422 .027999878 .3392334 .027999878 .21424866 .027999878 .085250858 .13198853-.0107421879 .24899292-.0107421879 .36999513-.0107421879 .47099305 .087249759 .47099305 .21424866M.3880005 .22224427C.3880005 .18624878 .3880005 .13224793 .3659973 .08824158 .34399415 .04324341 .2999878 .014251709 .25 .014251709 .20698548 .014251709 .16299439 .035247804 .13598633 .08125305 .11099243 .12524414 .11099243 .18624878 .11099243 .22224427 .11099243 .26124574 .11099243 .31523133 .1349945 .35923768 .1619873 .40522767 .20899964 .426239 .24899292 .426239 .29299928 .426239 .33599855 .40423585 .3619995 .36123658 .3880005 .3182373 .3880005 .26023866 .3880005 .22224427Z"/>
<path id="font_5_63" d="M.5349884 0V.0309906C.48298646 .0309906 .45799256 .0309906 .45700074 .061019899V.25221253C.45700074 .3383026 .45700074 .36932374 .42599488 .405365 .4119873 .42237855 .3789978 .4423828 .32099916 .4423828 .23699951 .4423828 .19299317 .38233949 .1769867 .34629823H.17599488V.69433596L.03199768 .6826172V.6516113C.101989749 .6516113 .10998535 .64463809 .10998535 .59580996V.076034549C.10998535 .0309906 .09899902 .0309906 .03199768 .0309906V0L.14498902 .0029907227 .25698854 0V.0309906C.18998719 .0309906 .1789856 .0309906 .1789856 .076034549V.2602234C.1789856 .36431886 .25 .42037965 .31399537 .42037965 .3769989 .42037965 .3880005 .36631776 .3880005 .30926515V.076034549C.3880005 .0309906 .3769989 .0309906 .30999757 .0309906V0L.4229889 .0029907227 .5349884 0Z"/>
<path id="font_5_112" d="M.5079956 .3996582V.43066407C.4850006 .4286499 .45599366 .42765809 .43299867 .42765809L.34599305 .43066407V.3996582C.3829956 .39865113 .3939972 .37568666 .3939972 .35671998 .3939972 .34773255 .3919983 .34373475 .3880005 .3327484L.28599549 .078125 .17399597 .35671998C.16799927 .3697052 .16799927 .37368775 .16799927 .37368775 .16799927 .3996582 .20698548 .3996582 .22499085 .3996582V.43066407L.115997318 .42765809C.08898926 .42765809 .04899597 .4286499 .018997193 .43066407V.3996582C.08198547 .3996582 .085998538 .3936615 .09899902 .36271668L.24299622 .008224487C.24899292-.0057525637 .25099183-.0107421879 .2639923-.0107421879 .2769928-.0107421879 .2809906-.0017700195 .2849884 .008224487L.41600038 .3327484C.4249878 .3557129 .44198609 .39865113 .5079956 .3996582Z"/>
<path id="font_5_50" d="M.4149933 .11933899C.4149933 .12934876 .40699769 .13134766 .4019928 .13134766 .3929901 .13134766 .3909912 .12535095 .3889923 .11734009 .35398866 .014251709 .2639923 .014251709 .2539978 .014251709 .20399475 .014251709 .1639862 .044281007 .14099121 .08131409 .11099243 .12934876 .11099243 .19540406 .11099243 .23144531H.3899994C.4119873 .23144531 .4149933 .23144531 .4149933 .2524414 .4149933 .35131837 .36099244 .4482422 .23599243 .4482422 .11999512 .4482422 .027999878 .34532167 .027999878 .22042847 .027999878 .08631897 .1329956-.0107421879 .24798584-.0107421879 .36999513-.0107421879 .4149933 .10032654 .4149933 .11933899M.34899903 .2524414H.11199951C.117996219 .40126039 .20199585 .426239 .23599243 .426239 .33898927 .426239 .34899903 .2913971 .34899903 .2524414Z"/>
</defs>
<path transform="matrix(1.00009,0,0,-1.00002,-5.9830629,124.11923)" stroke-width=".09962" stroke-linecap="butt" stroke-miterlimit="10" stroke-linejoin="miter" fill="none" stroke="#e0e0e0" d="M51.23598 0V102.47197M85.39331 0V102.47197M119.55063 0V102.47197M153.70796 0V102.47197M187.86528 0V102.47197M222.02262 0V102.47197"/>
<path transform="matrix(1.00009,0,0,-1.00002,-5.9830629,124.11923)" stroke-width=".19925" stroke-linecap="butt" stroke-miterlimit="10" stroke-linejoin="miter" fill="none" stroke="#c0c0c0" d="M34.15732 0V102.47197M68.31464 0V102.47197M102.47197 0V102.47197M170.78662 0V102.47197M204.94394 0V102.47197M239.10128 0V102.47197"/>
<path transform="matrix(1.00009,0,0,-1.00002,-5.9830629,124.11923)" stroke-width=".09962" stroke-linecap="butt" stroke-miterlimit="10" stroke-linejoin="miter" fill="none" stroke="#e0e0e0" d="M17.07866 17.07866H256.17994M17.07866 51.23598H256.17994M17.07866 85.39331H256.17994"/>
<path transform="matrix(1.00009,0,0,-1.00002,-5.9830629,124.11923)" stroke-width=".19925" stroke-linecap="butt" stroke-miterlimit="10" stroke-linejoin="miter" fill="none" stroke="#c0c0c0" d="M17.07866 0H256.17994M17.07866 68.31464H256.17994M17.07866 102.47197H256.17994"/>
<path transform="matrix(1.00009,0,0,-1.00002,-5.9830629,124.11923)" stroke-width=".19925" stroke-linecap="butt" stroke-miterlimit="10" stroke-linejoin="miter" fill="none" stroke="#929292" d="M51.23598 32.7398V35.57483M85.39331 32.7398V35.57483M119.55063 32.7398V35.57483M153.70796 32.7398V35.57483M187.86528 32.7398V35.57483M222.02262 32.7398V35.57483"/>
<path transform="matrix(1.00009,0,0,-1.00002,-5.9830629,124.11923)" stroke-width=".19925" stroke-linecap="butt" stroke-miterlimit="10" stroke-linejoin="miter" fill="none" stroke="#929292" d="M34.15732 32.03127V36.28336M68.31464 32.03127V36.28336M102.47197 32.03127V36.28336M170.78662 32.03127V36.28336M204.94394 32.03127V36.28336M239.10128 32.03127V36.28336"/>
<path transform="matrix(1.00009,0,0,-1.00002,-5.9830629,124.11923)" stroke-width=".19925" stroke-linecap="butt" stroke-miterlimit="10" stroke-linejoin="miter" fill="none" stroke="#929292" d="M135.21179 17.07866H138.0468M135.21179 51.23598H138.0468M135.21179 85.39331H138.0468"/>
<path transform="matrix(1.00009,0,0,-1.00002,-5.9830629,124.11923)" stroke-width=".19925" stroke-linecap="butt" stroke-miterlimit="10" stroke-linejoin="miter" fill="none" stroke="#929292" d="M134.50324 0H138.75534M134.50324 68.31464H138.75534M134.50324 102.47197H138.75534"/>
<path transform="matrix(1.00009,0,0,-1.00002,-5.9830629,124.11923)" stroke-width=".3985" stroke-linecap="butt" stroke-miterlimit="10" stroke-linejoin="miter" fill="none" stroke="#000000" d="M10.70242 34.15732H262.55616"/>
<path transform="matrix(-1.00009,-0,0,1.00002,4.7203209,89.96123)" d="M3.58653 0C2.52383 .19925 .797 .797-.3985 1.49438V-1.49438C.797-.797 2.52383-.19925 3.58653 0"/>
<path transform="matrix(1.00009,0,0,-1.00002,256.5967,89.96123)" d="M3.58653 0C2.52383 .19925 .797 .797-.3985 1.49438V-1.49438C.797-.797 2.52383-.19925 3.58653 0"/>
<path transform="matrix(1.00009,0,0,-1.00002,-5.9830629,124.11923)" stroke-width=".3985" stroke-linecap="butt" stroke-miterlimit="10" stroke-linejoin="miter" fill="none" stroke="#000000" d="M136.62929-6.37622V108.84819"/>
<path transform="matrix(0,1.00002,1.00009,0,130.65853,130.49558)" d="M3.58653 0C2.52383 .19925 .797 .797-.3985 1.49438V-1.49438C.797-.797 2.52383-.19925 3.58653 0"/>
<path transform="matrix(0,-1.00002,-1.00009,-0,130.65853,15.26886)" d="M3.58653 0C2.52383 .19925 .797 .797-.3985 1.49438V-1.49438C.797-.797 2.52383-.19925 3.58653 0"/>
<use data-text="&#x2212;" xlink:href="#font_1_1" transform="matrix(7.970817,0,0,-7.9702599,22.766526,100.74377)"/>
<use data-text="3" xlink:href="#font_2_3" transform="matrix(7.970817,0,0,-7.9702599,29.353119,100.74377)"/>
<use data-text="&#x2212;" xlink:href="#font_1_1" transform="matrix(7.970817,0,0,-7.9702599,56.926599,100.74377)"/>
<use data-text="2" xlink:href="#font_2_2" transform="matrix(7.970817,0,0,-7.9702599,63.51319,100.74377)"/>
<use data-text="&#x2212;" xlink:href="#font_1_1" transform="matrix(7.970817,0,0,-7.9702599,91.08767,100.74377)"/>
<use data-text="1" xlink:href="#font_2_1" transform="matrix(7.970817,0,0,-7.9702599,97.67426,100.74377)"/>
<use data-text="1" xlink:href="#font_2_1" transform="matrix(7.970817,0,0,-7.9702599,162.70113,100.74377)"/>
<use data-text="2" xlink:href="#font_2_2" transform="matrix(7.970817,0,0,-7.9702599,196.86219,100.74377)"/>
<use data-text="3" xlink:href="#font_2_3" transform="matrix(7.970817,0,0,-7.9702599,231.02227,100.74377)"/>
<use data-text="&#x2212;" xlink:href="#font_1_1" transform="matrix(7.970817,0,0,-7.9702599,114.19076,126.27228)"/>
<use data-text="1" xlink:href="#font_2_1" transform="matrix(7.970817,0,0,-7.9702599,120.77735,126.27228)"/>
<use data-text="1" xlink:href="#font_2_1" transform="matrix(7.970817,0,0,-7.9702599,120.77734,58.37191)"/>
<use data-text="2" xlink:href="#font_2_2" transform="matrix(7.970817,0,0,-7.9702599,120.77734,24.213234)"/>
<g clip-path="url(#clip_3)">
<path transform="matrix(1.00009,0,0,-1.00002,-5.9830629,124.11923)" stroke-width=".79701" stroke-linecap="butt" stroke-miterlimit="10" stroke-linejoin="miter" fill="none" stroke="#e41a1c" d="M136.62929 34.15732 136.97087 34.49889 137.31244 34.84047 137.654 35.18204 137.99559 35.5236 138.33716 35.86519 138.67873 36.20676 139.02031 36.54832 139.36188 36.88991 139.70345 37.23148 140.04503 37.57304 140.3866 37.91463 140.72818 38.2562 141.06975 38.59776 141.41132 38.93935 141.7529 39.28091 142.09447 39.62248 142.43604 39.96407 142.77762 40.30563 143.11919 40.64722 143.46076 40.98878 143.80234 41.33035 144.1439 41.67194 144.48548 42.0135 144.82706 42.35507 145.16863 42.69666 145.5102 43.03822 145.85178 43.37979 146.19335 43.72137 146.53491 44.06294 146.8765 44.40451 147.21807 44.7461 147.55963 45.08766 147.90122 45.42923 148.24279 45.77081 148.58435 46.11238 148.92594 46.45395 149.2675 46.79553 149.60907 47.1371 149.95066 47.47867 150.29222 47.82025 150.63379 48.16182 150.97537 48.50339 151.31694 48.84497 151.65853 49.18654 152.00009 49.5281 152.34166 49.86969 152.68325 50.21126 153.02481 50.55284 153.36638 50.89441 153.70796 51.23598 154.04953 51.57756 154.3911 51.91913 154.73268 52.2607 155.07425 52.60228 155.41582 52.94385 155.7574 53.28542 156.09897 53.627 156.44054 53.96857 156.78212 54.31013 157.12369 54.65172 157.46526 54.99329 157.80684 55.33485 158.1484 55.67644 158.48998 56.018 158.83156 56.35957 159.17313 56.70116 159.5147 57.04272 159.85628 57.3843 160.19785 57.72588 160.53942 58.06744 160.881 58.40901 161.22257 58.7506 161.56415 59.09216 161.90572 59.43373 162.24729 59.77531 162.58887 60.11688 162.93044 60.45847 163.272 60.80003 163.61359 61.1416 163.95516 61.48318 164.29673 61.82475 164.6383 62.16632 164.97988 62.5079 165.32144 62.84947 165.66303 63.19104 166.0046 63.53262 166.34616 63.87419 166.68775 64.21576 167.02931 64.55734 167.37088 64.89891 167.71247 65.24048 168.05403 65.58206 168.3956 65.92363 168.73719 66.2652 169.07875 66.60678 169.42032 66.94835 169.7619 67.28992 170.10347 67.6315 170.44504 67.97307 170.78662 34.15732 171.1282 34.4989 171.46976 34.84045 171.81134 35.18204 172.15288 35.52357 172.49449 35.86519 172.83608 36.20677 173.17761 36.54831 173.51921 36.88991 173.86075 37.23145 174.20235 37.57304 174.54395 37.91464 174.88549 38.25618 175.22707 38.59776 175.56862 38.93932 175.91022 39.28091 176.2518 39.6225 176.59336 39.96405 176.93494 40.30563 177.27648 40.64719 177.61809 40.98878 177.95967 41.33037 178.30121 41.67192 178.6428 42.0135 178.98435 42.35504 179.32595 42.69666 179.66754 43.03824 180.00908 43.37978 180.35066 43.72137 180.69222 44.06291 181.03382 44.40451 181.37541 44.74611 181.71695 45.08765 182.05854 45.42923 182.40009 45.77078 182.74169 46.11238 183.08327 46.45396 183.42482 46.79552 183.7664 47.1371 184.10794 47.47864 184.44956 47.82025 184.79114 48.16183 185.13268 48.50337 185.47428 48.84497 185.81581 49.18651 186.15741 49.5281 186.49901 49.8697 186.84055 50.21124 187.18213 50.55284 187.52368 50.89438 187.86528 51.23598 188.20687 51.57758 188.54842 51.91911 188.89 52.2607 189.23154 52.60225 189.57315 52.94385 189.91474 53.28543 190.25627 53.62698 190.59787 53.96857 190.9394 54.3101 191.28102 54.65172 191.6226 54.9933 191.96414 55.33484 192.30574 55.67644 192.64728 56.01797 192.98888 56.35957 193.33048 56.70117 193.67201 57.04271 194.0136 57.3843 194.35515 57.72585 194.69675 58.06744 195.03833 58.40903 195.37989 58.75058 195.72147 59.09216 196.063 59.4337 196.40462 59.77531 196.7462 60.1169 197.08774 60.45845 197.42934 60.80003 197.77088 61.14157 198.11248 61.48318 198.45407 61.82477 198.79561 62.1663 199.13719 62.5079 199.47875 62.84944 199.82035 63.19104 200.16193 63.53264 200.50348 63.87418 200.84506 64.21576 201.18662 64.55731 201.52822 64.89891 201.8698 65.2405 202.21135 65.58205 202.55294 65.92363 202.89447 66.26517 203.23609 66.60678 203.57767 66.94836 203.9192 67.2899 204.2608 67.6315 204.60234 67.97304 204.94394 34.15732 205.28554 34.4989 205.62708 34.84045 205.96866 35.18204 206.31021 35.52357 206.65181 35.86519 206.9934 36.20677 207.33495 36.54831 207.67653 36.88991 208.01807 37.23145 208.35968 37.57304 208.70127 37.91464 209.0428 38.25618 209.3844 38.59776 209.72594 38.93932 210.06754 39.28091 210.40914 39.6225 210.75067 39.96405 211.09227 40.30563 211.4338 40.64719 211.7754 40.98878 212.117 41.33037 212.45854 41.67192 212.80013 42.0135 213.14168 42.35504 213.48328 42.69666 213.82486 43.03824 214.16641 43.37978 214.508 43.72137 214.84954 44.06291 215.19115 44.40451 215.53273 44.74611 215.87427 45.08765 216.21587 45.42923 216.5574 45.77078 216.899 46.11238 217.2406 46.45396 217.58214 46.79552 217.92372 47.1371 218.26528 47.47864 218.60688 47.82025 218.94846 48.16183 219.29001 48.50337 219.63159 48.84497 219.97313 49.18651 220.31475 49.5281 220.65633 49.8697 220.99788 50.21124 221.33946 50.55284 221.681 50.89438 222.02262 51.23598 222.3642 51.57758 222.70574 51.91911 223.04734 52.2607 223.38887 52.60225 223.73047 52.94385 224.07207 53.28543 224.4136 53.62698 224.75519 53.96857 225.09674 54.3101 225.43834 54.65172 225.77993 54.9933 226.12148 55.33484 226.46306 55.67644 226.8046 56.01797 227.14621 56.35957 227.4878 56.70117 227.82933 57.04271 228.17093 57.3843 228.51247 57.72585 228.85407 58.06744 229.19567 58.40903 229.5372 58.75058 229.87879 59.09216 230.22034 59.4337 230.56194 59.77531 230.90352 60.1169 231.24507 60.45845 231.58666 60.80003 231.9282 61.14157 232.2698 61.48318 232.61139 61.82477 232.95294 62.1663 233.29453 62.5079 233.63607 62.84944 233.97768 63.19104 234.31926 63.53264 234.6608 63.87418 235.0024 64.21576 235.34394 64.55731 235.68553 64.89891 236.02713 65.2405 236.36867 65.58205 236.71025 65.92363 237.0518 66.26517 237.3934 66.60678 237.73499 66.94836 238.07654 67.2899 238.41812 67.6315 238.75966 67.97304 239.10128 34.15732 239.44286 34.4989 239.7844 34.84045 240.12599 35.18204 240.46753 35.52357 240.80913 35.86519 241.15073 36.20677 241.49227 36.54831 241.83386 36.88991 242.1754 37.23145 242.517 37.57304 242.8586 37.91464 243.20014 38.25618 243.54172 38.59776 243.88327 38.93932 244.22487 39.28091 244.56645 39.6225 244.908 39.96405 245.24959 40.30563 245.59113 40.64719 245.93274 40.98878 246.27433 41.33037 246.61586 41.67192 246.95746 42.0135 247.299 42.35504 247.6406 42.69666 247.9822 43.03824 248.32373 43.37978 248.66532 43.72137 249.00687 44.06291 249.34847 44.40451 249.69005 44.74611 250.0316 45.08765 250.37319 45.42923 250.71472 45.77078 251.05634 46.11238 251.39792 46.45396 251.73947 46.79552 252.08106 47.1371 252.42259 47.47864 252.7642 47.82025 253.10579 48.16183 253.44733 48.50337 253.78893 48.84497 254.13047 49.18651 254.47206 49.5281 254.81366 49.8697 255.1552 50.21124 255.49678 50.55284 255.83834 50.89438 256.17994 51.23598 256.5215 51.57758 256.86308 51.91911 257.20466 52.2607 257.5462 52.60225 257.8878 52.94385 258.2294 53.28543 258.57093 53.62698 258.9125 53.96857 259.25407 54.3101 259.59568 54.65172 259.93727 54.9933 260.2788 55.33484 260.6204 55.67644 260.96195 56.01797 261.30354 56.35957 261.64515 56.70117 261.98667 57.04271 262.32826 57.3843 262.6698 57.72585 263.0114 58.06744 263.35298 58.40903 263.69453 58.75058 264.03614 59.09216 264.37767 59.4337 264.71928 59.77531 265.06086 60.1169 265.4024 60.45845 265.744 60.80003 266.08555 61.14157 266.42713 61.48318 266.7687 61.82477 267.11027 62.1663 267.45185 62.5079 267.7934 62.84944 268.135 63.19104 268.4766 63.53264 268.8181 63.87418 269.1597 64.21576 269.50126 64.55731 269.84288 64.89891 270.18446 65.2405 270.526 65.58205 270.86759 65.92363 271.2091 66.26517 271.55076 66.60678 271.89234 66.94836 272.23387 67.2899 272.57545 67.6315 272.917 67.97304 273.25859 34.15732"/>
<path transform="matrix(1.00009,0,0,-1.00002,-5.9830629,124.11923)" stroke-width=".79701" stroke-linecap="butt" stroke-miterlimit="10" stroke-linejoin="miter" fill="none" stroke="#e41a1c" d="M0 68.31464 .34157 34.49889 .68314 34.84047 1.02472 35.18204 1.36629 35.5236 1.70786 35.86519 2.04944 36.20676 2.391 36.54832 2.73257 36.88991 3.07416 37.23148 3.41573 37.57304 3.7573 37.91463 4.09888 38.2562 4.44044 38.59776 4.78201 38.93935 5.1236 39.28091 5.46516 39.62248 5.80673 39.96407 6.14832 40.30563 6.48988 40.64722 6.83145 40.98878 7.17303 41.33035 7.5146 41.67194 7.85617 42.0135 8.19775 42.35507 8.53932 42.69666 8.88089 43.03822 9.22247 43.37979 9.56404 43.72137 9.90561 44.06294 10.2472 44.40451 10.58876 44.7461 10.93034 45.08766 11.27191 45.42923 11.61348 45.77081 11.95506 46.11238 12.29663 46.45395 12.6382 46.79553 12.97978 47.1371 13.32135 47.47867 13.66292 47.82025 14.0045 48.16182 14.34607 48.50339 14.68764 48.84497 15.02922 49.18654 15.37079 49.5281 15.71236 49.86969 16.05394 50.21126 16.39551 50.55284 16.73708 50.89441 17.07866 51.23598 17.42023 51.57756 17.7618 51.91913 18.10338 52.2607 18.44495 52.60228 18.78651 52.94385 19.1281 53.28542 19.46967 53.627 19.81123 53.96857 20.15282 54.31013 20.49438 54.65172 20.83597 54.99329 21.17754 55.33485 21.5191 55.67644 21.86069 56.018 22.20226 56.35957 22.54382 56.70116 22.8854 57.04272 23.22697 57.3843 23.56854 57.72588 23.91013 58.06744 24.2517 58.40901 24.59326 58.7506 24.93484 59.09216 25.27641 59.43373 25.61798 59.77531 25.95956 60.11688 26.30113 60.45847 26.6427 60.80003 26.98428 61.1416 27.32585 61.48318 27.66742 61.82475 28.009 62.16632 28.35057 62.5079 28.69214 62.84947 29.03372 63.19104 29.37529 63.53262 29.71686 63.87419 30.05844 64.21576 30.40001 64.55734 30.7416 64.89891 31.08316 65.24048 31.42473 65.58206 31.76631 65.92363 32.10788 66.2652 32.44945 66.60678 32.79103 66.94835 33.1326 67.28992 33.47417 67.6315 33.81575 67.97307 34.15732 68.31464 34.4989 34.4989 34.84045 34.84045 35.18204 35.18204 35.52357 35.52357 35.86519 35.86519 36.20677 36.20677 36.54831 36.54831 36.88991 36.88991 37.23145 37.23145 37.57304 37.57304 37.91464 37.91464 38.25618 38.25618 38.59776 38.59776 38.93932 38.93932 39.28091 39.28091 39.6225 39.6225 39.96405 39.96405 40.30563 40.30563 40.64719 40.64719 40.98878 40.98878 41.33037 41.33037 41.67192 41.67192 42.0135 42.0135 42.35504 42.35504 42.69666 42.69666 43.03824 43.03824 43.37978 43.37978 43.72137 43.72137 44.06291 44.06291 44.40451 44.40451 44.74611 44.74611 45.08765 45.08765 45.42923 45.42923 45.77078 45.77078 46.11238 46.11238 46.45396 46.45396 46.79552 46.79552 47.1371 47.1371 47.47864 47.47864 47.82025 47.82025 48.16183 48.16183 48.50337 48.50337 48.84497 48.84497 49.18651 49.18651 49.5281 49.5281 49.8697 49.8697 50.21124 50.21124 50.55284 50.55284 50.89438 50.89438 51.23598 51.23598 51.57758 51.57758 51.91911 51.91911 52.2607 52.2607 52.60225 52.60225 52.94385 52.94385 53.28543 53.28543 53.62698 53.62698 53.96857 53.96857 54.3101 54.3101 54.65172 54.65172 54.9933 54.9933 55.33484 55.33484 55.67644 55.67644 56.01797 56.01797 56.35957 56.35957 56.70117 56.70117 57.04271 57.04271 57.3843 57.3843 57.72585 57.72585 58.06744 58.06744 58.40903 58.40903 58.75058 58.75058 59.09216 59.09216 59.4337 59.4337 59.77531 59.77531 60.1169 60.1169 60.45845 60.45845 60.80003 60.80003 61.14157 61.14157 61.48318 61.48318 61.82477 61.82477 62.1663 62.1663 62.5079 62.5079 62.84944 62.84944 63.19104 63.19104 63.53264 63.53264 63.87418 63.87418 64.21576 64.21576 64.55731 64.55731 64.89891 64.89891 65.2405 65.2405 65.58205 65.58205 65.92363 65.92363 66.26517 66.26517 66.60678 66.60678 66.94836 66.94836 67.2899 67.2899 67.6315 67.6315 67.97304 67.97304 68.31464 68.31464 68.65623 34.4989 68.99777 34.84045 69.33936 35.18204 69.68091 35.52357 70.0225 35.86519 70.36409 36.20677 70.70564 36.54831 71.04723 36.88991 71.38878 37.23145 71.73038 37.57304 72.07196 37.91464 72.41351 38.25618 72.7551 38.59776 73.09663 38.93932 73.43825 39.28091 73.77983 39.6225 74.12137 39.96405 74.46297 40.30563 74.8045 40.64719 75.1461 40.98878 75.4877 41.33037 75.82924 41.67192 76.17082 42.0135 76.51237 42.35504 76.85397 42.69666 77.19556 43.03824 77.53711 43.37978 77.8787 43.72137 78.22023 44.06291 78.56184 44.40451 78.90343 44.74611 79.24496 45.08765 79.58656 45.42923 79.9281 45.77078 80.2697 46.11238 80.6113 46.45396 80.95284 46.79552 81.29443 47.1371 81.63597 47.47864 81.97757 47.82025 82.31917 48.16183 82.6607 48.50337 83.00229 48.84497 83.34384 49.18651 83.68544 49.5281 84.02702 49.8697 84.36858 50.21124 84.71016 50.55284 85.0517 50.89438 85.39331 51.23598 85.7349 51.57758 86.07643 51.91911 86.41803 52.2607 86.75957 52.60225 87.10117 52.94385 87.44276 53.28543 87.7843 53.62698 88.12589 53.96857 88.46744 54.3101 88.80904 54.65172 89.15062 54.9933 89.49217 55.33484 89.83376 55.67644 90.1753 56.01797 90.5169 56.35957 90.85849 56.70117 91.20004 57.04271 91.54163 57.3843 91.88316 57.72585 92.22478 58.06744 92.56636 58.40903 92.9079 58.75058 93.2495 59.09216 93.59103 59.4337 93.93263 59.77531 94.27423 60.1169 94.61577 60.45845 94.95735 60.80003 95.2989 61.14157 95.6405 61.48318 95.98209 61.82477 96.32364 62.1663 96.66522 62.5079 97.00676 62.84944 97.34837 63.19104 97.68996 63.53264 98.0315 63.87418 98.3731 64.21576 98.71463 64.55731 99.05623 64.89891 99.39783 65.2405 99.73936 65.58205 100.08095 65.92363 100.4225 66.26517 100.7641 66.60678 101.1057 66.94836 101.44724 67.2899 101.78882 67.6315 102.13037 67.97304 102.47197 68.31464 102.81355 34.4989 103.1551 34.84045 103.49669 35.18204 103.83823 35.52357 104.17984 35.86519 104.52142 36.20677 104.86296 36.54831 105.20456 36.88991 105.5461 37.23145 105.8877 37.57304 106.2293 37.91464 106.57083 38.25618 106.91241 38.59776 107.25397 38.93932 107.59557 39.28091 107.93715 39.6225 108.2787 39.96405 108.62029 40.30563 108.96182 40.64719 109.30344 40.98878 109.64502 41.33037 109.98656 41.67192 110.32816 42.0135 110.6697 42.35504 111.0113 42.69666 111.35289 43.03824 111.69443 43.37978 112.03603 43.72137 112.37756 44.06291 112.71916 44.40451 113.06076 44.74611 113.4023 45.08765 113.74388 45.42923 114.08543 45.77078 114.42703 46.11238 114.76862 46.45396 115.11017 46.79552 115.45175 47.1371 115.79329 47.47864 116.1349 47.82025 116.47649 48.16183 116.81802 48.50337 117.15962 48.84497 117.50116 49.18651 117.84276 49.5281 118.18436 49.8697 118.5259 50.21124 118.86748 50.55284 119.20903 50.89438 119.55063 51.23598 119.89221 51.57758 120.23376 51.91911 120.57535 52.2607 120.9169 52.60225 121.2585 52.94385 121.60008 53.28543 121.94164 53.62698 122.28322 53.96857 122.62476 54.3101 122.96637 54.65172 123.30795 54.9933 123.64949 55.33484 123.99109 55.67644 124.33263 56.01797 124.67422 56.35957 125.01582 56.70117 125.35736 57.04271 125.69894 57.3843 126.0405 57.72585 126.3821 58.06744 126.72368 58.40903 127.06523 58.75058 127.40681 59.09216 127.74835 59.4337 128.08997 59.77531 128.43155 60.1169 128.77309 60.45845 129.11469 60.80003 129.45623 61.14157 129.79782 61.48318 130.13942 61.82477 130.48096 62.1663 130.82256 62.5079 131.1641 62.84944 131.50569 63.19104 131.84729 63.53264 132.18883 63.87418 132.53041 64.21576 132.87197 64.55731 133.21356 64.89891 133.55515 65.2405 133.8967 65.58205 134.23828 65.92363 134.57982 66.26517 134.92144 66.60678 135.26302 66.94836 135.60456 67.2899 135.94615 67.6315 136.28769 67.97304 136.62929 68.31464"/>
<path transform="matrix(1.00009,0,0,-1.00002,-5.9830629,124.11923)" stroke-width=".79701" stroke-linecap="butt" stroke-miterlimit="10" stroke-linejoin="miter" fill="none" stroke="#e41a1c" d="M136.62929 34.15732V68.31464"/>
</g>
<use data-text="x" xlink:href="#font_4_1" transform="matrix(9.963496,0,0,-9.962799,263.7372,92.10159)"/>
<use data-text="y" xlink:href="#font_4_2" transform="matrix(9.963496,0,0,-9.962799,128.057,6.2078707)"/>
<use data-text="s" xlink:href="#font_5_98" transform="matrix(9.963496,0,0,-9.962799,218.37113,12.037987)"/>
<use data-text="a" xlink:href="#font_5_28" transform="matrix(9.963496,0,0,-9.962799,222.29674,12.037987)"/>
<use data-text="w" xlink:href="#font_5_114" transform="matrix(9.963496,0,0,-9.962799,226.99951,12.037987)"/>
<use data-text="t" xlink:href="#font_5_105" transform="matrix(9.963496,0,0,-9.962799,234.19316,12.037987)"/>
<use data-text="o" xlink:href="#font_5_81" transform="matrix(9.963496,0,0,-9.962799,238.06897,12.037987)"/>
<use data-text="o" xlink:href="#font_5_81" transform="matrix(9.963496,0,0,-9.962799,243.31972,12.037987)"/>
<use data-text="t" xlink:href="#font_5_105" transform="matrix(9.963496,0,0,-9.962799,248.30147,12.037987)"/>
<use data-text="h" xlink:href="#font_5_63" transform="matrix(9.963496,0,0,-9.962799,252.17728,12.037987)"/>
<use data-text="w" xlink:href="#font_5_114" transform="matrix(9.963496,0,0,-9.962799,261.03483,12.037987)"/>
<use data-text="a" xlink:href="#font_5_28" transform="matrix(9.963496,0,0,-9.962799,267.95945,12.037987)"/>
<use data-text="v" xlink:href="#font_5_112" transform="matrix(9.963496,0,0,-9.962799,272.66224,12.037987)"/>
<use data-text="e" xlink:href="#font_5_50" transform="matrix(9.963496,0,0,-9.962799,277.64399,12.037987)"/>
</svg>
