<svg xmlns="http://www.w3.org/2000/svg" xmlns:xlink="http://www.w3.org/1999/xlink" version="1.1" width="179" height="237" viewBox="0 0 179 237">
<defs>
<path id="font_1_1" d="M.31399537 .63708499C.31399537 .664032 .31199647 .66503909 .2849884 .66503909 .24398804 .6251831 .19099427 .6013489 .09599304 .6013489V.5683594C.12298584 .5683594 .1769867 .5683594 .23498535 .5953522V.08203125C.23498535 .04499817 .23199463 .032989503 .13699341 .032989503H.101989749V0C.14299011 .0029907227 .22898865 .0029907227 .27398683 .0029907227 .31900025 .0029907227 .4059906 .0029907227 .44699098 0V.032989503H.4119873C.31698609 .032989503 .31399537 .04499817 .31399537 .08203125V.63708499Z"/>
<path id="font_1_2" d="M.28199769 .20405579C.2979889 .21907044 .33999635 .2520752 .35598756 .26608277 .41799928 .32312013 .47698976 .3781433 .47698976 .46917726 .47698976 .588089 .3769989 .66503909 .2519989 .66503909 .13198853 .66503909 .052993776 .57411196 .052993776 .48516847 .052993776 .4361725 .09199524 .4291687 .10598755 .4291687 .1269989 .4291687 .1579895 .4441681 .1579895 .48217774 .1579895 .5341797 .10798645 .5341797 .09599304 .5341797 .125 .6070709 .19198609 .6320343 .24099732 .6320343 .33399964 .6320343 .38198854 .55314639 .38198854 .46917726 .38198854 .36514283 .30899049 .28910829 .19099427 .16804505L.06498718 .037994386C.052993776 .026992798 .052993776 .024993897 .052993776 0H.44799806L.47698976 .17904663H.44599916C.44299317 .1590271 .43499757 .10900879 .4229889 .08999634 .4169922 .08198547 .34098817 .08198547 .32499696 .08198547H.14698792L.28199769 .20405579Z"/>
<path id="font_1_3" d="M.25299073 .33370973C.33198548 .33370973 .38198854 .27557374 .38198854 .17037964 .38198854 .045440675 .31098939 .008514404 .2579956 .008514404 .20298767 .008514404 .12799073 .0284729 .09298706 .08137512 .1289978 .08137512 .1539917 .10437012 .1539917 .13737488 .1539917 .16937256 .1309967 .19238281 .09899902 .19238281 .07199097 .19238281 .04399109 .17536927 .04399109 .13537598 .04399109 .04045105 .1459961-.021484375 .2599945-.021484375 .3929901-.021484375 .48599244 .070388797 .48599244 .17037964 .48599244 .25352479 .41999818 .32969667 .31799317 .3517456 .39698792 .37982179 .45599366 .4479828 .45599366 .52804568 .45599366 .6080475 .3659973 .66503909 .2619934 .66503909 .15499878 .66503909 .07398987 .6070404 .07398987 .53105166 .07398987 .49404908 .09899902 .4780426 .125 .4780426 .1559906 .4780426 .17599488 .5000458 .17599488 .52905276 .17599488 .56604006 .14399719 .5800476 .12199402 .5810547 .1639862 .6360321 .24099732 .6390381 .25898744 .6390381 .2849884 .6390381 .36099244 .6310272 .36099244 .52804568 .36099244 .45799256 .33198548 .41589356 .31799317 .39985658 .28799439 .36878968 .2649994 .36679078 .20399475 .3627777 .18499756 .36177064 .1769867 .36076356 .1769867 .3477478 .1769867 .33370973 .18598938 .33370973 .20298767 .33370973H.25299073Z"/>
<path id="font_1_4" d="M.3939972 .6468048C.3939972 .6667938 .3939972 .6748047 .37298585 .6748047 .3600006 .6748047 .35899354 .6737976 .34899903 .65979006L.02999878 .197052V.1640625H.31199647V.08100891C.31199647 .04399109 .30899049 .032989503 .23199463 .032989503H.20899964V0C.2939911 .0029907227 .29599 .0029907227 .35299684 .0029907227 .4099884 .0029907227 .4119873 .0029907227 .49699403 0V.032989503H.47399903C.39698792 .032989503 .3939972 .04399109 .3939972 .08100891V.1640625H.5V.197052H.3939972V.6468048M.31900025 .5658417V.197052H.06498718L.31900025 .5658417Z"/>
<path id="font_1_5" d="M.13999939 .5618439C.15299988 .55784609 .19299317 .54785159 .23498535 .54785159 .3600006 .54785159 .43598939 .6358948 .43598939 .6510315 .43598939 .6620331 .42900086 .66503909 .42399598 .66503909 .42199708 .66503909 .41999818 .66503909 .41099549 .6600342 .37199403 .6450348 .32598878 .632843 .27198792 .632843 .21299744 .632843 .1639862 .6480255 .1329956 .6600342 .12298584 .66503909 .12098694 .66503909 .11999512 .66503909 .10699463 .66503909 .10699463 .6540375 .10699463 .6358948V.34292604C.10699463 .32492066 .10699463 .312912 .12298584 .312912 .1309967 .312912 .13398743 .3169098 .13899231 .32492066 .15098572 .33992005 .18899536 .39093019 .27398683 .39093019 .32998658 .39093019 .35699464 .34492494 .3659973 .32591249 .3829956 .28990174 .3849945 .24389649 .3849945 .20487976 .3849945 .1678772 .38398744 .11387634 .35598756 .069732669 .33699037 .039611818 .29699708 .008514404 .24398804 .008514404 .1789856 .008514404 .114990238 .0496521 .09199524 .11488342 .09498596 .11387634 .100997928 .11387634 .101989749 .11387634 .12998963 .11387634 .1519928 .13188172 .1519928 .16288758 .1519928 .19989014 .12298584 .21289063 .102996829 .21289063 .084991458 .21289063 .052993776 .20288086 .052993776 .15988159 .052993776 .069732669 .1309967-.021484375 .24598694-.021484375 .37098695-.021484375 .47698976 .07574463 .47698976 .19989014 .47698976 .31591798 .3929901 .4189453 .2749939 .4189453 .22499085 .4189453 .17799378 .40293885 .13999939 .368927V.5618439Z"/>
<path id="font_1_6" d="M.13798523 .33073426C.13798523 .41377259 .14498902 .4868164 .18099976 .54782107 .21099854 .5978241 .2619934 .6390381 .32499696 .6390381 .34498597 .6390381 .3909912 .63601687 .4139862 .60084536 .36898805 .5988312 .36499024 .5648346 .36499024 .553833 .36499024 .5238342 .3880005 .50683596 .4119873 .50683596 .42999269 .50683596 .45899964 .51782229 .45899964 .5558319 .45899964 .615921 .4139862 .66503909 .32398988 .66503909 .18499756 .66503909 .04399109 .53282168 .04399109 .31672669 .04399109 .045532228 .16999817-.021484375 .2669983-.021484375 .31498719-.021484375 .36698915-.0084991459 .4119873 .03453064 .45199586 .07354736 .48599244 .11558533 .48599244 .20263672 .48599244 .33372499 .3869934 .42578126 .27598573 .42578126 .20399475 .42578126 .16099549 .37976075 .13798523 .33073426M.2669983 .008514404C.21398926 .008514404 .18099976 .045532228 .1659851 .07354736 .14299011 .11859131 .14099121 .18663025 .14099121 .22465515 .14099121 .32373048 .19499207 .3977661 .27198792 .3977661 .32199098 .3977661 .35198976 .37176515 .37098695 .33673097 .3919983 .29971314 .3919983 .25468446 .3919983 .2036438 .3919983 .15260315 .3919983 .10858154 .37199403 .07255554 .34599305 .026519776 .31098939 .008514404 .2669983 .008514404Z"/>
<path id="font_1_7" d="M.5059967 .608551C.5149994 .6195526 .5149994 .6215515 .5149994 .6435547H.26098634C.23599243 .6435547 .20498657 .64456179 .17999268 .64660647 .12799073 .65068057 .1269989 .6597748 .12399292 .67578127H.09298706L.05899048 .46453858H.08999634C.09199524 .47953797 .102996829 .54855349 .116989139 .5565491 .12799073 .56155398 .20298767 .56155398 .21798706 .56155398H.42999269L.32699586 .4235382C.21299744 .27153016 .18899536 .11351013 .18899536 .03451538 .18899536 .024505616 .18899536-.021484375 .23599243-.021484375 .2829895-.021484375 .2829895 .023513794 .2829895 .035507204V.08351135C.2829895 .2275238 .30699159 .34553529 .35598756 .41053773L.5059967 .608551Z"/>
<path id="font_2_1" d="M.69898989 .22743225C.71499636 .22743225 .7369995 .22743225 .7369995 .25042726 .7369995 .2734375 .71499636 .2734375 .69898989 .2734375H.12599182C.10998535 .2734375 .08799744 .2734375 .08799744 .25042726 .08799744 .22743225 .10998535 .22743225 .12599182 .22743225H.69898989Z"/>
<clipPath id="clip_3">
<path transform="matrix(1.00005,0,0,-1.00005,16.685135,225.95664)" d="M0 0H144.36103V206.23003H0Z"/>
</clipPath>
<path id="font_4_1" d="M.20599365 .3996582H.2999878C.31999208 .3996582 .32998658 .3996582 .32998658 .41966249 .32998658 .43066407 .31999208 .43066407 .3019867 .43066407H.21398926C.25 .5724945 .25498963 .59246829 .25498963 .59846499 .25498963 .61546328 .24299622 .62545779 .22599793 .62545779 .22299195 .62545779 .19499207 .62446597 .18598938 .58947756L.14698792 .43066407H.052993776C.032989503 .43066407 .022994996 .43066407 .022994996 .4116516 .022994996 .3996582 .0309906 .3996582 .050994874 .3996582H.13899231C.066986087 .11608887 .06298828 .099121097 .06298828 .08114624 .06298828 .02722168 .100997928-.0107421879 .15499878-.0107421879 .25698854-.0107421879 .31399537 .13505554 .31399537 .14305115 .31399537 .1530304 .30599977 .1530304 .3019867 .1530304 .29299928 .1530304 .2919922 .15003968 .2869873 .13905335 .24398804 .035217287 .19099427 .011245728 .15699768 .011245728 .13598633 .011245728 .12599182 .024230957 .12599182 .057174684 .12599182 .08114624 .12799073 .088134769 .13198853 .10510254L.20599365 .3996582Z"/>
<path id="font_4_2" d="M.33399964 .30233766C.33999635 .32835389 .36299134 .42037965 .43299867 .42037965 .43798829 .42037965 .46199037 .42037965 .48298646 .40734864 .45498658 .402359 .43499757 .37734986 .43499757 .35334779 .43499757 .33735658 .44599916 .31835938 .47299195 .31835938 .49499513 .31835938 .5269928 .3363495 .5269928 .37635804 .5269928 .42837525 .46798707 .4423828 .43399049 .4423828 .37599183 .4423828 .34098817 .38935853 .32899476 .36634828 .3039856 .43237306 .25 .4423828 .22099304 .4423828 .116989139 .4423828 .05999756 .3133545 .05999756 .28834535 .05999756 .27833558 .069992069 .27833558 .07199097 .27833558 .07998657 .27833558 .08299255 .28033448 .084991458 .28933717 .11898804 .39535523 .18499756 .42037965 .21899414 .42037965 .23799134 .42037965 .272995 .4113617 .272995 .35334779 .272995 .32235719 .2559967 .25532533 .21899414 .11528015 .20298767 .053268434 .16799927 .011245728 .12399292 .011245728 .117996219 .011245728 .09498596 .011245728 .07398987 .024276734 .09899902 .029266358 .12098694 .05027771 .12098694 .07827759 .12098694 .105270389 .09899902 .11328125 .083999637 .11328125 .053985597 .11328125 .0289917 .08728027 .0289917 .055267335 .0289917 .009246826 .07899475-.0107421879 .12298584-.0107421879 .18899536-.0107421879 .22499085 .059280397 .22799683 .0652771 .23999024 .028274537 .27598573-.0107421879 .33599855-.0107421879 .43899537-.0107421879 .49598695 .118270877 .49598695 .14328003 .49598695 .1532898 .4869995 .1532898 .48399354 .1532898 .47499085 .1532898 .47299195 .14929199 .47099305 .14228821 .43798829 .03527832 .36999513 .011245728 .33799745 .011245728 .29899598 .011245728 .2829895 .043273927 .2829895 .07727051 .2829895 .09927368 .2889862 .121276859 .2999878 .16529846L.33399964 .30233766Z"/>
<path id="font_5_1" d="M.33099366-.2400055C.33099366-.23701477 .33099366-.23500061 .31399537-.21800232 .18899536-.0920105 .15699768 .09700012 .15699768 .25 .15699768 .42399598 .19499207 .59799197 .31799317 .72299197 .33099366 .73498538 .33099366 .7369995 .33099366 .73999026 .33099366 .746994 .32699586 .75 .32099916 .75 .31098939 .75 .22099304 .6819916 .1619873 .5549927 .11099243 .44499208 .09899902 .33399964 .09899902 .25 .09899902 .17199707 .10998535 .050994874 .16499329-.06201172 .22499085-.18501282 .31098939-.25 .32099916-.25 .32699586-.25 .33099366-.24700928 .33099366-.2400055Z"/>
<path id="font_5_2" d="M.2889862 .25C.2889862 .32798768 .27799989 .44898988 .22299195 .56199648 .16299439 .68499758 .07699585 .75 .066986087 .75 .06098938 .75 .056991579 .74598696 .056991579 .73999026 .056991579 .7369995 .056991579 .73498538 .07598877 .71699526 .17399597 .6179962 .23098755 .45899964 .23098755 .25 .23098755 .07899475 .19400025-.09700012 .069992069-.2230072 .056991579-.23500061 .056991579-.23701477 .056991579-.2400055 .056991579-.2460022 .06098938-.25 .066986087-.25 .07699585-.25 .16699219-.18200684 .22599793-.055007936 .2769928 .054992677 .2889862 .16600037 .2889862 .25Z"/>
</defs>
<path transform="matrix(1.00005,0,0,-1.00005,16.685135,225.95664)" stroke-width=".09962" stroke-linecap="butt" stroke-miterlimit="10" stroke-linejoin="miter" fill="none" stroke="#e0e0e0" d="M10.3115 0V206.23003M30.9345 0V206.23003M51.5575 0V206.23003M72.18051 0V206.23003M92.80351 0V206.23003M113.42651 0V206.23003M134.04952 0V206.23003"/>
<path transform="matrix(1.00005,0,0,-1.00005,16.685135,225.95664)" stroke-width=".19925" stroke-linecap="butt" stroke-miterlimit="10" stroke-linejoin="miter" fill="none" stroke="#c0c0c0" d="M20.623 0V206.23003M41.246 0V206.23003M61.869 0V206.23003M82.492 0V206.23003M103.115 0V206.23003M123.73802 0V206.23003M144.36103 0V206.23003"/>
<path transform="matrix(1.00005,0,0,-1.00005,16.685135,225.95664)" stroke-width=".09962" stroke-linecap="butt" stroke-miterlimit="10" stroke-linejoin="miter" fill="none" stroke="#e0e0e0" d="M0 10.3115H144.36103M0 30.9345H144.36103M0 51.5575H144.36103M0 72.18051H144.36103M0 92.80351H144.36103M0 113.42651H144.36103M0 134.04952H144.36103M0 154.67252H144.36103M0 175.29553H144.36103M0 195.91854H144.36103"/>
<path transform="matrix(1.00005,0,0,-1.00005,16.685135,225.95664)" stroke-width=".19925" stroke-linecap="butt" stroke-miterlimit="10" stroke-linejoin="miter" fill="none" stroke="#c0c0c0" d="M0 0H144.36103M0 20.623H144.36103M0 41.246H144.36103M0 61.869H144.36103M0 82.492H144.36103M0 123.73802H144.36103M0 144.36103H144.36103M0 164.98403H144.36103M0 185.60703H144.36103M0 206.23003H144.36103"/>
<path transform="matrix(1.00005,0,0,-1.00005,16.685135,225.95664)" stroke-width=".19925" stroke-linecap="butt" stroke-miterlimit="10" stroke-linejoin="miter" fill="none" stroke="#929292" d="M10.3115 101.69754V104.53249M30.9345 101.69754V104.53249M51.5575 101.69754V104.53249M72.18051 101.69754V104.53249M92.80351 101.69754V104.53249M113.42651 101.69754V104.53249M134.04952 101.69754V104.53249"/>
<path transform="matrix(1.00005,0,0,-1.00005,16.685135,225.95664)" stroke-width=".19925" stroke-linecap="butt" stroke-miterlimit="10" stroke-linejoin="miter" fill="none" stroke="#929292" d="M20.623 100.989V105.24101M41.246 100.989V105.24101M61.869 100.989V105.24101M82.492 100.989V105.24101M103.115 100.989V105.24101M123.73802 100.989V105.24101M144.36103 100.989V105.24101"/>
<path transform="matrix(1.00005,0,0,-1.00005,16.685135,225.95664)" stroke-width=".19925" stroke-linecap="butt" stroke-miterlimit="10" stroke-linejoin="miter" fill="none" stroke="#929292" d="M-1.41745 10.3115H1.41747M-1.41745 30.9345H1.41747M-1.41745 51.5575H1.41747M-1.41745 72.18051H1.41747M-1.41745 92.80351H1.41747M-1.41745 113.42651H1.41747M-1.41745 134.04952H1.41747M-1.41745 154.67252H1.41747M-1.41745 175.29553H1.41747M-1.41745 195.91854H1.41747"/>
<path transform="matrix(1.00005,0,0,-1.00005,16.685135,225.95664)" stroke-width=".19925" stroke-linecap="butt" stroke-miterlimit="10" stroke-linejoin="miter" fill="none" stroke="#929292" d="M-2.12599 0H2.12599M-2.12599 20.623H2.12599M-2.12599 41.246H2.12599M-2.12599 61.869H2.12599M-2.12599 82.492H2.12599M-2.12599 123.73802H2.12599M-2.12599 144.36103H2.12599M-2.12599 164.98403H2.12599M-2.12599 185.60703H2.12599M-2.12599 206.23003H2.12599"/>
<path transform="matrix(1.00005,0,0,-1.00005,16.685135,225.95664)" stroke-width=".3985" stroke-linecap="butt" stroke-miterlimit="10" stroke-linejoin="miter" fill="none" stroke="#000000" d="M-6.37622 103.115H150.73725"/>
<path transform="matrix(-1.00005,-0,0,1.00005,10.308596,122.83649)" d="M3.58653 0C2.52383 .19925 .797 .797-.3985 1.49438V-1.49438C.797-.797 2.52383-.19925 3.58653 0"/>
<path transform="matrix(1.00005,0,0,-1.00005,167.4299,122.83649)" d="M3.58653 0C2.52383 .19925 .797 .797-.3985 1.49438V-1.49438C.797-.797 2.52383-.19925 3.58653 0"/>
<path transform="matrix(1.00005,0,0,-1.00005,16.685135,225.95664)" stroke-width=".3985" stroke-linecap="butt" stroke-miterlimit="10" stroke-linejoin="miter" fill="none" stroke="#000000" d="M0-6.37622V212.60626"/>
<path transform="matrix(0,1.00005,1.00005,0,16.685135,232.33318)" d="M3.58653 0C2.52383 .19925 .797 .797-.3985 1.49438V-1.49438C.797-.797 2.52383-.19925 3.58653 0"/>
<path transform="matrix(0,-1.00005,-1.00005,-0,16.685135,13.339752)" d="M3.58653 0C2.52383 .19925 .797 .797-.3985 1.49438V-1.49438C.797-.797 2.52383-.19925 3.58653 0"/>
<use data-text="1" xlink:href="#font_1_1" transform="matrix(7.970498,0,0,-7.970498,35.192064,133.61902)"/>
<use data-text="2" xlink:href="#font_1_2" transform="matrix(7.970498,0,0,-7.970498,55.816095,133.61902)"/>
<use data-text="3" xlink:href="#font_1_3" transform="matrix(7.970498,0,0,-7.970498,76.44012,133.61902)"/>
<use data-text="4" xlink:href="#font_1_4" transform="matrix(7.970498,0,0,-7.970498,97.06415,133.61902)"/>
<use data-text="5" xlink:href="#font_1_5" transform="matrix(7.970498,0,0,-7.970498,117.68818,133.61902)"/>
<use data-text="6" xlink:href="#font_1_6" transform="matrix(7.970498,0,0,-7.970498,138.31221,133.61902)"/>
<use data-text="7" xlink:href="#font_1_7" transform="matrix(7.970498,0,0,-7.970498,158.93625,133.61902)"/>
<use data-text="&#x2212;" xlink:href="#font_2_1" transform="matrix(7.970498,0,0,-7.970498,.21731568,228.10974)"/>
<use data-text="5" xlink:href="#font_1_5" transform="matrix(7.970498,0,0,-7.970498,6.8036425,228.10974)"/>
<use data-text="&#x2212;" xlink:href="#font_2_1" transform="matrix(7.970498,0,0,-7.970498,.21731568,207.48572)"/>
<use data-text="4" xlink:href="#font_1_4" transform="matrix(7.970498,0,0,-7.970498,6.8036425,207.48572)"/>
<use data-text="&#x2212;" xlink:href="#font_2_1" transform="matrix(7.970498,0,0,-7.970498,.21731568,186.86168)"/>
<use data-text="3" xlink:href="#font_1_3" transform="matrix(7.970498,0,0,-7.970498,6.8036425,186.86168)"/>
<use data-text="&#x2212;" xlink:href="#font_2_1" transform="matrix(7.970498,0,0,-7.970498,.21731568,166.23766)"/>
<use data-text="2" xlink:href="#font_1_2" transform="matrix(7.970498,0,0,-7.970498,6.8036425,166.23766)"/>
<use data-text="&#x2212;" xlink:href="#font_2_1" transform="matrix(7.970498,0,0,-7.970498,.21731568,145.61362)"/>
<use data-text="1" xlink:href="#font_1_1" transform="matrix(7.970498,0,0,-7.970498,6.8036425,145.61362)"/>
<use data-text="1" xlink:href="#font_1_1" transform="matrix(7.970498,0,0,-7.970498,6.8046419,104.78059)"/>
<use data-text="2" xlink:href="#font_1_2" transform="matrix(7.970498,0,0,-7.970498,6.8046419,84.156558)"/>
<use data-text="3" xlink:href="#font_1_3" transform="matrix(7.970498,0,0,-7.970498,6.8046419,63.532518)"/>
<use data-text="4" xlink:href="#font_1_4" transform="matrix(7.970498,0,0,-7.970498,6.8046419,42.908494)"/>
<use data-text="5" xlink:href="#font_1_5" transform="matrix(7.970498,0,0,-7.970498,6.8046419,22.284455)"/>
<g clip-path="url(#clip_3)">
<path transform="matrix(1.00005,0,0,-1.00005,16.685135,225.95664)" stroke-width=".79701" stroke-linecap="butt" stroke-miterlimit="10" stroke-linejoin="miter" fill="none" stroke="#0000ff" d="M0 103.115 .21703 103.76587 .43407 104.41632 .65112 105.06512 .86816 105.71205 1.0852 106.35693 1.30226 106.9983 1.51929 107.63515 1.73634 108.26828 1.95338 108.89626 2.17043 109.51845 2.38748 110.13403 2.60452 110.74261 2.82156 111.34337 3.0386 111.9365 3.25565 112.52054 3.4727 113.0955 3.68974 113.65996 3.9068 114.21431 4.12384 114.7569 4.34087 115.28876 4.55792 115.80847 4.77496 116.31497 4.99202 116.80847 5.20906 117.28836 5.4261 117.75403 5.64314 118.20589 5.86018 118.64165 6.07724 119.06174 6.29428 119.467 6.51132 119.85573 6.72838 120.22777 6.9454 120.58228 7.16246 120.91968 7.3795 121.23912 7.59656 121.54063 7.8136 121.82419 8.03064 122.08879 8.2477 122.33398 8.46472 122.56044 8.68176 122.76727 8.89882 122.95515 9.11586 123.12303 9.33292 123.27048 9.54996 123.39815 9.767 123.50539 9.98404 123.59303 10.20108 123.65964 10.41814 123.70583 10.63518 123.73099 10.85222 123.73636 11.06927 123.7211 11.2863 123.68523 11.50336 123.62871 11.7204 123.55177 11.93744 123.45424 12.1545 123.3369 12.37154 123.19934 12.58858 123.04198 12.80562 122.8638 13.02266 122.66644 13.23972 122.4501 13.45676 122.21439 13.67381 121.95947 13.89084 121.68498 14.10788 121.39235 14.32494 121.08176 14.54198 120.75365 14.75903 120.408 14.97607 120.04422 15.19312 119.66414 15.41016 119.26736 15.6272 118.85469 15.84425 118.42615 16.0613 117.98254 16.27834 117.5239 16.49539 117.051 16.71242 116.5645 16.92947 116.0642 17.14651 115.5513 17.36356 115.0254 17.58061 114.48798 17.79765 113.93939 18.0147 113.3799 18.23174 112.81029 18.44879 112.23079 18.66583 111.642 18.88287 111.04495 19.09993 110.44049 19.31697 109.8284 19.534 109.20952 19.75105 108.58423 19.9681 107.95357 20.18515 107.31859 20.40219 106.67908 20.61925 106.03584 20.83627 105.39014 21.05331 104.74216 21.27037 104.09253 21.48741 103.44167 21.70445 102.79082 21.92152 102.14015 22.13855 101.49031 22.35559 100.84235 22.57262 100.19623 22.78967 99.55342 23.00674 98.91368 23.22377 98.27892 23.44083 97.64804 23.65784 97.02296 23.8749 96.40407 24.09196 95.79198 24.30899 95.18732 24.52605 94.58986 24.74307 94.0017 24.96011 93.4222 25.17719 92.85197 25.39421 92.29266 25.61127 91.74431 25.8283 91.20645 26.04535 90.68098 26.26242 90.16788 26.47943 89.66736 26.69649 89.18086 26.91351 88.70778 27.13057 88.2487 27.34764 87.80531 27.56467 87.37718 27.78171 86.96431 27.99873 86.56752 28.21579 86.18703 28.43286 85.82323 28.64989 85.4778 28.86694 85.14926 29.08395 84.8385 29.30101 84.54625 29.51808 84.27176 29.7351 84.01686 29.95216 83.78094 30.16919 83.5642 30.38625 83.36684 30.6033 83.18866 30.82033 83.03108 31.03738 82.89354 31.25441 82.7762 31.47147 82.67865 31.68854 82.60129 31.90555 82.54459 32.1226 82.50891 32.33963 82.49365 32.55669 82.49902 32.77374 82.52417 32.99078 82.56996 33.20784 82.63678 33.42485 82.72462 33.6419 82.83145 33.85898 82.95891 34.076 83.10596 34.29306 83.27423 34.51009 83.4619 34.72713 83.66896 34.94418 83.8952 35.16122 84.1404 35.37828 84.405 35.5953 84.68814 35.81236 84.98985 36.02942 85.30931 36.24644 85.64609 36.4635 86.001 36.68053 86.37305 36.89758 86.76158 37.11464 87.1662 37.33168 87.5867 37.54872 88.02289 37.76575 88.47412 37.9828 88.9402 38.19987 89.42009 38.4169 89.9132 38.63396 90.4195 38.85097 90.93918 39.06802 91.47125 39.28508 92.01405 39.50212 92.56778 39.71918 93.13264 39.9362 93.7072 40.15324 94.29124 40.37032 94.88416 40.58734 95.48532 40.8044 96.09349 41.02142 96.70908 41.23848 97.3315 41.45554 97.95967 41.67256 98.59218 41.88962 99.22922 42.10664 99.871 42.3237 100.51547 42.54077 101.16263 42.7578 101.81122 42.97484 102.46208 43.19186 103.11253"/>
<path transform="matrix(1.00005,0,0,-1.00005,16.685135,225.95664)" stroke-width=".79701" stroke-linecap="butt" stroke-miterlimit="10" stroke-linejoin="miter" fill="none" stroke="#0000ff" d="M43.1926 103.11418 43.40964 104.41508 43.62668 105.7168 43.8437 107.01399 44.06075 108.30911 44.27777 109.59805 44.49481 110.8808 44.71185 112.15448 44.9289 113.42033 45.14592 114.67625 45.36298 115.92065 45.57999 117.15186 45.79703 118.36902 46.01407 119.57092 46.23111 120.75674 46.44815 121.92484 46.66519 123.07477 46.8822 124.20367 47.09924 125.31195 47.31628 126.39755 47.53333 127.46129 47.75037 128.50028 47.9674 129.51369 48.18445 130.49988 48.40146 131.4605 48.6185 132.39183 48.83554 133.29471 49.05258 134.16706 49.26962 135.00806 49.48666 135.81813 49.70369 136.59522 49.92073 137.33928 50.13776 138.04831 50.3548 138.7231 50.57184 139.36118 50.78888 139.96501 51.00592 140.53215 51.22295 141.06134 51.43997 141.55217 51.65701 142.00463 51.87405 142.41873 52.0911 142.79367 52.30814 143.13106 52.52516 143.42514 52.7422 143.68045 52.95924 143.89536 53.17627 144.07022 53.39331 144.20386 53.61035 144.29627 53.8274 144.34699 54.04442 144.35773 54.26146 144.3276 54.4785 144.25585 54.69553 144.14324 54.91257 143.98856 55.12961 143.7947 55.34663 143.56002 55.56367 143.28449 55.78072 142.96938 55.99776 142.61385 56.2148 142.2191 56.43182 141.78643 56.64886 141.315 56.86589 140.80519 57.08293 140.25704 57.29997 139.67217 57.51701 139.05059 57.73404 138.39478 57.95108 137.70308 58.1681 136.9759 58.38515 136.21576 58.60219 135.42218 58.81923 134.59644 59.03627 133.74059 59.25331 132.85379 59.47034 131.93566 59.68736 130.99028 59.9044 130.0173 60.12144 129.01709 60.33849 127.9913 60.55553 126.93953 60.77257 125.86465 60.98958 124.7675 61.20662 123.64932 61.42366 122.5093 61.6407 121.35027 61.85774 120.17311 62.07478 118.97987 62.29181 117.77054 62.50883 116.54677 62.72588 115.30815 62.94292 114.0584 63.15996 112.79791 63.377 111.52713 63.59404 110.24892 63.81107 108.96245 64.0281 107.67021 64.24515 106.37468 64.46217 105.07501 64.67921 103.77411 64.89626 102.4724 65.1133 101.17108 65.3303 99.87141 65.54736 98.57547 65.76439 97.28323 65.98143 95.9976 66.19849 94.71857 66.41551 93.4486 66.63254 92.18687 66.84956 90.93753 67.06662 89.69807 67.28366 88.47473 67.50069 87.26498 67.71774 86.07051 67.93474 84.89375 68.1518 83.73517 68.36885 82.5947 68.58586 81.4761 68.80292 80.37856 69.01993 79.30368 69.23698 78.25192 69.45403 77.22612 69.67105 76.2255 69.88809 75.25166 70.10512 74.30591 70.32216 73.38777 70.53922 72.50015 70.75623 71.64307 70.97327 70.81772 71.19029 70.02374 71.40735 69.26276 71.6244 68.53517 71.84142 67.84349 72.05847 67.18643 72.27547 66.56526 72.49252 65.97998 72.70958 65.431 72.92659 64.9212 73.14365 64.44934 73.36067 64.01585 73.5777 63.62071 73.79475 63.26434 74.01178 62.94882 74.22882 62.6733 74.44585 62.43861 74.6629 62.2435 74.87994 62.08884 75.09695 61.9754 75.31401 61.90282 75.53102 61.87228 75.74808 61.8822 75.96513 61.93251 76.18214 62.02449 76.39919 62.15771 76.61621 62.3322 76.83325 62.54625 77.05031 62.80116 77.26733 63.09483 77.48438 63.43098 77.7014 63.80634 77.91844 64.2196 78.13548 64.67209 78.35251 65.16249 78.56956 65.69127 78.78658 66.25757 79.00363 66.8606 79.22067 67.49907 79.43768 68.17262 79.65474 68.88205 79.87175 69.6253 80.0888 70.4028 80.30586 71.21204 80.52287 72.05222 80.73991 72.92458 80.95694 73.82704 81.174 74.75838 81.39104 75.71817 81.60806 76.70436 81.8251 77.71695 82.04211 78.75552 82.25917 79.81926 82.47623 80.90527 82.69324 82.01231 82.9103 83.14162 83.1273 84.29074 83.34435 85.45883 83.5614 86.64464 83.77841 87.84656 83.99547 89.06332 84.2125 90.29408 84.42955 91.5385 84.64659 92.79485 84.8636 94.05986 85.08064 95.33435 85.29767 96.6167 85.51472 97.90521 85.73177 99.19994 85.94879 100.49753 86.16583 101.79843 86.38284 103.09975"/>
<path transform="matrix(1.00005,0,0,-1.00005,16.685135,225.95664)" stroke-width=".79701" stroke-linecap="butt" stroke-miterlimit="10" stroke-linejoin="miter" fill="none" stroke="#0000ff" d="M86.38356 103.0989 86.60062 105.05026 86.81766 107.00162 87.03471 108.94801 87.25177 110.89008 87.4688 112.82472 87.68585 114.7476 87.90291 116.65999 88.11995 118.55875 88.337 120.44328 88.55406 122.30925 88.77109 124.15604 88.98814 125.9818 89.2052 127.78465 89.42224 129.56401 89.6393 131.31737 89.85635 133.04105 90.07338 134.73688 90.29044 136.3993 90.50749 138.02768 90.72453 139.62206 90.94159 141.183 91.15865 142.7025 91.37569 144.18303 91.59273 145.62273 91.80978 147.02097 92.02682 148.37651 92.24388 149.68505 92.46094 150.94594 92.67798 152.16104 92.89502 153.32666 93.11208 154.44463 93.32912 155.50879 93.54617 156.52034 93.76323 157.47931 93.98027 158.38445 94.19731 159.23577 94.41437 160.02954 94.63141 160.7658 94.84846 161.44574 95.06552 162.06813 95.28256 162.63176 95.49962 163.13661 95.71666 163.57836 95.9337 163.96132 96.15076 164.2849 96.36781 164.54723 96.58485 164.7483 96.80191 164.88689 97.01895 164.96298 97.236 164.97907 97.45305 164.93328 97.6701 164.82749 97.88715 164.65859 98.1042 164.4272 98.32124 164.13518 98.53828 163.78376 98.75534 163.37233 98.9724 162.89965 99.18944 162.36634 99.4065 161.77548 99.62355 161.12462 99.84058 160.41808 100.05763 159.65277 100.27469 158.83052 100.49173 157.95384 100.70879 157.02272 100.92584 156.03838 101.14287 155.0027 101.35992 153.91132 101.57698 152.77108 101.79402 151.58072 102.01108 150.34273 102.22813 149.05893 102.44516 147.72751 102.66222 146.35155 102.87927 144.93227 103.09631 143.47402 103.31337 141.97368 103.53043 140.43502 103.74747 138.85735 103.96451 137.24504 104.18156 135.59934 104.3986 133.92206 104.61566 132.21199 104.83272 130.47409 105.04976 128.70897 105.2668 126.91849 105.48386 125.10387 105.7009 123.2676 105.91795 121.41092 106.13501 119.53503 106.35205 117.64308 106.56909 115.73877 106.78615 113.81958 107.00319 111.89113 107.22025 109.95338 107.4373 108.01009 107.65434 106.05934 107.8714 104.108 108.08844 102.1548 108.3055 100.20345 108.52252 98.25395 108.7396 96.30942 108.95662 94.37106 109.17369 92.4426 109.39075 90.52466 109.60777 88.62033 109.82483 86.72589 110.04187 84.85126 110.25893 82.99458 110.476 81.15768 110.69301 79.34306 110.91008 77.55197 111.1271 75.78561 111.34418 74.0477 111.56123 72.33702 111.77826 70.65851 111.99533 69.0128 112.21234 67.39987 112.42941 65.82222 112.64648 64.2823 112.86351 62.78136 113.08057 61.32248 113.2976 59.90198 113.51465 58.526 113.73172 57.19397 113.94875 55.90895 114.16582 54.67033 114.38284 53.47873 114.59991 52.33786 114.81696 51.2465 115.03398 50.20895 115.25105 49.22337 115.46808 48.29163 115.68515 47.41248 115.90222 46.58899 116.11925 45.8243 116.3363 45.11775 116.55333 44.46503 116.77039 43.87419 116.98746 43.33902 117.20448 42.86572 117.42155 42.45242 117.63857 42.1004 117.85564 41.80775 118.0727 41.57576 118.28973 41.40561 118.50679 41.29672 118.72382 41.25095 118.94087 41.2658 119.15794 41.34251 119.37497 41.47925 119.59204 41.6803 119.80907 41.94202 120.02612 42.26251 120.2432 42.64485 120.4602 43.08475 120.67728 43.59021 120.8943 44.15198 121.11137 44.77252 121.32843 45.45186 121.54547 46.18684 121.76251 46.98003 121.97954 47.83072 122.19661 48.73524 122.41368 49.69359 122.6307 50.7033 122.84778 51.76619 123.06479 52.88231 123.28186 54.04794 123.49892 55.26242 123.71594 56.5233 123.93301 57.83122 124.15004 59.1849 124.36711 60.58191 124.58415 62.0216 124.8012 63.50214 125.01825 65.02101 125.23528 66.5795 125.45235 68.17511 125.66942 69.8035 125.88643 71.46468 126.1035 73.15802 126.32053 74.88232 126.5376 76.63507 126.75465 78.4138 126.97168 80.21605 127.18874 82.04118 127.40576 83.88734 127.62283 85.7558 127.83989 87.63908 128.05693 89.5366 128.27399 91.44838 128.49103 93.37248 128.70807 95.30714 128.92514 97.24796 129.14217 99.19437 129.35924 101.14694 129.57627 103.09831"/>
<path transform="matrix(1.00005,0,0,-1.00005,16.685135,225.95664)" stroke-width=".79701" stroke-linecap="butt" stroke-miterlimit="10" stroke-linejoin="miter" fill="none" stroke="#0000ff" d="M129.57639 103.0952 129.79344 105.697 130.01047 108.2988 130.22753 110.894 130.44458 113.48425 130.66162 116.06213 130.87868 118.62598 131.09574 121.17664 131.31276 123.70749 131.52982 126.21936 131.74687 128.70897 131.96392 131.17218 132.18097 133.60488 132.39803 136.01035 132.61505 138.38199 132.8321 140.71817 133.04917 143.01804 133.2662 145.27669 133.48326 147.49405 133.70032 149.6669 133.91736 151.79354 134.1344 153.87233 134.35146 155.89833 134.5685 157.8732 134.78556 159.79445 135.00261 161.65712 135.21965 163.46369 135.43669 165.20839 135.65375 166.89124 135.87079 168.51137 136.08785 170.06552 136.3049 171.55615 136.52194 172.9742 136.739 174.32378 136.95604 175.60158 137.17308 176.80843 137.39014 177.94269 137.6072 179.00107 137.82424 179.98273 138.04129 180.89095 138.25833 181.71916 138.47537 182.46903 138.69243 183.14382 138.90949 183.7328 139.12653 184.24343 139.34358 184.67485 139.56063 185.02463 139.77767 185.29273 139.99472 185.47751 140.21178 185.57898 140.42882 185.60044 140.64588 185.53939 140.86293 185.3983 141.07996 185.17311 141.29701 184.86295 141.51407 184.47524 141.73111 184.00667 141.94817 183.4581 142.16522 182.82787 142.38225 182.11678 142.5993 181.32898 142.81636 180.46115 143.0334 179.5191 143.25046 178.50034 143.46752 177.40238 143.68454 176.23429 143.9016 174.99196 144.11865 173.68033 144.3357 172.29694 144.55275 170.84177 144.7698 169.32144 144.98685 167.73595 145.20389 166.08446 145.42095 164.37192 145.63799 162.59835 145.85504 160.76209 146.0721 158.87136 146.28914 156.92539 146.50618 154.92577 146.72324 152.87419 146.94028 150.77065 147.15734 148.6209 147.37439 146.4266 147.59143 144.18944 147.80847 141.91019 148.02553 139.59299 148.24257 137.23783 148.45963 134.84969 148.67668 132.43267 148.89373 129.98514 149.11078 127.50789 149.32782 125.00838 149.54486 122.48576 149.76192 119.94585 149.97898 117.38777 150.19602 114.8165 150.41307 112.23038 150.63011 109.64012 150.84716 107.0408 151.06421 104.43817 151.28127 101.8339 151.49832 99.23293 151.71535 96.63278 151.9324 94.03923 152.14943 91.45642 152.3665 88.88348 152.58358 86.32622 152.8006 83.7863 153.01767 81.26204 153.2347 78.76335 153.45174 76.28613 153.66881 73.83693 153.88584 71.4191 154.1029 69.02849 154.31993 66.67499 154.537 64.35612 154.75405 62.07771 154.97109 59.84135 155.18814 57.64377 155.40517 55.4932 155.62224 53.39047 155.83931 51.33806 156.05632 49.3368 156.27339 47.39 156.49042 45.49681 156.70748 43.66135 156.92455 41.88695 157.14157 40.1736 157.35865 38.52045 157.57566 36.9333 157.79273 35.41216 158.00978 33.957 158.22682 32.57196 158.44388 31.2595 158.6609 30.01718 158.87796 28.84497 159.09503 27.747 159.31206 26.72658 159.52913 25.78369 159.74616 24.91505 159.96323 24.12724 160.18027 23.41368 160.3973 22.78262 160.61437 22.23323 160.83139 21.7622 161.04846 21.37038 161.26552 21.06102 161.48256 20.83582 161.6996 20.69063 161.91664 20.62958 162.1337 20.64938 162.35077 20.75168 162.5678 20.93481 162.78487 21.20042 163.00188 21.54938 163.21895 21.97835 163.436 22.48813 163.65303 23.07631 163.8701 23.74861 164.08713 24.49847 164.30419 25.32503 164.52124 26.23079 164.73828 27.21078 164.95534 28.27 165.17238 29.40262 165.38944 30.60864 165.6065 31.8848 165.82352 33.2319 166.04059 34.65158 166.25762 36.13972 166.47469 37.69223 166.69174 39.31155 166.90877 40.99274 167.12583 42.73746 167.34285 44.54239 167.55992 46.40424 167.77698 48.32545 167.99402 50.29868 168.21108 52.32468 168.4281 54.40182 168.64516 56.52846 168.86223 58.70131 169.07926 60.91621 169.29633 63.17401 169.51335 65.47307 169.73043 67.80841 169.94747 70.18172 170.16449 72.58553 170.38156 75.01823 170.59859 77.47978 170.81566 79.96774 171.03272 82.48044 171.24974 85.01295 171.4668 87.56114 171.68384 90.12581 171.9009 92.70451 172.11797 95.2931 172.33499 97.88913 172.55205 100.49094 172.76908 103.09357"/>
</g>
<use data-text="t" xlink:href="#font_4_1" transform="matrix(9.963098,0,0,-9.963098,174.55402,125.887638)"/>
<use data-text="x" xlink:href="#font_4_2" transform="matrix(9.963098,0,0,-9.963098,13.83799,6.206665)"/>
<path transform="matrix(1.00005,0,0,-1.00005,16.685135,225.95664)" d="M96.4654 184.96865H141.27393V201.90529H96.4654Z" fill="#ffffff"/>
<path transform="matrix(1.00005,0,0,-1.00005,16.685135,225.95664)" stroke-width=".3985" stroke-linecap="butt" stroke-miterlimit="10" stroke-linejoin="miter" fill="none" stroke="#000000" d="M96.4654 184.96865H141.27393V201.90529H96.4654Z"/>
<path transform="matrix(1.00005,0,0,-1.00005,116.54212,32.50998)" stroke-width=".79701" stroke-linecap="butt" stroke-miterlimit="10" stroke-linejoin="miter" fill="none" stroke="#0000ff" d="M0 0H8.50412 17.00826"/>
<use data-text="x" xlink:href="#font_4_2" transform="matrix(9.963098,0,0,-9.963098,135.94211,35.49913)"/>
<use data-text="(" xlink:href="#font_5_1" transform="matrix(9.963098,0,0,-9.963098,141.63639,35.49913)"/>
<use data-text="t" xlink:href="#font_4_1" transform="matrix(9.963098,0,0,-9.963098,145.51158,35.49913)"/>
<use data-text=")" xlink:href="#font_5_2" transform="matrix(9.963098,0,0,-9.963098,149.10877,35.49913)"/>
</svg>
