<svg xmlns="http://www.w3.org/2000/svg" xmlns:xlink="http://www.w3.org/1999/xlink" version="1.1" width="271" height="253" viewBox="0 0 271 253">
<defs>
<path id="font_1_1" d="M.69898989 .22743225C.71499636 .22743225 .7369995 .22743225 .7369995 .25042726 .7369995 .2734375 .71499636 .2734375 .69898989 .2734375H.12599182C.10998535 .2734375 .08799744 .2734375 .08799744 .25042726 .08799744 .22743225 .10998535 .22743225 .12599182 .22743225H.69898989Z"/>
<path id="font_2_5" d="M.13999939 .5618439C.15299988 .55784609 .19299317 .54785159 .23498535 .54785159 .3600006 .54785159 .43598939 .6358948 .43598939 .6510315 .43598939 .6620331 .42900086 .66503909 .42399598 .66503909 .42199708 .66503909 .41999818 .66503909 .41099549 .6600342 .37199403 .6450348 .32598878 .632843 .27198792 .632843 .21299744 .632843 .1639862 .6480255 .1329956 .6600342 .12298584 .66503909 .12098694 .66503909 .11999512 .66503909 .10699463 .66503909 .10699463 .6540375 .10699463 .6358948V.34292604C.10699463 .32492066 .10699463 .312912 .12298584 .312912 .1309967 .312912 .13398743 .3169098 .13899231 .32492066 .15098572 .33992005 .18899536 .39093019 .27398683 .39093019 .32998658 .39093019 .35699464 .34492494 .3659973 .32591249 .3829956 .28990174 .3849945 .24389649 .3849945 .20487976 .3849945 .1678772 .38398744 .11387634 .35598756 .069732669 .33699037 .039611818 .29699708 .008514404 .24398804 .008514404 .1789856 .008514404 .114990238 .0496521 .09199524 .11488342 .09498596 .11387634 .100997928 .11387634 .101989749 .11387634 .12998963 .11387634 .1519928 .13188172 .1519928 .16288758 .1519928 .19989014 .12298584 .21289063 .102996829 .21289063 .084991458 .21289063 .052993776 .20288086 .052993776 .15988159 .052993776 .069732669 .1309967-.021484375 .24598694-.021484375 .37098695-.021484375 .47698976 .07574463 .47698976 .19989014 .47698976 .31591798 .3929901 .4189453 .2749939 .4189453 .22499085 .4189453 .17799378 .40293885 .13999939 .368927V.5618439Z"/>
<path id="font_2_4" d="M.3939972 .6468048C.3939972 .6667938 .3939972 .6748047 .37298585 .6748047 .3600006 .6748047 .35899354 .6737976 .34899903 .65979006L.02999878 .197052V.1640625H.31199647V.08100891C.31199647 .04399109 .30899049 .032989503 .23199463 .032989503H.20899964V0C.2939911 .0029907227 .29599 .0029907227 .35299684 .0029907227 .4099884 .0029907227 .4119873 .0029907227 .49699403 0V.032989503H.47399903C.39698792 .032989503 .3939972 .04399109 .3939972 .08100891V.1640625H.5V.197052H.3939972V.6468048M.31900025 .5658417V.197052H.06498718L.31900025 .5658417Z"/>
<path id="font_2_3" d="M.25299073 .33370973C.33198548 .33370973 .38198854 .27557374 .38198854 .17037964 .38198854 .045440675 .31098939 .008514404 .2579956 .008514404 .20298767 .008514404 .12799073 .0284729 .09298706 .08137512 .1289978 .08137512 .1539917 .10437012 .1539917 .13737488 .1539917 .16937256 .1309967 .19238281 .09899902 .19238281 .07199097 .19238281 .04399109 .17536927 .04399109 .13537598 .04399109 .04045105 .1459961-.021484375 .2599945-.021484375 .3929901-.021484375 .48599244 .070388797 .48599244 .17037964 .48599244 .25352479 .41999818 .32969667 .31799317 .3517456 .39698792 .37982179 .45599366 .4479828 .45599366 .52804568 .45599366 .6080475 .3659973 .66503909 .2619934 .66503909 .15499878 .66503909 .07398987 .6070404 .07398987 .53105166 .07398987 .49404908 .09899902 .4780426 .125 .4780426 .1559906 .4780426 .17599488 .5000458 .17599488 .52905276 .17599488 .56604006 .14399719 .5800476 .12199402 .5810547 .1639862 .6360321 .24099732 .6390381 .25898744 .6390381 .2849884 .6390381 .36099244 .6310272 .36099244 .52804568 .36099244 .45799256 .33198548 .41589356 .31799317 .39985658 .28799439 .36878968 .2649994 .36679078 .20399475 .3627777 .18499756 .36177064 .1769867 .36076356 .1769867 .3477478 .1769867 .33370973 .18598938 .33370973 .20298767 .33370973H.25299073Z"/>
<path id="font_2_2" d="M.28199769 .20405579C.2979889 .21907044 .33999635 .2520752 .35598756 .26608277 .41799928 .32312013 .47698976 .3781433 .47698976 .46917726 .47698976 .588089 .3769989 .66503909 .2519989 .66503909 .13198853 .66503909 .052993776 .57411196 .052993776 .48516847 .052993776 .4361725 .09199524 .4291687 .10598755 .4291687 .1269989 .4291687 .1579895 .4441681 .1579895 .48217774 .1579895 .5341797 .10798645 .5341797 .09599304 .5341797 .125 .6070709 .19198609 .6320343 .24099732 .6320343 .33399964 .6320343 .38198854 .55314639 .38198854 .46917726 .38198854 .36514283 .30899049 .28910829 .19099427 .16804505L.06498718 .037994386C.052993776 .026992798 .052993776 .024993897 .052993776 0H.44799806L.47698976 .17904663H.44599916C.44299317 .1590271 .43499757 .10900879 .4229889 .08999634 .4169922 .08198547 .34098817 .08198547 .32499696 .08198547H.14698792L.28199769 .20405579Z"/>
<path id="font_2_1" d="M.31399537 .63708499C.31399537 .664032 .31199647 .66503909 .2849884 .66503909 .24398804 .6251831 .19099427 .6013489 .09599304 .6013489V.5683594C.12298584 .5683594 .1769867 .5683594 .23498535 .5953522V.08203125C.23498535 .04499817 .23199463 .032989503 .13699341 .032989503H.101989749V0C.14299011 .0029907227 .22898865 .0029907227 .27398683 .0029907227 .31900025 .0029907227 .4059906 .0029907227 .44699098 0V.032989503H.4119873C.31698609 .032989503 .31399537 .04499817 .31399537 .08203125V.63708499Z"/>
<clipPath id="clip_3">
<path transform="matrix(1.00006,0,0,-1.00003,11.627502,117.29114)" d="M0 0H239.11191V95.64476H0Z"/>
</clipPath>
<path id="font_4_1" d="M.33399964 .30233766C.33999635 .32835389 .36299134 .42037965 .43299867 .42037965 .43798829 .42037965 .46199037 .42037965 .48298646 .40734864 .45498658 .402359 .43499757 .37734986 .43499757 .35334779 .43499757 .33735658 .44599916 .31835938 .47299195 .31835938 .49499513 .31835938 .5269928 .3363495 .5269928 .37635804 .5269928 .42837525 .46798707 .4423828 .43399049 .4423828 .37599183 .4423828 .34098817 .38935853 .32899476 .36634828 .3039856 .43237306 .25 .4423828 .22099304 .4423828 .116989139 .4423828 .05999756 .3133545 .05999756 .28834535 .05999756 .27833558 .069992069 .27833558 .07199097 .27833558 .07998657 .27833558 .08299255 .28033448 .084991458 .28933717 .11898804 .39535523 .18499756 .42037965 .21899414 .42037965 .23799134 .42037965 .272995 .4113617 .272995 .35334779 .272995 .32235719 .2559967 .25532533 .21899414 .11528015 .20298767 .053268434 .16799927 .011245728 .12399292 .011245728 .117996219 .011245728 .09498596 .011245728 .07398987 .024276734 .09899902 .029266358 .12098694 .05027771 .12098694 .07827759 .12098694 .105270389 .09899902 .11328125 .083999637 .11328125 .053985597 .11328125 .0289917 .08728027 .0289917 .055267335 .0289917 .009246826 .07899475-.0107421879 .12298584-.0107421879 .18899536-.0107421879 .22499085 .059280397 .22799683 .0652771 .23999024 .028274537 .27598573-.0107421879 .33599855-.0107421879 .43899537-.0107421879 .49598695 .118270877 .49598695 .14328003 .49598695 .1532898 .4869995 .1532898 .48399354 .1532898 .47499085 .1532898 .47299195 .14929199 .47099305 .14228821 .43798829 .03527832 .36999513 .011245728 .33799745 .011245728 .29899598 .011245728 .2829895 .043273927 .2829895 .07727051 .2829895 .09927368 .2889862 .121276859 .2999878 .16529846L.33399964 .30233766Z"/>
<path id="font_4_2" d="M.48599244 .38136292C.48999024 .39537049 .48999024 .39736939 .48999024 .40437318 .48999024 .42237855 .47599793 .43138124 .46099855 .43138124 .45098878 .43138124 .43499757 .42536927 .42599488 .41036988 .42399598 .405365 .41600038 .37435914 .4119873 .35635377 .40499879 .33035279 .397995 .30334474 .3919983 .27633668L.34700013 .09628296C.34298707 .08126831 .2999878 .011245728 .23399353 .011245728 .18299866 .011245728 .17199707 .055267335 .17199707 .0922699 .17199707 .1382904 .18899536 .20030213 .22299195 .28833009 .23899842 .3293457 .24299622 .3403473 .24299622 .36035157 .24299622 .405365 .21099854 .4423828 .16099549 .4423828 .06599426 .4423828 .0289917 .29733277 .0289917 .28833009 .0289917 .27833558 .038986207 .27833558 .040985109 .27833558 .050994874 .27833558 .051986696 .28033448 .056991579 .29634095 .083999637 .3903656 .12399292 .42037965 .1579895 .42037965 .1659851 .42037965 .18299866 .42037965 .18299866 .3883667 .18299866 .36335755 .17298889 .3373413 .1659851 .31834413 .12599182 .21231079 .10798645 .1552887 .10798645 .10827637 .10798645 .019256592 .17098999-.0107421879 .22999573-.0107421879 .2689972-.0107421879 .30299378 .0062561037 .33099366 .03425598 .31799317-.017745972 .30599977-.06674194 .2659912-.11973572 .23999024-.15385437 .20199585-.18309021 .1559906-.18309021 .14199829-.18309021 .09700012-.18005371 .07998657-.14074707 .09599304-.14074707 .10899353-.14074707 .12298584-.1287384 .1329956-.11973572 .14299011-.10673523 .14299011-.08773804 .14299011-.056747438 .115997318-.052734376 .10598755-.052734376 .08299255-.052734376 .049987794-.068740848 .049987794-.11773682 .049987794-.16796875 .09399414-.20507813 .1559906-.20507813 .25898744-.20507813 .3619995-.11373901 .3899994-.00074768069L.48599244 .38136292Z"/>
<path id="font_5_9" d="M.20799256 .19424439C.22999573 .19024658 .31199647 .17424011 .31199647 .102249149 .31199647 .051254274 .2769928 .011245728 .19898987 .011245728 .114990238 .011245728 .07899475 .06825256 .05999756 .15324402 .056991579 .1662445 .055999757 .17024231 .04598999 .17024231 .032989503 .17024231 .032989503 .16323853 .032989503 .14524842V.013244629C.032989503-.003753662 .032989503-.0107421879 .04399109-.0107421879 .04899597-.0107421879 .049987794-.009750366 .068984989 .009246826 .070999149 .011245728 .070999149 .013244629 .08898926 .03224182 .1329956-.009750366 .17799378-.0107421879 .19898987-.0107421879 .31399537-.0107421879 .3600006 .056243898 .3600006 .12825012 .3600006 .1812439 .32998658 .21124268 .31799317 .22323609 .2849884 .25523377 .24598694 .26324464 .20399475 .27124024 .147995 .28224183 .08099365 .2952423 .08099365 .35324098 .08099365 .38822938 .10699463 .42922975 .19299317 .42922975 .30299378 .42922975 .30799867 .3392334 .30999757 .3082428 .31098939 .2992401 .31999208 .2992401 .32199098 .2992401 .33499146 .2992401 .33499146 .304245 .33499146 .3232422V.4242401C.33499146 .4412384 .33499146 .4482422 .32398988 .4482422 .31900025 .4482422 .31698609 .4482422 .3039856 .43623353 .30099488 .43223573 .29100038 .42323304 .2869873 .42022706 .24899292 .4482422 .20799256 .4482422 .19299317 .4482422 .070999149 .4482422 .032989503 .38124085 .032989503 .3252411 .032989503 .29023744 .04899597 .26223756 .07598877 .24023438 .10798645 .21424866 .13598633 .2082367 .20799256 .19424439Z"/>
<path id="font_5_6" d="M.1769867 .4423828 .036987306 .43138124V.40037538C.101989749 .40037538 .11099243 .3943634 .11099243 .34532167V.076034549C.11099243 .0309906 .099990848 .0309906 .032989503 .0309906V0C.06498718 .0009918213 .11898804 .0029907227 .14299011 .0029907227 .17799378 .0029907227 .21299744 .0009918213 .24699402 0V.0309906C.18099976 .0309906 .1769867 .035995485 .1769867 .075042728V.4423828M.18099976 .6159363C.18099976 .64793398 .1559906 .6689453 .12799073 .6689453 .09700012 .6689453 .07499695 .64193728 .07499695 .6159363 .07499695 .5889435 .09700012 .5629425 .12799073 .5629425 .1559906 .5629425 .18099976 .5839386 .18099976 .6159363Z"/>
<path id="font_5_7" d="M.10998535 .34429933V.076034549C.10998535 .0309906 .09899902 .0309906 .03199768 .0309906V0C.066986087 .0009918213 .117996219 .0029907227 .14498902 .0029907227 .17098999 .0029907227 .22299195 .0009918213 .25698854 0V.0309906C.18998719 .0309906 .1789856 .0309906 .1789856 .076034549V.2602234C.1789856 .36431886 .25 .42037965 .31399537 .42037965 .3769989 .42037965 .3880005 .36631776 .3880005 .30926515V.076034549C.3880005 .0309906 .3769989 .0309906 .30999757 .0309906V0C.34498597 .0009918213 .3959961 .0029907227 .4229889 .0029907227 .44898988 .0029907227 .5009918 .0009918213 .5349884 0V.0309906C.48298646 .0309906 .45799256 .0309906 .45700074 .061019899V.25221253C.45700074 .3383026 .45700074 .36932374 .42599488 .405365 .4119873 .42237855 .3789978 .4423828 .32099916 .4423828 .24798584 .4423828 .20098877 .39935304 .17298889 .33729554V.4423828L.03199768 .43138124V.40037538C.101989749 .4003601 .10998535 .39335633 .10998535 .34429933Z"/>
<path id="font_5_1" d="M.33099366-.2400055C.33099366-.23701477 .33099366-.23500061 .31399537-.21800232 .18899536-.0920105 .15699768 .09700012 .15699768 .25 .15699768 .42399598 .19499207 .59799197 .31799317 .72299197 .33099366 .73498538 .33099366 .7369995 .33099366 .73999026 .33099366 .746994 .32699586 .75 .32099916 .75 .31098939 .75 .22099304 .6819916 .1619873 .5549927 .11099243 .44499208 .09899902 .33399964 .09899902 .25 .09899902 .17199707 .10998535 .050994874 .16499329-.06201172 .22499085-.18501282 .31098939-.25 .32099916-.25 .32699586-.25 .33099366-.24700928 .33099366-.2400055Z"/>
<path id="font_5_3" d="M.2939911 .16503906V.07800293C.2939911 .041992189 .2919922 .0309906 .21798706 .0309906H.19699097V0C.23799134 .0029907227 .2899933 .0029907227 .33198548 .0029907227 .37399293 .0029907227 .4269867 .0029907227 .46798707 0V.0309906H.44699098C.37298585 .0309906 .37098695 .041992189 .37098695 .07800293V.16503906H.47099305V.19602967H.37098695V.65075686C.37098695 .67074587 .37098695 .6767578 .35499574 .6767578 .34599305 .6767578 .34298707 .6767578 .33499146 .66474917L.027999878 .19602967V.16503906H.2939911M.2999878 .19602967H.055999757L.2999878 .5688019V.19602967Z"/>
<path id="font_5_2" d="M.2889862 .25C.2889862 .32798768 .27799989 .44898988 .22299195 .56199648 .16299439 .68499758 .07699585 .75 .066986087 .75 .06098938 .75 .056991579 .74598696 .056991579 .73999026 .056991579 .7369995 .056991579 .73498538 .07598877 .71699526 .17399597 .6179962 .23098755 .45899964 .23098755 .25 .23098755 .07899475 .19400025-.09700012 .069992069-.2230072 .056991579-.23500061 .056991579-.23701477 .056991579-.2400055 .056991579-.2460022 .06098938-.25 .066986087-.25 .07699585-.25 .16699219-.18200684 .22599793-.055007936 .2769928 .054992677 .2889862 .16600037 .2889862 .25Z"/>
<clipPath id="clip_6">
<path transform="matrix(1.00006,0,0,-1.00003,11.627502,241.28588)" d="M0 0H239.11191V95.64476H0Z"/>
</clipPath>
<path id="font_5_5" d="M.116989139 .21801758C.116989139 .38093568 .19898987 .42323304 .2519989 .42323304 .26098634 .42323304 .32398988 .42222596 .35899354 .38594056 .31799317 .38293458 .31199647 .3529358 .31199647 .3399353 .31199647 .31393434 .32998658 .2939453 .35798646 .2939453 .38398744 .2939453 .4039917 .3109436 .4039917 .34094239 .4039917 .40911866 .32798768 .4482422 .25099183 .4482422 .12599182 .4482422 .033996583 .3399353 .033996583 .21601868 .033996583 .08816528 .1329956-.0107421879 .24899292-.0107421879 .3829956-.0107421879 .4149933 .10914612 .4149933 .119140628 .4149933 .12911988 .40499879 .12911988 .4019928 .12911988 .3929901 .12911988 .3909912 .12512207 .3889923 .119140628 .3600006 .026229859 .29499818 .014251709 .2579956 .014251709 .20498657 .014251709 .116989139 .0572052 .116989139 .21801758Z"/>
<path id="font_5_8" d="M.47099305 .21424866C.47099305 .34223939 .37098695 .4482422 .25 .4482422 .125 .4482422 .027999878 .3392334 .027999878 .21424866 .027999878 .085250858 .13198853-.0107421879 .24899292-.0107421879 .36999513-.0107421879 .47099305 .087249759 .47099305 .21424866M.25 .014251709C.20698548 .014251709 .16299439 .035247804 .13598633 .08125305 .11099243 .12524414 .11099243 .18624878 .11099243 .22224427 .11099243 .26124574 .11099243 .31523133 .1349945 .35923768 .1619873 .40522767 .20899964 .426239 .24899292 .426239 .29299928 .426239 .33599855 .40423585 .3619995 .36123658 .3880005 .3182373 .3880005 .26023866 .3880005 .22224427 .3880005 .18624878 .3880005 .13224793 .3659973 .08824158 .34399415 .04324341 .2999878 .014251709 .25 .014251709Z"/>
<path id="font_5_4" d="M.13198853 .327713V.35173036C.13198853 .6047821 .2559967 .64100649 .30699159 .64100649 .33099366 .64100649 .37298585 .634964 .394989 .6007538 .37998963 .6007538 .33999635 .6007538 .33999635 .5557556 .33999635 .524765 .3639984 .5097656 .38598634 .5097656 .4019928 .5097656 .43199159 .51875308 .43199159 .5577545 .43199159 .6178589 .3880005 .6660156 .30499269 .6660156 .1769867 .6660156 .041992189 .5367584 .041992189 .31570436 .041992189 .048553468 .1579895-.022460938 .25099183-.022460938 .3619995-.022460938 .45700074 .07156372 .45700074 .2036438 .45700074 .33070375 .36799623 .4267578 .25698854 .4267578 .18899536 .4267578 .1519928 .37573243 .13198853 .327713M.25099183 .0055389406C.18798828 .0055389406 .1579895 .06556702 .1519928 .080566409 .13398743 .127594 .13398743 .2076416 .13398743 .22564698 .13398743 .30369569 .1659851 .40374757 .2559967 .40374757 .27198792 .40374757 .31799317 .40374757 .34899903 .34172059 .36698915 .30470277 .36698915 .2536621 .36698915 .20463562 .36698915 .15661621 .36698915 .10658264 .34999085 .0705719 .31999208 .010528564 .27398683 .0055389406 .25099183 .0055389406Z"/>
</defs>
<path transform="matrix(1.00006,0,0,-1.00003,11.627502,117.29114)" stroke-width=".09962" stroke-linecap="butt" stroke-miterlimit="10" stroke-linejoin="miter" fill="none" stroke="#e0e0e0" d="M11.95558 0V95.64476M35.86678 0V95.64476M59.77797 0V95.64476M83.68916 0V95.64476M107.60036 0V95.64476M131.51155 0V95.64476M155.42275 0V95.64476M179.33393 0V95.64476M203.24512 0V95.64476M227.15631 0V95.64476"/>
<path transform="matrix(1.00006,0,0,-1.00003,11.627502,117.29114)" stroke-width=".19925" stroke-linecap="butt" stroke-miterlimit="10" stroke-linejoin="miter" fill="none" stroke="#c0c0c0" d="M0 0V95.64476M23.91118 0V95.64476M47.82237 0V95.64476M71.73357 0V95.64476M95.64476 0V95.64476M143.46715 0V95.64476M167.37834 0V95.64476M191.28952 0V95.64476M215.20072 0V95.64476M239.11191 0V95.64476"/>
<path transform="matrix(1.00006,0,0,-1.00003,11.627502,117.29114)" stroke-width=".09962" stroke-linecap="butt" stroke-miterlimit="10" stroke-linejoin="miter" fill="none" stroke="#e0e0e0" d="M0 11.95558H239.11191M0 35.86678H239.11191M0 59.77797H239.11191M0 83.68916H239.11191"/>
<path transform="matrix(1.00006,0,0,-1.00003,11.627502,117.29114)" stroke-width=".19925" stroke-linecap="butt" stroke-miterlimit="10" stroke-linejoin="miter" fill="none" stroke="#c0c0c0" d="M0 0H239.11191M0 23.91118H239.11191M0 71.73357H239.11191M0 95.64476H239.11191"/>
<path transform="matrix(1.00006,0,0,-1.00003,11.627502,117.29114)" stroke-width=".19925" stroke-linecap="butt" stroke-miterlimit="10" stroke-linejoin="miter" fill="none" stroke="#929292" d="M11.95558 46.40492V49.23982M35.86678 46.40492V49.23982M59.77797 46.40492V49.23982M83.68916 46.40492V49.23982M107.60036 46.40492V49.23982M131.51155 46.40492V49.23982M155.42275 46.40492V49.23982M179.33393 46.40492V49.23982M203.24512 46.40492V49.23982M227.15631 46.40492V49.23982"/>
<path transform="matrix(1.00006,0,0,-1.00003,11.627502,117.29114)" stroke-width=".19925" stroke-linecap="butt" stroke-miterlimit="10" stroke-linejoin="miter" fill="none" stroke="#929292" d="M0 45.69643V49.94832M23.91118 45.69643V49.94832M47.82237 45.69643V49.94832M71.73357 45.69643V49.94832M95.64476 45.69643V49.94832M143.46715 45.69643V49.94832M167.37834 45.69643V49.94832M191.28952 45.69643V49.94832M215.20072 45.69643V49.94832M239.11191 45.69643V49.94832"/>
<path transform="matrix(1.00006,0,0,-1.00003,11.627502,117.29114)" stroke-width=".19925" stroke-linecap="butt" stroke-miterlimit="10" stroke-linejoin="miter" fill="none" stroke="#929292" d="M118.1385 11.95558H120.9734M118.1385 35.86678H120.9734M118.1385 59.77797H120.9734M118.1385 83.68916H120.9734"/>
<path transform="matrix(1.00006,0,0,-1.00003,11.627502,117.29114)" stroke-width=".19925" stroke-linecap="butt" stroke-miterlimit="10" stroke-linejoin="miter" fill="none" stroke="#929292" d="M117.43001 0H121.68188M117.43001 23.91118H121.68188M117.43001 71.73357H121.68188M117.43001 95.64476H121.68188"/>
<path transform="matrix(1.00006,0,0,-1.00003,11.627502,117.29114)" stroke-width=".3985" stroke-linecap="butt" stroke-miterlimit="10" stroke-linejoin="miter" fill="none" stroke="#000000" d="M-6.37622 47.82237H245.48815"/>
<path transform="matrix(-1.00006,-0,0,1.00003,5.2509,69.46733)" d="M3.58653 0C2.52383 .19925 .797 .797-.3985 1.49438V-1.49438C.797-.797 2.52383-.19925 3.58653 0"/>
<path transform="matrix(1.00006,0,0,-1.00003,257.13038,69.46733)" d="M3.58653 0C2.52383 .19925 .797 .797-.3985 1.49438V-1.49438C.797-.797 2.52383-.19925 3.58653 0"/>
<path transform="matrix(1.00006,0,0,-1.00003,11.627502,117.29114)" stroke-width=".3985" stroke-linecap="butt" stroke-miterlimit="10" stroke-linejoin="miter" fill="none" stroke="#000000" d="M119.55595-6.37622V102.02098"/>
<path transform="matrix(0,1.00003,1.00006,0,131.19062,123.66755)" d="M3.58653 0C2.52383 .19925 .797 .797-.3985 1.49438V-1.49438C.797-.797 2.52383-.19925 3.58653 0"/>
<path transform="matrix(0,-1.00003,-1.00006,-0,131.19062,15.26709)" d="M3.58653 0C2.52383 .19925 .797 .797-.3985 1.49438V-1.49438C.797-.797 2.52383-.19925 3.58653 0"/>
<use data-text="&#x2212;" xlink:href="#font_1_1" transform="matrix(7.9705779,0,0,-7.9703395,6.2171785,80.25002)"/>
<use data-text="5" xlink:href="#font_2_5" transform="matrix(7.9705779,0,0,-7.9703395,12.804573,80.25002)"/>
<use data-text="&#x2212;" xlink:href="#font_1_1" transform="matrix(7.9705779,0,0,-7.9703395,30.129616,80.25002)"/>
<use data-text="4" xlink:href="#font_2_4" transform="matrix(7.9705779,0,0,-7.9703395,36.71701,80.25002)"/>
<use data-text="&#x2212;" xlink:href="#font_1_1" transform="matrix(7.9705779,0,0,-7.9703395,54.042047,80.25002)"/>
<use data-text="3" xlink:href="#font_2_3" transform="matrix(7.9705779,0,0,-7.9703395,60.62944,80.25002)"/>
<use data-text="&#x2212;" xlink:href="#font_1_1" transform="matrix(7.9705779,0,0,-7.9703395,77.954479,80.25002)"/>
<use data-text="2" xlink:href="#font_2_2" transform="matrix(7.9705779,0,0,-7.9703395,84.54187,80.25002)"/>
<use data-text="&#x2212;" xlink:href="#font_1_1" transform="matrix(7.9705779,0,0,-7.9703395,101.86691,80.25002)"/>
<use data-text="1" xlink:href="#font_2_1" transform="matrix(7.9705779,0,0,-7.9703395,108.45431,80.25002)"/>
<use data-text="1" xlink:href="#font_2_1" transform="matrix(7.9705779,0,0,-7.9703395,152.98598,80.25002)"/>
<use data-text="2" xlink:href="#font_2_2" transform="matrix(7.9705779,0,0,-7.9703395,176.8984,80.25002)"/>
<use data-text="3" xlink:href="#font_2_3" transform="matrix(7.9705779,0,0,-7.9703395,200.81084,80.25002)"/>
<use data-text="4" xlink:href="#font_2_4" transform="matrix(7.9705779,0,0,-7.9703395,224.72428,80.25002)"/>
<use data-text="5" xlink:href="#font_2_5" transform="matrix(7.9705779,0,0,-7.9703395,248.63669,80.25002)"/>
<use data-text="&#x2212;" xlink:href="#font_1_1" transform="matrix(7.9705779,0,0,-7.9703395,114.72268,119.4442)"/>
<use data-text="2" xlink:href="#font_2_2" transform="matrix(7.9705779,0,0,-7.9703395,121.310077,119.4442)"/>
<use data-text="&#x2212;" xlink:href="#font_1_1" transform="matrix(7.9705779,0,0,-7.9703395,114.72268,95.532489)"/>
<use data-text="1" xlink:href="#font_2_1" transform="matrix(7.9705779,0,0,-7.9703395,121.310077,95.532489)"/>
<use data-text="1" xlink:href="#font_2_1" transform="matrix(7.9705779,0,0,-7.9703395,121.31008,48.12406)"/>
<use data-text="2" xlink:href="#font_2_2" transform="matrix(7.9705779,0,0,-7.9703395,121.31008,24.211342)"/>
<g clip-path="url(#clip_3)">
<path transform="matrix(1.00006,0,0,-1.00003,11.627502,117.29114)" stroke-width=".99628" stroke-linecap="butt" stroke-miterlimit="10" stroke-linejoin="miter" fill="none" stroke="#e41a1c" d="M.35652 26.74492C1.74486 29.67143 1.74486 29.67143 2.41501 31.5862 3.08516 33.50096 4.1599 37.3369 4.83005 39.79372 5.50018 42.25052 6.57492 46.68993 7.24507 49.29315 7.91522 51.89638 8.98996 56.22552 9.66011 58.55609 10.33025 60.88667 11.40497 64.40747 12.07512 66.09027 12.74527 67.77307 13.82 69.92056 14.49016 70.68457 15.16031 71.44858 16.23503 71.87477 16.90518 71.59679 17.57533 71.3188 18.65007 69.95615 19.32022 68.68106 19.99037 67.40596 21.06508 64.47363 21.73523 62.40675 22.40538 60.33989 23.48012 56.3101 24.15027 53.78438 24.82042 51.25865 25.89514 46.78099 26.56529 44.20294 27.23544 41.62488 28.31018 37.41891 28.98033 35.20348 29.65048 32.98802 30.7252 29.73148 31.39534 28.23552 32.06549 26.73958 33.14023 24.95728 33.81038 24.42168 34.48053 23.8861 35.55527 23.86432 36.2254 24.37529 36.89555 24.88626 37.97029 26.62924 38.64044 28.10448 39.3106 29.57973 40.38531 32.80588 41.05547 35.00789 41.7256 37.20988 42.80034 41.40096 43.47049 43.97505 44.14064 46.54916 45.21538 51.02838 45.88553 53.56033 46.55566 56.09229 47.6304 60.14146 48.30055 62.2236 48.9707 64.30574 50.04543 67.27014 50.71558 68.567 51.38573 69.86385 52.46045 71.26755 53.1306 71.57048 53.80075 71.87341 54.87549 71.4901 55.54564 70.75034 56.21579 70.01057 57.29051 67.90205 57.96066 66.23877 58.63081 64.57547 59.70554 61.08165 60.37569 58.76247 61.04584 56.44328 62.12056 52.12523 62.79071 49.52365 63.46086 46.92206 64.5356 42.47704 65.20575 40.01201 65.8759 37.54698 66.95062 33.68912 67.62077 31.7574 68.29092 29.82568 69.36565 27.1768 70.0358 26.0895 70.70595 25.00218 71.78069 23.98865 72.45082 23.92075 73.12097 23.85284 74.19571 24.63757 74.86586 25.60002 75.53601 26.56245 76.61075 29.01941 77.28088 30.85738 77.95103 32.69534 79.02576 36.42938 79.6959 38.84682 80.36606 41.26427 81.4408 45.6731 82.11095 48.28075 82.78108 50.8884 83.85582 55.26297 84.52597 57.64102 85.19612 60.01906 86.27086 63.65442 86.94101 65.42004 87.61115 67.18568 88.68587 69.49768 89.35602 70.36656 90.02617 71.23544 91.1009 71.85013 91.77106 71.68239 92.44121 71.51465 93.51593 70.33493 94.18608 69.15761 94.85623 67.98029 95.93097 65.19453 96.60112 63.19702 97.27127 61.19951 98.34598 57.25685 99.01613 54.76093 99.68628 52.265 100.76102 47.80072 101.43117 45.20815 102.10132 42.61559 103.17604 38.34726 103.84619 36.07552 104.51634 33.80379 105.59108 30.42012 106.26123 28.83496 106.93138 27.24982 108.00612 25.2941 108.67625 24.65074 109.3464 24.0074 110.42113 23.7961 111.09128 24.1981 111.76143 24.60013 112.83617 26.16556 113.5063 27.54831 114.17645 28.93105 115.25119 32.0232 115.92134 34.16405 116.59149 36.30492 117.66623 40.42413 118.33638 42.97821 119.00652 45.53227 120.08124 50.01591 120.75139 52.57208 121.42154 55.12825 122.49628 59.25453 123.16643 61.4013 123.83656 63.54807 124.9113 66.65277 125.58145 68.04456 126.2516 69.43633 127.32634 71.01971 127.99649 71.43228 128.66664 71.84485 129.74135 71.65129 130.4115 71.01813 131.08165 70.38496 132.15639 68.44568 132.82654 66.86884 133.49669 65.29198 134.57141 61.91972 135.24156 59.65315 135.91172 57.38658 136.98645 53.12427 137.6566 50.53293 138.32675 47.9416 139.40146 43.47563 140.07161 40.9766 140.74176 38.47755 141.8165 34.52591 142.48665 32.5216 143.1568 30.51729 144.23152 27.71765 144.90167 26.53088 145.57183 25.3441 146.64656 24.14636 147.31671 23.96808 147.98686 23.78981 149.06159 24.38692 149.73172 25.2459 150.40187 26.10489 151.47661 28.40123 152.14676 30.15916 152.81691 31.91711 153.89165 35.5422 154.56179 37.91595 155.23194 40.28972 156.30667 44.66022 156.97682 47.26762 157.64698 49.87505 158.7217 54.28711 159.39185 56.70848 160.06198 59.12985 161.13672 62.87375 161.80687 64.71921 162.47702 66.56467 163.55176 69.03708 164.22191 70.00932 164.89205 70.98158 165.96678 71.78404 166.63694 71.72662 167.30709 71.6692 168.3818 70.67322 169.05196 69.59543 169.7221 68.51764 170.79683 65.88321 171.46698 63.95859 172.13713 62.03398 173.21187 58.18567 173.88202 55.72406 174.55217 53.26245 175.62689 48.81927 176.29705 46.21696 176.9672 43.61467 178.04192 39.29228 178.71207 36.96837 179.38222 34.64444 180.45694 31.13907 181.12709 29.46767 181.79724 27.79625 182.87198 25.67174 183.54213 24.9219 184.21228 24.17206 185.28702 23.77078 185.95716 24.06325 186.6273 24.35571 187.70203 25.74211 188.37218 27.02992 189.04233 28.31772 190.11707 31.26906 190.7872 33.34486 191.45735 35.42067 192.53209 39.46153 193.20224 41.9909 193.87239 44.5203 194.94713 48.99918 195.61728 51.57498 196.28742 54.15079 197.36214 58.348 198.03229 60.55556 198.70244 62.76309 199.77718 66.00166 200.44733 67.4855 201.11746 68.96933 202.1922 70.72884 202.86235 71.25008 203.5325 71.7713 204.60724 71.7675 205.27739 71.24219 205.94754 70.71689 207.02227 68.9512 207.69242 67.46397 208.36257 65.97675 209.43729 62.73317 210.10744 60.52328 210.77759 58.31339 211.85231 54.11293 212.52246 51.5365 213.19261 48.96007 214.26735 44.48238 214.9375 41.95407 215.60765 39.42578 216.68238 35.38753 217.35253 33.31424 218.02268 31.24097 219.0974 28.29541 219.76755 27.01126 220.4377 25.72713 221.51242 24.34738 222.18257 24.05894 222.85272 23.77052 223.92746 24.17867 224.59761 24.93242 225.26776 25.68619 226.3425 27.81691 227.01264 29.49158 227.68279 31.16624 228.7575 34.67639 229.42766 37.0023 230.09781 39.32823 231.17255 43.65262 231.84268 46.25523 232.51284 48.85785 233.58757 53.29988 234.25772 55.76016 234.92787 58.22046 236.00261 62.06546 236.67276 63.98729 237.3429 65.90913 239.08777 69.61145 238.73313 68.85898"/>
<path transform="matrix(-.4286157,.9034571,.90348419,.42860288,11.984044,90.5454)" stroke-width=".79701" stroke-linecap="round" stroke-linejoin="round" fill="none" stroke="#e41a1c" d="M-1.73352 2.31136C-1.58905 1.4446 0 .14444 .43336 0 0-.14444-1.58905-1.4446-1.73352-2.31136"/>
<path transform="matrix(.42634557,-.90455719,-.9045842,-.4263328,250.37494,48.43009)" stroke-width=".79701" stroke-linecap="round" stroke-linejoin="round" fill="none" stroke="#e41a1c" d="M-1.73352 2.31136C-1.58905 1.4446 0 .14444 .43336 0 0-.14444-1.58905-1.4446-1.73352-2.31136"/>
</g>
<use data-text="x" xlink:href="#font_4_1" transform="matrix(9.963197,0,0,-9.962899,264.27766,71.60376)"/>
<use data-text="y" xlink:href="#font_4_2" transform="matrix(9.963197,0,0,-9.962899,128.58753,6.2088015)"/>
<path transform="matrix(1.00006,0,0,-1.00003,11.627502,117.29114)" d="M175.50579 76.59555H234.12938V93.532199H175.50579Z" fill="#ffffff"/>
<path transform="matrix(1.00006,0,0,-1.00003,11.627502,117.29114)" stroke-width=".3985" stroke-linecap="butt" stroke-miterlimit="10" stroke-linejoin="miter" fill="none" stroke="#000000" d="M175.50579 76.59555H234.12938V93.532199H175.50579Z"/>
<path transform="matrix(1.00006,0,0,-1.00003,190.63224,32.22458)" stroke-width=".99628" stroke-linecap="butt" stroke-miterlimit="10" stroke-linejoin="miter" fill="none" stroke="#e41a1c" d="M.8319 0C6.14426 0 6.14426 0 8.50412 0 10.86398 0 17.00826 0 16.17636 0"/>
<path transform="matrix(-1.00006,-0,0,1.00003,191.46419,32.22458)" stroke-width=".79701" stroke-linecap="round" stroke-linejoin="round" fill="none" stroke="#e41a1c" d="M-1.73352 2.31136C-1.58905 1.4446 0 .14444 .43336 0 0-.14444-1.58905-1.4446-1.73352-2.31136"/>
<path transform="matrix(1.00006,0,0,-1.00003,206.80957,32.22458)" stroke-width=".79701" stroke-linecap="round" stroke-linejoin="round" fill="none" stroke="#e41a1c" d="M-1.73352 2.31136C-1.58905 1.4446 0 .14444 .43336 0 0-.14444-1.58905-1.4446-1.73352-2.31136"/>
<use data-text="s" xlink:href="#font_5_9" transform="matrix(9.963197,0,0,-9.962899,210.13141,35.21367)"/>
<use data-text="i" xlink:href="#font_5_6" transform="matrix(9.963197,0,0,-9.962899,214.0569,35.21367)"/>
<use data-text="n" xlink:href="#font_5_7" transform="matrix(9.963197,0,0,-9.962899,216.81671,35.21367)"/>
<use data-text="(" xlink:href="#font_5_1" transform="matrix(9.963197,0,0,-9.962899,222.34629,35.21367)"/>
<use data-text="4" xlink:href="#font_5_3" transform="matrix(9.963197,0,0,-9.962899,226.212,35.21367)"/>
<use data-text="x" xlink:href="#font_4_1" transform="matrix(9.963197,0,0,-9.962899,231.22068,35.21367)"/>
<use data-text=")" xlink:href="#font_5_2" transform="matrix(9.963197,0,0,-9.962899,236.91501,35.21367)"/>
<path transform="matrix(1.00006,0,0,-1.00003,11.627502,241.28588)" stroke-width=".09962" stroke-linecap="butt" stroke-miterlimit="10" stroke-linejoin="miter" fill="none" stroke="#e0e0e0" d="M11.95558 0V95.64476M35.86678 0V95.64476M59.77797 0V95.64476M83.68916 0V95.64476M107.60036 0V95.64476M131.51155 0V95.64476M155.42275 0V95.64476M179.33393 0V95.64476M203.24512 0V95.64476M227.15631 0V95.64476"/>
<path transform="matrix(1.00006,0,0,-1.00003,11.627502,241.28588)" stroke-width=".19925" stroke-linecap="butt" stroke-miterlimit="10" stroke-linejoin="miter" fill="none" stroke="#c0c0c0" d="M0 0V95.64476M23.91118 0V95.64476M47.82237 0V95.64476M71.73357 0V95.64476M95.64476 0V95.64476M143.46715 0V95.64476M167.37834 0V95.64476M191.28952 0V95.64476M215.20072 0V95.64476M239.11191 0V95.64476"/>
<path transform="matrix(1.00006,0,0,-1.00003,11.627502,241.28588)" stroke-width=".09962" stroke-linecap="butt" stroke-miterlimit="10" stroke-linejoin="miter" fill="none" stroke="#e0e0e0" d="M0 11.95558H239.11191M0 35.86678H239.11191M0 59.77797H239.11191M0 83.68916H239.11191"/>
<path transform="matrix(1.00006,0,0,-1.00003,11.627502,241.28588)" stroke-width=".19925" stroke-linecap="butt" stroke-miterlimit="10" stroke-linejoin="miter" fill="none" stroke="#c0c0c0" d="M0 0H239.11191M0 23.91118H239.11191M0 71.73357H239.11191M0 95.64476H239.11191"/>
<path transform="matrix(1.00006,0,0,-1.00003,11.627502,241.28588)" stroke-width=".19925" stroke-linecap="butt" stroke-miterlimit="10" stroke-linejoin="miter" fill="none" stroke="#929292" d="M11.95558 46.40492V49.23982M35.86678 46.40492V49.23982M59.77797 46.40492V49.23982M83.68916 46.40492V49.23982M107.60036 46.40492V49.23982M131.51155 46.40492V49.23982M155.42275 46.40492V49.23982M179.33393 46.40492V49.23982M203.24512 46.40492V49.23982M227.15631 46.40492V49.23982"/>
<path transform="matrix(1.00006,0,0,-1.00003,11.627502,241.28588)" stroke-width=".19925" stroke-linecap="butt" stroke-miterlimit="10" stroke-linejoin="miter" fill="none" stroke="#929292" d="M0 45.69643V49.94832M23.91118 45.69643V49.94832M47.82237 45.69643V49.94832M71.73357 45.69643V49.94832M95.64476 45.69643V49.94832M143.46715 45.69643V49.94832M167.37834 45.69643V49.94832M191.28952 45.69643V49.94832M215.20072 45.69643V49.94832M239.11191 45.69643V49.94832"/>
<path transform="matrix(1.00006,0,0,-1.00003,11.627502,241.28588)" stroke-width=".19925" stroke-linecap="butt" stroke-miterlimit="10" stroke-linejoin="miter" fill="none" stroke="#929292" d="M118.1385 11.95558H120.9734M118.1385 35.86678H120.9734M118.1385 59.77797H120.9734M118.1385 83.68916H120.9734"/>
<path transform="matrix(1.00006,0,0,-1.00003,11.627502,241.28588)" stroke-width=".19925" stroke-linecap="butt" stroke-miterlimit="10" stroke-linejoin="miter" fill="none" stroke="#929292" d="M117.43001 0H121.68188M117.43001 23.91118H121.68188M117.43001 71.73357H121.68188M117.43001 95.64476H121.68188"/>
<path transform="matrix(1.00006,0,0,-1.00003,11.627502,241.28588)" stroke-width=".3985" stroke-linecap="butt" stroke-miterlimit="10" stroke-linejoin="miter" fill="none" stroke="#000000" d="M-6.37622 47.82237H245.48815"/>
<path transform="matrix(-1.00006,-0,0,1.00003,5.2509,193.46207)" d="M3.58653 0C2.52383 .19925 .797 .797-.3985 1.49438V-1.49438C.797-.797 2.52383-.19925 3.58653 0"/>
<path transform="matrix(1.00006,0,0,-1.00003,257.13038,193.46207)" d="M3.58653 0C2.52383 .19925 .797 .797-.3985 1.49438V-1.49438C.797-.797 2.52383-.19925 3.58653 0"/>
<path transform="matrix(1.00006,0,0,-1.00003,11.627502,241.28588)" stroke-width=".3985" stroke-linecap="butt" stroke-miterlimit="10" stroke-linejoin="miter" fill="none" stroke="#000000" d="M119.55595-6.37622V102.02098"/>
<path transform="matrix(0,1.00003,1.00006,0,131.19062,247.6623)" d="M3.58653 0C2.52383 .19925 .797 .797-.3985 1.49438V-1.49438C.797-.797 2.52383-.19925 3.58653 0"/>
<path transform="matrix(0,-1.00003,-1.00006,-0,131.19062,139.26183)" d="M3.58653 0C2.52383 .19925 .797 .797-.3985 1.49438V-1.49438C.797-.797 2.52383-.19925 3.58653 0"/>
<use data-text="&#x2212;" xlink:href="#font_1_1" transform="matrix(7.9705779,0,0,-7.9703395,6.2171785,204.24475)"/>
<use data-text="5" xlink:href="#font_2_5" transform="matrix(7.9705779,0,0,-7.9703395,12.804573,204.24475)"/>
<use data-text="&#x2212;" xlink:href="#font_1_1" transform="matrix(7.9705779,0,0,-7.9703395,30.129616,204.24475)"/>
<use data-text="4" xlink:href="#font_2_4" transform="matrix(7.9705779,0,0,-7.9703395,36.71701,204.24475)"/>
<use data-text="&#x2212;" xlink:href="#font_1_1" transform="matrix(7.9705779,0,0,-7.9703395,54.042047,204.24475)"/>
<use data-text="3" xlink:href="#font_2_3" transform="matrix(7.9705779,0,0,-7.9703395,60.62944,204.24475)"/>
<use data-text="&#x2212;" xlink:href="#font_1_1" transform="matrix(7.9705779,0,0,-7.9703395,77.954479,204.24475)"/>
<use data-text="2" xlink:href="#font_2_2" transform="matrix(7.9705779,0,0,-7.9703395,84.54187,204.24475)"/>
<use data-text="&#x2212;" xlink:href="#font_1_1" transform="matrix(7.9705779,0,0,-7.9703395,101.86691,204.24475)"/>
<use data-text="1" xlink:href="#font_2_1" transform="matrix(7.9705779,0,0,-7.9703395,108.45431,204.24475)"/>
<use data-text="1" xlink:href="#font_2_1" transform="matrix(7.9705779,0,0,-7.9703395,152.98598,204.24475)"/>
<use data-text="2" xlink:href="#font_2_2" transform="matrix(7.9705779,0,0,-7.9703395,176.8984,204.24475)"/>
<use data-text="3" xlink:href="#font_2_3" transform="matrix(7.9705779,0,0,-7.9703395,200.81084,204.24475)"/>
<use data-text="4" xlink:href="#font_2_4" transform="matrix(7.9705779,0,0,-7.9703395,224.72428,204.24475)"/>
<use data-text="5" xlink:href="#font_2_5" transform="matrix(7.9705779,0,0,-7.9703395,248.63669,204.24475)"/>
<use data-text="&#x2212;" xlink:href="#font_1_1" transform="matrix(7.9705779,0,0,-7.9703395,114.72268,243.43894)"/>
<use data-text="2" xlink:href="#font_2_2" transform="matrix(7.9705779,0,0,-7.9703395,121.310077,243.43894)"/>
<use data-text="&#x2212;" xlink:href="#font_1_1" transform="matrix(7.9705779,0,0,-7.9703395,114.72268,219.52722)"/>
<use data-text="1" xlink:href="#font_2_1" transform="matrix(7.9705779,0,0,-7.9703395,121.310077,219.52722)"/>
<use data-text="1" xlink:href="#font_2_1" transform="matrix(7.9705779,0,0,-7.9703395,121.31008,172.1188)"/>
<use data-text="2" xlink:href="#font_2_2" transform="matrix(7.9705779,0,0,-7.9703395,121.31008,148.20609)"/>
<g clip-path="url(#clip_6)">
<path transform="matrix(1.00006,0,0,-1.00003,11.627502,241.28588)" stroke-width=".99628" stroke-linecap="butt" stroke-miterlimit="10" stroke-linejoin="miter" fill="none" stroke="#e41a1c" d="M.13371 50.68939C1.74486 40.79886 1.74486 40.79886 2.41501 37.3978 3.08516 33.99673 4.1599 28.85478 4.83005 26.99786 5.50018 25.14096 6.57492 23.66603 7.24507 24.01448 7.91522 24.36293 8.98996 27.07947 9.66011 29.50926 10.33025 31.93906 11.40497 37.88106 12.07512 41.5268 12.74527 45.17253 13.82 52.22192 14.49016 55.78528 15.16031 59.34863 16.23503 64.997 16.90518 67.20908 17.57533 69.42116 18.65007 71.65582 19.32022 71.72853 19.99037 71.80125 21.06508 69.82567 21.73523 67.73322 22.40538 65.64075 23.48012 60.1597 24.15027 56.64752 24.82042 53.13535 25.89514 46.10123 26.56529 42.41988 27.23544 38.73854 28.31018 32.65445 28.98033 30.11494 29.65048 27.57544 30.7252 24.60992 31.39534 24.1168 32.06549 23.62369 33.14023 24.83195 33.81038 26.56076 34.48053 28.28958 35.55527 33.24187 36.2254 36.57693 36.89555 39.91202 37.97029 46.84418 38.64044 50.59775 39.3106 54.3513 40.38531 60.79465 41.05547 63.63007 41.7256 66.46547 42.80034 70.126 43.47049 71.03345 44.14064 71.94087 45.21538 71.51418 45.88553 70.17024 46.55566 68.82631 47.6304 64.46367 48.30055 61.34726 48.9707 58.23085 50.04543 51.48834 50.71558 47.70927 51.38573 43.93019 52.46045 37.20628 53.1306 34.11024 53.80075 31.01422 54.87549 26.7053 55.54564 25.39511 56.21579 24.08492 57.29051 23.72519 57.96066 24.66725 58.63081 25.60931 59.70554 29.32596 60.37569 32.18492 61.04584 35.04388 62.12056 41.51508 62.79071 45.27272 63.46086 49.03035 64.5356 55.94948 65.20575 59.26746 65.8759 62.58545 66.95062 67.4896 67.62077 69.18654 68.29092 70.88347 69.36565 72.02638 70.0358 71.4978 70.70595 70.96921 71.78069 67.9428 72.45082 65.37677 73.12097 62.81075 74.19571 56.69305 74.86586 53.00368 75.53601 49.31432 76.61075 42.28523 77.28088 38.78633 77.95103 35.28743 79.02576 29.84834 79.6959 27.78598 80.36606 25.72362 81.4408 23.81346 82.11095 23.92218 82.78108 24.03088 83.85582 26.3286 84.52597 28.56955 85.19612 30.81052 86.27086 36.4983 86.94101 40.07347 87.61115 43.64864 88.68587 50.70085 89.35602 54.33698 90.02617 57.97308 91.1009 63.87794 91.77106 66.28014 92.44121 68.68231 93.51593 71.33751 94.18608 71.65034 94.85623 71.9632 95.93097 70.42316 96.60112 68.53496 97.27127 66.64677 98.34598 61.45815 99.01613 58.04153 99.68628 54.62494 100.76102 47.63867 101.43117 43.91049 102.10132 40.18231 103.17604 33.88356 103.84619 31.17133 104.51634 28.4591 105.59108 25.09273 106.26123 24.36263 106.93138 23.63252 108.00612 24.39735 108.67625 25.9092 109.3464 27.42104 110.42113 32.04361 111.09128 35.25894 111.76143 38.47429 112.83617 45.30933 113.5063 49.08319 114.17645 52.85707 115.25119 59.47003 115.92134 62.45842 116.59149 65.44681 117.66623 69.48288 118.33638 70.62144 119.00652 71.76003 120.08124 71.78116 120.75139 70.66449 121.42154 69.5478 122.49628 65.54747 123.16643 62.5732 123.83656 59.5989 124.9113 53.00052 125.58145 49.22787 126.2516 45.45523 127.32634 38.60999 127.99649 35.38257 128.66664 32.15514 129.74135 27.49963 130.4115 25.96683 131.08165 24.43402 132.15639 23.62732 132.82654 24.33513 133.49669 25.04292 134.57141 28.37204 135.24156 31.06828 135.91172 33.76451 136.98645 40.04338 137.6566 43.76775 138.32675 47.49211 139.40146 54.48483 140.07161 57.91096 140.74176 61.33711 141.8165 66.55318 142.48665 68.46107 143.1568 70.36896 144.23152 71.95161 144.90167 71.66183 145.57183 71.37206 146.64656 68.75694 147.31671 66.37244 147.98686 63.98793 149.06159 58.10579 149.73172 54.4759 150.40187 50.84602 151.47661 43.79318 152.14676 40.21071 152.81691 36.62825 153.89165 30.91531 154.56179 28.65587 155.23194 26.39644 156.30667 24.05777 156.97682 23.92624 157.64698 23.7947 158.7217 25.66458 159.39185 27.70781 160.06198 29.75102 161.13672 35.16231 161.80687 38.65242 162.47702 42.14253 163.55176 49.16792 164.22191 52.86214 164.89205 56.55635 165.96678 62.69511 166.63694 65.27777 167.30709 67.86044 168.3818 70.92499 169.05196 71.47627 169.7221 72.02756 170.79683 70.92737 171.46698 69.2511 172.13713 67.57484 173.21187 62.70186 173.88202 59.39491 174.55217 56.08797 175.62689 49.17694 176.29705 45.4169 176.9672 41.65686 178.04192 35.16908 178.71207 32.29515 179.38222 29.42122 180.45694 25.66788 181.12709 24.70358 181.79724 23.73929 182.87198 24.0563 183.54213 25.34512 184.21228 26.63396 185.28702 30.90974 185.95716 33.99261 186.6273 37.07549 187.70203 43.78552 188.37218 47.56436 189.04233 51.34322 190.11707 58.09868 190.7872 61.22794 191.45735 64.3572 192.53209 68.75269 193.20224 70.11789 193.87239 71.48308 194.94713 71.95247 195.61728 71.0674 196.28742 70.18233 197.36214 66.55905 198.03229 63.73885 198.70244 60.91864 199.77718 54.49202 200.44733 50.7412 201.11746 46.99039 202.1922 40.0513 202.86235 36.70558 203.5325 33.35985 204.60724 28.37677 205.27739 26.62749 205.94754 24.87822 207.02227 23.6275 207.69242 24.09793 208.36257 24.56834 209.43729 27.49554 210.10744 30.0181 210.77759 32.54065 211.85231 38.60266 212.52246 42.2788 213.19261 45.95493 214.26735 52.99246 214.9375 56.51314 215.60765 60.03381 216.68238 65.54195 217.35253 67.65335 218.02268 69.76476 219.0974 71.78065 219.76755 71.7307 220.4377 71.68074 221.51242 69.48676 222.18257 67.29326 222.85272 65.09975 223.92746 59.47702 224.59761 55.92133 225.26776 52.36563 226.3425 45.31781 227.01264 41.6662 227.68279 38.01459 228.7575 32.05028 229.42766 29.603 230.09781 27.15573 231.17255 24.39914 231.84268 24.02786 232.51284 23.65659 233.58757 25.09003 234.25772 26.9271 234.92787 28.76416 236.00261 33.87723 236.67276 37.2682 237.3429 40.6592 239.08777 51.36696 238.95401 50.54593"/>
<path transform="matrix(-.16075965,-.9869796,-.98700919,.16075483,11.76124,190.59497)" stroke-width=".79701" stroke-linecap="round" stroke-linejoin="round" fill="none" stroke="#e41a1c" d="M-1.73352 2.31136C-1.58905 1.4446 0 .14444 .43336 0 0-.14444-1.58905-1.4446-1.73352-2.31136"/>
<path transform="matrix(.16080964,-.98696967,-.9869992,-.16080483,250.59584,190.73844)" stroke-width=".79701" stroke-linecap="round" stroke-linejoin="round" fill="none" stroke="#e41a1c" d="M-1.73352 2.31136C-1.58905 1.4446 0 .14444 .43336 0 0-.14444-1.58905-1.4446-1.73352-2.31136"/>
</g>
<use data-text="x" xlink:href="#font_4_1" transform="matrix(9.963197,0,0,-9.962899,264.27766,195.5985)"/>
<use data-text="y" xlink:href="#font_4_2" transform="matrix(9.963197,0,0,-9.962899,128.58753,130.20354)"/>
<path transform="matrix(1.00006,0,0,-1.00003,11.627502,241.28588)" d="M174.3988 76.59555H234.12938V93.532199H174.3988Z" fill="#ffffff"/>
<path transform="matrix(1.00006,0,0,-1.00003,11.627502,241.28588)" stroke-width=".3985" stroke-linecap="butt" stroke-miterlimit="10" stroke-linejoin="miter" fill="none" stroke="#000000" d="M174.3988 76.59555H234.12938V93.532199H174.3988Z"/>
<path transform="matrix(1.00006,0,0,-1.00003,189.52518,156.21932)" stroke-width=".99628" stroke-linecap="butt" stroke-miterlimit="10" stroke-linejoin="miter" fill="none" stroke="#e41a1c" d="M.8319 0C6.14426 0 6.14426 0 8.50412 0 10.86398 0 17.00826 0 16.17636 0"/>
<path transform="matrix(-1.00006,-0,0,1.00003,190.35713,156.21932)" stroke-width=".79701" stroke-linecap="round" stroke-linejoin="round" fill="none" stroke="#e41a1c" d="M-1.73352 2.31136C-1.58905 1.4446 0 .14444 .43336 0 0-.14444-1.58905-1.4446-1.73352-2.31136"/>
<path transform="matrix(1.00006,0,0,-1.00003,205.70252,156.21932)" stroke-width=".79701" stroke-linecap="round" stroke-linejoin="round" fill="none" stroke="#e41a1c" d="M-1.73352 2.31136C-1.58905 1.4446 0 .14444 .43336 0 0-.14444-1.58905-1.4446-1.73352-2.31136"/>
<use data-text="c" xlink:href="#font_5_5" transform="matrix(9.963197,0,0,-9.962899,209.02436,159.2084)"/>
<use data-text="o" xlink:href="#font_5_8" transform="matrix(9.963197,0,0,-9.962899,213.448,159.2084)"/>
<use data-text="s" xlink:href="#font_5_9" transform="matrix(9.963197,0,0,-9.962899,218.4296,159.2084)"/>
<use data-text="(" xlink:href="#font_5_1" transform="matrix(9.963197,0,0,-9.962899,222.3551,159.2084)"/>
<use data-text="6" xlink:href="#font_5_4" transform="matrix(9.963197,0,0,-9.962899,226.22083,159.2084)"/>
<use data-text="x" xlink:href="#font_4_1" transform="matrix(9.963197,0,0,-9.962899,231.22068,159.2084)"/>
<use data-text=")" xlink:href="#font_5_2" transform="matrix(9.963197,0,0,-9.962899,236.91501,159.2084)"/>
</svg>
