<svg xmlns="http://www.w3.org/2000/svg" xmlns:xlink="http://www.w3.org/1999/xlink" version="1.1" width="269" height="119" viewBox="0 0 269 119">
<defs>
<path id="font_1_1" d="M.69898989 .22743225C.71499636 .22743225 .7369995 .22743225 .7369995 .25042726 .7369995 .2734375 .71499636 .2734375 .69898989 .2734375H.12599182C.10998535 .2734375 .08799744 .2734375 .08799744 .25042726 .08799744 .22743225 .10998535 .22743225 .12599182 .22743225H.69898989Z"/>
<path id="font_2_2" d="M.31399537 .63708499C.31399537 .664032 .31199647 .66503909 .2849884 .66503909 .24398804 .6251831 .19099427 .6013489 .09599304 .6013489V.5683594C.12298584 .5683594 .1769867 .5683594 .23498535 .5953522V.08203125C.23498535 .04499817 .23199463 .032989503 .13699341 .032989503H.101989749V0C.14299011 .0029907227 .22898865 .0029907227 .27398683 .0029907227 .31900025 .0029907227 .4059906 .0029907227 .44699098 0V.032989503H.4119873C.31698609 .032989503 .31399537 .04499817 .31399537 .08203125V.63708499Z"/>
<path id="font_2_3" d="M.28199769 .20405579C.2979889 .21907044 .33999635 .2520752 .35598756 .26608277 .41799928 .32312013 .47698976 .3781433 .47698976 .46917726 .47698976 .588089 .3769989 .66503909 .2519989 .66503909 .13198853 .66503909 .052993776 .57411196 .052993776 .48516847 .052993776 .4361725 .09199524 .4291687 .10598755 .4291687 .1269989 .4291687 .1579895 .4441681 .1579895 .48217774 .1579895 .5341797 .10798645 .5341797 .09599304 .5341797 .125 .6070709 .19198609 .6320343 .24099732 .6320343 .33399964 .6320343 .38198854 .55314639 .38198854 .46917726 .38198854 .36514283 .30899049 .28910829 .19099427 .16804505L.06498718 .037994386C.052993776 .026992798 .052993776 .024993897 .052993776 0H.44799806L.47698976 .17904663H.44599916C.44299317 .1590271 .43499757 .10900879 .4229889 .08999634 .4169922 .08198547 .34098817 .08198547 .32499696 .08198547H.14698792L.28199769 .20405579Z"/>
<path id="font_2_4" d="M.25299073 .33370973C.33198548 .33370973 .38198854 .27557374 .38198854 .17037964 .38198854 .045440675 .31098939 .008514404 .2579956 .008514404 .20298767 .008514404 .12799073 .0284729 .09298706 .08137512 .1289978 .08137512 .1539917 .10437012 .1539917 .13737488 .1539917 .16937256 .1309967 .19238281 .09899902 .19238281 .07199097 .19238281 .04399109 .17536927 .04399109 .13537598 .04399109 .04045105 .1459961-.021484375 .2599945-.021484375 .3929901-.021484375 .48599244 .070388797 .48599244 .17037964 .48599244 .25352479 .41999818 .32969667 .31799317 .3517456 .39698792 .37982179 .45599366 .4479828 .45599366 .52804568 .45599366 .6080475 .3659973 .66503909 .2619934 .66503909 .15499878 .66503909 .07398987 .6070404 .07398987 .53105166 .07398987 .49404908 .09899902 .4780426 .125 .4780426 .1559906 .4780426 .17599488 .5000458 .17599488 .52905276 .17599488 .56604006 .14399719 .5800476 .12199402 .5810547 .1639862 .6360321 .24099732 .6390381 .25898744 .6390381 .2849884 .6390381 .36099244 .6310272 .36099244 .52804568 .36099244 .45799256 .33198548 .41589356 .31799317 .39985658 .28799439 .36878968 .2649994 .36679078 .20399475 .3627777 .18499756 .36177064 .1769867 .36076356 .1769867 .3477478 .1769867 .33370973 .18598938 .33370973 .20298767 .33370973H.25299073Z"/>
<path id="font_2_5" d="M.3939972 .6468048C.3939972 .6667938 .3939972 .6748047 .37298585 .6748047 .3600006 .6748047 .35899354 .6737976 .34899903 .65979006L.02999878 .197052V.1640625H.31199647V.08100891C.31199647 .04399109 .30899049 .032989503 .23199463 .032989503H.20899964V0C.2939911 .0029907227 .29599 .0029907227 .35299684 .0029907227 .4099884 .0029907227 .4119873 .0029907227 .49699403 0V.032989503H.47399903C.39698792 .032989503 .3939972 .04399109 .3939972 .08100891V.1640625H.5V.197052H.3939972V.6468048M.31900025 .5658417V.197052H.06498718L.31900025 .5658417Z"/>
<path id="font_2_6" d="M.13999939 .5618439C.15299988 .55784609 .19299317 .54785159 .23498535 .54785159 .3600006 .54785159 .43598939 .6358948 .43598939 .6510315 .43598939 .6620331 .42900086 .66503909 .42399598 .66503909 .42199708 .66503909 .41999818 .66503909 .41099549 .6600342 .37199403 .6450348 .32598878 .632843 .27198792 .632843 .21299744 .632843 .1639862 .6480255 .1329956 .6600342 .12298584 .66503909 .12098694 .66503909 .11999512 .66503909 .10699463 .66503909 .10699463 .6540375 .10699463 .6358948V.34292604C.10699463 .32492066 .10699463 .312912 .12298584 .312912 .1309967 .312912 .13398743 .3169098 .13899231 .32492066 .15098572 .33992005 .18899536 .39093019 .27398683 .39093019 .32998658 .39093019 .35699464 .34492494 .3659973 .32591249 .3829956 .28990174 .3849945 .24389649 .3849945 .20487976 .3849945 .1678772 .38398744 .11387634 .35598756 .069732669 .33699037 .039611818 .29699708 .008514404 .24398804 .008514404 .1789856 .008514404 .114990238 .0496521 .09199524 .11488342 .09498596 .11387634 .100997928 .11387634 .101989749 .11387634 .12998963 .11387634 .1519928 .13188172 .1519928 .16288758 .1519928 .19989014 .12298584 .21289063 .102996829 .21289063 .084991458 .21289063 .052993776 .20288086 .052993776 .15988159 .052993776 .069732669 .1309967-.021484375 .24598694-.021484375 .37098695-.021484375 .47698976 .07574463 .47698976 .19989014 .47698976 .31591798 .3929901 .4189453 .2749939 .4189453 .22499085 .4189453 .17799378 .40293885 .13999939 .368927V.5618439Z"/>
<path id="font_2_7" d="M.13798523 .33073426C.13798523 .41377259 .14498902 .4868164 .18099976 .54782107 .21099854 .5978241 .2619934 .6390381 .32499696 .6390381 .34498597 .6390381 .3909912 .63601687 .4139862 .60084536 .36898805 .5988312 .36499024 .5648346 .36499024 .553833 .36499024 .5238342 .3880005 .50683596 .4119873 .50683596 .42999269 .50683596 .45899964 .51782229 .45899964 .5558319 .45899964 .615921 .4139862 .66503909 .32398988 .66503909 .18499756 .66503909 .04399109 .53282168 .04399109 .31672669 .04399109 .045532228 .16999817-.021484375 .2669983-.021484375 .31498719-.021484375 .36698915-.0084991459 .4119873 .03453064 .45199586 .07354736 .48599244 .11558533 .48599244 .20263672 .48599244 .33372499 .3869934 .42578126 .27598573 .42578126 .20399475 .42578126 .16099549 .37976075 .13798523 .33073426M.2669983 .008514404C.21398926 .008514404 .18099976 .045532228 .1659851 .07354736 .14299011 .11859131 .14099121 .18663025 .14099121 .22465515 .14099121 .32373048 .19499207 .3977661 .27198792 .3977661 .32199098 .3977661 .35198976 .37176515 .37098695 .33673097 .3919983 .29971314 .3919983 .25468446 .3919983 .2036438 .3919983 .15260315 .3919983 .10858154 .37199403 .07255554 .34599305 .026519776 .31098939 .008514404 .2669983 .008514404Z"/>
<path id="font_2_8" d="M.5059967 .608551C.5149994 .6195526 .5149994 .6215515 .5149994 .6435547H.26098634C.23599243 .6435547 .20498657 .64456179 .17999268 .64660647 .12799073 .65068057 .1269989 .6597748 .12399292 .67578127H.09298706L.05899048 .46453858H.08999634C.09199524 .47953797 .102996829 .54855349 .116989139 .5565491 .12799073 .56155398 .20298767 .56155398 .21798706 .56155398H.42999269L.32699586 .4235382C.21299744 .27153016 .18899536 .11351013 .18899536 .03451538 .18899536 .024505616 .18899536-.021484375 .23599243-.021484375 .2829895-.021484375 .2829895 .023513794 .2829895 .035507204V.08351135C.2829895 .2275238 .30699159 .34553529 .35598756 .41053773L.5059967 .608551Z"/>
<path id="font_2_9" d="M.33198548 .36080934C.3880005 .38783265 .45599366 .4378662 .45599366 .5159302 .45599366 .6110077 .35899354 .66503909 .2659912 .66503909 .1599884 .66503909 .07398987 .59199526 .07398987 .49790956 .07398987 .46089173 .08699036 .42686463 .11199951 .39782716 .1289978 .3768158 .1329956 .3748169 .19499207 .3357849 .070999149 .2807312 .04399109 .20767212 .04399109 .15162659 .04399109 .041534425 .15499878-.021484375 .2639923-.021484375 .3869934-.021484375 .48599244 .061553956 .48599244 .16764832 .48599244 .23069763 .45199586 .2727356 .43598939 .28974916 .4189911 .30575563 .41799928 .3067627 .33198548 .36080934M.1769867 .45487977C.147995 .4718933 .12399292 .5009155 .12399292 .5359497 .12399292 .598999 .19299317 .6390381 .2639923 .6390381 .34199525 .6390381 .4059906 .5859833 .4059906 .5159302 .4059906 .45788575 .36099244 .408844 .3019867 .37982179L.1769867 .45487977M.22599793 .31776429C.22999573 .31576539 .34399415 .24571228 .36099244 .23469544 .3769989 .22569275 .42900086 .19366455 .42900086 .13360596 .42900086 .056549074 .34799195 .008514404 .2659912 .008514404 .1769867 .008514404 .100997928 .06956482 .100997928 .15162659 .100997928 .22668457 .15699768 .28573609 .22599793 .31776429Z"/>
<path id="font_2_10" d="M.3919983 .29478456C.3919983 .050704957 .27598573 .008514404 .21798706 .008514404 .19699097 .008514404 .14498902 .011520386 .117996219 .04270935 .1619873 .046707155 .16499329 .079711917 .16499329 .08970642 .16499329 .1197052 .14199829 .13671875 .117996219 .13671875 .099990848 .13671875 .070999149 .12571717 .070999149 .08770752 .070999149 .019577027 .1269989-.021484375 .21899414-.021484375 .35598756-.021484375 .48599244 .114715579 .48599244 .3287964 .48599244 .58898928 .37098695 .66503909 .2679901 .66503909 .1499939 .66503909 .04399109 .5729828 .04399109 .44187928 .04399109 .31278993 .14099121 .21875 .2539978 .21875 .32499696 .21875 .36799623 .26374818 .3919983 .31478883V.29478456M.2579956 .24674988C.21199036 .24674988 .18299866 .26776124 .16099549 .30477906 .13798523 .34181214 .13798523 .3898468 .13798523 .44088746 .13798523 .4999237 .13798523 .54196169 .16499329 .58299258 .18998719 .61901858 .22200012 .6390381 .2689972 .6390381 .33599855 .6390381 .36499024 .5729828 .36799623 .5679779 .3889923 .51893618 .3899994 .44088746 .3899994 .42086793 .3899994 .34181214 .34700013 .24674988 .2579956 .24674988Z"/>
<path id="font_2_1" d="M.4889984 .31877137C.4889984 .42585755 .47799684 .49090577 .44499208 .55496218 .40098573 .6430359 .31999208 .66503909 .2649994 .66503909 .13899231 .66503909 .09298706 .5709839 .07899475 .5429535 .042999269 .4698944 .040985109 .3708191 .040985109 .31877137 .040985109 .25271607 .04399109 .15162659 .09199524 .07156372 .13798523-.0024871827 .21199036-.021484375 .2649994-.021484375 .31298829-.021484375 .39898683-.0064849855 .44898988 .09257507 .48599244 .16464234 .4889984 .2537079 .4889984 .31877137M.2649994 .006515503C.23098755 .006515503 .1619873 .022521973 .14099121 .12760926 .12998963 .18466187 .12998963 .2787323 .12998963 .33078004 .12998963 .3998413 .12998963 .4698944 .14099121 .5249481 .1619873 .6270294 .23999024 .6370239 .2649994 .6370239 .29899598 .6370239 .36799623 .62002566 .3880005 .5289459 .3999939 .4738922 .3999939 .39883424 .3999939 .33078004 .3999939 .27172853 .3999939 .18165589 .3880005 .12561035 .36698915 .020523072 .2979889 .006515503 .2649994 .006515503Z"/>
<clipPath id="clip_3">
<path transform="matrix(1.00003,0,0,-1,11.627754,86.852008)" d="M0 0H239.10538V65.21056H0Z"/>
</clipPath>
<path id="font_4_4" d="M.20599365 .3996582H.2999878C.31999208 .3996582 .32998658 .3996582 .32998658 .41966249 .32998658 .43066407 .31999208 .43066407 .3019867 .43066407H.21398926C.25 .5724945 .25498963 .59246829 .25498963 .59846499 .25498963 .61546328 .24299622 .62545779 .22599793 .62545779 .22299195 .62545779 .19499207 .62446597 .18598938 .58947756L.14698792 .43066407H.052993776C.032989503 .43066407 .022994996 .43066407 .022994996 .4116516 .022994996 .3996582 .0309906 .3996582 .050994874 .3996582H.13899231C.066986087 .11608887 .06298828 .099121097 .06298828 .08114624 .06298828 .02722168 .100997928-.0107421879 .15499878-.0107421879 .25698854-.0107421879 .31399537 .13505554 .31399537 .14305115 .31399537 .1530304 .30599977 .1530304 .3019867 .1530304 .29299928 .1530304 .2919922 .15003968 .2869873 .13905335 .24398804 .035217287 .19099427 .011245728 .15699768 .011245728 .13598633 .011245728 .12599182 .024230957 .12599182 .057174684 .12599182 .08114624 .12799073 .088134769 .13198853 .10510254L.20599365 .3996582Z"/>
<path id="font_4_5" d="M.48599244 .38136292C.48999024 .39537049 .48999024 .39736939 .48999024 .40437318 .48999024 .42237855 .47599793 .43138124 .46099855 .43138124 .45098878 .43138124 .43499757 .42536927 .42599488 .41036988 .42399598 .405365 .41600038 .37435914 .4119873 .35635377 .40499879 .33035279 .397995 .30334474 .3919983 .27633668L.34700013 .09628296C.34298707 .08126831 .2999878 .011245728 .23399353 .011245728 .18299866 .011245728 .17199707 .055267335 .17199707 .0922699 .17199707 .1382904 .18899536 .20030213 .22299195 .28833009 .23899842 .3293457 .24299622 .3403473 .24299622 .36035157 .24299622 .405365 .21099854 .4423828 .16099549 .4423828 .06599426 .4423828 .0289917 .29733277 .0289917 .28833009 .0289917 .27833558 .038986207 .27833558 .040985109 .27833558 .050994874 .27833558 .051986696 .28033448 .056991579 .29634095 .083999637 .3903656 .12399292 .42037965 .1579895 .42037965 .1659851 .42037965 .18299866 .42037965 .18299866 .3883667 .18299866 .36335755 .17298889 .3373413 .1659851 .31834413 .12599182 .21231079 .10798645 .1552887 .10798645 .10827637 .10798645 .019256592 .17098999-.0107421879 .22999573-.0107421879 .2689972-.0107421879 .30299378 .0062561037 .33099366 .03425598 .31799317-.017745972 .30599977-.06674194 .2659912-.11973572 .23999024-.15385437 .20199585-.18309021 .1559906-.18309021 .14199829-.18309021 .09700012-.18005371 .07998657-.14074707 .09599304-.14074707 .10899353-.14074707 .12298584-.1287384 .1329956-.11973572 .14299011-.10673523 .14299011-.08773804 .14299011-.056747438 .115997318-.052734376 .10598755-.052734376 .08299255-.052734376 .049987794-.068740848 .049987794-.11773682 .049987794-.16796875 .09399414-.20507813 .1559906-.20507813 .25898744-.20507813 .3619995-.11373901 .3899994-.00074768069L.48599244 .38136292Z"/>
<path id="font_5_1" d="M.17999268 .09257507C.23399353 .176651 .25099183 .2407074 .2639923 .2937622 .29899598 .43188478 .33699037 .5519867 .39898683 .621048 .41099549 .6340637 .4189911 .6430664 .45098878 .6430664 .519989 .6430664 .5219879 .5740051 .5219879 .55999758 .5219879 .5419769 .5169983 .52796939 .5169983 .5229645 .5169983 .5159607 .522995 .5159607 .5239868 .5159607 .5399933 .5159607 .5669861 .5269623 .59199526 .5449829 .6100006 .5589905 .61898806 .56900027 .61898806 .6100464 .61898806 .66407778 .59098818 .7050781 .5349884 .7050781 .5029907 .7050781 .4149933 .69706729 .31698609 .5980377 .23699951 .5159607 .18998719 .33580018 .17098999 .26072694 .15299988 .19166565 .14498902 .16064453 .114990238 .10058594 .10798645 .08857727 .08198547 .044540407 .067993167 .03152466 .040985109 .0065307619 .0309906-.011474609 .0309906-.016464234 .0309906-.018463135 .032989503-.022460938 .039993287-.022460938 .04399109-.022460938 .06498718-.018463135 .09098816-.0014648438 .10798645 .008529663 .10998535 .010528564 .1329956 .03453064 .18299866 .03353882 .21798706 .024536133 .2809906 .0065307619 .33198548-.007461548 .3829956-.022460938 .43399049-.022460938 .5149994-.022460938 .5970001 .038528444 .6289978 .08256531 .6489868 .10958862 .6549988 .13461304 .6549988 .13761902 .6549988 .1446228 .6489868 .1446228 .647995 .1446228 .6319885 .1446228 .60798647 .13362122 .59098818 .12161255 .56399539 .10458374 .56199648 .098587039 .55599978 .08157349 .5509949 .06555176 .54499819 .057540895 .54100039 .05154419 .5329895 .039535524 .5319977 .039535524 .5169983 .039535524 .46899415 .039535524 .4189911 .05455017 .35299684 .07255554 .32499696 .080566409 .269989 .096588138 .21998596 .096588138 .20698548 .096588138 .19299317 .095581058 .17999268 .09257507Z"/>
<path id="font_6_1" d="M.74398806 .2263794C.7599945 .2263794 .7839966 .2263794 .7839966 .25038148 .7839966 .27539063 .7609863 .27539063 .74398806 .27539063H.147995C.13198853 .27539063 .10798645 .27539063 .10798645 .25138856 .10798645 .2263794 .1309967 .2263794 .147995 .2263794H.74398806Z"/>
<path id="font_7_1" d="M.33499146 .63612368C.33499146 .6630554 .33299256 .6640625 .30499269 .6640625 .24099732 .6014404 .1499939 .6004486 .10899353 .6004486V.5644531C.1329956 .5644531 .19898987 .5644531 .2539978 .592453V.08203125C.2539978 .04899597 .2539978 .035995485 .1539917 .035995485H.115997318V0C.13398743 .0009918213 .25698854 .0039978029 .2939911 .0039978029 .32499696 .0039978029 .45098878 .0009918213 .47299195 0V.035995485H.43499757C.33499146 .035995485 .33499146 .04899597 .33499146 .08203125V.63612368Z"/>
<path id="font_5_2" d="M.2829895 .6169281C.2829895 .6569519 .30899049 .72099307 .41799928 .7279968 .4229889 .72898867 .4269867 .73298647 .4269867 .7389984 .4269867 .75 .4189911 .75 .4079895 .75 .30799867 .75 .21699524 .6989746 .21598816 .62493899V.3968048C.21598816 .3577881 .21598816 .32577516 .17599488 .29275514 .14099121 .2637329 .102996829 .261734 .08099365 .2607422 .07598877 .2597351 .07199097 .2557373 .07199097 .2497406 .07199097 .23973084 .07798767 .23973084 .08799744 .23873902 .1539917 .23474121 .20199585 .19876099 .21299744 .14978028 .21598816 .13879395 .21598816 .13679505 .21598816 .10081482V-.097076419C.21598816-.13905335 .21598816-.17103577 .2639923-.2090149 .30299378-.23901367 .36898805-.25 .4079895-.25 .4189911-.25 .4269867-.25 .4269867-.23901367 .4269867-.2290039 .42099-.2290039 .41099549-.22801209 .34799195-.22401428 .29899598-.19203186 .28599549-.14105225 .2829895-.13206482 .2829895-.13006592 .2829895-.09408569V.11579895C.2829895 .16177368 .2749939 .17877198 .24299622 .2107544 .22200012 .23173523 .19299317 .24172974 .16499329 .2497406 .24699402 .2727356 .2829895 .31877137 .2829895 .37680055V.6169281Z"/>
<path id="font_4_2" d="M.18699646 .23144531C.21598816 .23144531 .2899933 .23344422 .33999635 .2544403 .4099884 .28442384 .4149933 .34339906 .4149933 .35740663 .4149933 .40138246 .3769989 .4423828 .30799867 .4423828 .19699097 .4423828 .04598999 .34539796 .04598999 .17037964 .04598999 .06829834 .10499573-.0107421879 .20298767-.0107421879 .34599305-.0107421879 .42999269 .095321658 .42999269 .10733032 .42999269 .113342288 .42399598 .12034607 .41799928 .12034607 .41299439 .12034607 .41099549 .11834717 .40499879 .1103363 .32598878 .011245728 .21699524 .011245728 .20498657 .011245728 .1269989 .011245728 .117996219 .095321658 .117996219 .12734986 .117996219 .13935852 .11898804 .17037964 .13398743 .23144531H.18699646M.13999939 .25343324C.1789856 .40538026 .28199769 .42037965 .30799867 .42037965 .35499574 .42037965 .38198854 .39138795 .38198854 .35740663 .38198854 .25343324 .22200012 .25343324 .18099976 .25343324H.13999939Z"/>
<path id="font_8_1" d="M.42199708 .38238526C.40098573 .41540528 .36698915 .44140626 .31900025 .44140626 .19099427 .44140626 .06098938 .300354 .06098938 .15628052 .06098938 .059249879 .12599182-.009765625 .21199036-.009765625 .2659912-.009765625 .31399537 .021224976 .35398866 .0602417 .37298585 .00022888184 .43099977-.009765625 .45700074-.009765625 .49299623-.009765625 .5179901 .01222229 .5359955 .04324341 .55799868 .08226013 .57099917 .13928223 .57099917 .14328003 .57099917 .15628052 .55799868 .15628052 .5549927 .15628052 .54100039 .15628052 .5399933 .15228272 .5329895 .12527466 .5209961 .07725525 .5019989 .018234253 .45999146 .018234253 .43399049 .018234253 .4269867 .040237428 .4269867 .06724548 .4269867 .08425903 .43499757 .120269779 .44198609 .14628601 .44898988 .17329407 .45899964 .21430969 .46398927 .23632813L.48399354 .3123474C.48999024 .33836366 .5019989 .38539125 .5019989 .39038087 .5019989 .4123993 .48399354 .4223938 .46798707 .4223938 .45098878 .4223938 .42799378 .4104004 .42199708 .38238526M.35798646 .12527466C.35099793 .09725952 .32899476 .07725525 .30699159 .058242799 .2979889 .050247194 .2579956 .018234253 .21499634 .018234253 .17799378 .018234253 .14199829 .04423523 .14199829 .11526489 .14199829 .16828919 .17098999 .27833558 .19400025 .31835938 .23999024 .39839173 .29100038 .4133911 .31900025 .4133911 .3889923 .4133911 .4079895 .33737184 .4079895 .32635499 .4079895 .32235719 .4059906 .3153534 .40499879 .3123474L.35798646 .12527466Z"/>
<path id="font_8_2" d="M.43099977 .37594605C.40499879 .36994935 .3889923 .348938 .3889923 .32894898 .3889923 .30593873 .40899659 .2969513 .42199708 .2969513 .43199159 .2969513 .46998597 .302948 .46998597 .35394288 .46998597 .41940309 .397995 .44140626 .33699037 .44140626 .18099976 .44140626 .15299988 .325943 .15299988 .2949524 .15299988 .25804139 .17399597 .23410034 .18798828 .22212219 .21398926 .20217896 .23199463 .19818115 .30099488 .18621826 .32199098 .18222046 .38598634 .17025757 .38598634 .120285037 .38598634 .10328674 .375 .06529236 .33299256 .040252687 .2939911 .018234253 .24499512 .018234253 .23298645 .018234253 .19299317 .018234253 .13598633 .027236939 .11299133 .060287477 .1459961 .06428528 .16799927 .08929443 .16799927 .11729431 .16799927 .14228821 .1499939 .15429688 .1289978 .15429688 .099990848 .15429688 .070999149 .13128662 .070999149 .08729553 .070999149 .027236939 .1349945-.009765625 .23199463-.009765625 .41600038-.009765625 .44999696 .11628723 .44999696 .1552887 .44999696 .24707031 .34899903 .26501466 .31199647 .27200318 .30299378 .27400209 .27799989 .27798463 .27198792 .27998353 .23498535 .28697206 .21699524 .30795289 .21699524 .3299408 .21699524 .35295106 .23498535 .37998963 .25698854 .39416505 .28399659 .41137696 .31900025 .4133911 .33599855 .4133911 .35699464 .4133911 .40899659 .4103546 .43099977 .37594605Z"/>
<path id="font_4_1" d="M.30299378 .3244629H.3999939C.47499085 .3244629 .48298646 .30848695 .48298646 .27954103 .48298646 .2725525 .48298646 .26057435 .47599793 .2306366 .47399903 .22564698 .47299195 .22164917 .47299195 .21965027 .47299195 .21166992 .47898866 .20767212 .4850006 .20767212 .49499513 .20767212 .49499513 .21066284 .5 .2286377L.5549927 .44551087C.55799868 .45651246 .55799868 .45851136 .55799868 .46151734 .55799868 .46351625 .55599978 .47251893 .54599 .47251893 .5359955 .47251893 .5349884 .46751405 .5309906 .45150758 .5099945 .37347413 .4869995 .35546876 .4019928 .35546876H.31098939L.375 .6095886C.38398744 .64460757 .3849945 .64860537 .42900086 .64860537H.5609894C.6839905 .64860537 .70700076 .6156006 .70700076 .53855898 .70700076 .5155487 .70700076 .51153567 .70399478 .4845276 .70199587 .4715271 .70199587 .46951295 .70199587 .46652223 .70199587 .46151734 .7049866 .45451356 .71398928 .45451356 .72499087 .45451356 .7259979 .46051026 .7279968 .4795227L.7480011 .65260317C.7509918 .6796112 .74598696 .6796112 .72099307 .6796112H.23098755C.21099854 .6796112 .20098877 .6796112 .20098877 .65960696 .20098877 .64860537 .20999146 .64860537 .22898865 .64860537 .2659912 .64860537 .2939911 .64860537 .2939911 .6306 .2939911 .6266022 .2939911 .6246033 .2889862 .60658267L.15699768 .07791138C.14698792 .038970949 .14498902 .0309906 .06599426 .0309906 .04899597 .0309906 .037994386 .0309906 .037994386 .011993408 .037994386 0 .049987794 0 .052993776 0 .08198547 0 .1559906 .0029907227 .18499756 .0029907227 .21798706 .0029907227 .30099488 0 .33399964 0 .34298707 0 .35499574 0 .35499574 .018997193 .35499574 .026992798 .34899903 .0289917 .34899903 .02999878 .34599305 .0309906 .34399415 .0309906 .32099916 .0309906 .29899598 .0309906 .2939911 .0309906 .2689972 .032989503 .23999024 .035980226 .23699951 .039978029 .23699951 .052947999 .23699951 .0549469 .23699951 .060943605 .24099732 .075912479L.30299378 .3244629Z"/>
<path id="font_9_1" d="M.33099366-.2400055C.33099366-.23701477 .33099366-.23500061 .31399537-.21800232 .18899536-.0920105 .15699768 .09700012 .15699768 .25 .15699768 .42399598 .19499207 .59799197 .31799317 .72299197 .33099366 .73498538 .33099366 .7369995 .33099366 .73999026 .33099366 .746994 .32699586 .75 .32099916 .75 .31098939 .75 .22099304 .6819916 .1619873 .5549927 .11099243 .44499208 .09899902 .33399964 .09899902 .25 .09899902 .17199707 .10998535 .050994874 .16499329-.06201172 .22499085-.18501282 .31098939-.25 .32099916-.25 .32699586-.25 .33099366-.24700928 .33099366-.2400055Z"/>
<path id="font_4_3" d="M.3909912 .37405396C.36299134 .37304688 .34298707 .3510437 .34298707 .32904054 .34298707 .31503297 .35198976 .30003358 .37399293 .30003358 .3959961 .30003358 .41999818 .31703187 .41999818 .35603334 .41999818 .40124513 .3769989 .4423828 .30099488 .4423828 .16899109 .4423828 .13198853 .3400421 .13198853 .29605104 .13198853 .21820069 .20599365 .20323181 .23498535 .19725037 .2869873 .18727112 .33898927 .17628479 .33898927 .12133789 .33898927 .095336917 .31599427 .011245728 .19599915 .011245728 .18199158 .011245728 .10499573 .011245728 .08198547 .064331058 .11999512 .059326173 .14498902 .08934021 .14498902 .11734009 .14498902 .14033509 .1289978 .15234375 .10798645 .15234375 .08198547 .15234375 .051986696 .1313324 .051986696 .08633423 .051986696 .029281617 .10899353-.0107421879 .19499207-.0107421879 .35699464-.0107421879 .3959961 .1103363 .3959961 .15533448 .3959961 .19125366 .3769989 .21620178 .36499024 .22817993 .33799745 .25613404 .30899049 .26112367 .2649994 .27009584 .22898865 .27807618 .18899536 .2850647 .18899536 .33003236 .18899536 .3590393 .21299744 .42037965 .30099488 .42037965 .32598878 .42037965 .37599183 .41333009 .3909912 .37405396Z"/>
<path id="font_9_2" d="M.2889862 .25C.2889862 .32798768 .27799989 .44898988 .22299195 .56199648 .16299439 .68499758 .07699585 .75 .066986087 .75 .06098938 .75 .056991579 .74598696 .056991579 .73999026 .056991579 .7369995 .056991579 .73498538 .07598877 .71699526 .17399597 .6179962 .23098755 .45899964 .23098755 .25 .23098755 .07899475 .19400025-.09700012 .069992069-.2230072 .056991579-.23500061 .056991579-.23701477 .056991579-.2400055 .056991579-.2460022 .06098938-.25 .066986087-.25 .07699585-.25 .16699219-.18200684 .22599793-.055007936 .2769928 .054992677 .2889862 .16600037 .2889862 .25Z"/>
<path id="font_5_3" d="M.21598816-.11706543C.21598816-.15704346 .18998719-.2210083 .08099365-.22801209 .07598877-.2290039 .07199097-.23300171 .07199097-.23901367 .07199097-.25 .08299255-.25 .09199524-.25 .18899536-.25 .28199769-.20101929 .2829895-.12506104V.10282898C.2829895 .14179993 .2829895 .17378235 .32299806 .20677185 .35798646 .23576355 .3959961 .23776245 .41799928 .23875427 .4229889 .23976135 .4269867 .24375916 .4269867 .24975586 .4269867 .25976563 .42099 .25976563 .41099549 .26075746 .34498597 .26475526 .29699708 .30078126 .28599549 .34980775 .2829895 .36080934 .2829895 .36280824 .2829895 .39883424V.5969238C.2829895 .63894656 .2829895 .6709595 .23498535 .7089844 .19499207 .73999026 .12599182 .75 .09199524 .75 .08299255 .75 .07199097 .75 .07199097 .7389984 .07199097 .72898867 .07798767 .72898867 .08799744 .72798159 .15098572 .72398379 .19999695 .6919708 .21299744 .64094546 .21598816 .63194277 .21598816 .62994387 .21598816 .59391787V.38381959C.21598816 .33779908 .22399903 .32078553 .2559967 .28877259 .2769928 .26776124 .30599977 .25775147 .33399964 .24975586 .2519989 .22676087 .21598816 .18078614 .21598816 .12281799V-.11706543Z"/>
</defs>
<path transform="matrix(1.00003,0,0,-1,11.627754,86.852008)" stroke-width=".09962" stroke-linecap="butt" stroke-miterlimit="10" stroke-linejoin="miter" fill="none" stroke="#e0e0e0" d="M10.86842 0V65.21056M32.60527 0V65.21056M54.34212 0V65.21056M76.07898 0V65.21056M97.81583 0V65.21056M119.55269 0V65.21056M141.28954 0V65.21056M163.02639 0V65.21056M184.76325 0V65.21056M206.50009 0V65.21056M228.23696 0V65.21056"/>
<path transform="matrix(1.00003,0,0,-1,11.627754,86.852008)" stroke-width=".19925" stroke-linecap="butt" stroke-miterlimit="10" stroke-linejoin="miter" fill="none" stroke="#c0c0c0" d="M0 0V65.21056M43.4737 0V65.21056M65.21056 0V65.21056M86.9474 0V65.21056M108.68425 0V65.21056M130.42111 0V65.21056M152.15796 0V65.21056M173.89482 0V65.21056M195.63167 0V65.21056M217.36852 0V65.21056M239.10538 0V65.21056"/>
<path transform="matrix(1.00003,0,0,-1,11.627754,86.852008)" stroke-width=".09962" stroke-linecap="butt" stroke-miterlimit="10" stroke-linejoin="miter" fill="none" stroke="#e0e0e0" d="M0 10.86842H239.10538M0 32.60527H239.10538M0 54.34212H239.10538"/>
<path transform="matrix(1.00003,0,0,-1,11.627754,86.852008)" stroke-width=".19925" stroke-linecap="butt" stroke-miterlimit="10" stroke-linejoin="miter" fill="none" stroke="#c0c0c0" d="M0 0H239.10538M0 43.4737H239.10538M0 65.21056H239.10538"/>
<path transform="matrix(1.00003,0,0,-1,11.627754,86.852008)" stroke-width=".19925" stroke-linecap="butt" stroke-miterlimit="10" stroke-linejoin="miter" fill="none" stroke="#929292" d="M10.86842 20.31921V23.15446M32.60527 20.31921V23.15446M54.34212 20.31921V23.15446M76.07898 20.31921V23.15446M97.81583 20.31921V23.15446M119.55269 20.31921V23.15446M141.28954 20.31921V23.15446M163.02639 20.31921V23.15446M184.76325 20.31921V23.15446M206.50009 20.31921V23.15446M228.23696 20.31921V23.15446"/>
<path transform="matrix(1.00003,0,0,-1,11.627754,86.852008)" stroke-width=".19925" stroke-linecap="butt" stroke-miterlimit="10" stroke-linejoin="miter" fill="none" stroke="#929292" d="M0 19.61063V23.86305M43.4737 19.61063V23.86305M65.21056 19.61063V23.86305M86.9474 19.61063V23.86305M108.68425 19.61063V23.86305M130.42111 19.61063V23.86305M152.15796 19.61063V23.86305M173.89482 19.61063V23.86305M195.63167 19.61063V23.86305M217.36852 19.61063V23.86305M239.10538 19.61063V23.86305"/>
<path transform="matrix(1.00003,0,0,-1,11.627754,86.852008)" stroke-width=".19925" stroke-linecap="butt" stroke-miterlimit="10" stroke-linejoin="miter" fill="none" stroke="#929292" d="M20.31921 10.86842H23.15446M20.31921 32.60527H23.15446M20.31921 54.34212H23.15446"/>
<path transform="matrix(1.00003,0,0,-1,11.627754,86.852008)" stroke-width=".19925" stroke-linecap="butt" stroke-miterlimit="10" stroke-linejoin="miter" fill="none" stroke="#929292" d="M19.61063 0H23.86305M19.61063 43.4737H23.86305M19.61063 65.21056H23.86305"/>
<path transform="matrix(1.00003,0,0,-1,11.627754,86.852008)" stroke-width=".3985" stroke-linecap="butt" stroke-miterlimit="10" stroke-linejoin="miter" fill="none" stroke="#000000" d="M-6.37622 21.73685H245.4816"/>
<path transform="matrix(-1.00003,-0,0,1,5.2513425,65.11516)" d="M3.58653 0C2.52383 .19925 .797 .797-.3985 1.49438V-1.49438C.797-.797 2.52383-.19925 3.58653 0"/>
<path transform="matrix(1.00003,0,0,-1,257.11674,65.11516)" d="M3.58653 0C2.52383 .19925 .797 .797-.3985 1.49438V-1.49438C.797-.797 2.52383-.19925 3.58653 0"/>
<path transform="matrix(1.00003,0,0,-1,11.627754,86.852008)" stroke-width=".3985" stroke-linecap="butt" stroke-miterlimit="10" stroke-linejoin="miter" fill="none" stroke="#000000" d="M21.73685-6.37622V71.58678"/>
<path transform="matrix(0,1,1.00003,0,33.365259,93.228229)" d="M3.58653 0C2.52383 .19925 .797 .797-.3985 1.49438V-1.49438C.797-.797 2.52383-.19925 3.58653 0"/>
<path transform="matrix(0,-1,-1.00003,-0,33.365259,15.265228)" d="M3.58653 0C2.52383 .19925 .797 .797-.3985 1.49438V-1.49438C.797-.797 2.52383-.19925 3.58653 0"/>
<use data-text="&#x2212;" xlink:href="#font_1_1" transform="matrix(7.9703395,0,0,-7.9701,6.2175905,75.89801)"/>
<use data-text="1" xlink:href="#font_2_2" transform="matrix(7.9703395,0,0,-7.9701,12.804787,75.89801)"/>
<use data-text="1" xlink:href="#font_2_2" transform="matrix(7.9703395,0,0,-7.9701,52.985998,75.89801)"/>
<use data-text="2" xlink:href="#font_2_3" transform="matrix(7.9703395,0,0,-7.9701,74.72265,75.89801)"/>
<use data-text="3" xlink:href="#font_2_4" transform="matrix(7.9703395,0,0,-7.9701,96.460308,75.89801)"/>
<use data-text="4" xlink:href="#font_2_5" transform="matrix(7.9703395,0,0,-7.9701,118.19796,75.89801)"/>
<use data-text="5" xlink:href="#font_2_6" transform="matrix(7.9703395,0,0,-7.9701,139.93561,75.89801)"/>
<use data-text="6" xlink:href="#font_2_7" transform="matrix(7.9703395,0,0,-7.9701,161.67325,75.89801)"/>
<use data-text="7" xlink:href="#font_2_8" transform="matrix(7.9703395,0,0,-7.9701,183.41092,75.89801)"/>
<use data-text="8" xlink:href="#font_2_9" transform="matrix(7.9703395,0,0,-7.9701,205.14856,75.89801)"/>
<use data-text="9" xlink:href="#font_2_10" transform="matrix(7.9703395,0,0,-7.9701,226.88523,75.89801)"/>
<use data-text="1" xlink:href="#font_2_2" transform="matrix(7.9703395,0,0,-7.9701,246.5058,75.89801)"/>
<use data-text="0" xlink:href="#font_2_1" transform="matrix(7.9703395,0,0,-7.9701,250.73807,75.89801)"/>
<use data-text="&#x2212;" xlink:href="#font_1_1" transform="matrix(7.9703395,0,0,-7.9701,16.897912,89.005008)"/>
<use data-text="1" xlink:href="#font_2_2" transform="matrix(7.9703395,0,0,-7.9701,23.485108,89.005008)"/>
<use data-text="1" xlink:href="#font_2_2" transform="matrix(7.9703395,0,0,-7.9701,23.485108,45.946008)"/>
<use data-text="2" xlink:href="#font_2_3" transform="matrix(7.9703395,0,0,-7.9701,23.485108,24.210007)"/>
<g clip-path="url(#clip_3)">
<path transform="matrix(1.00003,0,0,-1,11.627754,86.852008)" stroke-width=".99628" stroke-linecap="butt" stroke-miterlimit="10" stroke-linejoin="miter" fill="none" stroke="#e41a1c" d="M173.89482 21.73685C173.89482 21.73685 174.37071 22.20389 174.55348 22.37595 174.73627 22.54802 175.02936 22.8153 175.21213 22.97702 175.3949 23.13875 175.68804 23.38972 175.87082 23.54153 176.05359 23.69334 176.34671 23.92877 176.52948 24.07115 176.71227 24.21353 177.0054 24.43443 177.18817 24.56781 177.37094 24.70117 177.66403 24.90768 177.84682 25.03242 178.02959 25.15715 178.32273 25.35028 178.5055 25.46684 178.68828 25.58342 178.9814 25.7639 179.16417 25.87267 179.34694 25.98143 179.64006 26.14954 179.82283 26.25084 180.0056 26.35216 180.29872 26.50876 180.48149 26.60289 180.66428 26.69702 180.95742 26.84198 181.14019 26.92929 181.32295 27.01662 181.61609 27.15132 181.79886 27.23228 181.98163 27.31325 182.27474 27.43819 182.4575 27.51291 182.64029 27.58765 182.93341 27.70209 183.11618 27.77092 183.29895 27.83975 183.5921 27.94568 183.77487 28.00911 183.95764 28.07253 184.25074 28.16998 184.43352 28.22804 184.61629 28.2861 184.90943 28.37476 185.0922 28.42761 185.27497 28.48047 185.5681 28.56082 185.75087 28.60907 185.93364 28.65732 186.22678 28.73163 186.40956 28.77538 186.59233 28.81912 186.88542 28.88521 187.06819 28.9245 187.25098 28.96378 187.54412 29.02336 187.72689 29.05856 187.90966 29.09375 188.20278 29.1468 188.38556 29.17813 188.56833 29.20947 188.86147 29.25687 189.04424 29.28442 189.22702 29.312 189.52011 29.35278 189.70288 29.37688 189.88565 29.40097 190.17879 29.43723 190.36157 29.4581 190.54434 29.47897 190.83747 29.50977 191.02024 29.52736 191.20302 29.54495 191.49611 29.57043 191.67888 29.58498 191.86165 29.5995 192.1548 29.6202 192.33757 29.63217 192.52034 29.64415 192.81348 29.662 192.99625 29.67137 193.17903 29.68073 193.47216 29.69328 193.65493 29.69977 193.83769 29.70624 194.1308 29.71378 194.31357 29.71814 194.49634 29.7225 194.78948 29.72894 194.97225 29.73131 195.15503 29.73367 195.44817 29.73529 195.63094 29.73529 195.8137 29.73529 196.10684 29.73347 196.28961 29.73134 196.47238 29.72919 196.76548 29.72366 196.94826 29.7198 197.13103 29.71594 197.42417 29.70879 197.60694 29.70341 197.7897 29.69803 198.08284 29.68837 198.26561 29.68098 198.44838 29.6736 198.74149 29.65903 198.92427 29.65015 199.10704 29.64127 199.40016 29.62714 199.58293 29.61694 199.76572 29.60674 200.05886 29.58795 200.24163 29.57658 200.4244 29.56522 200.71749 29.54768 200.90027 29.53491 201.08304 29.52214 201.37618 29.49846 201.55895 29.48444 201.74173 29.47043 202.03485 29.44861 202.21762 29.43387 202.40039 29.41911 202.69353 29.39426 202.87631 29.3781 203.05908 29.36194 203.35218 29.33432 203.53495 29.3173 203.71773 29.30031 204.01087 29.27316 204.19364 29.25548 204.3764 29.23781 204.66954 29.20853 204.85231 29.18985 205.03508 29.17116 205.32822 29.14037 205.51099 29.12077 205.69377 29.1012 205.98686 29.0691 206.16963 29.0487 206.3524 29.0283 206.64556 28.99428 206.82833 28.97366 207.0111 28.95303 207.30422 28.9211 207.48699 28.90002 207.66977 28.87894 207.96288 28.84366 208.14565 28.82162 208.32842 28.79958 208.62155 28.76308 208.80432 28.74107 208.98709 28.71909 209.28023 28.68567 209.46302 28.66304 209.64579 28.6404 209.9389 28.60114 210.12168 28.57793 210.30445 28.55473 210.59757 28.51909 210.78034 28.49574 210.9631 28.47238 211.25623 28.43332 211.43901 28.40958 211.62178 28.38582 211.91492 28.34811 212.09769 28.32452 212.28046 28.30095 212.57357 28.2634 212.75634 28.23955 212.9391 28.2157 213.23223 28.17722 213.41501 28.15256 213.59778 28.1279 213.89092 28.0866 214.07369 28.06181 214.25647 28.03703 214.5496 27.99812 214.73238 27.97394 214.91515 27.94975 215.20824 27.91154 215.39102 27.88742 215.57379 27.86328 215.86692 27.8245 216.04969 27.79997 216.23247 27.77545 216.5256 27.73561 216.70838 27.71063 216.89115 27.68565 217.18428 27.64471 217.36707 27.61995 217.54984 27.59518 217.84293 27.55714 218.0257 27.53212 218.20848 27.50708 218.5016 27.46461 218.68437 27.43944 218.86714 27.41426 219.1603 27.37468 219.34307 27.35062 219.52584 27.32655 219.81893 27.2901 220.0017 27.26598 220.18448 27.24185 220.47762 27.20143 220.66039 27.17664 220.84316 27.15184 221.13629 27.112 221.31906 27.08725 221.50183 27.06248 221.79497 27.02208 221.97776 26.99808 222.16053 26.97408 222.45362 26.9381 222.63639 26.91417 222.81916 26.89024 223.1123 26.8496 223.29508 26.82555 223.47785 26.80148 223.77097 26.76442 223.95375 26.7408 224.13652 26.7172 224.42963 26.67892 224.6124 26.65529 224.79517 26.63167 225.0883 26.59389 225.27108 26.57045 225.45384 26.54701 225.74698 26.50958 225.92977 26.48634 226.11254 26.46309 226.40566 26.42589 226.58843 26.40285 226.77121 26.3798 227.06432 26.34297 227.24709 26.32013 227.42986 26.2973 227.72298 26.26083 227.90576 26.23824 228.08853 26.21565 228.38167 26.1796 228.56444 26.15721 228.74723 26.13484 229.04035 26.09908 229.22312 26.07692 229.40589 26.05476 229.69899 26.01942 229.88178 25.9975 230.06455 25.97559 230.35767 25.94055 230.54044 25.9189 230.72322 25.89723 231.01636 25.86269 231.19913 25.8413 231.3819 25.81989 231.675 25.78569 231.85778 25.76453 232.04055 25.74338 232.33368 25.70961 232.51645 25.68872 232.69924 25.66783 232.99236 25.6345 233.17513 25.61388 233.3579 25.59325 233.651 25.56032 233.83377 25.53995 234.01654 25.51958 234.30968 25.48709 234.49246 25.46698 234.67523 25.44687 234.96836 25.41483 235.15113 25.39499 235.3339 25.37515 235.62705 25.3435 235.80982 25.32393 235.99259 25.30437 236.28568 25.27318 236.46846 25.25389 236.65123 25.23459 236.94437 25.20386 237.12714 25.18483 237.3099 25.16582 237.60305 25.13553 237.78582 25.11678 237.96858 25.09804 238.26172 25.06818 238.4445 25.04971 238.62728 25.03123 239.10314 24.98361 239.10314 24.98361"/>
<path transform="matrix(1.00003,0,0,-1,11.627754,86.852008)" stroke-width=".99628" stroke-linecap="butt" stroke-dasharray="2.98883,2.98883" stroke-miterlimit="10" stroke-linejoin="miter" fill="none" stroke="#377eb8" d="M21.73685 21.73685C21.73685 21.73685 23.32303 23.22385 23.93225 23.72174 24.54147 24.21964 25.51848 24.92572 26.1277 25.32542 26.73691 25.72513 27.71388 26.28688 28.3231 26.60258 28.93233 26.9183 29.90932 27.35666 30.51854 27.6009 31.12776 27.84515 32.10475 28.17949 32.71394 28.36307 33.32315 28.54665 34.30014 28.79176 34.90936 28.92404 35.51859 29.0563 36.49559 29.22733 37.10481 29.31648 37.71404 29.40562 38.69101 29.51349 39.30022 29.56659 39.90944 29.61969 40.88644 29.676 41.49567 29.69923 42.10489 29.72246 43.08186 29.73557 43.69107 29.73409 44.30028 29.73262 45.27727 29.7101 45.88647 29.68858 46.4957 29.66708 47.4727 29.61679 48.08192 29.57896 48.69113 29.54115 49.66812 29.4671 50.27734 29.41594 50.88657 29.36479 51.86356 29.27121 52.47278 29.21028 53.082 29.14934 54.05899 29.04506 54.6682 28.9768 55.27739 28.90854 56.25438 28.79257 56.8636 28.71829 57.47282 28.64401 58.44981 28.51996 59.05904 28.4414 59.66826 28.36285 60.64523 28.23315 61.25446 28.15213 61.86366 28.0711 62.84068 27.93948 63.4499 27.85739 64.05913 27.7753 65.0361 27.64252 65.64531 27.56041 66.25452 27.4783 67.2315 27.34772 67.84073 27.26561 68.44994 27.1835 69.42694 27.04929 70.03616 26.96863 70.64539 26.88795 71.62234 26.7626 72.23157 26.68417 72.84079 26.60574 73.8178 26.48009 74.427 26.40332 75.03622 26.32655 76.0132 26.20515 76.62242 26.13081 77.23164 26.05647 78.20862 25.9392 78.81784 25.86752 79.42706 25.79587 80.40407 25.68307 81.01328 25.61429 81.6225 25.5455 82.59947 25.43747 83.2087 25.37164 83.8179 25.30582 84.7949 25.20259 85.40413 25.13979 86.01335 25.077 86.99034 24.9787 87.59953 24.91896 88.20874 24.8592 89.18573 24.76584 89.79495 24.70914 90.40416 24.65244 91.38118 24.56393 91.9904 24.51027 92.59962 24.45659 93.57658 24.3729 94.1858 24.32217 94.79503 24.27144 95.77203 24.19243 96.38126 24.14459 96.99046 24.09676 97.96745 24.02232 98.57666 23.97728 99.18587 23.93224 100.16284 23.86227 100.77206 23.81995 101.38129 23.7776 102.35829 23.71185 102.96751 23.67212 103.57672 23.63239 104.5537 23.57072 105.16292 23.53348 105.77214 23.49623 106.74915 23.43849 107.35837 23.40363 107.96759 23.36874 108.94458 23.31473 109.55377 23.28212 110.16298 23.24951 111.13997 23.199 111.74919 23.16855 112.35841 23.1381 113.3354 23.09102 113.94463 23.06262 114.55385 23.03423 115.53082 22.99026 116.14003 22.96378 116.74925 22.9373 117.72626 22.89636 118.33548 22.8717 118.9447 22.84705 119.92168 22.80893 120.5309 22.786 121.14012 22.76306 122.1171 22.72763 122.7263 22.7063 123.33553 22.68498 124.31253 22.65202 124.92175 22.6322 125.53096 22.61237 126.50793 22.5818 127.11716 22.5634 127.72638 22.54501 128.70339 22.51663 129.31259 22.49956 129.92182 22.48248 130.8988 22.45619 131.50801 22.44037 132.1172 22.42453 133.0942 22.40015 133.70342 22.3855 134.31264 22.37085 135.28964 22.34825 135.89887 22.33469 136.50809 22.32114 137.48506 22.30022 138.09429 22.28766 138.70349 22.2751 139.6805 22.25572 140.28972 22.24411 140.89894 22.23248 141.87592 22.21461 142.48513 22.20389 143.09433 22.19315 144.07132 22.17662 144.68054 22.1667 145.28975 22.15677 146.26677 22.14148 146.87599 22.13232 147.48522 22.12317 148.46218 22.10909 149.0714 22.10063 149.68062 22.09218 150.65763 22.07913 151.26683 22.07133 151.87606 22.06354 152.85305 22.05153 153.46225 22.04434 154.07146 22.03714 155.04843 22.02608 155.65766 22.01944 156.26688 22.01279 157.24388 22.00256 157.85309 21.99644 158.46231 21.99034 159.43929 21.98094 160.04851 21.97531 160.65773 21.9697 161.63474 21.961 162.24396 21.95581 162.85318 21.95064 163.83017 21.94263 164.43936 21.93787 165.04857 21.93309 166.02556 21.92575 166.63478 21.92136 167.24399 21.91696 168.221 21.9102 168.83022 21.90616 169.43944 21.90211 170.41641 21.89587 171.02562 21.89217 171.63484 21.88846 172.61185 21.88275 173.22107 21.87933 173.83028 21.87592 174.80727 21.87064 175.41649 21.8675 176.02571 21.86435 177.00267 21.85953 177.6119 21.85664 178.22112 21.85374 179.19812 21.84929 179.80735 21.84665 180.41655 21.84401 181.39353 21.8399 182.00275 21.83746 182.61197 21.83504 183.58896 21.83128 184.19818 21.82904 184.8074 21.82681 185.7844 21.82338 186.39359 21.82132 187.00279 21.81927 187.97978 21.8161 188.589 21.81422 189.19823 21.81233 190.17523 21.80943 190.78446 21.80772 191.39368 21.806 192.37065 21.80333 192.97986 21.80174 193.58908 21.80016 194.56609 21.79768 195.17531 21.79623 195.78453 21.7948 196.7615 21.79256 197.37071 21.79124 197.97992 21.78992 198.95691 21.78783 199.56612 21.78662 200.17534 21.7854 201.15235 21.78348 201.76157 21.78238 202.37078 21.78127 203.34777 21.77954 203.95699 21.77853 204.56621 21.77751 205.54322 21.77588 206.15242 21.77495 206.76165 21.774 207.73863 21.77255 208.34784 21.7717 208.95703 21.77086 209.93402 21.76953 210.54325 21.76874 211.15247 21.76794 212.12946 21.76671 212.73868 21.76599 213.3479 21.76527 214.32488 21.76416 214.9341 21.7635 215.5433 21.76286 216.52033 21.76181 217.12955 21.76122 217.73877 21.76062 218.71575 21.75967 219.32495 21.75912 219.93416 21.75859 220.91115 21.7577 221.52037 21.7572 222.12958 21.7567 223.10659 21.75589 223.7158 21.75543 224.32503 21.75497 225.30199 21.75427 225.91121 21.75386 226.52043 21.75345 227.49744 21.75278 228.10665 21.7524 228.71587 21.75201 229.69284 21.75137 230.30207 21.75102 230.91129 21.75067 231.88826 21.75014 232.49748 21.74982 233.1067 21.7495 234.08371 21.74896 234.69292 21.74867 235.30214 21.74838 236.27912 21.74791 236.88834 21.74765 237.49756 21.74739 239.08377 21.74672 239.08377 21.74672"/>
</g>
<use data-text="t" xlink:href="#font_4_4" transform="matrix(9.962899,0,0,-9.9626,264.27033,68.175)"/>
<use data-text="y" xlink:href="#font_4_5" transform="matrix(9.962899,0,0,-9.9626,30.74833,6.2100069)"/>
<path transform="matrix(1.00003,0,0,-1,11.627754,86.852008)" d="M35.45122-30.81541H203.65415V-13.24115H35.45122Z" fill="#ffffff"/>
<path transform="matrix(1.00003,0,0,-1,11.627754,86.852008)" stroke-width=".3985" stroke-linecap="butt" stroke-miterlimit="10" stroke-linejoin="miter" fill="none" stroke="#000000" d="M35.45122-30.81541H203.65415V-13.24115H35.45122Z"/>
<path transform="matrix(1.00003,0,0,-1,50.567926,108.880008)" stroke-width=".99628" stroke-linecap="butt" stroke-miterlimit="10" stroke-linejoin="miter" fill="none" stroke="#e41a1c" d="M0 0C0 0 6.14426 0 8.50412 0 10.86398 0 17.00826 0 17.00826 0"/>
<use data-text="L" xlink:href="#font_5_1" transform="matrix(9.962899,0,0,-9.9626,70.06651,112.188)"/>
<use data-text="&#x2212;" xlink:href="#font_6_1" transform="matrix(6.9740097,0,0,-6.9738,76.93872,108.572)"/>
<use data-text="1" xlink:href="#font_7_1" transform="matrix(6.9740097,0,0,-6.9738,83.16591,108.572)"/>
<use data-text="{" xlink:href="#font_5_2" transform="matrix(9.962899,0,0,-9.9626,89.29509,112.188)"/>
<use data-text="e" xlink:href="#font_4_2" transform="matrix(9.962899,0,0,-9.9626,94.27724,112.188)"/>
<use data-text="&#x2212;" xlink:href="#font_6_1" transform="matrix(6.9740097,0,0,-6.9738,98.91637,108.572)"/>
<use data-text="a" xlink:href="#font_8_1" transform="matrix(6.9740097,0,0,-6.9738,105.14256,108.572)"/>
<use data-text="s" xlink:href="#font_8_2" transform="matrix(6.9740097,0,0,-6.9738,109.45947,108.572)"/>
<use data-text="F" xlink:href="#font_4_1" transform="matrix(9.962899,0,0,-9.9626,113.722827,112.188)"/>
<use data-text="(" xlink:href="#font_9_1" transform="matrix(9.962899,0,0,-9.9626,121.51305,112.188)"/>
<use data-text="s" xlink:href="#font_4_3" transform="matrix(9.962899,0,0,-9.9626,125.38817,112.188)"/>
<use data-text=")" xlink:href="#font_9_2" transform="matrix(9.962899,0,0,-9.9626,130.0583,112.188)"/>
<use data-text="}" xlink:href="#font_5_3" transform="matrix(9.962899,0,0,-9.9626,133.9324,112.188)"/>
<path transform="matrix(1.00003,0,0,-1,141.40464,108.880008)" stroke-width=".99628" stroke-linecap="butt" stroke-dasharray="2.98883,2.98883" stroke-miterlimit="10" stroke-linejoin="miter" fill="none" stroke="#377eb8" d="M0 0C0 0 6.14426 0 8.50412 0 10.86398 0 17.00826 0 17.00826 0"/>
<use data-text="L" xlink:href="#font_5_1" transform="matrix(9.962899,0,0,-9.9626,160.90422,112.188)"/>
<use data-text="&#x2212;" xlink:href="#font_6_1" transform="matrix(6.9740097,0,0,-6.9738,167.77544,108.572)"/>
<use data-text="1" xlink:href="#font_7_1" transform="matrix(6.9740097,0,0,-6.9738,174.00263,108.572)"/>
<use data-text="{" xlink:href="#font_5_2" transform="matrix(9.962899,0,0,-9.9626,180.13282,112.188)"/>
<use data-text="F" xlink:href="#font_4_1" transform="matrix(9.962899,0,0,-9.9626,185.11397,112.188)"/>
<use data-text="(" xlink:href="#font_9_1" transform="matrix(9.962899,0,0,-9.9626,192.90419,112.188)"/>
<use data-text="s" xlink:href="#font_4_3" transform="matrix(9.962899,0,0,-9.9626,196.77931,112.188)"/>
<use data-text=")" xlink:href="#font_9_2" transform="matrix(9.962899,0,0,-9.9626,201.44945,112.188)"/>
<use data-text="}" xlink:href="#font_5_3" transform="matrix(9.962899,0,0,-9.9626,205.32357,112.188)"/>
</svg>
