<?xml version="1.0" encoding="utf-8" standalone="no"?>
<!DOCTYPE svg PUBLIC "-//W3C//DTD SVG 1.1//EN"
  "http://www.w3.org/Graphics/SVG/1.1/DTD/svg11.dtd">
<!-- Created with matplotlib (http://matplotlib.org/) -->
<svg height="339.982926pt" version="1.1" viewBox="0 0 455.56 339.982926" width="455.56pt" xmlns="http://www.w3.org/2000/svg" xmlns:xlink="http://www.w3.org/1999/xlink">
 <defs>
  <style type="text/css">
*{stroke-linecap:butt;stroke-linejoin:round;}
  </style>
 </defs>
 <g id="figure_1">
  <g id="patch_1">
   <path d="M 0 339.982926 
L 455.56 339.982926 
L 455.56 0 
L 0 0 
z
" style="fill:#ffffff;"/>
  </g>
  <g id="axes_1">
   <g id="patch_2">
    <path d="M 10.7 329.282926 
L 444.86 329.282926 
L 444.86 10.7 
L 10.7 10.7 
z
" style="fill:#ffffff;"/>
   </g>
   <g id="matplotlib.axis_1">
    <g id="xtick_1">
     <g id="line2d_1">
      <defs>
       <path d="M 0 0 
L 0 3.5 
" id="m2219840059" style="stroke:#000000;stroke-width:0.8;"/>
      </defs>
      <g>
       <use style="stroke:#000000;stroke-width:0.8;" x="117.044888" xlink:href="#m2219840059" y="169.988377"/>
      </g>
     </g>
     <g id="text_1">
      <!-- -5 -->
      <defs>
       <path d="M 4.890625 31.390625 
L 31.203125 31.390625 
L 31.203125 23.390625 
L 4.890625 23.390625 
z
" id="DejaVuSans-2d"/>
       <path d="M 10.796875 72.90625 
L 49.515625 72.90625 
L 49.515625 64.59375 
L 19.828125 64.59375 
L 19.828125 46.734375 
Q 21.96875 47.46875 24.109375 47.828125 
Q 26.265625 48.1875 28.421875 48.1875 
Q 40.625 48.1875 47.75 41.5 
Q 54.890625 34.8125 54.890625 23.390625 
Q 54.890625 11.625 47.5625 5.09375 
Q 40.234375 -1.421875 26.90625 -1.421875 
Q 22.3125 -1.421875 17.546875 -0.640625 
Q 12.796875 0.140625 7.71875 1.703125 
L 7.71875 11.625 
Q 12.109375 9.234375 16.796875 8.0625 
Q 21.484375 6.890625 26.703125 6.890625 
Q 35.15625 6.890625 40.078125 11.328125 
Q 45.015625 15.765625 45.015625 23.390625 
Q 45.015625 31 40.078125 35.4375 
Q 35.15625 39.890625 26.703125 39.890625 
Q 22.75 39.890625 18.8125 39.015625 
Q 14.890625 38.140625 10.796875 36.28125 
z
" id="DejaVuSans-35"/>
      </defs>
      <g transform="translate(112.059731 184.586814)scale(0.1 -0.1)">
       <use xlink:href="#DejaVuSans-2d"/>
       <use x="36.083984" xlink:href="#DejaVuSans-35"/>
      </g>
     </g>
    </g>
    <g id="xtick_2">
     <g id="line2d_2">
      <g>
       <use style="stroke:#000000;stroke-width:0.8;" x="227.78" xlink:href="#m2219840059" y="169.988377"/>
      </g>
     </g>
    </g>
    <g id="xtick_3">
     <g id="line2d_3">
      <g>
       <use style="stroke:#000000;stroke-width:0.8;" x="338.515112" xlink:href="#m2219840059" y="169.988377"/>
      </g>
     </g>
     <g id="text_2">
      <!-- 5 -->
      <g transform="translate(335.333862 184.586814)scale(0.1 -0.1)">
       <use xlink:href="#DejaVuSans-35"/>
      </g>
     </g>
    </g>
    <g id="xtick_4">
     <g id="line2d_4">
      <defs>
       <path d="M 0 0 
L 0 2 
" id="m5539765744" style="stroke:#000000;stroke-width:0.6;"/>
      </defs>
      <g>
       <use style="stroke:#000000;stroke-width:0.6;" x="28.456798" xlink:href="#m5539765744" y="169.988377"/>
      </g>
     </g>
    </g>
    <g id="xtick_5">
     <g id="line2d_5">
      <g>
       <use style="stroke:#000000;stroke-width:0.6;" x="50.60382" xlink:href="#m5539765744" y="169.988377"/>
      </g>
     </g>
    </g>
    <g id="xtick_6">
     <g id="line2d_6">
      <g>
       <use style="stroke:#000000;stroke-width:0.6;" x="72.750843" xlink:href="#m5539765744" y="169.988377"/>
      </g>
     </g>
    </g>
    <g id="xtick_7">
     <g id="line2d_7">
      <g>
       <use style="stroke:#000000;stroke-width:0.6;" x="94.897865" xlink:href="#m5539765744" y="169.988377"/>
      </g>
     </g>
    </g>
    <g id="xtick_8">
     <g id="line2d_8">
      <g>
       <use style="stroke:#000000;stroke-width:0.6;" x="139.19191" xlink:href="#m5539765744" y="169.988377"/>
      </g>
     </g>
    </g>
    <g id="xtick_9">
     <g id="line2d_9">
      <g>
       <use style="stroke:#000000;stroke-width:0.6;" x="161.338933" xlink:href="#m5539765744" y="169.988377"/>
      </g>
     </g>
    </g>
    <g id="xtick_10">
     <g id="line2d_10">
      <g>
       <use style="stroke:#000000;stroke-width:0.6;" x="183.485955" xlink:href="#m5539765744" y="169.988377"/>
      </g>
     </g>
    </g>
    <g id="xtick_11">
     <g id="line2d_11">
      <g>
       <use style="stroke:#000000;stroke-width:0.6;" x="205.632978" xlink:href="#m5539765744" y="169.988377"/>
      </g>
     </g>
    </g>
    <g id="xtick_12">
     <g id="line2d_12">
      <g>
       <use style="stroke:#000000;stroke-width:0.6;" x="249.927022" xlink:href="#m5539765744" y="169.988377"/>
      </g>
     </g>
    </g>
    <g id="xtick_13">
     <g id="line2d_13">
      <g>
       <use style="stroke:#000000;stroke-width:0.6;" x="272.074045" xlink:href="#m5539765744" y="169.988377"/>
      </g>
     </g>
    </g>
    <g id="xtick_14">
     <g id="line2d_14">
      <g>
       <use style="stroke:#000000;stroke-width:0.6;" x="294.221067" xlink:href="#m5539765744" y="169.988377"/>
      </g>
     </g>
    </g>
    <g id="xtick_15">
     <g id="line2d_15">
      <g>
       <use style="stroke:#000000;stroke-width:0.6;" x="316.36809" xlink:href="#m5539765744" y="169.988377"/>
      </g>
     </g>
    </g>
    <g id="xtick_16">
     <g id="line2d_16">
      <g>
       <use style="stroke:#000000;stroke-width:0.6;" x="360.662135" xlink:href="#m5539765744" y="169.988377"/>
      </g>
     </g>
    </g>
    <g id="xtick_17">
     <g id="line2d_17">
      <g>
       <use style="stroke:#000000;stroke-width:0.6;" x="382.809157" xlink:href="#m5539765744" y="169.988377"/>
      </g>
     </g>
    </g>
    <g id="xtick_18">
     <g id="line2d_18">
      <g>
       <use style="stroke:#000000;stroke-width:0.6;" x="404.95618" xlink:href="#m5539765744" y="169.988377"/>
      </g>
     </g>
    </g>
    <g id="xtick_19">
     <g id="line2d_19">
      <g>
       <use style="stroke:#000000;stroke-width:0.6;" x="427.103202" xlink:href="#m5539765744" y="169.988377"/>
      </g>
     </g>
    </g>
   </g>
   <g id="matplotlib.axis_2">
    <g id="ytick_1">
     <g id="line2d_20">
      <defs>
       <path d="M 0 0 
L -3.5 0 
" id="m0b583ec6fa" style="stroke:#000000;stroke-width:0.8;"/>
      </defs>
      <g>
       <use style="stroke:#000000;stroke-width:0.8;" x="227.78" xlink:href="#m0b583ec6fa" y="325.424516"/>
      </g>
     </g>
     <g id="text_3">
      <!-- -6 -->
      <defs>
       <path d="M 33.015625 40.375 
Q 26.375 40.375 22.484375 35.828125 
Q 18.609375 31.296875 18.609375 23.390625 
Q 18.609375 15.53125 22.484375 10.953125 
Q 26.375 6.390625 33.015625 6.390625 
Q 39.65625 6.390625 43.53125 10.953125 
Q 47.40625 15.53125 47.40625 23.390625 
Q 47.40625 31.296875 43.53125 35.828125 
Q 39.65625 40.375 33.015625 40.375 
z
M 52.59375 71.296875 
L 52.59375 62.3125 
Q 48.875 64.0625 45.09375 64.984375 
Q 41.3125 65.921875 37.59375 65.921875 
Q 27.828125 65.921875 22.671875 59.328125 
Q 17.53125 52.734375 16.796875 39.40625 
Q 19.671875 43.65625 24.015625 45.921875 
Q 28.375 48.1875 33.59375 48.1875 
Q 44.578125 48.1875 50.953125 41.515625 
Q 57.328125 34.859375 57.328125 23.390625 
Q 57.328125 12.15625 50.6875 5.359375 
Q 44.046875 -1.421875 33.015625 -1.421875 
Q 20.359375 -1.421875 13.671875 8.265625 
Q 6.984375 17.96875 6.984375 36.375 
Q 6.984375 53.65625 15.1875 63.9375 
Q 23.390625 74.21875 37.203125 74.21875 
Q 40.921875 74.21875 44.703125 73.484375 
Q 48.484375 72.75 52.59375 71.296875 
z
" id="DejaVuSans-36"/>
      </defs>
      <g transform="translate(210.809687 329.223735)scale(0.1 -0.1)">
       <use xlink:href="#DejaVuSans-2d"/>
       <use x="36.083984" xlink:href="#DejaVuSans-36"/>
      </g>
     </g>
    </g>
    <g id="ytick_2">
     <g id="line2d_21">
      <g>
       <use style="stroke:#000000;stroke-width:0.8;" x="227.78" xlink:href="#m0b583ec6fa" y="273.61247"/>
      </g>
     </g>
     <g id="text_4">
      <!-- -4 -->
      <defs>
       <path d="M 37.796875 64.3125 
L 12.890625 25.390625 
L 37.796875 25.390625 
z
M 35.203125 72.90625 
L 47.609375 72.90625 
L 47.609375 25.390625 
L 58.015625 25.390625 
L 58.015625 17.1875 
L 47.609375 17.1875 
L 47.609375 0 
L 37.796875 0 
L 37.796875 17.1875 
L 4.890625 17.1875 
L 4.890625 26.703125 
z
" id="DejaVuSans-34"/>
      </defs>
      <g transform="translate(210.809687 277.411688)scale(0.1 -0.1)">
       <use xlink:href="#DejaVuSans-2d"/>
       <use x="36.083984" xlink:href="#DejaVuSans-34"/>
      </g>
     </g>
    </g>
    <g id="ytick_3">
     <g id="line2d_22">
      <g>
       <use style="stroke:#000000;stroke-width:0.8;" x="227.78" xlink:href="#m0b583ec6fa" y="221.800423"/>
      </g>
     </g>
     <g id="text_5">
      <!-- -2 -->
      <defs>
       <path d="M 19.1875 8.296875 
L 53.609375 8.296875 
L 53.609375 0 
L 7.328125 0 
L 7.328125 8.296875 
Q 12.9375 14.109375 22.625 23.890625 
Q 32.328125 33.6875 34.8125 36.53125 
Q 39.546875 41.84375 41.421875 45.53125 
Q 43.3125 49.21875 43.3125 52.78125 
Q 43.3125 58.59375 39.234375 62.25 
Q 35.15625 65.921875 28.609375 65.921875 
Q 23.96875 65.921875 18.8125 64.3125 
Q 13.671875 62.703125 7.8125 59.421875 
L 7.8125 69.390625 
Q 13.765625 71.78125 18.9375 73 
Q 24.125 74.21875 28.421875 74.21875 
Q 39.75 74.21875 46.484375 68.546875 
Q 53.21875 62.890625 53.21875 53.421875 
Q 53.21875 48.921875 51.53125 44.890625 
Q 49.859375 40.875 45.40625 35.40625 
Q 44.1875 33.984375 37.640625 27.21875 
Q 31.109375 20.453125 19.1875 8.296875 
z
" id="DejaVuSans-32"/>
      </defs>
      <g transform="translate(210.809687 225.599642)scale(0.1 -0.1)">
       <use xlink:href="#DejaVuSans-2d"/>
       <use x="36.083984" xlink:href="#DejaVuSans-32"/>
      </g>
     </g>
    </g>
    <g id="ytick_4">
     <g id="line2d_23">
      <g>
       <use style="stroke:#000000;stroke-width:0.8;" x="227.78" xlink:href="#m0b583ec6fa" y="169.988377"/>
      </g>
     </g>
    </g>
    <g id="ytick_5">
     <g id="line2d_24">
      <g>
       <use style="stroke:#000000;stroke-width:0.8;" x="227.78" xlink:href="#m0b583ec6fa" y="118.176331"/>
      </g>
     </g>
     <g id="text_6">
      <!-- 2 -->
      <g transform="translate(214.4175 121.975549)scale(0.1 -0.1)">
       <use xlink:href="#DejaVuSans-32"/>
      </g>
     </g>
    </g>
    <g id="ytick_6">
     <g id="line2d_25">
      <g>
       <use style="stroke:#000000;stroke-width:0.8;" x="227.78" xlink:href="#m0b583ec6fa" y="66.364284"/>
      </g>
     </g>
     <g id="text_7">
      <!-- 4 -->
      <g transform="translate(214.4175 70.163503)scale(0.1 -0.1)">
       <use xlink:href="#DejaVuSans-34"/>
      </g>
     </g>
    </g>
    <g id="ytick_7">
     <g id="line2d_26">
      <g>
       <use style="stroke:#000000;stroke-width:0.8;" x="227.78" xlink:href="#m0b583ec6fa" y="14.552238"/>
      </g>
     </g>
     <g id="text_8">
      <!-- 6 -->
      <g transform="translate(214.4175 18.351457)scale(0.1 -0.1)">
       <use xlink:href="#DejaVuSans-36"/>
      </g>
     </g>
    </g>
    <g id="ytick_8">
     <g id="line2d_27">
      <defs>
       <path d="M 0 0 
L -2 0 
" id="mcb780af6e2" style="stroke:#000000;stroke-width:0.6;"/>
      </defs>
      <g>
       <use style="stroke:#000000;stroke-width:0.6;" x="227.78" xlink:href="#mcb780af6e2" y="312.471504"/>
      </g>
     </g>
    </g>
    <g id="ytick_9">
     <g id="line2d_28">
      <g>
       <use style="stroke:#000000;stroke-width:0.6;" x="227.78" xlink:href="#mcb780af6e2" y="299.518493"/>
      </g>
     </g>
    </g>
    <g id="ytick_10">
     <g id="line2d_29">
      <g>
       <use style="stroke:#000000;stroke-width:0.6;" x="227.78" xlink:href="#mcb780af6e2" y="286.565481"/>
      </g>
     </g>
    </g>
    <g id="ytick_11">
     <g id="line2d_30">
      <g>
       <use style="stroke:#000000;stroke-width:0.6;" x="227.78" xlink:href="#mcb780af6e2" y="260.659458"/>
      </g>
     </g>
    </g>
    <g id="ytick_12">
     <g id="line2d_31">
      <g>
       <use style="stroke:#000000;stroke-width:0.6;" x="227.78" xlink:href="#mcb780af6e2" y="247.706446"/>
      </g>
     </g>
    </g>
    <g id="ytick_13">
     <g id="line2d_32">
      <g>
       <use style="stroke:#000000;stroke-width:0.6;" x="227.78" xlink:href="#mcb780af6e2" y="234.753435"/>
      </g>
     </g>
    </g>
    <g id="ytick_14">
     <g id="line2d_33">
      <g>
       <use style="stroke:#000000;stroke-width:0.6;" x="227.78" xlink:href="#mcb780af6e2" y="208.847412"/>
      </g>
     </g>
    </g>
    <g id="ytick_15">
     <g id="line2d_34">
      <g>
       <use style="stroke:#000000;stroke-width:0.6;" x="227.78" xlink:href="#mcb780af6e2" y="195.8944"/>
      </g>
     </g>
    </g>
    <g id="ytick_16">
     <g id="line2d_35">
      <g>
       <use style="stroke:#000000;stroke-width:0.6;" x="227.78" xlink:href="#mcb780af6e2" y="182.941389"/>
      </g>
     </g>
    </g>
    <g id="ytick_17">
     <g id="line2d_36">
      <g>
       <use style="stroke:#000000;stroke-width:0.6;" x="227.78" xlink:href="#mcb780af6e2" y="157.035365"/>
      </g>
     </g>
    </g>
    <g id="ytick_18">
     <g id="line2d_37">
      <g>
       <use style="stroke:#000000;stroke-width:0.6;" x="227.78" xlink:href="#mcb780af6e2" y="144.082354"/>
      </g>
     </g>
    </g>
    <g id="ytick_19">
     <g id="line2d_38">
      <g>
       <use style="stroke:#000000;stroke-width:0.6;" x="227.78" xlink:href="#mcb780af6e2" y="131.129342"/>
      </g>
     </g>
    </g>
    <g id="ytick_20">
     <g id="line2d_39">
      <g>
       <use style="stroke:#000000;stroke-width:0.6;" x="227.78" xlink:href="#mcb780af6e2" y="105.223319"/>
      </g>
     </g>
    </g>
    <g id="ytick_21">
     <g id="line2d_40">
      <g>
       <use style="stroke:#000000;stroke-width:0.6;" x="227.78" xlink:href="#mcb780af6e2" y="92.270307"/>
      </g>
     </g>
    </g>
    <g id="ytick_22">
     <g id="line2d_41">
      <g>
       <use style="stroke:#000000;stroke-width:0.6;" x="227.78" xlink:href="#mcb780af6e2" y="79.317296"/>
      </g>
     </g>
    </g>
    <g id="ytick_23">
     <g id="line2d_42">
      <g>
       <use style="stroke:#000000;stroke-width:0.6;" x="227.78" xlink:href="#mcb780af6e2" y="53.411273"/>
      </g>
     </g>
    </g>
    <g id="ytick_24">
     <g id="line2d_43">
      <g>
       <use style="stroke:#000000;stroke-width:0.6;" x="227.78" xlink:href="#mcb780af6e2" y="40.458261"/>
      </g>
     </g>
    </g>
    <g id="ytick_25">
     <g id="line2d_44">
      <g>
       <use style="stroke:#000000;stroke-width:0.6;" x="227.78" xlink:href="#mcb780af6e2" y="27.50525"/>
      </g>
     </g>
    </g>
   </g>
   <g id="line2d_45">
    <path clip-path="url(#pe0e7dd1196)" d="M 19.049231 195.8944 
L 21.039247 158.828183 
L 25.439851 74.655482 
L 26.857063 52.200358 
L 28.020269 37.187644 
L 28.950833 27.877739 
L 29.648757 22.657015 
L 30.34668 19.052847 
L 30.8607 17.475175 
L 31.246215 16.906196 
L 31.573794 16.841834 
L 31.772868 16.992008 
L 32.171015 17.723091 
L 32.569163 19.028658 
L 33.166385 22.058634 
L 33.763607 26.356703 
L 34.559903 34.001617 
L 35.448023 44.975414 
L 36.386173 59.135043 
L 37.765604 84.056544 
L 39.301897 116.145209 
L 45.24777 245.456683 
L 46.574117 267.56245 
L 47.747435 283.295023 
L 48.710686 293.240968 
L 49.503888 299.324347 
L 50.13845 302.800531 
L 50.764956 305.023506 
L 51.228794 305.90531 
L 51.538019 306.138271 
L 51.847244 306.092317 
L 52.156469 305.772516 
L 52.620307 304.792036 
L 53.081668 303.240124 
L 53.690214 300.355033 
L 54.388961 295.941656 
L 55.358311 288.060449 
L 56.467501 276.893386 
L 57.614035 263.431305 
L 59.142747 243.364458 
L 65.923076 151.009532 
L 68.047489 126.802237 
L 69.830242 109.037116 
L 71.300627 96.148575 
L 72.787758 84.765561 
L 74.31525 74.920967 
L 75.573701 68.386359 
L 76.526653 64.518581 
L 77.340859 62.04482 
L 77.951513 60.742192 
L 78.525837 59.98462 
L 78.89661 59.75083 
L 79.340663 59.747929 
L 79.784717 60.06027 
L 80.228771 60.701553 
L 80.672824 61.684979 
L 81.338905 63.828724 
L 82.004985 66.808305 
L 82.699955 70.842576 
L 83.452704 76.309354 
L 84.45637 85.404231 
L 85.447769 96.409771 
L 86.657945 112.471682 
L 88.093732 134.93554 
L 89.811454 165.712351 
L 95.881177 279.498753 
L 97.134375 297.235655 
L 98.197357 309.090022 
L 99.083174 316.382323 
L 99.816415 320.478604 
L 100.321634 322.226841 
L 100.748728 323.002131 
L 101.049517 323.156332 
L 101.350306 322.98417 
L 101.651095 322.484385 
L 102.102279 321.119828 
L 102.553462 319.019954 
L 103.117392 315.372532 
L 103.775244 309.712218 
L 104.564667 300.999534 
L 105.574462 287.008716 
L 106.80463 266.157466 
L 108.160939 239.278326 
L 110.490419 187.415811 
L 113.516775 120.046633 
L 115.128837 89.081566 
L 116.337884 69.655395 
L 117.403788 55.757616 
L 118.260107 46.981161 
L 119.116425 40.424528 
L 119.698274 37.253685 
L 120.176917 35.422819 
L 120.65556 34.286508 
L 121.134203 33.833249 
L 121.373525 33.858017 
L 121.790407 34.292658 
L 122.207289 35.212504 
L 122.832611 37.466439 
L 123.457934 40.713843 
L 124.291698 46.467659 
L 125.261947 54.986506 
L 126.368681 66.71565 
L 127.746332 83.609334 
L 129.629771 109.257638 
L 134.341439 174.443163 
L 136.486571 200.613737 
L 138.385174 221.042064 
L 140.008212 236.40122 
L 141.631037 249.807843 
L 143.212137 260.916626 
L 144.375173 267.743527 
L 145.264565 272.104476 
L 146.340951 276.262273 
L 147.058541 278.27582 
L 147.776132 279.618716 
L 148.255966 280.113672 
L 148.735799 280.264958 
L 149.078335 280.152887 
L 149.592139 279.625513 
L 150.105944 278.648491 
L 150.619748 277.202001 
L 151.30482 274.511687 
L 151.988899 270.92248 
L 152.843584 265.125966 
L 153.854496 256.344294 
L 154.865408 245.468873 
L 155.994521 230.915993 
L 157.349456 210.359047 
L 158.831463 184.621826 
L 160.686288 149.175586 
L 164.138725 82.630611 
L 165.656172 57.435397 
L 166.782962 41.843392 
L 167.822584 30.42594 
L 168.603478 23.985448 
L 169.256185 20.125745 
L 169.77835 18.084816 
L 170.169974 17.181929 
L 170.554259 16.827731 
L 170.800662 16.880268 
L 171.047065 17.152397 
L 171.41667 17.973213 
L 171.909476 19.837115 
L 172.402283 22.574587 
L 173.072714 27.678042 
L 173.912359 36.237894 
L 174.787132 47.571524 
L 175.880599 64.867986 
L 177.196459 89.556247 
L 178.753216 122.725382 
L 183.867655 235.429724 
L 185.270945 260.430715 
L 186.498824 278.332694 
L 187.550851 290.306515 
L 188.427466 297.756885 
L 189.128758 302.022961 
L 189.67063 304.285781 
L 190.244307 305.709615 
L 190.626759 306.11256 
L 191.00921 306.087396 
L 191.276052 305.821269 
L 191.542895 305.354973 
L 192.07658 303.838216 
L 192.610265 301.572961 
L 193.336602 297.360906 
L 194.107213 291.585697 
L 195.070476 282.698774 
L 196.226392 269.998753 
L 197.674177 251.759621 
L 199.215171 230.599899 
L 203.880259 166.02582 
L 205.884971 141.419215 
L 207.690004 121.699571 
L 209.361959 105.572407 
L 211.130971 90.760128 
L 212.543223 80.654244 
L 213.9421 72.286645 
L 214.781427 68.141577 
L 215.84424 63.956804 
L 216.481928 62.077298 
L 217.081866 60.783048 
L 217.681804 59.982701 
L 217.981774 59.778533 
L 218.281743 59.710839 
L 218.581712 59.783954 
L 219.115555 60.275697 
L 219.583304 61.102865 
L 220.051052 62.316031 
L 220.752675 64.890086 
L 221.567488 69.064143 
L 222.382301 74.560022 
L 223.314803 82.512232 
L 224.433805 94.407497 
L 225.667446 110.410431 
L 226.892714 129.069577 
L 228.501958 157.072964 
L 230.619866 197.835141 
L 233.831286 259.402712 
L 235.443869 285.68594 
L 236.586866 300.88601 
L 237.481027 310.312354 
L 238.333715 317.025712 
L 238.877823 320.06272 
L 239.413834 322.061456 
L 239.771175 322.832856 
L 240.128516 323.148394 
L 240.307186 323.133873 
L 240.664527 322.758512 
L 241.021868 321.920355 
L 241.557879 319.796519 
L 242.143508 316.297269 
L 242.875545 310.228385 
L 243.753988 300.560665 
L 244.686615 287.645611 
L 245.861185 267.941944 
L 247.077848 244.214714 
L 248.959172 203.08576 
L 252.980805 113.7084 
L 254.543797 84.581207 
L 255.763051 65.816489 
L 256.766025 53.420975 
L 257.690576 44.617904 
L 258.483049 39.144314 
L 258.991938 36.646553 
L 259.481401 34.990761 
L 259.970864 34.057967 
L 260.215596 33.858563 
L 260.460327 33.83438 
L 260.705059 33.982997 
L 261.206956 34.816743 
L 261.708853 36.339341 
L 262.21075 38.520435 
L 263.032089 43.42026 
L 263.830694 49.629847 
L 264.761462 58.440012 
L 265.918033 71.340149 
L 267.533404 91.99298 
L 271.05766 141.441911 
L 274.005473 180.946833 
L 275.988717 204.55908 
L 277.643585 222.09008 
L 279.472315 239.116137 
L 281.273384 253.452544 
L 282.617642 262.495386 
L 284.003813 270.169815 
L 284.941897 274.288443 
L 285.912568 277.512833 
L 286.603131 279.093894 
L 287.293693 280.024738 
L 287.638974 280.229892 
L 287.984256 280.252688 
L 288.566103 279.860249 
L 289.002327 279.195543 
L 289.601299 277.740542 
L 290.200271 275.630804 
L 290.998901 271.753712 
L 291.797531 266.614326 
L 292.676701 259.456751 
L 293.582433 250.423174 
L 294.713521 236.812644 
L 296.0591 217.444726 
L 297.309501 196.724973 
L 299.194797 161.781029 
L 303.797798 73.794549 
L 305.088363 53.303732 
L 306.348546 36.954327 
L 307.241295 28.026318 
L 307.985252 22.475717 
L 308.610946 19.228466 
L 309.028075 17.813579 
L 309.445204 17.012842 
L 309.653768 16.845619 
L 309.862333 16.834944 
L 310.070897 16.981407 
L 310.488026 17.747085 
L 310.905155 19.143283 
L 311.45907 21.966852 
L 312.142997 26.956542 
L 312.893708 34.28828 
L 313.847987 46.25565 
L 314.961312 63.612012 
L 316.239804 87.344959 
L 317.88358 122.202764 
L 323.16178 238.120402 
L 324.575211 262.836963 
L 325.755888 279.649597 
L 326.675027 290.013608 
L 327.446582 296.764281 
L 328.179105 301.488443 
L 328.728497 303.950332 
L 329.27789 305.493132 
L 329.644151 306.01836 
L 330.010413 306.148204 
L 330.376674 305.890454 
L 330.82104 305.070539 
L 331.232429 303.83109 
L 331.849512 301.143643 
L 332.67229 296.114287 
L 333.495067 289.587496 
L 334.467206 280.198657 
L 335.869079 264.084623 
L 337.598907 241.326952 
L 343.818948 156.071212 
L 345.688387 134.048294 
L 347.590246 114.245559 
L 349.358072 98.228956 
L 350.945351 85.836727 
L 352.273145 76.999597 
L 353.625474 69.589755 
L 354.55974 65.530247 
L 355.322307 62.938674 
L 355.913173 61.41965 
L 356.596485 60.240358 
L 356.984363 59.864698 
L 357.372241 59.713551 
L 357.760119 59.79631 
L 358.147998 60.12226 
L 358.535876 60.700482 
L 359.117693 62.059916 
L 359.754726 64.254664 
L 360.419367 67.365462 
L 361.084008 71.344715 
L 361.85258 77.058341 
L 362.903799 86.834552 
L 363.897584 98.149324 
L 365.090126 114.279828 
L 366.539092 137.262128 
L 368.331929 169.74645 
L 373.860732 274.281636 
L 375.139603 293.300094 
L 376.122307 305.192757 
L 377.093611 314.213042 
L 377.812212 318.958173 
L 378.351163 321.374644 
L 378.890114 322.777512 
L 379.249415 323.1385 
L 379.429065 323.144936 
L 379.788366 322.807824 
L 380.233206 321.742282 
L 380.678046 319.960476 
L 381.345307 315.956833 
L 382.118877 309.360337 
L 382.945601 300.089083 
L 383.772326 288.675873 
L 384.874708 270.477336 
L 386.175097 245.380398 
L 388.091976 203.563969 
L 391.886178 118.773063 
L 393.507972 87.83443 
L 394.700893 68.856504 
L 395.744699 55.376607 
L 396.648515 46.267528 
L 397.403216 40.557795 
L 398.006977 37.249083 
L 398.621914 35.026235 
L 399.091499 34.098651 
L 399.404555 33.84438 
L 399.717612 33.87626 
L 400.030668 34.189068 
L 400.500253 35.171911 
L 401.085544 37.228419 
L 401.630014 39.92863 
L 402.446719 45.299349 
L 403.272123 52.18268 
L 404.395859 63.564509 
L 405.821912 80.620466 
L 407.810553 107.47519 
L 412.576518 173.504353 
L 414.731242 199.890485 
L 416.726219 221.377222 
L 418.390867 237.0637 
L 419.954579 249.928995 
L 421.563022 261.19144 
L 422.944382 269.107108 
L 423.948315 273.703517 
L 424.888075 277.005171 
L 425.514581 278.610316 
L 426.141087 279.695256 
L 426.718443 280.200882 
L 427.007121 280.265928 
L 427.53094 280.048477 
L 428.00122 279.468972 
L 428.471501 278.509398 
L 429.176923 276.324782 
L 429.882344 273.205534 
L 430.587765 269.113406 
L 431.369129 263.41092 
L 432.314212 254.842002 
L 433.495567 241.566266 
L 434.676921 225.552347 
L 436.170443 201.787207 
L 436.510769 195.8944 
L 436.510769 195.8944 
" style="fill:none;stroke:#0000ff;stroke-linecap:square;"/>
   </g>
   <g id="patch_3">
    <path d="M 227.78 329.282926 
L 227.78 10.7 
" style="fill:none;stroke:#000000;stroke-linecap:square;stroke-linejoin:miter;stroke-width:0.8;"/>
   </g>
   <g id="patch_4">
    <path d="M 10.7 169.988377 
L 444.86 169.988377 
" style="fill:none;stroke:#000000;stroke-linecap:square;stroke-linejoin:miter;stroke-width:0.8;"/>
   </g>
  </g>
 </g>
 <defs>
  <clipPath id="pe0e7dd1196">
   <rect height="318.582926" width="434.16" x="10.7" y="10.7"/>
  </clipPath>
 </defs>
</svg>
