<?xml version="1.0" encoding="utf-8" standalone="no"?>
<!DOCTYPE svg PUBLIC "-//W3C//DTD SVG 1.1//EN"
  "http://www.w3.org/Graphics/SVG/1.1/DTD/svg11.dtd">
<!-- Created with matplotlib (http://matplotlib.org/) -->
<svg height="339.983041pt" version="1.1" viewBox="0 0 455.56 339.983041" width="455.56pt" xmlns="http://www.w3.org/2000/svg" xmlns:xlink="http://www.w3.org/1999/xlink">
 <defs>
  <style type="text/css">
*{stroke-linecap:butt;stroke-linejoin:round;}
  </style>
 </defs>
 <g id="figure_1">
  <g id="patch_1">
   <path d="M 0 339.983041 
L 455.56 339.983041 
L 455.56 0 
L 0 0 
z
" style="fill:#ffffff;"/>
  </g>
  <g id="axes_1">
   <g id="patch_2">
    <path d="M 10.7 329.283041 
L 444.86 329.283041 
L 444.86 10.7 
L 10.7 10.7 
z
" style="fill:#ffffff;"/>
   </g>
   <g id="matplotlib.axis_1">
    <g id="xtick_1">
     <g id="line2d_1">
      <defs>
       <path d="M 0 0 
L 0 3.5 
" id="m305d6d3279" style="stroke:#000000;stroke-width:0.8;"/>
      </defs>
      <g>
       <use style="stroke:#000000;stroke-width:0.8;" x="117.044888" xlink:href="#m305d6d3279" y="169.990625"/>
      </g>
     </g>
     <g id="text_1">
      <!-- -5 -->
      <defs>
       <path d="M 4.890625 31.390625 
L 31.203125 31.390625 
L 31.203125 23.390625 
L 4.890625 23.390625 
z
" id="DejaVuSans-2d"/>
       <path d="M 10.796875 72.90625 
L 49.515625 72.90625 
L 49.515625 64.59375 
L 19.828125 64.59375 
L 19.828125 46.734375 
Q 21.96875 47.46875 24.109375 47.828125 
Q 26.265625 48.1875 28.421875 48.1875 
Q 40.625 48.1875 47.75 41.5 
Q 54.890625 34.8125 54.890625 23.390625 
Q 54.890625 11.625 47.5625 5.09375 
Q 40.234375 -1.421875 26.90625 -1.421875 
Q 22.3125 -1.421875 17.546875 -0.640625 
Q 12.796875 0.140625 7.71875 1.703125 
L 7.71875 11.625 
Q 12.109375 9.234375 16.796875 8.0625 
Q 21.484375 6.890625 26.703125 6.890625 
Q 35.15625 6.890625 40.078125 11.328125 
Q 45.015625 15.765625 45.015625 23.390625 
Q 45.015625 31 40.078125 35.4375 
Q 35.15625 39.890625 26.703125 39.890625 
Q 22.75 39.890625 18.8125 39.015625 
Q 14.890625 38.140625 10.796875 36.28125 
z
" id="DejaVuSans-35"/>
      </defs>
      <g transform="translate(112.059731 184.589063)scale(0.1 -0.1)">
       <use xlink:href="#DejaVuSans-2d"/>
       <use x="36.083984" xlink:href="#DejaVuSans-35"/>
      </g>
     </g>
    </g>
    <g id="xtick_2">
     <g id="line2d_2">
      <g>
       <use style="stroke:#000000;stroke-width:0.8;" x="227.78" xlink:href="#m305d6d3279" y="169.990625"/>
      </g>
     </g>
    </g>
    <g id="xtick_3">
     <g id="line2d_3">
      <g>
       <use style="stroke:#000000;stroke-width:0.8;" x="338.515112" xlink:href="#m305d6d3279" y="169.990625"/>
      </g>
     </g>
     <g id="text_2">
      <!-- 5 -->
      <g transform="translate(335.333862 184.589063)scale(0.1 -0.1)">
       <use xlink:href="#DejaVuSans-35"/>
      </g>
     </g>
    </g>
    <g id="xtick_4">
     <g id="line2d_4">
      <defs>
       <path d="M 0 0 
L 0 2 
" id="me1d878ffbc" style="stroke:#000000;stroke-width:0.6;"/>
      </defs>
      <g>
       <use style="stroke:#000000;stroke-width:0.6;" x="28.456798" xlink:href="#me1d878ffbc" y="169.990625"/>
      </g>
     </g>
    </g>
    <g id="xtick_5">
     <g id="line2d_5">
      <g>
       <use style="stroke:#000000;stroke-width:0.6;" x="50.60382" xlink:href="#me1d878ffbc" y="169.990625"/>
      </g>
     </g>
    </g>
    <g id="xtick_6">
     <g id="line2d_6">
      <g>
       <use style="stroke:#000000;stroke-width:0.6;" x="72.750843" xlink:href="#me1d878ffbc" y="169.990625"/>
      </g>
     </g>
    </g>
    <g id="xtick_7">
     <g id="line2d_7">
      <g>
       <use style="stroke:#000000;stroke-width:0.6;" x="94.897865" xlink:href="#me1d878ffbc" y="169.990625"/>
      </g>
     </g>
    </g>
    <g id="xtick_8">
     <g id="line2d_8">
      <g>
       <use style="stroke:#000000;stroke-width:0.6;" x="139.19191" xlink:href="#me1d878ffbc" y="169.990625"/>
      </g>
     </g>
    </g>
    <g id="xtick_9">
     <g id="line2d_9">
      <g>
       <use style="stroke:#000000;stroke-width:0.6;" x="161.338933" xlink:href="#me1d878ffbc" y="169.990625"/>
      </g>
     </g>
    </g>
    <g id="xtick_10">
     <g id="line2d_10">
      <g>
       <use style="stroke:#000000;stroke-width:0.6;" x="183.485955" xlink:href="#me1d878ffbc" y="169.990625"/>
      </g>
     </g>
    </g>
    <g id="xtick_11">
     <g id="line2d_11">
      <g>
       <use style="stroke:#000000;stroke-width:0.6;" x="205.632978" xlink:href="#me1d878ffbc" y="169.990625"/>
      </g>
     </g>
    </g>
    <g id="xtick_12">
     <g id="line2d_12">
      <g>
       <use style="stroke:#000000;stroke-width:0.6;" x="249.927022" xlink:href="#me1d878ffbc" y="169.990625"/>
      </g>
     </g>
    </g>
    <g id="xtick_13">
     <g id="line2d_13">
      <g>
       <use style="stroke:#000000;stroke-width:0.6;" x="272.074045" xlink:href="#me1d878ffbc" y="169.990625"/>
      </g>
     </g>
    </g>
    <g id="xtick_14">
     <g id="line2d_14">
      <g>
       <use style="stroke:#000000;stroke-width:0.6;" x="294.221067" xlink:href="#me1d878ffbc" y="169.990625"/>
      </g>
     </g>
    </g>
    <g id="xtick_15">
     <g id="line2d_15">
      <g>
       <use style="stroke:#000000;stroke-width:0.6;" x="316.36809" xlink:href="#me1d878ffbc" y="169.990625"/>
      </g>
     </g>
    </g>
    <g id="xtick_16">
     <g id="line2d_16">
      <g>
       <use style="stroke:#000000;stroke-width:0.6;" x="360.662135" xlink:href="#me1d878ffbc" y="169.990625"/>
      </g>
     </g>
    </g>
    <g id="xtick_17">
     <g id="line2d_17">
      <g>
       <use style="stroke:#000000;stroke-width:0.6;" x="382.809157" xlink:href="#me1d878ffbc" y="169.990625"/>
      </g>
     </g>
    </g>
    <g id="xtick_18">
     <g id="line2d_18">
      <g>
       <use style="stroke:#000000;stroke-width:0.6;" x="404.95618" xlink:href="#me1d878ffbc" y="169.990625"/>
      </g>
     </g>
    </g>
    <g id="xtick_19">
     <g id="line2d_19">
      <g>
       <use style="stroke:#000000;stroke-width:0.6;" x="427.103202" xlink:href="#me1d878ffbc" y="169.990625"/>
      </g>
     </g>
    </g>
   </g>
   <g id="matplotlib.axis_2">
    <g id="ytick_1">
     <g id="line2d_20">
      <defs>
       <path d="M 0 0 
L -3.5 0 
" id="me67ada430d" style="stroke:#000000;stroke-width:0.8;"/>
      </defs>
      <g>
       <use style="stroke:#000000;stroke-width:0.8;" x="227.78" xlink:href="#me67ada430d" y="325.424492"/>
      </g>
     </g>
     <g id="text_3">
      <!-- -6 -->
      <defs>
       <path d="M 33.015625 40.375 
Q 26.375 40.375 22.484375 35.828125 
Q 18.609375 31.296875 18.609375 23.390625 
Q 18.609375 15.53125 22.484375 10.953125 
Q 26.375 6.390625 33.015625 6.390625 
Q 39.65625 6.390625 43.53125 10.953125 
Q 47.40625 15.53125 47.40625 23.390625 
Q 47.40625 31.296875 43.53125 35.828125 
Q 39.65625 40.375 33.015625 40.375 
z
M 52.59375 71.296875 
L 52.59375 62.3125 
Q 48.875 64.0625 45.09375 64.984375 
Q 41.3125 65.921875 37.59375 65.921875 
Q 27.828125 65.921875 22.671875 59.328125 
Q 17.53125 52.734375 16.796875 39.40625 
Q 19.671875 43.65625 24.015625 45.921875 
Q 28.375 48.1875 33.59375 48.1875 
Q 44.578125 48.1875 50.953125 41.515625 
Q 57.328125 34.859375 57.328125 23.390625 
Q 57.328125 12.15625 50.6875 5.359375 
Q 44.046875 -1.421875 33.015625 -1.421875 
Q 20.359375 -1.421875 13.671875 8.265625 
Q 6.984375 17.96875 6.984375 36.375 
Q 6.984375 53.65625 15.1875 63.9375 
Q 23.390625 74.21875 37.203125 74.21875 
Q 40.921875 74.21875 44.703125 73.484375 
Q 48.484375 72.75 52.59375 71.296875 
z
" id="DejaVuSans-36"/>
      </defs>
      <g transform="translate(210.809687 329.223711)scale(0.1 -0.1)">
       <use xlink:href="#DejaVuSans-2d"/>
       <use x="36.083984" xlink:href="#DejaVuSans-36"/>
      </g>
     </g>
    </g>
    <g id="ytick_2">
     <g id="line2d_21">
      <g>
       <use style="stroke:#000000;stroke-width:0.8;" x="227.78" xlink:href="#me67ada430d" y="273.613203"/>
      </g>
     </g>
     <g id="text_4">
      <!-- -4 -->
      <defs>
       <path d="M 37.796875 64.3125 
L 12.890625 25.390625 
L 37.796875 25.390625 
z
M 35.203125 72.90625 
L 47.609375 72.90625 
L 47.609375 25.390625 
L 58.015625 25.390625 
L 58.015625 17.1875 
L 47.609375 17.1875 
L 47.609375 0 
L 37.796875 0 
L 37.796875 17.1875 
L 4.890625 17.1875 
L 4.890625 26.703125 
z
" id="DejaVuSans-34"/>
      </defs>
      <g transform="translate(210.809687 277.412422)scale(0.1 -0.1)">
       <use xlink:href="#DejaVuSans-2d"/>
       <use x="36.083984" xlink:href="#DejaVuSans-34"/>
      </g>
     </g>
    </g>
    <g id="ytick_3">
     <g id="line2d_22">
      <g>
       <use style="stroke:#000000;stroke-width:0.8;" x="227.78" xlink:href="#me67ada430d" y="221.801914"/>
      </g>
     </g>
     <g id="text_5">
      <!-- -2 -->
      <defs>
       <path d="M 19.1875 8.296875 
L 53.609375 8.296875 
L 53.609375 0 
L 7.328125 0 
L 7.328125 8.296875 
Q 12.9375 14.109375 22.625 23.890625 
Q 32.328125 33.6875 34.8125 36.53125 
Q 39.546875 41.84375 41.421875 45.53125 
Q 43.3125 49.21875 43.3125 52.78125 
Q 43.3125 58.59375 39.234375 62.25 
Q 35.15625 65.921875 28.609375 65.921875 
Q 23.96875 65.921875 18.8125 64.3125 
Q 13.671875 62.703125 7.8125 59.421875 
L 7.8125 69.390625 
Q 13.765625 71.78125 18.9375 73 
Q 24.125 74.21875 28.421875 74.21875 
Q 39.75 74.21875 46.484375 68.546875 
Q 53.21875 62.890625 53.21875 53.421875 
Q 53.21875 48.921875 51.53125 44.890625 
Q 49.859375 40.875 45.40625 35.40625 
Q 44.1875 33.984375 37.640625 27.21875 
Q 31.109375 20.453125 19.1875 8.296875 
z
" id="DejaVuSans-32"/>
      </defs>
      <g transform="translate(210.809687 225.601133)scale(0.1 -0.1)">
       <use xlink:href="#DejaVuSans-2d"/>
       <use x="36.083984" xlink:href="#DejaVuSans-32"/>
      </g>
     </g>
    </g>
    <g id="ytick_4">
     <g id="line2d_23">
      <g>
       <use style="stroke:#000000;stroke-width:0.8;" x="227.78" xlink:href="#me67ada430d" y="169.990625"/>
      </g>
     </g>
    </g>
    <g id="ytick_5">
     <g id="line2d_24">
      <g>
       <use style="stroke:#000000;stroke-width:0.8;" x="227.78" xlink:href="#me67ada430d" y="118.179336"/>
      </g>
     </g>
     <g id="text_6">
      <!-- 2 -->
      <g transform="translate(214.4175 121.978555)scale(0.1 -0.1)">
       <use xlink:href="#DejaVuSans-32"/>
      </g>
     </g>
    </g>
    <g id="ytick_6">
     <g id="line2d_25">
      <g>
       <use style="stroke:#000000;stroke-width:0.8;" x="227.78" xlink:href="#me67ada430d" y="66.368048"/>
      </g>
     </g>
     <g id="text_7">
      <!-- 4 -->
      <g transform="translate(214.4175 70.167266)scale(0.1 -0.1)">
       <use xlink:href="#DejaVuSans-34"/>
      </g>
     </g>
    </g>
    <g id="ytick_7">
     <g id="line2d_26">
      <g>
       <use style="stroke:#000000;stroke-width:0.8;" x="227.78" xlink:href="#me67ada430d" y="14.556759"/>
      </g>
     </g>
     <g id="text_8">
      <!-- 6 -->
      <g transform="translate(214.4175 18.355977)scale(0.1 -0.1)">
       <use xlink:href="#DejaVuSans-36"/>
      </g>
     </g>
    </g>
    <g id="ytick_8">
     <g id="line2d_27">
      <defs>
       <path d="M 0 0 
L -2 0 
" id="m7e7843ddeb" style="stroke:#000000;stroke-width:0.6;"/>
      </defs>
      <g>
       <use style="stroke:#000000;stroke-width:0.6;" x="227.78" xlink:href="#m7e7843ddeb" y="312.47167"/>
      </g>
     </g>
    </g>
    <g id="ytick_9">
     <g id="line2d_28">
      <g>
       <use style="stroke:#000000;stroke-width:0.6;" x="227.78" xlink:href="#m7e7843ddeb" y="299.518847"/>
      </g>
     </g>
    </g>
    <g id="ytick_10">
     <g id="line2d_29">
      <g>
       <use style="stroke:#000000;stroke-width:0.6;" x="227.78" xlink:href="#m7e7843ddeb" y="286.566025"/>
      </g>
     </g>
    </g>
    <g id="ytick_11">
     <g id="line2d_30">
      <g>
       <use style="stroke:#000000;stroke-width:0.6;" x="227.78" xlink:href="#m7e7843ddeb" y="260.660381"/>
      </g>
     </g>
    </g>
    <g id="ytick_12">
     <g id="line2d_31">
      <g>
       <use style="stroke:#000000;stroke-width:0.6;" x="227.78" xlink:href="#m7e7843ddeb" y="247.707559"/>
      </g>
     </g>
    </g>
    <g id="ytick_13">
     <g id="line2d_32">
      <g>
       <use style="stroke:#000000;stroke-width:0.6;" x="227.78" xlink:href="#m7e7843ddeb" y="234.754736"/>
      </g>
     </g>
    </g>
    <g id="ytick_14">
     <g id="line2d_33">
      <g>
       <use style="stroke:#000000;stroke-width:0.6;" x="227.78" xlink:href="#m7e7843ddeb" y="208.849092"/>
      </g>
     </g>
    </g>
    <g id="ytick_15">
     <g id="line2d_34">
      <g>
       <use style="stroke:#000000;stroke-width:0.6;" x="227.78" xlink:href="#m7e7843ddeb" y="195.89627"/>
      </g>
     </g>
    </g>
    <g id="ytick_16">
     <g id="line2d_35">
      <g>
       <use style="stroke:#000000;stroke-width:0.6;" x="227.78" xlink:href="#m7e7843ddeb" y="182.943448"/>
      </g>
     </g>
    </g>
    <g id="ytick_17">
     <g id="line2d_36">
      <g>
       <use style="stroke:#000000;stroke-width:0.6;" x="227.78" xlink:href="#m7e7843ddeb" y="157.037803"/>
      </g>
     </g>
    </g>
    <g id="ytick_18">
     <g id="line2d_37">
      <g>
       <use style="stroke:#000000;stroke-width:0.6;" x="227.78" xlink:href="#m7e7843ddeb" y="144.084981"/>
      </g>
     </g>
    </g>
    <g id="ytick_19">
     <g id="line2d_38">
      <g>
       <use style="stroke:#000000;stroke-width:0.6;" x="227.78" xlink:href="#m7e7843ddeb" y="131.132159"/>
      </g>
     </g>
    </g>
    <g id="ytick_20">
     <g id="line2d_39">
      <g>
       <use style="stroke:#000000;stroke-width:0.6;" x="227.78" xlink:href="#m7e7843ddeb" y="105.226514"/>
      </g>
     </g>
    </g>
    <g id="ytick_21">
     <g id="line2d_40">
      <g>
       <use style="stroke:#000000;stroke-width:0.6;" x="227.78" xlink:href="#m7e7843ddeb" y="92.273692"/>
      </g>
     </g>
    </g>
    <g id="ytick_22">
     <g id="line2d_41">
      <g>
       <use style="stroke:#000000;stroke-width:0.6;" x="227.78" xlink:href="#m7e7843ddeb" y="79.32087"/>
      </g>
     </g>
    </g>
    <g id="ytick_23">
     <g id="line2d_42">
      <g>
       <use style="stroke:#000000;stroke-width:0.6;" x="227.78" xlink:href="#m7e7843ddeb" y="53.415225"/>
      </g>
     </g>
    </g>
    <g id="ytick_24">
     <g id="line2d_43">
      <g>
       <use style="stroke:#000000;stroke-width:0.6;" x="227.78" xlink:href="#m7e7843ddeb" y="40.462403"/>
      </g>
     </g>
    </g>
    <g id="ytick_25">
     <g id="line2d_44">
      <g>
       <use style="stroke:#000000;stroke-width:0.6;" x="227.78" xlink:href="#m7e7843ddeb" y="27.509581"/>
      </g>
     </g>
    </g>
   </g>
   <g id="line2d_45">
    <path clip-path="url(#pc23ac1da3d)" d="M 19.049231 195.89627 
L 20.996227 159.666898 
L 25.490882 73.784927 
L 26.931258 51.145688 
L 27.960098 37.880633 
L 28.823114 29.005333 
L 29.500333 23.639197 
L 30.177553 19.778012 
L 30.763615 17.706362 
L 31.203162 16.947852 
L 31.496193 16.826597 
L 31.789224 17.015209 
L 32.082255 17.514802 
L 32.521802 18.847755 
L 33.096325 21.641461 
L 33.670849 25.611481 
L 34.372394 32.013514 
L 35.168718 41.261554 
L 36.141315 55.205421 
L 37.225758 73.786983 
L 38.588527 100.79654 
L 40.407959 140.98364 
L 44.161737 224.481862 
L 45.700509 253.476866 
L 47.007086 273.812968 
L 47.965369 285.786942 
L 48.898198 294.853106 
L 49.63937 300.170778 
L 50.232307 303.210076 
L 50.70205 304.854429 
L 51.221873 305.897131 
L 51.568421 306.146297 
L 51.914969 306.045766 
L 52.38834 305.356742 
L 52.861711 304.050551 
L 53.335082 302.152009 
L 54.045138 298.254897 
L 54.991879 291.264802 
L 55.932301 282.541011 
L 57.084129 269.862752 
L 58.539099 251.511449 
L 60.714143 221.372684 
L 64.37938 170.551026 
L 66.707634 141.694149 
L 68.70728 119.957321 
L 70.48166 103.133149 
L 72.178053 89.230139 
L 73.442148 80.311346 
L 74.681381 72.867354 
L 75.920615 66.867492 
L 76.880182 63.349216 
L 77.67245 61.279829 
L 78.200629 60.359935 
L 78.728808 59.834972 
L 78.992897 59.727998 
L 79.322335 59.745767 
L 79.651773 59.936732 
L 79.981211 60.306519 
L 80.640087 61.604348 
L 81.298962 63.680769 
L 81.85056 66.045063 
L 82.517038 69.691157 
L 83.405675 75.937578 
L 84.325053 84.100065 
L 85.428307 96.178006 
L 86.673589 112.700444 
L 87.977205 132.990924 
L 89.689274 163.416334 
L 92.461633 217.514362 
L 94.951269 264.193728 
L 96.403447 287.337458 
L 97.608517 302.917922 
L 98.509779 311.944148 
L 99.230789 317.352191 
L 99.771546 320.28046 
L 100.392535 322.400465 
L 100.806528 323.057017 
L 101.013525 323.155045 
L 101.220521 323.098595 
L 101.554427 322.680791 
L 101.935155 321.711278 
L 102.442792 319.602852 
L 103.103097 315.479 
L 103.763401 309.827419 
L 104.588782 300.701965 
L 105.57136 287.056805 
L 106.789733 266.432932 
L 108.194978 238.563184 
L 110.042951 197.671706 
L 113.655199 117.201447 
L 115.260509 86.79569 
L 116.572956 66.321509 
L 117.544598 54.168697 
L 118.394539 45.80764 
L 119.244481 39.64153 
L 119.881937 36.472677 
L 120.519394 34.543899 
L 120.95092 33.931259 
L 121.238604 33.827901 
L 121.526289 33.964271 
L 121.813973 34.336091 
L 122.245499 35.324763 
L 122.820868 37.418938 
L 123.427896 40.540287 
L 124.034924 44.535462 
L 125.0594 53.064073 
L 126.236703 65.222929 
L 127.669096 82.612803 
L 129.454722 106.803573 
L 134.437491 175.682216 
L 136.443197 200.118088 
L 138.258812 219.766339 
L 140.087943 237.106969 
L 141.550361 249.189289 
L 143.01189 259.622896 
L 144.215204 266.878152 
L 145.484974 273.060847 
L 146.331487 276.232184 
L 147.178 278.548109 
L 147.797798 279.648868 
L 148.387424 280.190689 
L 148.838817 280.251549 
L 149.29021 279.989215 
L 149.741603 279.38923 
L 150.192996 278.437636 
L 150.830352 276.469821 
L 151.467709 273.740869 
L 152.317518 268.869206 
L 153.167326 262.543063 
L 154.140196 253.482902 
L 155.236126 240.965819 
L 156.422231 224.774561 
L 158.017581 199.127861 
L 159.809322 166.250694 
L 164.78061 71.478538 
L 166.252832 48.800565 
L 167.269662 36.118986 
L 168.264419 26.549089 
L 168.999451 21.477659 
L 169.587476 18.725364 
L 170.028495 17.449825 
L 170.434308 16.885869 
L 170.704849 16.838273 
L 170.975391 17.055042 
L 171.381203 17.877438 
L 171.787015 19.296482 
L 172.3733 22.394015 
L 173.095192 27.880553 
L 173.817084 35.153315 
L 174.719449 46.615298 
L 175.77355 63.037927 
L 177.106601 87.759783 
L 178.912175 126.279185 
L 183.674745 231.668598 
L 185.13762 258.251733 
L 186.274949 275.373869 
L 187.298896 287.73587 
L 188.186433 295.942261 
L 188.926047 300.945509 
L 189.581097 303.974028 
L 190.105136 305.45543 
L 190.498166 306.025534 
L 190.760186 306.152213 
L 191.022206 306.079388 
L 191.433137 305.571022 
L 191.844067 304.593543 
L 192.460463 302.282418 
L 193.123602 298.725852 
L 193.886393 293.37034 
L 194.801741 285.349456 
L 196.016749 272.445172 
L 197.345146 256.08401 
L 199.65774 224.353058 
L 203.841311 166.532178 
L 205.811754 142.271803 
L 207.758573 121.000627 
L 209.54184 103.963259 
L 211.250631 89.846604 
L 212.797943 79.007057 
L 214.103035 71.441861 
L 215.002118 67.174468 
L 215.959215 63.585067 
L 216.59728 61.795521 
L 217.385212 60.318334 
L 217.854112 59.852853 
L 218.323012 59.716308 
L 218.791913 59.92526 
L 219.325231 60.603549 
L 219.858549 61.772909 
L 220.534425 63.994066 
L 221.210301 67.078057 
L 221.890468 71.085917 
L 222.808797 77.979041 
L 223.727126 86.601636 
L 224.875037 99.795077 
L 226.222085 118.538647 
L 227.622818 141.343627 
L 229.594211 177.739851 
L 234.405358 269.306896 
L 235.779541 290.485684 
L 236.957413 305.074153 
L 237.850503 313.506157 
L 238.610888 318.697739 
L 239.219196 321.45154 
L 239.675426 322.670677 
L 239.97958 323.072597 
L 240.192726 323.156444 
L 240.405872 323.076425 
L 240.832163 322.422988 
L 241.190808 321.363036 
L 241.728776 318.90189 
L 242.266743 315.40617 
L 242.984034 309.172732 
L 243.838512 299.499396 
L 244.79883 285.920929 
L 245.896335 267.300544 
L 247.337772 238.795977 
L 249.420741 192.546648 
L 252.757515 118.2581 
L 254.281816 89.10021 
L 255.524016 69.191833 
L 256.559183 55.743698 
L 257.55856 45.720757 
L 258.338972 40.000106 
L 258.991515 36.652497 
L 259.613652 34.672158 
L 260.107746 33.928946 
L 260.437143 33.83346 
L 260.766539 34.051414 
L 261.095935 34.576221 
L 261.59003 35.92239 
L 262.084124 37.914035 
L 262.749543 41.560139 
L 263.636768 48.00394 
L 264.655218 57.360841 
L 265.850184 70.536235 
L 267.704155 94.306548 
L 274.933648 192.341913 
L 276.859529 214.036945 
L 278.487945 230.258925 
L 280.101102 244.400494 
L 281.625714 255.966124 
L 283.022015 264.917494 
L 284.069242 270.487544 
L 285.073934 274.792427 
L 285.894968 277.46517 
L 286.716001 279.292524 
L 287.216561 279.955302 
L 287.670324 280.240224 
L 288.124088 280.20917 
L 288.577852 279.847225 
L 289.031615 279.13983 
L 289.485379 278.073001 
L 290.166024 275.770265 
L 290.863189 272.50111 
L 291.593394 268.051126 
L 292.566999 260.437442 
L 293.678297 249.370022 
L 294.789595 235.808285 
L 296.100928 216.79288 
L 297.62209 191.198323 
L 299.465657 156.517489 
L 303.599143 77.225345 
L 304.960028 55.191193 
L 306.014781 40.886287 
L 307.022999 29.992713 
L 307.779163 23.837765 
L 308.433683 20.017344 
L 309.037382 17.793451 
L 309.439847 17.023677 
L 309.64108 16.855814 
L 309.842312 16.833646 
L 310.043545 16.957717 
L 310.446011 17.645866 
L 310.848476 18.921072 
L 311.400507 21.620797 
L 312.022343 25.961708 
L 312.714896 32.374558 
L 313.580587 42.620359 
L 314.619416 57.925902 
L 315.913689 80.959271 
L 317.577754 115.449573 
L 323.536165 245.105878 
L 324.961745 268.754935 
L 326.074268 283.519981 
L 327.012989 293.193516 
L 327.817607 299.363541 
L 328.489096 302.991474 
L 329.026482 304.900663 
L 329.429522 305.759244 
L 329.832561 306.134334 
L 330.101255 306.120347 
L 330.378777 305.888133 
L 330.795062 305.133756 
L 331.211346 303.905862 
L 331.766392 301.562055 
L 332.585938 296.715916 
L 333.379438 290.588894 
L 334.437439 280.510863 
L 335.901721 263.680803 
L 337.431219 243.628519 
L 344.195959 151.435424 
L 346.363828 126.7133 
L 348.058363 109.783238 
L 349.714717 95.281581 
L 351.448852 82.318313 
L 352.743839 74.231698 
L 353.80854 68.725844 
L 354.873242 64.386085 
L 355.579739 62.226016 
L 356.238298 60.782358 
L 356.872889 59.953941 
L 357.29595 59.728957 
L 357.71901 59.780038 
L 358.142071 60.119259 
L 358.565131 60.758419 
L 359.199722 62.304264 
L 359.880591 64.782212 
L 360.56146 68.146029 
L 361.404344 73.583451 
L 362.376771 81.652873 
L 363.487728 93.24536 
L 364.587494 107.156682 
L 365.753143 124.371864 
L 367.390303 152.226166 
L 369.169556 185.945621 
L 373.038682 260.349396 
L 374.387251 282.546641 
L 375.464293 297.515895 
L 376.542227 309.445516 
L 377.352686 316.11991 
L 378.028068 320.045979 
L 378.552288 322.018094 
L 379.028249 322.971056 
L 379.26623 323.144047 
L 379.504211 323.113076 
L 379.742192 322.87734 
L 380.099163 322.138896 
L 380.473365 320.869113 
L 381.018249 318.117462 
L 381.699355 313.19424 
L 382.516681 305.177759 
L 383.369874 294.48821 
L 384.365265 279.281996 
L 385.692309 255.095032 
L 387.193057 223.689243 
L 393.1109 94.915335 
L 394.390748 73.444731 
L 395.491275 58.368453 
L 396.424966 48.296407 
L 397.245092 41.613622 
L 397.928529 37.619893 
L 398.540793 35.257859 
L 398.945196 34.321123 
L 399.349599 33.87241 
L 399.551801 33.828273 
L 399.956203 34.093737 
L 400.223846 34.523938 
L 400.759132 35.974383 
L 401.294418 38.181268 
L 402.097346 42.820331 
L 402.857319 48.556067 
L 403.870616 57.986015 
L 404.901979 69.332424 
L 406.458056 88.926502 
L 409.024398 124.652925 
L 412.506195 172.594343 
L 414.779957 200.451615 
L 416.783193 221.949339 
L 418.490358 237.937797 
L 420.22527 251.969232 
L 421.503307 260.812004 
L 422.69863 267.828398 
L 423.704859 272.686338 
L 424.699255 276.425775 
L 425.362186 278.266953 
L 426.066257 279.594949 
L 426.625167 280.153281 
L 426.997773 280.266479 
L 427.37038 280.16275 
L 427.742986 279.833876 
L 428.301896 278.900909 
L 428.946731 277.13898 
L 429.49119 275.053777 
L 430.307878 270.856291 
L 431.102039 265.500985 
L 432.10085 256.937975 
L 433.077701 246.584817 
L 434.21641 232.109108 
L 435.591332 211.430649 
L 436.510769 195.89627 
L 436.510769 195.89627 
" style="fill:none;stroke:#0000ff;stroke-linecap:square;"/>
   </g>
   <g id="patch_3">
    <path d="M 227.78 329.283041 
L 227.78 10.7 
" style="fill:none;stroke:#000000;stroke-linecap:square;stroke-linejoin:miter;stroke-width:0.8;"/>
   </g>
   <g id="patch_4">
    <path d="M 10.7 169.990625 
L 444.86 169.990625 
" style="fill:none;stroke:#000000;stroke-linecap:square;stroke-linejoin:miter;stroke-width:0.8;"/>
   </g>
  </g>
 </g>
 <defs>
  <clipPath id="pc23ac1da3d">
   <rect height="318.583041" width="434.16" x="10.7" y="10.7"/>
  </clipPath>
 </defs>
</svg>
