<svg xmlns="http://www.w3.org/2000/svg" xmlns:xlink="http://www.w3.org/1999/xlink" version="1.1" width="197" height="165" viewBox="0 0 197 165">
<defs>
<clipPath id="clip_1">
<path transform="matrix(1.00002,0,0,-1.00002,1.4137268,163.18994)" d="M194.26303 0V0H0V161.39028H194.26303Z"/>
</clipPath>
<path id="font_2_1" d="M.20599365 .3996582H.2999878C.31999208 .3996582 .32998658 .3996582 .32998658 .41966249 .32998658 .43066407 .31999208 .43066407 .3019867 .43066407H.21398926C.25 .5724945 .25498963 .59246829 .25498963 .59846499 .25498963 .61546328 .24299622 .62545779 .22599793 .62545779 .22299195 .62545779 .19499207 .62446597 .18598938 .58947756L.14698792 .43066407H.052993776C.032989503 .43066407 .022994996 .43066407 .022994996 .4116516 .022994996 .3996582 .0309906 .3996582 .050994874 .3996582H.13899231C.066986087 .11608887 .06298828 .099121097 .06298828 .08114624 .06298828 .02722168 .100997928-.0107421879 .15499878-.0107421879 .25698854-.0107421879 .31399537 .13505554 .31399537 .14305115 .31399537 .1530304 .30599977 .1530304 .3019867 .1530304 .29299928 .1530304 .2919922 .15003968 .2869873 .13905335 .24398804 .035217287 .19099427 .011245728 .15699768 .011245728 .13598633 .011245728 .12599182 .024230957 .12599182 .057174684 .12599182 .08114624 .12799073 .088134769 .13198853 .10510254L.20599365 .3996582Z"/>
<path id="font_2_2" d="M.48599244 .38136292C.48999024 .39537049 .48999024 .39736939 .48999024 .40437318 .48999024 .42237855 .47599793 .43138124 .46099855 .43138124 .45098878 .43138124 .43499757 .42536927 .42599488 .41036988 .42399598 .405365 .41600038 .37435914 .4119873 .35635377 .40499879 .33035279 .397995 .30334474 .3919983 .27633668L.34700013 .09628296C.34298707 .08126831 .2999878 .011245728 .23399353 .011245728 .18299866 .011245728 .17199707 .055267335 .17199707 .0922699 .17199707 .1382904 .18899536 .20030213 .22299195 .28833009 .23899842 .3293457 .24299622 .3403473 .24299622 .36035157 .24299622 .405365 .21099854 .4423828 .16099549 .4423828 .06599426 .4423828 .0289917 .29733277 .0289917 .28833009 .0289917 .27833558 .038986207 .27833558 .040985109 .27833558 .050994874 .27833558 .051986696 .28033448 .056991579 .29634095 .083999637 .3903656 .12399292 .42037965 .1579895 .42037965 .1659851 .42037965 .18299866 .42037965 .18299866 .3883667 .18299866 .36335755 .17298889 .3373413 .1659851 .31834413 .12599182 .21231079 .10798645 .1552887 .10798645 .10827637 .10798645 .019256592 .17098999-.0107421879 .22999573-.0107421879 .2689972-.0107421879 .30299378 .0062561037 .33099366 .03425598 .31799317-.017745972 .30599977-.06674194 .2659912-.11973572 .23999024-.15385437 .20199585-.18309021 .1559906-.18309021 .14199829-.18309021 .09700012-.18005371 .07998657-.14074707 .09599304-.14074707 .10899353-.14074707 .12298584-.1287384 .1329956-.11973572 .14299011-.10673523 .14299011-.08773804 .14299011-.056747438 .115997318-.052734376 .10598755-.052734376 .08299255-.052734376 .049987794-.068740848 .049987794-.11773682 .049987794-.16796875 .09399414-.20507813 .1559906-.20507813 .25898744-.20507813 .3619995-.11373901 .3899994-.00074768069L.48599244 .38136292Z"/>
</defs>
<g clip-path="url(#clip_1)">
<path transform="matrix(1.00002,0,0,-1.00002,1.4137268,163.18994)" stroke-width=".79701" stroke-linecap="butt" stroke-miterlimit="10" stroke-linejoin="miter" fill="none" stroke="#0000ff" d="M64.75433 53.79675H80.94293"/>
<path transform="matrix(1.00002,0,0,-1.00002,1.4137268,163.18994)" stroke-width=".79701" stroke-linecap="butt" stroke-miterlimit="10" stroke-linejoin="miter" fill="none" stroke="#0000ff" d="M97.13152 53.79675 108.57878 63.30695"/>
<path transform="matrix(1.00002,0,0,-1.00002,1.4137268,163.18994)" stroke-width=".79701" stroke-linecap="butt" stroke-miterlimit="10" stroke-linejoin="miter" fill="none" stroke="#0000ff" d="M129.50868 53.79675 136.74854 65.82625"/>
<path transform="matrix(1.00002,0,0,-1.00002,1.4137268,163.18994)" stroke-width=".79701" stroke-linecap="butt" stroke-miterlimit="10" stroke-linejoin="miter" fill="none" stroke="#0000ff" d="M64.75433 80.69513 76.20161 71.18492"/>
<path transform="matrix(1.00002,0,0,-1.00002,1.4137268,163.18994)" stroke-width=".79701" stroke-linecap="butt" stroke-miterlimit="10" stroke-linejoin="miter" fill="none" stroke="#0000ff" d="M97.13152 80.69513H113.3201"/>
<path transform="matrix(1.00002,0,0,-1.00002,1.4137268,163.18994)" stroke-width=".79701" stroke-linecap="butt" stroke-miterlimit="10" stroke-linejoin="miter" fill="none" stroke="#0000ff" d="M129.50868 80.69513 140.95597 90.20532"/>
<path transform="matrix(1.00002,0,0,-1.00002,1.4137268,163.18994)" stroke-width=".79701" stroke-linecap="butt" stroke-miterlimit="10" stroke-linejoin="miter" fill="none" stroke="#0000ff" d="M64.75433 107.59352 71.99419 95.56401"/>
<path transform="matrix(1.00002,0,0,-1.00002,1.4137268,163.18994)" stroke-width=".79701" stroke-linecap="butt" stroke-miterlimit="10" stroke-linejoin="miter" fill="none" stroke="#0000ff" d="M97.13152 107.59352 108.57878 98.08331"/>
<path transform="matrix(1.00002,0,0,-1.00002,1.4137268,163.18994)" stroke-width=".79701" stroke-linecap="butt" stroke-miterlimit="10" stroke-linejoin="miter" fill="none" stroke="#0000ff" d="M129.50868 107.59352H145.69728"/>
<path transform="matrix(1.00002,0,0,-1.00002,1.4137268,163.18994)" stroke-width=".79701" stroke-linecap="butt" stroke-miterlimit="10" stroke-linejoin="miter" fill="none" stroke="#0000ff" d=""/>
</g>
<path transform="matrix(1.00002,0,0,-1.00002,1.4137268,163.18994)" stroke-width=".3985" stroke-linecap="butt" stroke-miterlimit="10" stroke-linejoin="miter" fill="none" stroke="#cbcbcb" d="M32.37717 0V161.39028M97.13152 0V161.39028M129.50868 0V161.39028M161.88587 0V161.39028"/>
<path transform="matrix(1.00002,0,0,-1.00002,1.4137268,163.18994)" stroke-width=".3985" stroke-linecap="butt" stroke-miterlimit="10" stroke-linejoin="miter" fill="none" stroke="#cbcbcb" d="M0 26.89838H194.26303M0 80.69513H194.26303M0 107.59352H194.26303M0 134.4919H194.26303"/>
<path transform="matrix(1.00002,0,0,-1.00002,1.4137268,163.18994)" stroke-width=".19925" stroke-linecap="butt" stroke-miterlimit="10" stroke-linejoin="miter" fill="none" stroke="#929292" d="M32.37717 51.67078V55.92271M97.13152 51.67078V55.92271M129.50868 51.67078V55.92271M161.88587 51.67078V55.92271"/>
<path transform="matrix(1.00002,0,0,-1.00002,1.4137268,163.18994)" stroke-width=".19925" stroke-linecap="butt" stroke-miterlimit="10" stroke-linejoin="miter" fill="none" stroke="#929292" d="M62.6284 26.89838H66.88026M62.6284 80.69513H66.88026M62.6284 107.59352H66.88026M62.6284 134.4919H66.88026"/>
<path transform="matrix(1.00002,0,0,-1.00002,1.4137268,163.18994)" stroke-width=".3985" stroke-linecap="butt" stroke-miterlimit="10" stroke-linejoin="miter" fill="none" stroke="#000000" d="M0 53.79675H192.27051"/>
<path transform="matrix(1.00002,0,0,-1.00002,193.68808,109.39212)" d="M1.99252 0-1.19551 1.59401 0 0-1.19551-1.59401"/>
<path transform="matrix(1.00002,0,0,-1.00002,1.4137268,163.18994)" stroke-width=".3985" stroke-linecap="butt" stroke-miterlimit="10" stroke-linejoin="miter" fill="none" stroke="#000000" d="M64.75433 0V159.39775"/>
<path transform="matrix(0,-1.00002,-1.00002,-0,66.16936,3.7890015)" d="M1.99252 0-1.19551 1.59401 0 0-1.19551-1.59401"/>
<path transform="matrix(1.00002,0,0,-1.00002,1.4137268,163.18994)" stroke-width=".19925" stroke-linecap="butt" stroke-miterlimit="10" stroke-linejoin="miter" fill="none" stroke="#929292" d="M32.37717 51.67078V55.92271M97.13152 51.67078V55.92271M129.50868 51.67078V55.92271M161.88587 51.67078V55.92271"/>
<path transform="matrix(1.00002,0,0,-1.00002,1.4137268,163.18994)" stroke-width=".19925" stroke-linecap="butt" stroke-miterlimit="10" stroke-linejoin="miter" fill="none" stroke="#929292" d="M62.6284 26.89838H66.88026M62.6284 80.69513H66.88026M62.6284 107.59352H66.88026M62.6284 134.4919H66.88026"/>
<path transform="matrix(1.00002,0,0,-1.00002,1.4137268,163.18994)" stroke-width=".3985" stroke-linecap="butt" stroke-miterlimit="10" stroke-linejoin="miter" fill="none" stroke="#000000" d="M0 53.79675H192.27051"/>
<path transform="matrix(1.00002,0,0,-1.00002,193.68808,109.39212)" d="M1.99252 0-1.19551 1.59401 0 0-1.19551-1.59401"/>
<path transform="matrix(1.00002,0,0,-1.00002,1.4137268,163.18994)" stroke-width=".3985" stroke-linecap="butt" stroke-miterlimit="10" stroke-linejoin="miter" fill="none" stroke="#000000" d="M64.75433 0V159.39775"/>
<path transform="matrix(0,-1.00002,-1.00002,-0,66.16936,3.7890015)" d="M1.99252 0-1.19551 1.59401 0 0-1.19551-1.59401"/>
<path transform="matrix(1.00002,0,0,-1.00002,1.4137268,163.18994)" d="M99.12407 80.69513C99.12407 81.79561 98.23198 82.68768 97.13152 82.68768 96.03104 82.68768 95.13896 81.79561 95.13896 80.69513 95.13896 79.59467 96.03104 78.70258 97.13152 78.70258 98.23198 78.70258 99.12407 79.59467 99.12407 80.69513ZM97.13152 80.69513"/>
<path transform="matrix(1.00002,0,0,-1.00002,1.4137268,163.18994)" stroke-width=".3985" stroke-linecap="butt" stroke-miterlimit="10" stroke-linejoin="miter" fill="none" stroke="#000000" d="M99.12407 80.69513C99.12407 81.79561 98.23198 82.68768 97.13152 82.68768 96.03104 82.68768 95.13896 81.79561 95.13896 80.69513 95.13896 79.59467 96.03104 78.70258 97.13152 78.70258 98.23198 78.70258 99.12407 79.59467 99.12407 80.69513ZM97.13152 80.69513"/>
<path transform="matrix(1.00002,0,0,-1.00002,1.4137268,163.18994)" d="M66.74689 107.59352C66.74689 108.69398 65.85481 109.58607 64.75433 109.58607 63.65387 109.58607 62.76178 108.69398 62.76178 107.59352 62.76178 106.49304 63.65387 105.60097 64.75433 105.60097 65.85481 105.60097 66.74689 106.49304 66.74689 107.59352ZM64.75433 107.59352"/>
<path transform="matrix(1.00002,0,0,-1.00002,1.4137268,163.18994)" stroke-width=".3985" stroke-linecap="butt" stroke-miterlimit="10" stroke-linejoin="miter" fill="none" stroke="#000000" d="M66.74689 107.59352C66.74689 108.69398 65.85481 109.58607 64.75433 109.58607 63.65387 109.58607 62.76178 108.69398 62.76178 107.59352 62.76178 106.49304 63.65387 105.60097 64.75433 105.60097 65.85481 105.60097 66.74689 106.49304 66.74689 107.59352ZM64.75433 107.59352"/>
<path transform="matrix(1.00002,0,0,-1.00002,1.4137268,163.18994)" d="M131.50124 107.59352C131.50124 108.69398 130.60916 109.58607 129.50868 109.58607 128.40822 109.58607 127.51613 108.69398 127.51613 107.59352 127.51613 106.49304 128.40822 105.60097 129.50868 105.60097 130.60916 105.60097 131.50124 106.49304 131.50124 107.59352ZM129.50868 107.59352"/>
<path transform="matrix(1.00002,0,0,-1.00002,1.4137268,163.18994)" stroke-width=".3985" stroke-linecap="butt" stroke-miterlimit="10" stroke-linejoin="miter" fill="none" stroke="#000000" d="M131.50124 107.59352C131.50124 108.69398 130.60916 109.58607 129.50868 109.58607 128.40822 109.58607 127.51613 108.69398 127.51613 107.59352 127.51613 106.49304 128.40822 105.60097 129.50868 105.60097 130.60916 105.60097 131.50124 106.49304 131.50124 107.59352ZM129.50868 107.59352"/>
<path transform="matrix(1.00002,0,0,-1.00002,1.4137268,163.18994)" d="M131.50124 80.69513C131.50124 81.79561 130.60916 82.68768 129.50868 82.68768 128.40822 82.68768 127.51613 81.79561 127.51613 80.69513 127.51613 79.59467 128.40822 78.70258 129.50868 78.70258 130.60916 78.70258 131.50124 79.59467 131.50124 80.69513ZM129.50868 80.69513"/>
<path transform="matrix(1.00002,0,0,-1.00002,1.4137268,163.18994)" stroke-width=".3985" stroke-linecap="butt" stroke-miterlimit="10" stroke-linejoin="miter" fill="none" stroke="#000000" d="M131.50124 80.69513C131.50124 81.79561 130.60916 82.68768 129.50868 82.68768 128.40822 82.68768 127.51613 81.79561 127.51613 80.69513 127.51613 79.59467 128.40822 78.70258 129.50868 78.70258 130.60916 78.70258 131.50124 79.59467 131.50124 80.69513ZM129.50868 80.69513"/>
<path transform="matrix(1.00002,0,0,-1.00002,1.4137268,163.18994)" d="M66.74689 53.79675C66.74689 54.89723 65.85481 55.7893 64.75433 55.7893 63.65387 55.7893 62.76178 54.89723 62.76178 53.79675 62.76178 52.69629 63.65387 51.8042 64.75433 51.8042 65.85481 51.8042 66.74689 52.69629 66.74689 53.79675ZM64.75433 53.79675"/>
<path transform="matrix(1.00002,0,0,-1.00002,1.4137268,163.18994)" stroke-width=".3985" stroke-linecap="butt" stroke-miterlimit="10" stroke-linejoin="miter" fill="none" stroke="#000000" d="M66.74689 53.79675C66.74689 54.89723 65.85481 55.7893 64.75433 55.7893 63.65387 55.7893 62.76178 54.89723 62.76178 53.79675 62.76178 52.69629 63.65387 51.8042 64.75433 51.8042 65.85481 51.8042 66.74689 52.69629 66.74689 53.79675ZM64.75433 53.79675"/>
<path transform="matrix(1.00002,0,0,-1.00002,1.4137268,163.18994)" d="M66.74689 80.69513C66.74689 81.79561 65.85481 82.68768 64.75433 82.68768 63.65387 82.68768 62.76178 81.79561 62.76178 80.69513 62.76178 79.59467 63.65387 78.70258 64.75433 78.70258 65.85481 78.70258 66.74689 79.59467 66.74689 80.69513ZM64.75433 80.69513"/>
<path transform="matrix(1.00002,0,0,-1.00002,1.4137268,163.18994)" stroke-width=".3985" stroke-linecap="butt" stroke-miterlimit="10" stroke-linejoin="miter" fill="none" stroke="#000000" d="M66.74689 80.69513C66.74689 81.79561 65.85481 82.68768 64.75433 82.68768 63.65387 82.68768 62.76178 81.79561 62.76178 80.69513 62.76178 79.59467 63.65387 78.70258 64.75433 78.70258 65.85481 78.70258 66.74689 79.59467 66.74689 80.69513ZM64.75433 80.69513"/>
<path transform="matrix(1.00002,0,0,-1.00002,1.4137268,163.18994)" d="M66.74689 107.59352C66.74689 108.69398 65.85481 109.58607 64.75433 109.58607 63.65387 109.58607 62.76178 108.69398 62.76178 107.59352 62.76178 106.49304 63.65387 105.60097 64.75433 105.60097 65.85481 105.60097 66.74689 106.49304 66.74689 107.59352ZM64.75433 107.59352"/>
<path transform="matrix(1.00002,0,0,-1.00002,1.4137268,163.18994)" stroke-width=".3985" stroke-linecap="butt" stroke-miterlimit="10" stroke-linejoin="miter" fill="none" stroke="#000000" d="M66.74689 107.59352C66.74689 108.69398 65.85481 109.58607 64.75433 109.58607 63.65387 109.58607 62.76178 108.69398 62.76178 107.59352 62.76178 106.49304 63.65387 105.60097 64.75433 105.60097 65.85481 105.60097 66.74689 106.49304 66.74689 107.59352ZM64.75433 107.59352"/>
<path transform="matrix(1.00002,0,0,-1.00002,1.4137268,163.18994)" d="M99.12407 107.59352C99.12407 108.69398 98.23198 109.58607 97.13152 109.58607 96.03104 109.58607 95.13896 108.69398 95.13896 107.59352 95.13896 106.49304 96.03104 105.60097 97.13152 105.60097 98.23198 105.60097 99.12407 106.49304 99.12407 107.59352ZM97.13152 107.59352"/>
<path transform="matrix(1.00002,0,0,-1.00002,1.4137268,163.18994)" stroke-width=".3985" stroke-linecap="butt" stroke-miterlimit="10" stroke-linejoin="miter" fill="none" stroke="#000000" d="M99.12407 107.59352C99.12407 108.69398 98.23198 109.58607 97.13152 109.58607 96.03104 109.58607 95.13896 108.69398 95.13896 107.59352 95.13896 106.49304 96.03104 105.60097 97.13152 105.60097 98.23198 105.60097 99.12407 106.49304 99.12407 107.59352ZM97.13152 107.59352"/>
<path transform="matrix(1.00002,0,0,-1.00002,1.4137268,163.18994)" d="M99.12407 53.79675C99.12407 54.89723 98.23198 55.7893 97.13152 55.7893 96.03104 55.7893 95.13896 54.89723 95.13896 53.79675 95.13896 52.69629 96.03104 51.8042 97.13152 51.8042 98.23198 51.8042 99.12407 52.69629 99.12407 53.79675ZM97.13152 53.79675"/>
<path transform="matrix(1.00002,0,0,-1.00002,1.4137268,163.18994)" stroke-width=".3985" stroke-linecap="butt" stroke-miterlimit="10" stroke-linejoin="miter" fill="none" stroke="#000000" d="M99.12407 53.79675C99.12407 54.89723 98.23198 55.7893 97.13152 55.7893 96.03104 55.7893 95.13896 54.89723 95.13896 53.79675 95.13896 52.69629 96.03104 51.8042 97.13152 51.8042 98.23198 51.8042 99.12407 52.69629 99.12407 53.79675ZM97.13152 53.79675"/>
<path transform="matrix(1.00002,0,0,-1.00002,1.4137268,163.18994)" d="M131.50124 53.79675C131.50124 54.89723 130.60916 55.7893 129.50868 55.7893 128.40822 55.7893 127.51613 54.89723 127.51613 53.79675 127.51613 52.69629 128.40822 51.8042 129.50868 51.8042 130.60916 51.8042 131.50124 52.69629 131.50124 53.79675ZM129.50868 53.79675"/>
<path transform="matrix(1.00002,0,0,-1.00002,1.4137268,163.18994)" stroke-width=".3985" stroke-linecap="butt" stroke-miterlimit="10" stroke-linejoin="miter" fill="none" stroke="#000000" d="M131.50124 53.79675C131.50124 54.89723 130.60916 55.7893 129.50868 55.7893 128.40822 55.7893 127.51613 54.89723 127.51613 53.79675 127.51613 52.69629 128.40822 51.8042 129.50868 51.8042 130.60916 51.8042 131.50124 52.69629 131.50124 53.79675ZM129.50868 53.79675"/>
<path transform="matrix(1.00002,0,0,-1.00002,1.4137268,163.18994)" stroke-width=".3985" stroke-linecap="butt" stroke-miterlimit="10" stroke-linejoin="miter" fill="none" stroke="#000000" d=""/>
<use data-text="t" xlink:href="#font_2_1" transform="matrix(9.962799,0,0,-9.962799,188.56348,105.871799)"/>
<use data-text="y" xlink:href="#font_2_2" transform="matrix(9.962799,0,0,-9.962799,69.689098,9.6058659)"/>
</svg>
