<svg xmlns="http://www.w3.org/2000/svg" xmlns:xlink="http://www.w3.org/1999/xlink" version="1.1" width="274" height="129" viewBox="0 0 274 129">
<defs>
<path id="font_1_2" d="M.31399537 .63708499C.31399537 .664032 .31199647 .66503909 .2849884 .66503909 .24398804 .6251831 .19099427 .6013489 .09599304 .6013489V.5683594C.12298584 .5683594 .1769867 .5683594 .23498535 .5953522V.08203125C.23498535 .04499817 .23199463 .032989503 .13699341 .032989503H.101989749V0C.14299011 .0029907227 .22898865 .0029907227 .27398683 .0029907227 .31900025 .0029907227 .4059906 .0029907227 .44699098 0V.032989503H.4119873C.31698609 .032989503 .31399537 .04499817 .31399537 .08203125V.63708499Z"/>
<path id="font_1_3" d="M.28199769 .20405579C.2979889 .21907044 .33999635 .2520752 .35598756 .26608277 .41799928 .32312013 .47698976 .3781433 .47698976 .46917726 .47698976 .588089 .3769989 .66503909 .2519989 .66503909 .13198853 .66503909 .052993776 .57411196 .052993776 .48516847 .052993776 .4361725 .09199524 .4291687 .10598755 .4291687 .1269989 .4291687 .1579895 .4441681 .1579895 .48217774 .1579895 .5341797 .10798645 .5341797 .09599304 .5341797 .125 .6070709 .19198609 .6320343 .24099732 .6320343 .33399964 .6320343 .38198854 .55314639 .38198854 .46917726 .38198854 .36514283 .30899049 .28910829 .19099427 .16804505L.06498718 .037994386C.052993776 .026992798 .052993776 .024993897 .052993776 0H.44799806L.47698976 .17904663H.44599916C.44299317 .1590271 .43499757 .10900879 .4229889 .08999634 .4169922 .08198547 .34098817 .08198547 .32499696 .08198547H.14698792L.28199769 .20405579Z"/>
<path id="font_1_4" d="M.25299073 .33370973C.33198548 .33370973 .38198854 .27557374 .38198854 .17037964 .38198854 .045440675 .31098939 .008514404 .2579956 .008514404 .20298767 .008514404 .12799073 .0284729 .09298706 .08137512 .1289978 .08137512 .1539917 .10437012 .1539917 .13737488 .1539917 .16937256 .1309967 .19238281 .09899902 .19238281 .07199097 .19238281 .04399109 .17536927 .04399109 .13537598 .04399109 .04045105 .1459961-.021484375 .2599945-.021484375 .3929901-.021484375 .48599244 .070388797 .48599244 .17037964 .48599244 .25352479 .41999818 .32969667 .31799317 .3517456 .39698792 .37982179 .45599366 .4479828 .45599366 .52804568 .45599366 .6080475 .3659973 .66503909 .2619934 .66503909 .15499878 .66503909 .07398987 .6070404 .07398987 .53105166 .07398987 .49404908 .09899902 .4780426 .125 .4780426 .1559906 .4780426 .17599488 .5000458 .17599488 .52905276 .17599488 .56604006 .14399719 .5800476 .12199402 .5810547 .1639862 .6360321 .24099732 .6390381 .25898744 .6390381 .2849884 .6390381 .36099244 .6310272 .36099244 .52804568 .36099244 .45799256 .33198548 .41589356 .31799317 .39985658 .28799439 .36878968 .2649994 .36679078 .20399475 .3627777 .18499756 .36177064 .1769867 .36076356 .1769867 .3477478 .1769867 .33370973 .18598938 .33370973 .20298767 .33370973H.25299073Z"/>
<path id="font_1_5" d="M.3939972 .6468048C.3939972 .6667938 .3939972 .6748047 .37298585 .6748047 .3600006 .6748047 .35899354 .6737976 .34899903 .65979006L.02999878 .197052V.1640625H.31199647V.08100891C.31199647 .04399109 .30899049 .032989503 .23199463 .032989503H.20899964V0C.2939911 .0029907227 .29599 .0029907227 .35299684 .0029907227 .4099884 .0029907227 .4119873 .0029907227 .49699403 0V.032989503H.47399903C.39698792 .032989503 .3939972 .04399109 .3939972 .08100891V.1640625H.5V.197052H.3939972V.6468048M.31900025 .5658417V.197052H.06498718L.31900025 .5658417Z"/>
<path id="font_1_6" d="M.13999939 .5618439C.15299988 .55784609 .19299317 .54785159 .23498535 .54785159 .3600006 .54785159 .43598939 .6358948 .43598939 .6510315 .43598939 .6620331 .42900086 .66503909 .42399598 .66503909 .42199708 .66503909 .41999818 .66503909 .41099549 .6600342 .37199403 .6450348 .32598878 .632843 .27198792 .632843 .21299744 .632843 .1639862 .6480255 .1329956 .6600342 .12298584 .66503909 .12098694 .66503909 .11999512 .66503909 .10699463 .66503909 .10699463 .6540375 .10699463 .6358948V.34292604C.10699463 .32492066 .10699463 .312912 .12298584 .312912 .1309967 .312912 .13398743 .3169098 .13899231 .32492066 .15098572 .33992005 .18899536 .39093019 .27398683 .39093019 .32998658 .39093019 .35699464 .34492494 .3659973 .32591249 .3829956 .28990174 .3849945 .24389649 .3849945 .20487976 .3849945 .1678772 .38398744 .11387634 .35598756 .069732669 .33699037 .039611818 .29699708 .008514404 .24398804 .008514404 .1789856 .008514404 .114990238 .0496521 .09199524 .11488342 .09498596 .11387634 .100997928 .11387634 .101989749 .11387634 .12998963 .11387634 .1519928 .13188172 .1519928 .16288758 .1519928 .19989014 .12298584 .21289063 .102996829 .21289063 .084991458 .21289063 .052993776 .20288086 .052993776 .15988159 .052993776 .069732669 .1309967-.021484375 .24598694-.021484375 .37098695-.021484375 .47698976 .07574463 .47698976 .19989014 .47698976 .31591798 .3929901 .4189453 .2749939 .4189453 .22499085 .4189453 .17799378 .40293885 .13999939 .368927V.5618439Z"/>
<path id="font_1_7" d="M.13798523 .33073426C.13798523 .41377259 .14498902 .4868164 .18099976 .54782107 .21099854 .5978241 .2619934 .6390381 .32499696 .6390381 .34498597 .6390381 .3909912 .63601687 .4139862 .60084536 .36898805 .5988312 .36499024 .5648346 .36499024 .553833 .36499024 .5238342 .3880005 .50683596 .4119873 .50683596 .42999269 .50683596 .45899964 .51782229 .45899964 .5558319 .45899964 .615921 .4139862 .66503909 .32398988 .66503909 .18499756 .66503909 .04399109 .53282168 .04399109 .31672669 .04399109 .045532228 .16999817-.021484375 .2669983-.021484375 .31498719-.021484375 .36698915-.0084991459 .4119873 .03453064 .45199586 .07354736 .48599244 .11558533 .48599244 .20263672 .48599244 .33372499 .3869934 .42578126 .27598573 .42578126 .20399475 .42578126 .16099549 .37976075 .13798523 .33073426M.2669983 .008514404C.21398926 .008514404 .18099976 .045532228 .1659851 .07354736 .14299011 .11859131 .14099121 .18663025 .14099121 .22465515 .14099121 .32373048 .19499207 .3977661 .27198792 .3977661 .32199098 .3977661 .35198976 .37176515 .37098695 .33673097 .3919983 .29971314 .3919983 .25468446 .3919983 .2036438 .3919983 .15260315 .3919983 .10858154 .37199403 .07255554 .34599305 .026519776 .31098939 .008514404 .2669983 .008514404Z"/>
<path id="font_1_8" d="M.5059967 .608551C.5149994 .6195526 .5149994 .6215515 .5149994 .6435547H.26098634C.23599243 .6435547 .20498657 .64456179 .17999268 .64660647 .12799073 .65068057 .1269989 .6597748 .12399292 .67578127H.09298706L.05899048 .46453858H.08999634C.09199524 .47953797 .102996829 .54855349 .116989139 .5565491 .12799073 .56155398 .20298767 .56155398 .21798706 .56155398H.42999269L.32699586 .4235382C.21299744 .27153016 .18899536 .11351013 .18899536 .03451538 .18899536 .024505616 .18899536-.021484375 .23599243-.021484375 .2829895-.021484375 .2829895 .023513794 .2829895 .035507204V.08351135C.2829895 .2275238 .30699159 .34553529 .35598756 .41053773L.5059967 .608551Z"/>
<path id="font_1_9" d="M.33198548 .36080934C.3880005 .38783265 .45599366 .4378662 .45599366 .5159302 .45599366 .6110077 .35899354 .66503909 .2659912 .66503909 .1599884 .66503909 .07398987 .59199526 .07398987 .49790956 .07398987 .46089173 .08699036 .42686463 .11199951 .39782716 .1289978 .3768158 .1329956 .3748169 .19499207 .3357849 .070999149 .2807312 .04399109 .20767212 .04399109 .15162659 .04399109 .041534425 .15499878-.021484375 .2639923-.021484375 .3869934-.021484375 .48599244 .061553956 .48599244 .16764832 .48599244 .23069763 .45199586 .2727356 .43598939 .28974916 .4189911 .30575563 .41799928 .3067627 .33198548 .36080934M.1769867 .45487977C.147995 .4718933 .12399292 .5009155 .12399292 .5359497 .12399292 .598999 .19299317 .6390381 .2639923 .6390381 .34199525 .6390381 .4059906 .5859833 .4059906 .5159302 .4059906 .45788575 .36099244 .408844 .3019867 .37982179L.1769867 .45487977M.22599793 .31776429C.22999573 .31576539 .34399415 .24571228 .36099244 .23469544 .3769989 .22569275 .42900086 .19366455 .42900086 .13360596 .42900086 .056549074 .34799195 .008514404 .2659912 .008514404 .1769867 .008514404 .100997928 .06956482 .100997928 .15162659 .100997928 .22668457 .15699768 .28573609 .22599793 .31776429Z"/>
<path id="font_1_10" d="M.3919983 .29478456C.3919983 .050704957 .27598573 .008514404 .21798706 .008514404 .19699097 .008514404 .14498902 .011520386 .117996219 .04270935 .1619873 .046707155 .16499329 .079711917 .16499329 .08970642 .16499329 .1197052 .14199829 .13671875 .117996219 .13671875 .099990848 .13671875 .070999149 .12571717 .070999149 .08770752 .070999149 .019577027 .1269989-.021484375 .21899414-.021484375 .35598756-.021484375 .48599244 .114715579 .48599244 .3287964 .48599244 .58898928 .37098695 .66503909 .2679901 .66503909 .1499939 .66503909 .04399109 .5729828 .04399109 .44187928 .04399109 .31278993 .14099121 .21875 .2539978 .21875 .32499696 .21875 .36799623 .26374818 .3919983 .31478883V.29478456M.2579956 .24674988C.21199036 .24674988 .18299866 .26776124 .16099549 .30477906 .13798523 .34181214 .13798523 .3898468 .13798523 .44088746 .13798523 .4999237 .13798523 .54196169 .16499329 .58299258 .18998719 .61901858 .22200012 .6390381 .2689972 .6390381 .33599855 .6390381 .36499024 .5729828 .36799623 .5679779 .3889923 .51893618 .3899994 .44088746 .3899994 .42086793 .3899994 .34181214 .34700013 .24674988 .2579956 .24674988Z"/>
<path id="font_1_1" d="M.4889984 .31877137C.4889984 .42585755 .47799684 .49090577 .44499208 .55496218 .40098573 .6430359 .31999208 .66503909 .2649994 .66503909 .13899231 .66503909 .09298706 .5709839 .07899475 .5429535 .042999269 .4698944 .040985109 .3708191 .040985109 .31877137 .040985109 .25271607 .04399109 .15162659 .09199524 .07156372 .13798523-.0024871827 .21199036-.021484375 .2649994-.021484375 .31298829-.021484375 .39898683-.0064849855 .44898988 .09257507 .48599244 .16464234 .4889984 .2537079 .4889984 .31877137M.2649994 .006515503C.23098755 .006515503 .1619873 .022521973 .14099121 .12760926 .12998963 .18466187 .12998963 .2787323 .12998963 .33078004 .12998963 .3998413 .12998963 .4698944 .14099121 .5249481 .1619873 .6270294 .23999024 .6370239 .2649994 .6370239 .29899598 .6370239 .36799623 .62002566 .3880005 .5289459 .3999939 .4738922 .3999939 .39883424 .3999939 .33078004 .3999939 .27172853 .3999939 .18165589 .3880005 .12561035 .36698915 .020523072 .2979889 .006515503 .2649994 .006515503Z"/>
<path id="font_2_1" d="M.69898989 .22743225C.71499636 .22743225 .7369995 .22743225 .7369995 .25042726 .7369995 .2734375 .71499636 .2734375 .69898989 .2734375H.12599182C.10998535 .2734375 .08799744 .2734375 .08799744 .25042726 .08799744 .22743225 .10998535 .22743225 .12599182 .22743225H.69898989Z"/>
<clipPath id="clip_3">
<path transform="matrix(1,0,0,-1,16.683999,117.29)" d="M0 0H239.10584V95.64233H0Z"/>
</clipPath>
<path id="font_4_63" d="M.5349884 0V.0309906C.48298646 .0309906 .45799256 .0309906 .45700074 .061019899V.25221253C.45700074 .3383026 .45700074 .36932374 .42599488 .405365 .4119873 .42237855 .3789978 .4423828 .32099916 .4423828 .23699951 .4423828 .19299317 .38233949 .1769867 .34629823H.17599488V.69433596L.03199768 .6826172V.6516113C.101989749 .6516113 .10998535 .64463809 .10998535 .59580996V.076034549C.10998535 .0309906 .09899902 .0309906 .03199768 .0309906V0L.14498902 .0029907227 .25698854 0V.0309906C.18998719 .0309906 .1789856 .0309906 .1789856 .076034549V.2602234C.1789856 .36431886 .25 .42037965 .31399537 .42037965 .3769989 .42037965 .3880005 .36631776 .3880005 .30926515V.076034549C.3880005 .0309906 .3769989 .0309906 .30999757 .0309906V0L.4229889 .0029907227 .5349884 0Z"/>
<path id="font_4_28" d="M.48298646 .08912659V.14511109H.45799256V.08912659C.45799256 .03112793 .43299867 .025131226 .42199708 .025131226 .3889923 .025131226 .3849945 .070129398 .3849945 .07511902V.27508546C.3849945 .31707765 .3849945 .3560791 .34899903 .39312745 .30999757 .43223573 .2599945 .4482422 .21199036 .4482422 .12998963 .4482422 .06098938 .40115357 .06098938 .335083 .06098938 .30508424 .08099365 .28808595 .10699463 .28808595 .1349945 .28808595 .15299988 .30807496 .15299988 .33407594 .15299988 .3460846 .147995 .37908937 .101989749 .38008119 .1289978 .41519166 .17799378 .426239 .20999146 .426239 .25898744 .426239 .31599427 .38710023 .31599427 .29808045V.26107789C.2649994 .25808717 .19499207 .25508119 .13198853 .22509766 .056991579 .19110108 .03199768 .13911438 .03199768 .09512329 .03199768 .014251709 .1289978-.0107421879 .19198609-.0107421879 .2579956-.0107421879 .3039856 .029251099 .32299806 .07624817 .32699586 .036132814 .35398866-.005859375 .40098573-.005859375 .42199708-.005859375 .48298646 .008132935 .48298646 .08912659M.31599427 .14013672C.31599427 .04525757 .24398804 .011245728 .19898987 .011245728 .1499939 .011245728 .10899353 .04624939 .10899353 .09625244 .10899353 .15124512 .15098572 .23425293 .31599427 .24024964V.14013672Z"/>
<path id="font_4_75" d="M.8129883 0V.0309906C.7609863 .0309906 .73599246 .0309906 .7350006 .061019899V.25221253C.7350006 .3383026 .7350006 .36932374 .70399478 .405365 .6899872 .42237855 .6569977 .4423828 .598999 .4423828 .5149994 .4423828 .47099305 .38233949 .45399476 .34429933 .43998719 .43138124 .3659973 .4423828 .32099916 .4423828 .24798584 .4423828 .20098877 .39935304 .17298889 .33729554V.4423828L.03199768 .43066407V.3996582C.101989749 .3996582 .10998535 .39266969 .10998535 .34370423V.07595825C.10998535 .0309906 .09899902 .0309906 .03199768 .0309906V0L.14498902 .0029907227 .25698854 0V.0309906C.18998719 .0309906 .1789856 .0309906 .1789856 .07595825V.25978089C.1789856 .36431886 .25 .42037965 .31399537 .42037965 .3769989 .42037965 .3880005 .36631776 .3880005 .30926515V.076034549C.3880005 .0309906 .3769989 .0309906 .30999757 .0309906V0L.4229889 .0029907227 .5349884 0V.0309906C.46798707 .0309906 .45700074 .0309906 .45700074 .076034549V.2602234C.45700074 .36431886 .5279999 .42037965 .59199526 .42037965 .6549988 .42037965 .66600039 .36631776 .66600039 .30926515V.076034549C.66600039 .0309906 .6549988 .0309906 .58799746 .0309906V0L.70098879 .0029907227 .8129883 0Z"/>
<path id="font_4_50" d="M.4149933 .11933899C.4149933 .12934876 .40699769 .13134766 .4019928 .13134766 .3929901 .13134766 .3909912 .12535095 .3889923 .11734009 .35398866 .014251709 .2639923 .014251709 .2539978 .014251709 .20399475 .014251709 .1639862 .044281007 .14099121 .08131409 .11099243 .12934876 .11099243 .19540406 .11099243 .23144531H.3899994C.4119873 .23144531 .4149933 .23144531 .4149933 .2524414 .4149933 .35131837 .36099244 .4482422 .23599243 .4482422 .11999512 .4482422 .027999878 .34532167 .027999878 .22042847 .027999878 .08631897 .1329956-.0107421879 .24798584-.0107421879 .36999513-.0107421879 .4149933 .10032654 .4149933 .11933899M.34899903 .2524414H.11199951C.117996219 .40126039 .20199585 .426239 .23599243 .426239 .33898927 .426239 .34899903 .2913971 .34899903 .2524414Z"/>
<path id="font_4_96" d="M.3639984 .38137818C.3639984 .41337586 .33299256 .4423828 .2899933 .4423828 .21699524 .4423828 .18099976 .37538148 .16699219 .3323822V.4423828L.027999878 .43066407V.3996582C.09799194 .3996582 .10598755 .39266969 .10598755 .34370423V.07595825C.10598755 .0309906 .09498596 .0309906 .027999878 .0309906V0L.14199829 .0029907227C.18199158 .0029907227 .22898865 .0029907227 .2689972 0V.0309906H.24798584C.17399597 .0309906 .17199707 .04197693 .17199707 .07795715V.23181153C.17199707 .33137513 .21398926 .42037965 .2899933 .42037965 .29699708 .42037965 .29899598 .42037965 .30099488 .41937257 .2979889 .41838075 .27799989 .40637208 .27799989 .3803711 .27799989 .35237123 .29899598 .33737184 .32099916 .33737184 .33898927 .33737184 .3639984 .3493805 .3639984 .38137818Z"/>
<path id="font_4_66" d="M.24699402 0V.0309906C.18099976 .0309906 .1769867 .035995485 .1769867 .075042728V.4423828L.036987306 .43066407V.3996582C.101989749 .3996582 .11099243 .3936615 .11099243 .3447113V.07595825C.11099243 .0309906 .099990848 .0309906 .032989503 .0309906V0L.14299011 .0029907227C.17799378 .0029907227 .21299744 .0009918213 .24699402 0M.19198609 .603775C.19198609 .6307678 .16899109 .6567688 .13899231 .6567688 .10499573 .6567688 .084991458 .6287689 .084991458 .603775 .084991458 .57676699 .10798645 .55078127 .13798523 .55078127 .17199707 .55078127 .19198609 .5787811 .19198609 .603775Z"/>
<path id="font_4_105" d="M.33198548 .12385559V.18066406H.30699159V.12585449C.30699159 .052108766 .2769928 .014251709 .23999024 .014251709 .17298889 .014251709 .17298889 .10491943 .17298889 .12187195V.3996582H.31599427V.43066407H.17298889V.6142578H.147995C.14698792 .5324249 .116989139 .42565919 .018997193 .42166139V.3996582H.10398865V.12408447C.10398865 .0012512207 .19699097-.0107421879 .23298645-.0107421879 .3039856-.0107421879 .33198548 .060180665 .33198548 .12408447V.12385559Z"/>
<path id="font_4_98" d="M.3600006 .12823487C.3600006 .18122864 .32998658 .21122742 .31799317 .22323609 .2849884 .25523377 .24598694 .26322938 .20399475 .27124024 .147995 .28224183 .08099365 .29522706 .08099365 .35324098 .08099365 .38822938 .10699463 .42922975 .19299317 .42922975 .30299378 .42922975 .30799867 .3392334 .30999757 .30822755 .31098939 .2992401 .32199098 .2992401 .32199098 .2992401 .33499146 .2992401 .33499146 .30422975 .33499146 .32322694V.4242401C.33499146 .4412384 .33499146 .4482422 .32398988 .4482422 .31900025 .4482422 .31698609 .4482422 .3039856 .43623353 .30099488 .43223573 .29100038 .42323304 .2869873 .42022706 .24899292 .4482422 .20799256 .4482422 .19299317 .4482422 .070999149 .4482422 .032989503 .38124085 .032989503 .3252411 .032989503 .29023744 .04899597 .26223756 .07598877 .24023438 .10798645 .2142334 .13598633 .2082367 .20799256 .19422913 .22999573 .19021607 .31199647 .17422486 .31199647 .10221863 .31199647 .051223756 .2769928 .011245728 .19898987 .011245728 .114990238 .011245728 .07899475 .068222049 .05999756 .1532135 .056991579 .16621399 .055999757 .17021179 .04598999 .17021179 .032989503 .17021179 .032989503 .16322327 .032989503 .1452179V.013214111C.032989503-.003753662 .032989503-.0107421879 .04399109-.0107421879 .04899597-.0107421879 .049987794-.009750366 .068984989 .009246826 .070999149 .011245728 .070999149 .013214111 .08898926 .032226564 .1329956-.009750366 .17799378-.0107421879 .19898987-.0107421879 .31399537-.0107421879 .3600006 .05621338 .3600006 .1282196V.12823487Z"/>
<path id="font_5_1" d="M.20599365 .3996582H.2999878C.31999208 .3996582 .32998658 .3996582 .32998658 .41966249 .32998658 .43066407 .31999208 .43066407 .3019867 .43066407H.21398926C.25 .5724945 .25498963 .59246829 .25498963 .59846499 .25498963 .61546328 .24299622 .62545779 .22599793 .62545779 .22299195 .62545779 .19499207 .62446597 .18598938 .58947756L.14698792 .43066407H.052993776C.032989503 .43066407 .022994996 .43066407 .022994996 .4116516 .022994996 .3996582 .0309906 .3996582 .050994874 .3996582H.13899231C.066986087 .11608887 .06298828 .099121097 .06298828 .08114624 .06298828 .02722168 .100997928-.0107421879 .15499878-.0107421879 .25698854-.0107421879 .31399537 .13505554 .31399537 .14305115 .31399537 .1530304 .30599977 .1530304 .3019867 .1530304 .29299928 .1530304 .2919922 .15003968 .2869873 .13905335 .24398804 .035217287 .19099427 .011245728 .15699768 .011245728 .13598633 .011245728 .12599182 .024230957 .12599182 .057174684 .12599182 .08114624 .12799073 .088134769 .13198853 .10510254L.20599365 .3996582Z"/>
<path id="font_5_3" d="M.48599244 .38136292C.48999024 .39537049 .48999024 .39736939 .48999024 .40437318 .48999024 .42237855 .47599793 .43138124 .46099855 .43138124 .45098878 .43138124 .43499757 .42536927 .42599488 .41036988 .42399598 .405365 .41600038 .37435914 .4119873 .35635377 .40499879 .33035279 .397995 .30334474 .3919983 .27633668L.34700013 .09628296C.34298707 .08126831 .2999878 .011245728 .23399353 .011245728 .18299866 .011245728 .17199707 .055267335 .17199707 .0922699 .17199707 .1382904 .18899536 .20030213 .22299195 .28833009 .23899842 .3293457 .24299622 .3403473 .24299622 .36035157 .24299622 .405365 .21099854 .4423828 .16099549 .4423828 .06599426 .4423828 .0289917 .29733277 .0289917 .28833009 .0289917 .27833558 .038986207 .27833558 .040985109 .27833558 .050994874 .27833558 .051986696 .28033448 .056991579 .29634095 .083999637 .3903656 .12399292 .42037965 .1579895 .42037965 .1659851 .42037965 .18299866 .42037965 .18299866 .3883667 .18299866 .36335755 .17298889 .3373413 .1659851 .31834413 .12599182 .21231079 .10798645 .1552887 .10798645 .10827637 .10798645 .019256592 .17098999-.0107421879 .22999573-.0107421879 .2689972-.0107421879 .30299378 .0062561037 .33099366 .03425598 .31799317-.017745972 .30599977-.06674194 .2659912-.11973572 .23999024-.15385437 .20199585-.18309021 .1559906-.18309021 .14199829-.18309021 .09700012-.18005371 .07998657-.14074707 .09599304-.14074707 .10899353-.14074707 .12298584-.1287384 .1329956-.11973572 .14299011-.10673523 .14299011-.08773804 .14299011-.056747438 .115997318-.052734376 .10598755-.052734376 .08299255-.052734376 .049987794-.068740848 .049987794-.11773682 .049987794-.16796875 .09399414-.20507813 .1559906-.20507813 .25898744-.20507813 .3619995-.11373901 .3899994-.00074768069L.48599244 .38136292Z"/>
<path id="font_5_2" d="M.33399964 .30233766C.33999635 .32835389 .36299134 .42037965 .43299867 .42037965 .43798829 .42037965 .46199037 .42037965 .48298646 .40734864 .45498658 .402359 .43499757 .37734986 .43499757 .35334779 .43499757 .33735658 .44599916 .31835938 .47299195 .31835938 .49499513 .31835938 .5269928 .3363495 .5269928 .37635804 .5269928 .42837525 .46798707 .4423828 .43399049 .4423828 .37599183 .4423828 .34098817 .38935853 .32899476 .36634828 .3039856 .43237306 .25 .4423828 .22099304 .4423828 .116989139 .4423828 .05999756 .3133545 .05999756 .28834535 .05999756 .27833558 .069992069 .27833558 .07199097 .27833558 .07998657 .27833558 .08299255 .28033448 .084991458 .28933717 .11898804 .39535523 .18499756 .42037965 .21899414 .42037965 .23799134 .42037965 .272995 .4113617 .272995 .35334779 .272995 .32235719 .2559967 .25532533 .21899414 .11528015 .20298767 .053268434 .16799927 .011245728 .12399292 .011245728 .117996219 .011245728 .09498596 .011245728 .07398987 .024276734 .09899902 .029266358 .12098694 .05027771 .12098694 .07827759 .12098694 .105270389 .09899902 .11328125 .083999637 .11328125 .053985597 .11328125 .0289917 .08728027 .0289917 .055267335 .0289917 .009246826 .07899475-.0107421879 .12298584-.0107421879 .18899536-.0107421879 .22499085 .059280397 .22799683 .0652771 .23999024 .028274537 .27598573-.0107421879 .33599855-.0107421879 .43899537-.0107421879 .49598695 .118270877 .49598695 .14328003 .49598695 .1532898 .4869995 .1532898 .48399354 .1532898 .47499085 .1532898 .47299195 .14929199 .47099305 .14228821 .43798829 .03527832 .36999513 .011245728 .33799745 .011245728 .29899598 .011245728 .2829895 .043273927 .2829895 .07727051 .2829895 .09927368 .2889862 .121276859 .2999878 .16529846L.33399964 .30233766Z"/>
<path id="font_6_1" d="M.33099366-.2400055C.33099366-.23701477 .33099366-.23500061 .31399537-.21800232 .18899536-.0920105 .15699768 .09700012 .15699768 .25 .15699768 .42399598 .19499207 .59799197 .31799317 .72299197 .33099366 .73498538 .33099366 .7369995 .33099366 .73999026 .33099366 .746994 .32699586 .75 .32099916 .75 .31098939 .75 .22099304 .6819916 .1619873 .5549927 .11099243 .44499208 .09899902 .33399964 .09899902 .25 .09899902 .17199707 .10998535 .050994874 .16499329-.06201172 .22499085-.18501282 .31098939-.25 .32099916-.25 .32699586-.25 .33099366-.24700928 .33099366-.2400055Z"/>
<path id="font_6_2" d="M.2889862 .25C.2889862 .32798768 .27799989 .44898988 .22299195 .56199648 .16299439 .68499758 .07699585 .75 .066986087 .75 .06098938 .75 .056991579 .74598696 .056991579 .73999026 .056991579 .7369995 .056991579 .73498538 .07598877 .71699526 .17399597 .6179962 .23098755 .45899964 .23098755 .25 .23098755 .07899475 .19400025-.09700012 .069992069-.2230072 .056991579-.23500061 .056991579-.23701477 .056991579-.2400055 .056991579-.2460022 .06098938-.25 .066986087-.25 .07699585-.25 .16699219-.18200684 .22599793-.055007936 .2769928 .054992677 .2889862 .16600037 .2889862 .25Z"/>
</defs>
<path transform="matrix(1,0,0,-1,16.683999,117.29)" stroke-width=".09962" stroke-linecap="butt" stroke-miterlimit="10" stroke-linejoin="miter" fill="none" stroke="#e0e0e0" d="M11.95529 0V95.64233M35.86588 0V95.64233M59.77646 0V95.64233M83.68704 0V95.64233M107.59763 0V95.64233M131.50821 0V95.64233M155.4188 0V95.64233M179.32938 0V95.64233M203.23996 0V95.64233M227.15055 0V95.64233"/>
<path transform="matrix(1,0,0,-1,16.683999,117.29)" stroke-width=".19925" stroke-linecap="butt" stroke-miterlimit="10" stroke-linejoin="miter" fill="none" stroke="#c0c0c0" d="M23.91058 0V95.64233M47.82117 0V95.64233M71.73175 0V95.64233M95.64233 0V95.64233M119.55292 0V95.64233M143.4635 0V95.64233M167.37409 0V95.64233M191.28467 0V95.64233M215.19525 0V95.64233M239.10584 0V95.64233"/>
<path transform="matrix(1,0,0,-1,16.683999,117.29)" stroke-width=".09962" stroke-linecap="butt" stroke-miterlimit="10" stroke-linejoin="miter" fill="none" stroke="#e0e0e0" d="M0 11.95529H239.10584M0 35.86588H239.10584M0 59.77646H239.10584M0 83.68704H239.10584"/>
<path transform="matrix(1,0,0,-1,16.683999,117.29)" stroke-width=".19925" stroke-linecap="butt" stroke-miterlimit="10" stroke-linejoin="miter" fill="none" stroke="#c0c0c0" d="M0 0H239.10584M0 23.91058H239.10584M0 71.73175H239.10584M0 95.64233H239.10584"/>
<path transform="matrix(1,0,0,-1,16.683999,117.29)" stroke-width=".19925" stroke-linecap="butt" stroke-miterlimit="10" stroke-linejoin="miter" fill="none" stroke="#929292" d="M11.95529 46.40369V49.23862M35.86588 46.40369V49.23862M59.77646 46.40369V49.23862M83.68704 46.40369V49.23862M107.59763 46.40369V49.23862M131.50821 46.40369V49.23862M155.4188 46.40369V49.23862M179.32938 46.40369V49.23862M203.23996 46.40369V49.23862M227.15055 46.40369V49.23862"/>
<path transform="matrix(1,0,0,-1,16.683999,117.29)" stroke-width=".19925" stroke-linecap="butt" stroke-miterlimit="10" stroke-linejoin="miter" fill="none" stroke="#929292" d="M23.91058 45.69514V49.94716M47.82117 45.69514V49.94716M71.73175 45.69514V49.94716M95.64233 45.69514V49.94716M119.55292 45.69514V49.94716M143.4635 45.69514V49.94716M167.37409 45.69514V49.94716M191.28467 45.69514V49.94716M215.19525 45.69514V49.94716M239.10584 45.69514V49.94716"/>
<path transform="matrix(1,0,0,-1,16.683999,117.29)" stroke-width=".19925" stroke-linecap="butt" stroke-miterlimit="10" stroke-linejoin="miter" fill="none" stroke="#929292" d="M-1.41745 11.95529H1.41745M-1.41745 35.86588H1.41745M-1.41745 59.77646H1.41745M-1.41745 83.68704H1.41745"/>
<path transform="matrix(1,0,0,-1,16.683999,117.29)" stroke-width=".19925" stroke-linecap="butt" stroke-miterlimit="10" stroke-linejoin="miter" fill="none" stroke="#929292" d="M-2.12599 0H2.12599M-2.12599 23.91058H2.12599M-2.12599 71.73175H2.12599M-2.12599 95.64233H2.12599"/>
<path transform="matrix(1,0,0,-1,16.683999,117.29)" stroke-width=".3985" stroke-linecap="butt" stroke-miterlimit="10" stroke-linejoin="miter" fill="none" stroke="#000000" d="M-6.37622 47.82117H245.48206"/>
<path transform="matrix(-1,-0,0,1,10.307777,69.46883)" d="M3.58653 0C2.52383 .19925 .797 .797-.3985 1.49438V-1.49438C.797-.797 2.52383-.19925 3.58653 0"/>
<path transform="matrix(1,0,0,-1,262.16606,69.46883)" d="M3.58653 0C2.52383 .19925 .797 .797-.3985 1.49438V-1.49438C.797-.797 2.52383-.19925 3.58653 0"/>
<path transform="matrix(1,0,0,-1,16.683999,117.29)" stroke-width=".3985" stroke-linecap="butt" stroke-miterlimit="10" stroke-linejoin="miter" fill="none" stroke="#000000" d="M0-6.37622V102.01855"/>
<path transform="matrix(0,1,1,0,16.683999,123.66622)" d="M3.58653 0C2.52383 .19925 .797 .797-.3985 1.49438V-1.49438C.797-.797 2.52383-.19925 3.58653 0"/>
<path transform="matrix(0,-1,-1,-0,16.683999,15.271454)" d="M3.58653 0C2.52383 .19925 .797 .797-.3985 1.49438V-1.49438C.797-.797 2.52383-.19925 3.58653 0"/>
<use data-text="1" xlink:href="#font_1_2" transform="matrix(7.9701,0,0,-7.9701,38.476999,80.251)"/>
<use data-text="2" xlink:href="#font_1_3" transform="matrix(7.9701,0,0,-7.9701,62.387998,80.251)"/>
<use data-text="3" xlink:href="#font_1_4" transform="matrix(7.9701,0,0,-7.9701,86.298999,80.251)"/>
<use data-text="4" xlink:href="#font_1_5" transform="matrix(7.9701,0,0,-7.9701,110.209,80.251)"/>
<use data-text="5" xlink:href="#font_1_6" transform="matrix(7.9701,0,0,-7.9701,134.12,80.251)"/>
<use data-text="6" xlink:href="#font_1_7" transform="matrix(7.9701,0,0,-7.9701,158.03,80.251)"/>
<use data-text="7" xlink:href="#font_1_8" transform="matrix(7.9701,0,0,-7.9701,181.94101,80.251)"/>
<use data-text="8" xlink:href="#font_1_9" transform="matrix(7.9701,0,0,-7.9701,205.85199,80.251)"/>
<use data-text="9" xlink:href="#font_1_10" transform="matrix(7.9701,0,0,-7.9701,229.762,80.251)"/>
<use data-text="1" xlink:href="#font_1_2" transform="matrix(7.9701,0,0,-7.9701,251.556,80.251)"/>
<use data-text="0" xlink:href="#font_1_1" transform="matrix(7.9701,0,0,-7.9701,255.78812,80.251)"/>
<use data-text="&#x2212;" xlink:href="#font_2_1" transform="matrix(7.9701,0,0,-7.9701,.21700287,119.443)"/>
<use data-text="2" xlink:href="#font_1_3" transform="matrix(7.9701,0,0,-7.9701,6.803009,119.443)"/>
<use data-text="&#x2212;" xlink:href="#font_2_1" transform="matrix(7.9701,0,0,-7.9701,.21700287,95.532)"/>
<use data-text="1" xlink:href="#font_1_2" transform="matrix(7.9701,0,0,-7.9701,6.803009,95.532)"/>
<use data-text="1" xlink:href="#font_1_2" transform="matrix(7.9701,0,0,-7.9701,6.804001,48.126)"/>
<use data-text="2" xlink:href="#font_1_3" transform="matrix(7.9701,0,0,-7.9701,6.804001,24.216004)"/>
<g clip-path="url(#clip_3)">
<path transform="matrix(1,0,0,-1,16.683999,117.29)" stroke-width=".79701" stroke-linecap="butt" stroke-miterlimit="10" stroke-linejoin="miter" fill="none" stroke="#0000ff" d="M0 47.82117H.4806 .96121 1.44182 1.92247 2.40308 2.8837 3.36432 3.84492 4.32553 4.80614 5.28676 5.76741 6.24802 6.72864 7.20924 7.68985 8.17046 8.65108 9.1317 9.61234 10.09296 10.57356 11.05417 11.53479 12.01541 12.49602 12.97665 13.45728 13.9379 14.4185 14.89912 15.37973 15.86034 16.34094 16.82161 17.30222 17.78282 18.26344 18.74405 19.22466 19.70526 20.1859 20.66653 21.14714 21.62776 22.10837 22.58899 23.0696 23.55022 24.03085 24.51146 24.9921 25.4727 25.95331 26.43393 26.91454 27.39514 27.8758 28.35641 28.83702 29.31763 29.79825 30.27885 30.75946 31.24007 31.72073 32.20134 32.68195 33.16257 33.64317 34.1238 34.6044 35.08502 35.56566 36.04626 36.5269 37.0075 37.48811 37.96873 38.44934 38.93 39.4106 39.89122 40.37183 40.85243 41.33305 41.81366 42.29427 42.77492 43.25554 43.73615 44.21675 44.69737 45.178 45.6586 46.1392 46.61986 47.10046 47.58109 48.0617 48.54234 49.02292 49.50356 49.98415 50.4648 50.9454 51.42598 51.90663 52.3872 52.86786 53.34851 53.82907 54.30972 54.79031 55.27095 55.7516 56.23218 56.71283 57.1934 57.67404 58.15466 58.63524 59.11589 59.59647 60.07712 60.55775 61.03833 61.519 61.99956 62.48021 62.96086 63.44144 63.92209 64.40266 64.88332 65.36392 65.8445 66.32515 66.80573 67.28636 67.76703 68.2476 68.72824 69.20882 69.68947 70.17012 70.6507 71.13135 71.61192 72.09256 72.57318 73.05376 73.53441 74.01498 74.49564 74.97629 75.45685 75.93752 76.41809 76.89873 77.37938 77.85995 78.3406 78.82114 79.3018 79.78244 80.26302 80.74365 81.22424 81.7049 82.18553 82.66612 83.14676 83.62733 84.10799 84.58864 85.06921 85.54985 86.03041 86.51105 86.9917 87.47227 87.95293 88.4335 88.91414 89.3948 89.87537 90.35602 90.83661 91.31725 91.7979 92.27843 92.7591 93.23965 93.7203 94.20096 94.68153 95.16219 95.64275"/>
<path transform="matrix(1,0,0,-1,16.683999,117.29)" stroke-width=".79701" stroke-linecap="butt" stroke-miterlimit="10" stroke-linejoin="miter" fill="none" stroke="#0000ff" d="M95.64233 47.82117 96.36325 49.98076 97.08415 52.12244 97.8051 54.22968 98.52603 56.28406 99.24693 58.26959 99.96786 60.16978 100.68877 61.96808 101.4097 63.65141 102.13063 65.20532 102.85155 66.61725 103.57248 67.87567 104.29338 68.96959 105.01431 69.8904 105.73526 70.63066 106.45615 71.18512 107.1771 71.54906 107.89803 71.71788 108.61893 71.6911 109.33986 71.46967 110.06079 71.05531 110.78171 70.45108 111.50264 69.66156 112.22354 68.69272 112.94447 67.55359 113.6654 66.25308 114.3863 64.80246 115.10724 63.21286 115.82819 61.49706 116.54909 59.66959 117.27002 57.74524 117.99092 55.73985 118.71187 53.6692 119.4328 51.5512 120.15369 49.40283 120.87463 47.2418 121.59557 45.08554 122.31647 42.95056 123.0374 40.85623 123.75835 38.81856 124.47925 36.85455 125.20018 34.98044 125.92111 33.21085 126.64201 31.561 127.36296 30.04411 128.08385 28.6721 128.8048 27.45772 129.52573 26.40923 130.24665 25.53552 130.96756 24.84381 131.68846 24.34071 132.40941 24.02939 133.13034 23.91272 133.85124 23.99164 134.57218 24.26422 135.29312 24.73045 136.014 25.38538 136.73494 26.22417 137.45589 27.2387 138.17679 28.42154 138.89772 29.76314 139.61862 31.25278 140.33957 32.87776 141.0605 34.62491 141.7814 36.47989 142.50234 38.42741 143.22327 40.45164 143.94417 42.53668 144.6651 44.66447 145.38602 46.81812 146.10695 48.97961 146.8279 51.13206 147.54878 53.25748 148.26972 55.33841 148.99066 57.35788 149.71155 59.29965 150.4325 61.14725 151.15343 62.8865 151.87433 64.50116 152.59526 65.98077 153.31618 67.31114 154.03711 68.4823 154.75804 69.48534 155.47895 70.31075 156.19988 70.95177 156.92078 71.40367 157.64171 71.6631 158.36266 71.72838 159.08356 71.59735 159.80449 71.2717 160.52542 70.75427 161.24633 70.04987 161.96727 69.16397 162.6882 68.1033 163.4091 66.8767 164.13004 65.49323 164.85099 63.96678 165.57187 62.30786 166.2928 60.53058 167.01372 58.64908 167.73465 56.67929 168.45563 54.63637 169.17649 52.53894 169.89743 50.40207 170.61829 48.24486 171.33925 46.08405 172.06024 43.93689 172.7811 41.82224 173.50208 39.75589 174.2229 37.75551 174.94388 35.83788 175.66484 34.0178 176.38571 32.31108 177.10668 30.73058 177.82755 29.29019 178.54848 28.00046 179.26946 26.8743 179.99033 25.91858 180.71129 25.14197 181.43216 24.55092 182.15312 24.14969 182.87406 23.94238 183.59493 23.93068 184.3159 24.11383 185.03678 24.49063 185.75774 25.05804 186.47869 25.8117 187.19954 26.7459 187.92052 27.85269 188.64138 29.1221 189.36235 30.54433 190.08333 32.10762 190.80419 33.79974 191.52513 35.60641 192.24599 37.51355 192.96697 39.5041 193.68793 41.56305 194.4088 43.67313 195.12973 45.81697 195.8506 47.97656 196.57158 50.13545 197.29254 52.2764 198.01342 54.37933 198.73438 56.42967 199.45522 58.40947 200.17618 60.30249 200.89716 62.09363 201.61803 63.76782 202.33899 65.3127 203.05986 66.7129 203.78083 67.95912 204.50177 69.04108 205.22263 69.94994 205.9436 70.67776 206.66448 71.21814 207.38544 71.56723 208.10639 71.72218 208.82724 71.68176 209.54822 71.44672 210.26908 71.0192 210.99007 70.3999 211.71103 69.5965 212.43186 68.61595 213.15283 67.46513 213.87369 66.15437 214.59467 64.6927 215.31563 63.09282 216.03652 61.3689 216.75743 59.53423 217.4783 57.60345 218.19928 55.59282 218.92024 53.51787 219.64112 51.39746 220.36205 49.2474 221.08292 47.0866 221.80388 44.93083 222.52487 42.79802 223.24573 40.70775 223.96669 38.67442 224.68753 36.71661 225.4085 34.84871 226.12947 33.08792 226.85033 31.44695 227.57132 29.94035 228.29218 28.57983 229.0131 27.37617 229.73409 26.3399 230.45494 25.47932 231.17592 24.80196 231.89678 24.31178 232.61777 24.01459 233.33873 23.91129 234.05957 24.00383 234.78054 24.29146 235.50139 24.7721 236.22237 25.43964 236.94333 26.2911 237.66422 27.31784 238.38513 28.5131 239.106 29.866"/>
<path transform="matrix(1,0,0,-1,16.683999,117.29)" stroke-width=".3985" stroke-linecap="butt" stroke-miterlimit="10" stroke-linejoin="miter" fill="none" stroke="#000000" d="M71.73175 59.77646C82.03738 57.95935 90.41006 56.88373 93.351 51.78993"/>
<path transform="matrix(.49998,.86601,.86601,-.49998,110.03498,65.500049)" d="M3.58653 0C2.52383 .19925 .797 .797-.3985 1.49438V-1.49438C.797-.797 2.52383-.19925 3.58653 0"/>
<use data-text="h" xlink:href="#font_4_63" transform="matrix(9.9626,0,0,-9.9626,30.020997,60.916)"/>
<use data-text="a" xlink:href="#font_4_28" transform="matrix(9.9626,0,0,-9.9626,35.560205,60.916)"/>
<use data-text="m" xlink:href="#font_4_75" transform="matrix(9.9626,0,0,-9.9626,40.541498,60.916)"/>
<use data-text="m" xlink:href="#font_4_75" transform="matrix(9.9626,0,0,-9.9626,48.84034,60.916)"/>
<use data-text="e" xlink:href="#font_4_50" transform="matrix(9.9626,0,0,-9.9626,57.139184,60.916)"/>
<use data-text="r" xlink:href="#font_4_96" transform="matrix(9.9626,0,0,-9.9626,61.562585,60.916)"/>
<use data-text="h" xlink:href="#font_4_63" transform="matrix(9.9626,0,0,-9.9626,68.775508,60.916)"/>
<use data-text="i" xlink:href="#font_4_66" transform="matrix(9.9626,0,0,-9.9626,74.314708,60.916)"/>
<use data-text="t" xlink:href="#font_4_105" transform="matrix(9.9626,0,0,-9.9626,77.08431,60.916)"/>
<use data-text="s" xlink:href="#font_4_98" transform="matrix(9.9626,0,0,-9.9626,80.95977,60.916)"/>
</g>
<use data-text="t" xlink:href="#font_5_1" transform="matrix(9.9626,0,0,-9.9626,269.309,72.526)"/>
<use data-text="y" xlink:href="#font_5_3" transform="matrix(9.9626,0,0,-9.9626,14.062996,6.2089998)"/>
<path transform="matrix(1,0,0,-1,16.683999,117.29)" d="M189.3149 76.59317H234.12342V93.529819H189.3149Z" fill="#ffffff"/>
<path transform="matrix(1,0,0,-1,16.683999,117.29)" stroke-width=".3985" stroke-linecap="butt" stroke-miterlimit="10" stroke-linejoin="miter" fill="none" stroke="#000000" d="M189.3149 76.59317H234.12342V93.529819H189.3149Z"/>
<path transform="matrix(1,0,0,-1,209.386,32.229005)" stroke-width=".79701" stroke-linecap="butt" stroke-miterlimit="10" stroke-linejoin="miter" fill="none" stroke="#0000ff" d="M0 0H8.50412 17.00826"/>
<use data-text="x" xlink:href="#font_5_2" transform="matrix(9.9626,0,0,-9.9626,228.785,35.218004)"/>
<use data-text="(" xlink:href="#font_6_1" transform="matrix(9.9626,0,0,-9.9626,234.479,35.218004)"/>
<use data-text="t" xlink:href="#font_5_1" transform="matrix(9.9626,0,0,-9.9626,238.354,35.218004)"/>
<use data-text=")" xlink:href="#font_6_2" transform="matrix(9.9626,0,0,-9.9626,241.951,35.218004)"/>
</svg>
