<svg xmlns="http://www.w3.org/2000/svg" xmlns:xlink="http://www.w3.org/1999/xlink" version="1.1" width="274" height="198" viewBox="0 0 274 198">
<defs>
<path id="font_1_2" d="M.31399537 .63708499C.31399537 .664032 .31199647 .66503909 .2849884 .66503909 .24398804 .6251831 .19099427 .6013489 .09599304 .6013489V.5683594C.12298584 .5683594 .1769867 .5683594 .23498535 .5953522V.08203125C.23498535 .04499817 .23199463 .032989503 .13699341 .032989503H.101989749V0C.14299011 .0029907227 .22898865 .0029907227 .27398683 .0029907227 .31900025 .0029907227 .4059906 .0029907227 .44699098 0V.032989503H.4119873C.31698609 .032989503 .31399537 .04499817 .31399537 .08203125V.63708499Z"/>
<path id="font_1_3" d="M.28199769 .20405579C.2979889 .21907044 .33999635 .2520752 .35598756 .26608277 .41799928 .32312013 .47698976 .3781433 .47698976 .46917726 .47698976 .588089 .3769989 .66503909 .2519989 .66503909 .13198853 .66503909 .052993776 .57411196 .052993776 .48516847 .052993776 .4361725 .09199524 .4291687 .10598755 .4291687 .1269989 .4291687 .1579895 .4441681 .1579895 .48217774 .1579895 .5341797 .10798645 .5341797 .09599304 .5341797 .125 .6070709 .19198609 .6320343 .24099732 .6320343 .33399964 .6320343 .38198854 .55314639 .38198854 .46917726 .38198854 .36514283 .30899049 .28910829 .19099427 .16804505L.06498718 .037994386C.052993776 .026992798 .052993776 .024993897 .052993776 0H.44799806L.47698976 .17904663H.44599916C.44299317 .1590271 .43499757 .10900879 .4229889 .08999634 .4169922 .08198547 .34098817 .08198547 .32499696 .08198547H.14698792L.28199769 .20405579Z"/>
<path id="font_1_4" d="M.25299073 .33370973C.33198548 .33370973 .38198854 .27557374 .38198854 .17037964 .38198854 .045440675 .31098939 .008514404 .2579956 .008514404 .20298767 .008514404 .12799073 .0284729 .09298706 .08137512 .1289978 .08137512 .1539917 .10437012 .1539917 .13737488 .1539917 .16937256 .1309967 .19238281 .09899902 .19238281 .07199097 .19238281 .04399109 .17536927 .04399109 .13537598 .04399109 .04045105 .1459961-.021484375 .2599945-.021484375 .3929901-.021484375 .48599244 .070388797 .48599244 .17037964 .48599244 .25352479 .41999818 .32969667 .31799317 .3517456 .39698792 .37982179 .45599366 .4479828 .45599366 .52804568 .45599366 .6080475 .3659973 .66503909 .2619934 .66503909 .15499878 .66503909 .07398987 .6070404 .07398987 .53105166 .07398987 .49404908 .09899902 .4780426 .125 .4780426 .1559906 .4780426 .17599488 .5000458 .17599488 .52905276 .17599488 .56604006 .14399719 .5800476 .12199402 .5810547 .1639862 .6360321 .24099732 .6390381 .25898744 .6390381 .2849884 .6390381 .36099244 .6310272 .36099244 .52804568 .36099244 .45799256 .33198548 .41589356 .31799317 .39985658 .28799439 .36878968 .2649994 .36679078 .20399475 .3627777 .18499756 .36177064 .1769867 .36076356 .1769867 .3477478 .1769867 .33370973 .18598938 .33370973 .20298767 .33370973H.25299073Z"/>
<path id="font_1_5" d="M.3939972 .6468048C.3939972 .6667938 .3939972 .6748047 .37298585 .6748047 .3600006 .6748047 .35899354 .6737976 .34899903 .65979006L.02999878 .197052V.1640625H.31199647V.08100891C.31199647 .04399109 .30899049 .032989503 .23199463 .032989503H.20899964V0C.2939911 .0029907227 .29599 .0029907227 .35299684 .0029907227 .4099884 .0029907227 .4119873 .0029907227 .49699403 0V.032989503H.47399903C.39698792 .032989503 .3939972 .04399109 .3939972 .08100891V.1640625H.5V.197052H.3939972V.6468048M.31900025 .5658417V.197052H.06498718L.31900025 .5658417Z"/>
<path id="font_1_6" d="M.13999939 .5618439C.15299988 .55784609 .19299317 .54785159 .23498535 .54785159 .3600006 .54785159 .43598939 .6358948 .43598939 .6510315 .43598939 .6620331 .42900086 .66503909 .42399598 .66503909 .42199708 .66503909 .41999818 .66503909 .41099549 .6600342 .37199403 .6450348 .32598878 .632843 .27198792 .632843 .21299744 .632843 .1639862 .6480255 .1329956 .6600342 .12298584 .66503909 .12098694 .66503909 .11999512 .66503909 .10699463 .66503909 .10699463 .6540375 .10699463 .6358948V.34292604C.10699463 .32492066 .10699463 .312912 .12298584 .312912 .1309967 .312912 .13398743 .3169098 .13899231 .32492066 .15098572 .33992005 .18899536 .39093019 .27398683 .39093019 .32998658 .39093019 .35699464 .34492494 .3659973 .32591249 .3829956 .28990174 .3849945 .24389649 .3849945 .20487976 .3849945 .1678772 .38398744 .11387634 .35598756 .069732669 .33699037 .039611818 .29699708 .008514404 .24398804 .008514404 .1789856 .008514404 .114990238 .0496521 .09199524 .11488342 .09498596 .11387634 .100997928 .11387634 .101989749 .11387634 .12998963 .11387634 .1519928 .13188172 .1519928 .16288758 .1519928 .19989014 .12298584 .21289063 .102996829 .21289063 .084991458 .21289063 .052993776 .20288086 .052993776 .15988159 .052993776 .069732669 .1309967-.021484375 .24598694-.021484375 .37098695-.021484375 .47698976 .07574463 .47698976 .19989014 .47698976 .31591798 .3929901 .4189453 .2749939 .4189453 .22499085 .4189453 .17799378 .40293885 .13999939 .368927V.5618439Z"/>
<path id="font_1_7" d="M.13798523 .33073426C.13798523 .41377259 .14498902 .4868164 .18099976 .54782107 .21099854 .5978241 .2619934 .6390381 .32499696 .6390381 .34498597 .6390381 .3909912 .63601687 .4139862 .60084536 .36898805 .5988312 .36499024 .5648346 .36499024 .553833 .36499024 .5238342 .3880005 .50683596 .4119873 .50683596 .42999269 .50683596 .45899964 .51782229 .45899964 .5558319 .45899964 .615921 .4139862 .66503909 .32398988 .66503909 .18499756 .66503909 .04399109 .53282168 .04399109 .31672669 .04399109 .045532228 .16999817-.021484375 .2669983-.021484375 .31498719-.021484375 .36698915-.0084991459 .4119873 .03453064 .45199586 .07354736 .48599244 .11558533 .48599244 .20263672 .48599244 .33372499 .3869934 .42578126 .27598573 .42578126 .20399475 .42578126 .16099549 .37976075 .13798523 .33073426M.2669983 .008514404C.21398926 .008514404 .18099976 .045532228 .1659851 .07354736 .14299011 .11859131 .14099121 .18663025 .14099121 .22465515 .14099121 .32373048 .19499207 .3977661 .27198792 .3977661 .32199098 .3977661 .35198976 .37176515 .37098695 .33673097 .3919983 .29971314 .3919983 .25468446 .3919983 .2036438 .3919983 .15260315 .3919983 .10858154 .37199403 .07255554 .34599305 .026519776 .31098939 .008514404 .2669983 .008514404Z"/>
<path id="font_1_8" d="M.5059967 .608551C.5149994 .6195526 .5149994 .6215515 .5149994 .6435547H.26098634C.23599243 .6435547 .20498657 .64456179 .17999268 .64660647 .12799073 .65068057 .1269989 .6597748 .12399292 .67578127H.09298706L.05899048 .46453858H.08999634C.09199524 .47953797 .102996829 .54855349 .116989139 .5565491 .12799073 .56155398 .20298767 .56155398 .21798706 .56155398H.42999269L.32699586 .4235382C.21299744 .27153016 .18899536 .11351013 .18899536 .03451538 .18899536 .024505616 .18899536-.021484375 .23599243-.021484375 .2829895-.021484375 .2829895 .023513794 .2829895 .035507204V.08351135C.2829895 .2275238 .30699159 .34553529 .35598756 .41053773L.5059967 .608551Z"/>
<path id="font_1_9" d="M.33198548 .36080934C.3880005 .38783265 .45599366 .4378662 .45599366 .5159302 .45599366 .6110077 .35899354 .66503909 .2659912 .66503909 .1599884 .66503909 .07398987 .59199526 .07398987 .49790956 .07398987 .46089173 .08699036 .42686463 .11199951 .39782716 .1289978 .3768158 .1329956 .3748169 .19499207 .3357849 .070999149 .2807312 .04399109 .20767212 .04399109 .15162659 .04399109 .041534425 .15499878-.021484375 .2639923-.021484375 .3869934-.021484375 .48599244 .061553956 .48599244 .16764832 .48599244 .23069763 .45199586 .2727356 .43598939 .28974916 .4189911 .30575563 .41799928 .3067627 .33198548 .36080934M.1769867 .45487977C.147995 .4718933 .12399292 .5009155 .12399292 .5359497 .12399292 .598999 .19299317 .6390381 .2639923 .6390381 .34199525 .6390381 .4059906 .5859833 .4059906 .5159302 .4059906 .45788575 .36099244 .408844 .3019867 .37982179L.1769867 .45487977M.22599793 .31776429C.22999573 .31576539 .34399415 .24571228 .36099244 .23469544 .3769989 .22569275 .42900086 .19366455 .42900086 .13360596 .42900086 .056549074 .34799195 .008514404 .2659912 .008514404 .1769867 .008514404 .100997928 .06956482 .100997928 .15162659 .100997928 .22668457 .15699768 .28573609 .22599793 .31776429Z"/>
<path id="font_1_10" d="M.3919983 .29478456C.3919983 .050704957 .27598573 .008514404 .21798706 .008514404 .19699097 .008514404 .14498902 .011520386 .117996219 .04270935 .1619873 .046707155 .16499329 .079711917 .16499329 .08970642 .16499329 .1197052 .14199829 .13671875 .117996219 .13671875 .099990848 .13671875 .070999149 .12571717 .070999149 .08770752 .070999149 .019577027 .1269989-.021484375 .21899414-.021484375 .35598756-.021484375 .48599244 .114715579 .48599244 .3287964 .48599244 .58898928 .37098695 .66503909 .2679901 .66503909 .1499939 .66503909 .04399109 .5729828 .04399109 .44187928 .04399109 .31278993 .14099121 .21875 .2539978 .21875 .32499696 .21875 .36799623 .26374818 .3919983 .31478883V.29478456M.2579956 .24674988C.21199036 .24674988 .18299866 .26776124 .16099549 .30477906 .13798523 .34181214 .13798523 .3898468 .13798523 .44088746 .13798523 .4999237 .13798523 .54196169 .16499329 .58299258 .18998719 .61901858 .22200012 .6390381 .2689972 .6390381 .33599855 .6390381 .36499024 .5729828 .36799623 .5679779 .3889923 .51893618 .3899994 .44088746 .3899994 .42086793 .3899994 .34181214 .34700013 .24674988 .2579956 .24674988Z"/>
<path id="font_1_1" d="M.4889984 .31877137C.4889984 .42585755 .47799684 .49090577 .44499208 .55496218 .40098573 .6430359 .31999208 .66503909 .2649994 .66503909 .13899231 .66503909 .09298706 .5709839 .07899475 .5429535 .042999269 .4698944 .040985109 .3708191 .040985109 .31877137 .040985109 .25271607 .04399109 .15162659 .09199524 .07156372 .13798523-.0024871827 .21199036-.021484375 .2649994-.021484375 .31298829-.021484375 .39898683-.0064849855 .44898988 .09257507 .48599244 .16464234 .4889984 .2537079 .4889984 .31877137M.2649994 .006515503C.23098755 .006515503 .1619873 .022521973 .14099121 .12760926 .12998963 .18466187 .12998963 .2787323 .12998963 .33078004 .12998963 .3998413 .12998963 .4698944 .14099121 .5249481 .1619873 .6270294 .23999024 .6370239 .2649994 .6370239 .29899598 .6370239 .36799623 .62002566 .3880005 .5289459 .3999939 .4738922 .3999939 .39883424 .3999939 .33078004 .3999939 .27172853 .3999939 .18165589 .3880005 .12561035 .36698915 .020523072 .2979889 .006515503 .2649994 .006515503Z"/>
<path id="font_2_1" d="M.69898989 .22743225C.71499636 .22743225 .7369995 .22743225 .7369995 .25042726 .7369995 .2734375 .71499636 .2734375 .69898989 .2734375H.12599182C.10998535 .2734375 .08799744 .2734375 .08799744 .25042726 .08799744 .22743225 .10998535 .22743225 .12599182 .22743225H.69898989Z"/>
<clipPath id="clip_3">
<path transform="matrix(1.00005,0,0,-1,16.684136,187.097)" d="M0 0H239.10584V167.37409H0Z"/>
</clipPath>
<path id="font_4_1" d="M.20599365 .3996582H.2999878C.31999208 .3996582 .32998658 .3996582 .32998658 .41966249 .32998658 .43066407 .31999208 .43066407 .3019867 .43066407H.21398926C.25 .5724945 .25498963 .59246829 .25498963 .59846499 .25498963 .61546328 .24299622 .62545779 .22599793 .62545779 .22299195 .62545779 .19499207 .62446597 .18598938 .58947756L.14698792 .43066407H.052993776C.032989503 .43066407 .022994996 .43066407 .022994996 .4116516 .022994996 .3996582 .0309906 .3996582 .050994874 .3996582H.13899231C.066986087 .11608887 .06298828 .099121097 .06298828 .08114624 .06298828 .02722168 .100997928-.0107421879 .15499878-.0107421879 .25698854-.0107421879 .31399537 .13505554 .31399537 .14305115 .31399537 .1530304 .30599977 .1530304 .3019867 .1530304 .29299928 .1530304 .2919922 .15003968 .2869873 .13905335 .24398804 .035217287 .19099427 .011245728 .15699768 .011245728 .13598633 .011245728 .12599182 .024230957 .12599182 .057174684 .12599182 .08114624 .12799073 .088134769 .13198853 .10510254L.20599365 .3996582Z"/>
<path id="font_4_2" d="M.33399964 .30233766C.33999635 .32835389 .36299134 .42037965 .43299867 .42037965 .43798829 .42037965 .46199037 .42037965 .48298646 .40734864 .45498658 .402359 .43499757 .37734986 .43499757 .35334779 .43499757 .33735658 .44599916 .31835938 .47299195 .31835938 .49499513 .31835938 .5269928 .3363495 .5269928 .37635804 .5269928 .42837525 .46798707 .4423828 .43399049 .4423828 .37599183 .4423828 .34098817 .38935853 .32899476 .36634828 .3039856 .43237306 .25 .4423828 .22099304 .4423828 .116989139 .4423828 .05999756 .3133545 .05999756 .28834535 .05999756 .27833558 .069992069 .27833558 .07199097 .27833558 .07998657 .27833558 .08299255 .28033448 .084991458 .28933717 .11898804 .39535523 .18499756 .42037965 .21899414 .42037965 .23799134 .42037965 .272995 .4113617 .272995 .35334779 .272995 .32235719 .2559967 .25532533 .21899414 .11528015 .20298767 .053268434 .16799927 .011245728 .12399292 .011245728 .117996219 .011245728 .09498596 .011245728 .07398987 .024276734 .09899902 .029266358 .12098694 .05027771 .12098694 .07827759 .12098694 .105270389 .09899902 .11328125 .083999637 .11328125 .053985597 .11328125 .0289917 .08728027 .0289917 .055267335 .0289917 .009246826 .07899475-.0107421879 .12298584-.0107421879 .18899536-.0107421879 .22499085 .059280397 .22799683 .0652771 .23999024 .028274537 .27598573-.0107421879 .33599855-.0107421879 .43899537-.0107421879 .49598695 .118270877 .49598695 .14328003 .49598695 .1532898 .4869995 .1532898 .48399354 .1532898 .47499085 .1532898 .47299195 .14929199 .47099305 .14228821 .43798829 .03527832 .36999513 .011245728 .33799745 .011245728 .29899598 .011245728 .2829895 .043273927 .2829895 .07727051 .2829895 .09927368 .2889862 .121276859 .2999878 .16529846L.33399964 .30233766Z"/>
<path id="font_5_1" d="M.33099366-.2400055C.33099366-.23701477 .33099366-.23500061 .31399537-.21800232 .18899536-.0920105 .15699768 .09700012 .15699768 .25 .15699768 .42399598 .19499207 .59799197 .31799317 .72299197 .33099366 .73498538 .33099366 .7369995 .33099366 .73999026 .33099366 .746994 .32699586 .75 .32099916 .75 .31098939 .75 .22099304 .6819916 .1619873 .5549927 .11099243 .44499208 .09899902 .33399964 .09899902 .25 .09899902 .17199707 .10998535 .050994874 .16499329-.06201172 .22499085-.18501282 .31098939-.25 .32099916-.25 .32699586-.25 .33099366-.24700928 .33099366-.2400055Z"/>
<path id="font_5_2" d="M.2889862 .25C.2889862 .32798768 .27799989 .44898988 .22299195 .56199648 .16299439 .68499758 .07699585 .75 .066986087 .75 .06098938 .75 .056991579 .74598696 .056991579 .73999026 .056991579 .7369995 .056991579 .73498538 .07598877 .71699526 .17399597 .6179962 .23098755 .45899964 .23098755 .25 .23098755 .07899475 .19400025-.09700012 .069992069-.2230072 .056991579-.23500061 .056991579-.23701477 .056991579-.2400055 .056991579-.2460022 .06098938-.25 .066986087-.25 .07699585-.25 .16699219-.18200684 .22599793-.055007936 .2769928 .054992677 .2889862 .16600037 .2889862 .25Z"/>
</defs>
<path transform="matrix(1.00005,0,0,-1,16.684136,187.097)" stroke-width=".09962" stroke-linecap="butt" stroke-miterlimit="10" stroke-linejoin="miter" fill="none" stroke="#e0e0e0" d="M5.97765 0V167.37409M17.93294 0V167.37409M29.88823 0V167.37409M41.84352 0V167.37409M53.79881 0V167.37409M65.7541 0V167.37409M77.7094 0V167.37409M89.66469 0V167.37409M101.61998 0V167.37409M113.57527 0V167.37409M125.53056 0V167.37409M137.48586 0V167.37409M149.44115 0V167.37409M161.39644 0V167.37409M173.35173 0V167.37409M185.30702 0V167.37409M197.26232 0V167.37409M209.2176 0V167.37409M221.1729 0V167.37409M233.12819 0V167.37409"/>
<path transform="matrix(1.00005,0,0,-1,16.684136,187.097)" stroke-width=".19925" stroke-linecap="butt" stroke-miterlimit="10" stroke-linejoin="miter" fill="none" stroke="#c0c0c0" d="M11.95529 0V167.37409M23.91058 0V167.37409M35.86588 0V167.37409M47.82117 0V167.37409M59.77646 0V167.37409M71.73175 0V167.37409M83.68704 0V167.37409M95.64233 0V167.37409M107.59763 0V167.37409M119.55292 0V167.37409M131.50821 0V167.37409M143.4635 0V167.37409M155.4188 0V167.37409M167.37409 0V167.37409M179.32938 0V167.37409M191.28467 0V167.37409M203.23996 0V167.37409M215.19525 0V167.37409M227.15055 0V167.37409M239.10584 0V167.37409"/>
<path transform="matrix(1.00005,0,0,-1,16.684136,187.097)" stroke-width=".09962" stroke-linecap="butt" stroke-miterlimit="10" stroke-linejoin="miter" fill="none" stroke="#e0e0e0" d="M0 5.97765H239.10584M0 17.93294H239.10584M0 29.88823H239.10584M0 41.84352H239.10584M0 53.79881H239.10584M0 65.7541H239.10584M0 77.7094H239.10584M0 89.66469H239.10584M0 101.61998H239.10584M0 113.57527H239.10584M0 125.53056H239.10584M0 137.48586H239.10584M0 149.44115H239.10584M0 161.39644H239.10584"/>
<path transform="matrix(1.00005,0,0,-1,16.684136,187.097)" stroke-width=".19925" stroke-linecap="butt" stroke-miterlimit="10" stroke-linejoin="miter" fill="none" stroke="#c0c0c0" d="M0 0H239.10584M0 11.95529H239.10584M0 23.91058H239.10584M0 35.86588H239.10584M0 47.82117H239.10584M0 59.77646H239.10584M0 71.73175H239.10584M0 95.64233H239.10584M0 107.59763H239.10584M0 119.55292H239.10584M0 131.50821H239.10584M0 143.4635H239.10584M0 155.4188H239.10584M0 167.37409H239.10584"/>
<path transform="matrix(1.00005,0,0,-1,16.684136,187.097)" stroke-width=".19925" stroke-linecap="butt" stroke-miterlimit="10" stroke-linejoin="miter" fill="none" stroke="#929292" d="M5.97765 82.26935V85.10472M17.93294 82.26935V85.10472M29.88823 82.26935V85.10472M41.84352 82.26935V85.10472M53.79881 82.26935V85.10472M65.7541 82.26935V85.10472M77.7094 82.26935V85.10472M89.66469 82.26935V85.10472M101.61998 82.26935V85.10472M113.57527 82.26935V85.10472M125.53056 82.26935V85.10472M137.48586 82.26935V85.10472M149.44115 82.26935V85.10472M161.39644 82.26935V85.10472M173.35173 82.26935V85.10472M185.30702 82.26935V85.10472M197.26232 82.26935V85.10472M209.2176 82.26935V85.10472M221.1729 82.26935V85.10472M233.12819 82.26935V85.10472"/>
<path transform="matrix(1.00005,0,0,-1,16.684136,187.097)" stroke-width=".19925" stroke-linecap="butt" stroke-miterlimit="10" stroke-linejoin="miter" fill="none" stroke="#929292" d="M11.95529 81.5607V85.81335M23.91058 81.5607V85.81335M35.86588 81.5607V85.81335M47.82117 81.5607V85.81335M59.77646 81.5607V85.81335M71.73175 81.5607V85.81335M83.68704 81.5607V85.81335M95.64233 81.5607V85.81335M107.59763 81.5607V85.81335M119.55292 81.5607V85.81335M131.50821 81.5607V85.81335M143.4635 81.5607V85.81335M155.4188 81.5607V85.81335M167.37409 81.5607V85.81335M179.32938 81.5607V85.81335M191.28467 81.5607V85.81335M203.23996 81.5607V85.81335M215.19525 81.5607V85.81335M227.15055 81.5607V85.81335M239.10584 81.5607V85.81335"/>
<path transform="matrix(1.00005,0,0,-1,16.684136,187.097)" stroke-width=".19925" stroke-linecap="butt" stroke-miterlimit="10" stroke-linejoin="miter" fill="none" stroke="#929292" d="M-1.41766 5.97765H1.41768M-1.41766 17.93294H1.41768M-1.41766 29.88823H1.41768M-1.41766 41.84352H1.41768M-1.41766 53.79881H1.41768M-1.41766 65.7541H1.41768M-1.41766 77.7094H1.41768M-1.41766 89.66469H1.41768M-1.41766 101.61998H1.41768M-1.41766 113.57527H1.41768M-1.41766 125.53056H1.41768M-1.41766 137.48586H1.41768M-1.41766 149.44115H1.41768M-1.41766 161.39644H1.41768"/>
<path transform="matrix(1.00005,0,0,-1,16.684136,187.097)" stroke-width=".19925" stroke-linecap="butt" stroke-miterlimit="10" stroke-linejoin="miter" fill="none" stroke="#929292" d="M-2.12631 0H2.12631M-2.12631 11.95529H2.12631M-2.12631 23.91058H2.12631M-2.12631 35.86588H2.12631M-2.12631 47.82117H2.12631M-2.12631 59.77646H2.12631M-2.12631 71.73175H2.12631M-2.12631 95.64233H2.12631M-2.12631 107.59763H2.12631M-2.12631 119.55292H2.12631M-2.12631 131.50821H2.12631M-2.12631 143.4635H2.12631M-2.12631 155.4188H2.12631M-2.12631 167.37409H2.12631"/>
<path transform="matrix(1.00005,0,0,-1,16.684136,187.097)" stroke-width=".3985" stroke-linecap="butt" stroke-miterlimit="10" stroke-linejoin="miter" fill="none" stroke="#000000" d="M-6.37622 83.68704H245.48206"/>
<path transform="matrix(-1.00005,-0,0,1,10.307596,103.40996)" d="M3.58653 0C2.52383 .19925 .797 .797-.3985 1.49438V-1.49438C.797-.797 2.52383-.19925 3.58653 0"/>
<path transform="matrix(1.00005,0,0,-1,262.17848,103.40996)" d="M3.58653 0C2.52383 .19925 .797 .797-.3985 1.49438V-1.49438C.797-.797 2.52383-.19925 3.58653 0"/>
<path transform="matrix(1.00005,0,0,-1,16.684136,187.097)" stroke-width=".3985" stroke-linecap="butt" stroke-miterlimit="10" stroke-linejoin="miter" fill="none" stroke="#000000" d="M0-6.37622V173.7503"/>
<path transform="matrix(0,1,1.00005,0,16.684136,193.47322)" d="M3.58653 0C2.52383 .19925 .797 .797-.3985 1.49438V-1.49438C.797-.797 2.52383-.19925 3.58653 0"/>
<path transform="matrix(0,-1,-1.00005,-0,16.684136,13.346695)" d="M3.58653 0C2.52383 .19925 .797 .797-.3985 1.49438V-1.49438C.797-.797 2.52383-.19925 3.58653 0"/>
<use data-text="1" xlink:href="#font_1_2" transform="matrix(7.970498,0,0,-7.9701,26.522629,114.192)"/>
<use data-text="2" xlink:href="#font_1_3" transform="matrix(7.970498,0,0,-7.9701,38.478227,114.192)"/>
<use data-text="3" xlink:href="#font_1_4" transform="matrix(7.970498,0,0,-7.9701,50.434823,114.192)"/>
<use data-text="4" xlink:href="#font_1_5" transform="matrix(7.970498,0,0,-7.9701,62.390417,114.192)"/>
<use data-text="5" xlink:href="#font_1_6" transform="matrix(7.970498,0,0,-7.9701,74.346019,114.192)"/>
<use data-text="6" xlink:href="#font_1_7" transform="matrix(7.970498,0,0,-7.9701,86.30261,114.192)"/>
<use data-text="7" xlink:href="#font_1_8" transform="matrix(7.970498,0,0,-7.9701,98.25821,114.192)"/>
<use data-text="8" xlink:href="#font_1_9" transform="matrix(7.970498,0,0,-7.9701,110.213809,114.192)"/>
<use data-text="9" xlink:href="#font_1_10" transform="matrix(7.970498,0,0,-7.9701,122.17041,114.192)"/>
<use data-text="1" xlink:href="#font_1_2" transform="matrix(7.970498,0,0,-7.9701,132.0089,114.192)"/>
<use data-text="0" xlink:href="#font_1_1" transform="matrix(7.970498,0,0,-7.9701,136.24124,114.192)"/>
<use data-text="1" xlink:href="#font_1_2" transform="matrix(7.970498,0,0,-7.9701,143.9645,114.192)"/>
<use data-text="1" xlink:href="#font_1_2" transform="matrix(7.970498,0,0,-7.9701,148.19684,114.192)"/>
<use data-text="1" xlink:href="#font_1_2" transform="matrix(7.970498,0,0,-7.9701,155.9201,114.192)"/>
<use data-text="2" xlink:href="#font_1_3" transform="matrix(7.970498,0,0,-7.9701,160.15244,114.192)"/>
<use data-text="1" xlink:href="#font_1_2" transform="matrix(7.970498,0,0,-7.9701,167.87668,114.192)"/>
<use data-text="3" xlink:href="#font_1_4" transform="matrix(7.970498,0,0,-7.9701,172.10903,114.192)"/>
<use data-text="1" xlink:href="#font_1_2" transform="matrix(7.970498,0,0,-7.9701,179.83228,114.192)"/>
<use data-text="4" xlink:href="#font_1_5" transform="matrix(7.970498,0,0,-7.9701,184.06462,114.192)"/>
<use data-text="1" xlink:href="#font_1_2" transform="matrix(7.970498,0,0,-7.9701,191.78787,114.192)"/>
<use data-text="5" xlink:href="#font_1_6" transform="matrix(7.970498,0,0,-7.9701,196.02022,114.192)"/>
<use data-text="1" xlink:href="#font_1_2" transform="matrix(7.970498,0,0,-7.9701,203.74347,114.192)"/>
<use data-text="6" xlink:href="#font_1_7" transform="matrix(7.970498,0,0,-7.9701,207.97582,114.192)"/>
<use data-text="1" xlink:href="#font_1_2" transform="matrix(7.970498,0,0,-7.9701,215.70008,114.192)"/>
<use data-text="7" xlink:href="#font_1_8" transform="matrix(7.970498,0,0,-7.9701,219.9324,114.192)"/>
<use data-text="1" xlink:href="#font_1_2" transform="matrix(7.970498,0,0,-7.9701,227.65567,114.192)"/>
<use data-text="8" xlink:href="#font_1_9" transform="matrix(7.970498,0,0,-7.9701,231.88802,114.192)"/>
<use data-text="1" xlink:href="#font_1_2" transform="matrix(7.970498,0,0,-7.9701,239.61127,114.192)"/>
<use data-text="9" xlink:href="#font_1_10" transform="matrix(7.970498,0,0,-7.9701,243.84362,114.192)"/>
<use data-text="2" xlink:href="#font_1_3" transform="matrix(7.970498,0,0,-7.9701,251.56787,114.192)"/>
<use data-text="0" xlink:href="#font_1_1" transform="matrix(7.970498,0,0,-7.9701,255.8002,114.192)"/>
<use data-text="&#x2212;" xlink:href="#font_2_1" transform="matrix(7.970498,0,0,-7.9701,.21631623,189.25)"/>
<use data-text="7" xlink:href="#font_1_8" transform="matrix(7.970498,0,0,-7.9701,6.8036348,189.25)"/>
<use data-text="&#x2212;" xlink:href="#font_2_1" transform="matrix(7.970498,0,0,-7.9701,.21631623,177.295)"/>
<use data-text="6" xlink:href="#font_1_7" transform="matrix(7.970498,0,0,-7.9701,6.8036348,177.295)"/>
<use data-text="&#x2212;" xlink:href="#font_2_1" transform="matrix(7.970498,0,0,-7.9701,.21631623,165.339)"/>
<use data-text="5" xlink:href="#font_1_6" transform="matrix(7.970498,0,0,-7.9701,6.8036348,165.339)"/>
<use data-text="&#x2212;" xlink:href="#font_2_1" transform="matrix(7.970498,0,0,-7.9701,.21631623,153.384)"/>
<use data-text="4" xlink:href="#font_1_5" transform="matrix(7.970498,0,0,-7.9701,6.8036348,153.384)"/>
<use data-text="&#x2212;" xlink:href="#font_2_1" transform="matrix(7.970498,0,0,-7.9701,.21631623,141.429)"/>
<use data-text="3" xlink:href="#font_1_4" transform="matrix(7.970498,0,0,-7.9701,6.8036348,141.429)"/>
<use data-text="&#x2212;" xlink:href="#font_2_1" transform="matrix(7.970498,0,0,-7.9701,.21631623,129.474)"/>
<use data-text="2" xlink:href="#font_1_3" transform="matrix(7.970498,0,0,-7.9701,6.8036348,129.474)"/>
<use data-text="&#x2212;" xlink:href="#font_2_1" transform="matrix(7.970498,0,0,-7.9701,.21631623,117.518)"/>
<use data-text="1" xlink:href="#font_1_2" transform="matrix(7.970498,0,0,-7.9701,6.8036348,117.518)"/>
<use data-text="1" xlink:href="#font_1_2" transform="matrix(7.970498,0,0,-7.9701,6.8036425,94.023)"/>
<use data-text="2" xlink:href="#font_1_3" transform="matrix(7.970498,0,0,-7.9701,6.8036425,82.068)"/>
<use data-text="3" xlink:href="#font_1_4" transform="matrix(7.970498,0,0,-7.9701,6.8036425,70.112)"/>
<use data-text="4" xlink:href="#font_1_5" transform="matrix(7.970498,0,0,-7.9701,6.8036425,58.156999)"/>
<use data-text="5" xlink:href="#font_1_6" transform="matrix(7.970498,0,0,-7.9701,6.8036425,46.201997)"/>
<use data-text="6" xlink:href="#font_1_7" transform="matrix(7.970498,0,0,-7.9701,6.8036425,34.246004)"/>
<use data-text="7" xlink:href="#font_1_8" transform="matrix(7.970498,0,0,-7.9701,6.8036425,22.291)"/>
<g clip-path="url(#clip_3)">
<path transform="matrix(1.00005,0,0,-1,16.684136,187.097)" stroke-width=".79701" stroke-linecap="butt" stroke-miterlimit="10" stroke-linejoin="miter" fill="none" stroke="#0000ff" d="M0 95.64233C0 95.64233 .8681 93.83685 1.2015 93.1045 1.53493 92.37216 2.06964 91.13892 2.40305 90.36406 2.73645 89.58922 3.27116 88.30988 3.60458 87.51988 3.93799 86.72987 4.4727 85.44922 4.8061 84.67024 5.13953 83.89127 5.67422 82.6493 6.00763 81.90544 6.34105 81.16158 6.87576 79.99608 7.20917 79.30893 7.54257 78.62178 8.07729 77.56496 8.4107 76.95291 8.74411 76.34087 9.27882 75.41986 9.61223 74.89769 9.94565 74.37552 10.48036 73.61073 10.81377 73.18944 11.14717 72.76813 11.68187 72.17422 12.01529 71.86113 12.3487 71.54803 12.8834 71.134 13.21683 70.93274 13.55023 70.73149 14.08495 70.4999 14.41835 70.41055 14.75177 70.32121 15.28648 70.26929 15.61989 70.28876 15.9533 70.30823 16.488 70.42839 16.82143 70.55096 17.15483 70.67354 17.68953 70.9547 18.02293 71.1722 18.35635 71.38968 18.89107 71.81618 19.22447 72.11852 19.55789 72.42085 20.0926 72.97548 20.42601 73.3513 20.75941 73.72713 21.29413 74.39043 21.62755 74.82729 21.96095 75.26414 22.49567 76.01501 22.82907 76.49991 23.16249 76.9848 23.69719 77.80249 24.0306 78.32213 24.364 78.84178 24.89873 79.70409 25.23213 80.24522 25.56554 80.78638 26.10025 81.67274 26.43367 82.2224 26.76707 82.77206 27.30179 83.66135 27.6352 84.2068 27.96861 84.75227 28.50333 85.62439 28.83673 86.15376 29.17014 86.68315 29.70483 87.52034 30.03825 88.02225 30.37166 88.52415 30.90637 89.3076 31.23979 89.77118 31.5732 90.23477 32.10791 90.94823 32.44131 91.36353 32.77473 91.77884 33.30945 92.40651 33.64285 92.76442 33.97626 93.12234 34.51097 93.65103 34.84439 93.94319 35.1778 94.23534 35.7125 94.65111 36.0459 94.87006 36.37932 95.08899 36.91403 95.38184 37.24744 95.52124 37.58086 95.66064 38.11557 95.82 38.44897 95.8748 38.78238 95.92958 39.3171 95.94963 39.65051 95.91621 39.98392 95.88281 40.51863 95.75766 40.85204 95.6339 41.18546 95.51012 41.72015 95.23843 42.05356 95.02406 42.38696 94.80968 42.92168 94.39186 43.2551 94.08871 43.5885 93.78557 44.12321 93.22697 44.45663 92.83914 44.79004 92.45131 45.32475 91.75946 45.65816 91.29346 45.99158 90.82745 46.52629 90.01563 46.8597 89.48053 47.1931 88.94543 47.7278 88.0295 48.06122 87.43681 48.39462 86.84413 48.92934 85.84508 49.26274 85.20888 49.59616 84.57268 50.13087 83.51477 50.46428 82.85141 50.7977 82.18806 51.33241 81.09984 51.66582 80.42784 51.99922 79.75583 52.53394 78.66867 52.86736 78.008 53.20076 77.34734 53.73546 76.29439 54.06886 75.66615 54.40228 75.03792 54.937 74.05406 55.2704 73.48003 55.6038 72.906 56.13853 72.0275 56.47194 71.52893 56.80534 71.03036 57.34006 70.28955 57.67348 69.88663 58.00688 69.48372 58.5416 68.91379 58.875 68.62495 59.20842 68.33614 59.74312 67.96385 60.07652 67.80498 60.40993 67.6461 60.94464 67.49657 61.27806 67.47987 61.61147 67.46318 62.14618 67.55124 62.4796 67.6846 62.813 67.81795 63.34772 68.1543 63.68112 68.44098 64.01454 68.72768 64.54926 69.3131 64.88266 69.75095 65.21606 70.18878 65.75076 71.01558 66.08418 71.59676 66.41759 72.17792 66.9523 73.22856 67.2857 73.9397 67.61913 74.65083 68.15384 75.90012 68.48724 76.72217 68.82066 77.54424 69.35538 78.9558 69.68878 79.86458 70.02219 80.77335 70.5569 82.30518 70.89032 83.27203 71.22372 84.23889 71.75842 85.8407 72.09183 86.83313 72.42525 87.82556 72.95996 89.44196 73.29337 90.4248 73.62677 91.40767 74.16148 92.9804 74.4949 93.91689 74.82831 94.8534 75.36302 96.32083 75.69644 97.17456 76.02985 98.02829 76.56456 99.33435 76.89796 100.06999 77.23138 100.80563 77.76608 101.8917 78.09949 102.4766 78.43289 103.0615 78.9676 103.8797 79.30103 104.28552 79.63443 104.69133 80.16914 105.19745 80.50255 105.40146 80.83597 105.60547 81.37068 105.76967 81.70409 105.7559 82.0375 105.74213 82.57222 105.54222 82.90562 105.3022 83.23903 105.06218 83.77373 104.49197 84.10715 104.02592 84.44055 103.55988 84.97527 102.62646 85.30867 101.94316 85.64209 101.25987 86.1768 99.98415 86.51021 99.10107 86.84361 98.21802 87.37834 96.63513 87.71175 95.57854 88.04515 94.52194 88.57986 92.68188 88.91328 91.48576 89.24669 90.28963 89.78139 88.25258 90.11479 86.95772 90.44821 85.66284 90.98293 83.50058 91.31633 82.1532 91.64973 80.80582 92.18445 78.59648 92.51787 77.24669 92.85127 75.89688 93.38599 73.72475 93.7194 72.42471 94.05281 71.12466 94.58752 69.07518 94.92093 67.87685 95.25435 66.6785 95.78905 64.83463 96.12245 63.78783 96.45586 62.74103 96.99057 61.18156 97.32399 60.33221 97.6574 59.48286 98.19211 58.27856 98.52551 57.66626 98.85893 57.05396 99.39365 56.26268 99.72705 55.91905 100.06047 55.57542 100.59518 55.24252 100.92859 55.18964 101.262 55.13675 101.79669 55.28862 102.13011 55.53781 102.46352 55.787 102.99823 56.4347 103.33163 56.98572 103.66505 57.53674 104.19977 58.66861 104.53317 59.50926 104.86658 60.34991 105.40129 61.9384 105.73471 63.04457 106.06812 64.15074 106.60283 66.14545 106.93625 67.48178 107.26965 68.81813 107.80435 71.15514 108.13776 72.67603 108.47118 74.19693 109.00589 76.79253 109.3393 78.44339 109.6727 80.09424 110.20741 82.85446 110.54083 84.5743 110.87424 86.29413 111.40895 89.11603 111.74236 90.83878 112.07578 92.56152 112.61049 95.33267 112.9439 96.99077 113.27731 98.64886 113.81201 101.26285 114.14542 102.78925 114.47882 104.31564 115.01353 106.66153 115.34695 107.9921 115.68036 109.32266 116.21507 111.30229 116.54848 112.37915 116.8819 113.456 117.41661 114.9795 117.75002 115.7533 118.08342 116.5271 118.61815 117.524 118.95155 117.95619 119.28496 118.38837 119.81964 118.8038 120.15308 118.86813 120.4865 118.93248 121.02127 118.7354 121.35468 118.4199 121.6881 118.10442 122.22267 117.2867 122.55608 116.59427 122.88948 115.90186 123.42429 114.48079 123.7577 113.42938 124.09111 112.37799 124.6257 110.39418 124.95912 109.01648 125.29253 107.63878 125.82729 105.15724 126.16072 103.49992 126.49417 101.8426 127.02893 98.9495 127.36234 97.07158 127.69574 95.19365 128.23032 91.99443 128.56374 89.96521 128.89714 87.93599 129.43195 84.54968 129.76535 82.44629 130.09877 80.34291 130.63336 76.90112 130.96677 74.8054 131.30019 72.70969 131.83495 69.34627 132.16838 67.34177 132.50182 65.33727 133.03658 62.18968 133.37 60.35832 133.7034 58.52698 134.23798 55.72389 134.57138 54.14262 134.9048 52.56137 135.4396 50.22412 135.77301 48.96161 136.10642 47.6991 136.641 45.92964 136.97443 45.04332 137.30783 44.157 137.84259 43.04025 138.17604 42.57361 138.50948 42.10695 139.04424 41.69894 139.37764 41.67993 139.71106 41.6609 140.24564 41.99759 140.57904 42.43645 140.91245 42.87532 141.44725 43.95389 141.78067 44.84303 142.11408 45.73218 142.64867 47.53139 142.98207 48.84482 143.31549 50.15825 143.85025 52.61519 144.18369 54.30943 144.51714 56.0037 145.0519 59.04053 145.3853 61.05577 145.7187 63.07103 146.25328 66.57182 146.5867 68.834 146.9201 71.09618 147.45491 74.93622 147.78832 77.36002 148.12174 79.78381 148.65633 83.81108 148.98973 86.30313 149.32314 88.79518 149.85791 92.85907 150.19135 95.32103 150.52478 97.78299 151.05954 101.71501 151.39296 104.04723 151.72637 106.37944 152.26094 110.02274 152.59435 112.13002 152.92777 114.23729 153.46257 117.44154 153.79598 119.23509 154.12938 121.02866 154.66397 123.65477 154.99739 125.05682 155.3308 126.45886 155.86556 128.39342 156.199 129.34015 156.53244 130.28687 157.0672 131.43532 157.4006 131.88019 157.73403 132.32508 158.2686 132.63028 158.602 132.54648 158.93541 132.46269 159.47022 131.89536 159.80364 131.2762 160.13704 130.65706 160.67163 129.2238 161.00504 128.08402 161.33846 126.94423 161.87322 124.68533 162.20665 123.06136 162.5401 121.4374 163.07486 118.43106 163.40827 116.37953 163.74167 114.32799 164.27625 110.68013 164.60967 108.27525 164.94307 105.87038 165.47788 101.715 165.81128 99.04683 166.1447 96.37865 166.67929 91.87393 167.0127 89.04482 167.3461 86.2157 167.88086 81.53558 168.21431 78.65651 168.54775 75.77742 169.0825 71.10873 169.41593 68.29436 169.74933 65.48 170.2839 61.00867 170.61731 58.37238 170.95073 55.7361 171.48554 51.6425 171.81894 49.29381 172.15235 46.94511 172.68694 43.40697 173.02036 41.44458 173.35376 39.48221 173.88852 36.64153 174.22196 35.15034 174.5554 33.65916 175.09017 31.64911 175.42357 30.69713 175.75699 29.74516 176.29157 28.6546 176.62497 28.28914 176.95838 27.92369 177.49318 27.8182 177.8266 28.06311 178.16 28.308 178.6946 29.19864 179.028 30.0542 179.36142 30.90974 179.89618 32.7874 180.22962 34.22934 180.56305 35.67128 181.09781 38.46742 181.43123 40.4467 181.76464 42.42596 182.29921 46.04869 182.63263 48.49463 182.96604 50.94057 183.50084 55.25389 183.83425 58.07535 184.16767 60.8968 184.70226 65.74031 185.03566 68.82971 185.36907 71.91913 185.90383 77.10406 186.23728 80.34167 186.57071 83.57928 187.10547 88.90642 187.43888 92.16425 187.7723 95.42209 188.30687 100.67404 188.64028 103.82187 188.9737 106.9697 189.5085 111.94212 189.8419 114.85164 190.17531 117.76115 190.7099 122.24142 191.04332 124.79178 191.37673 127.34212 191.91149 131.14873 192.24492 133.23279 192.57837 135.31687 193.11313 138.28588 193.44654 139.81233 193.77994 141.33879 194.31453 143.33513 194.64794 144.23447 194.98134 145.1338 195.51615 146.06708 195.84957 146.2942 196.18297 146.52135 196.71756 146.33544 197.05097 145.87155 197.38439 145.40766 197.91915 144.09719 198.25258 142.95075 198.58602 141.8043 199.12078 139.40117 199.4542 137.60875 199.7876 135.81633 200.32218 132.40755 200.6556 130.03215 200.989 127.65675 201.5238 123.35994 201.85721 120.48848 202.19063 117.61703 202.72522 112.59555 203.05863 109.33665 203.39203 106.07776 203.92679 100.52129 204.26024 97.00061 204.59368 93.47993 205.12844 87.60579 205.46184 83.96205 205.79526 80.31833 206.32984 74.36143 206.66324 70.73912 206.99666 67.1168 207.53147 61.31015 207.86487 57.85492 208.19828 54.39969 208.73287 48.9824 209.06629 45.83615 209.39969 42.68988 209.93445 37.88603 210.26789 35.1788 210.60134 32.47157 211.1361 28.47763 211.4695 26.32428 211.8029 24.17094 212.3375 21.1644 212.6709 19.65898 213.0043 18.15355 213.53911 16.26213 213.87253 15.47426 214.20594 14.68639 214.74053 14.01004 215.07393 13.98053 215.40735 13.95103 215.94211 14.5217 216.27555 15.26155 216.60898 16.0014 217.14374 17.82367 217.47716 19.31296 217.81056 20.80223 218.34514 23.80687 218.67856 25.99525 219.01197 28.18364 219.54677 32.27654 219.88018 35.0854 220.2136 37.89427 220.74819 42.91632 221.08159 46.23969 221.415 49.56305 221.94976 55.3274 222.2832 59.03793 222.61664 62.74849 223.1514 69.02887 223.4848 72.98276 223.81822 76.93666 224.3528 83.4941 224.6862 87.53496 225.01963 91.57582 225.55443 98.14136 225.88784 102.1066 226.22124 106.07185 226.75583 112.38332 227.08925 116.11375 227.42266 119.84418 227.95742 125.65045 228.29085 128.99303 228.6243 132.33559 229.15906 137.38993 229.49246 140.20475 229.82587 143.01955 230.36045 147.11287 230.69387 149.28028 231.02727 151.44768 231.56208 154.40113 231.8955 155.82593 232.2289 157.25074 232.76349 158.93325 233.0969 159.54938 233.43032 160.16551 233.96508 160.49333 234.29851 160.26662 234.63195 160.03992 235.1667 158.98595 235.50012 157.91533 235.83353 156.84471 236.3681 154.43189 236.7015 152.55034 237.03493 150.6688 237.56974 146.98003 237.90314 144.35433 238.23656 141.72863 239.10456 133.62609 239.10456 133.62609"/>
</g>
<use data-text="t" xlink:href="#font_4_1" transform="matrix(9.963098,0,0,-9.9626,269.33576,106.456)"/>
<use data-text="x" xlink:href="#font_4_2" transform="matrix(9.963098,0,0,-9.9626,13.83699,6.2070009)"/>
<path transform="matrix(1.00005,0,0,-1,16.684136,187.097)" d="M189.3149 146.88997H234.12342V163.82662H189.3149Z" fill="#ffffff"/>
<path transform="matrix(1.00005,0,0,-1,16.684136,187.097)" stroke-width=".3985" stroke-linecap="butt" stroke-miterlimit="10" stroke-linejoin="miter" fill="none" stroke="#000000" d="M189.3149 146.88997H234.12342V163.82662H189.3149Z"/>
<path transform="matrix(1.00005,0,0,-1,209.39676,31.738999)" stroke-width=".79701" stroke-linecap="butt" stroke-miterlimit="10" stroke-linejoin="miter" fill="none" stroke="#0000ff" d="M0 0C0 0 6.14426 0 8.50412 0 10.86398 0 17.00826 0 17.00826 0"/>
<use data-text="x" xlink:href="#font_4_2" transform="matrix(9.963098,0,0,-9.9626,228.79673,34.727998)"/>
<use data-text="(" xlink:href="#font_5_1" transform="matrix(9.963098,0,0,-9.9626,234.491,34.727998)"/>
<use data-text="t" xlink:href="#font_4_1" transform="matrix(9.963098,0,0,-9.9626,238.36519,34.727998)"/>
<use data-text=")" xlink:href="#font_5_2" transform="matrix(9.963098,0,0,-9.9626,241.96338,34.727998)"/>
</svg>
