<svg xmlns="http://www.w3.org/2000/svg" xmlns:xlink="http://www.w3.org/1999/xlink" version="1.1" width="373" height="83" viewBox="0 0 373 83">
<defs>
<path id="font_1_2" d="M.08799744 .059265138C.084991458 .044265748 .07899475 .021255494 .07899475 .01625061 .07899475-.0017547608 .09298706-.0107421879 .10798645-.0107421879 .11999512-.0107421879 .13798523-.002746582 .14498902 .01725769 .1459961 .019256592 .1579895 .06626892 .1639862 .091278079L.18598938 .18130493C.19198609 .2033081 .19799805 .22531128 .20298767 .24832154 .20698548 .26531983 .21499634 .29434205 .21598816 .29833985 .23098755 .3293457 .28399659 .42037965 .3789978 .42037965 .42399598 .42037965 .43299867 .38336183 .43299867 .35035707 .43299867 .3253479 .42599488 .29733277 .41799928 .26733399L.3899994 .1512909 .36999513 .07527161C.3659973 .055267335 .35699464 .021255494 .35699464 .01625061 .35699464-.0017547608 .37098695-.0107421879 .38598634-.0107421879 .4169922-.0107421879 .4229889 .014251709 .43099977 .04626465 .44499208 .10227966 .48199464 .24832154 .4909973 .28733827 .49398805 .30033876 .5469971 .42037965 .6559906 .42037965 .69898989 .42037965 .70999148 .3863678 .70999148 .35035707 .70999148 .29333497 .66799929 .17930603 .647995 .12628174 .6389923 .10227966 .6349945 .091278079 .6349945 .0712738 .6349945 .024261475 .66999819-.0107421879 .71699526-.0107421879 .8109894-.0107421879 .84799197 .13528443 .84799197 .14329529 .84799197 .1532898 .83898928 .1532898 .83599856 .1532898 .82598879 .1532898 .82598879 .15029907 .82099917 .13528443 .80599978 .08227539 .7739868 .011245728 .71899417 .011245728 .70199587 .011245728 .69499209 .021255494 .69499209 .044265748 .69499209 .0692749 .70399478 .09327698 .71299746 .11528015 .7319946 .16729737 .7739868 .27833558 .7739868 .3353424 .7739868 .4003601 .73399356 .4423828 .6589966 .4423828 .58399966 .4423828 .5329895 .3983612 .49598695 .34535218 .49499513 .35835267 .49198915 .3923645 .46398927 .41636659 .43899537 .43737794 .40699769 .4423828 .38198854 .4423828 .2919922 .4423828 .24299622 .37835694 .22599793 .35534669 .22099304 .41236878 .1789856 .4423828 .13398743 .4423828 .08799744 .4423828 .068984989 .4033661 .05999756 .38536073 .041992189 .35035707 .0289917 .29133607 .0289917 .28833009 .0289917 .27833558 .038986207 .27833558 .040985109 .27833558 .050994874 .27833558 .051986696 .2793274 .057998659 .30133058 .07499695 .37236024 .09498596 .42037965 .1309967 .42037965 .14698792 .42037965 .1619873 .41236878 .1619873 .37435914 .1619873 .35334779 .15899658 .3423462 .1459961 .29032899L.08799744 .059265138Z"/>
<path id="font_2_1" d="M.33499146 .63612368C.33499146 .6630554 .33299256 .6640625 .30499269 .6640625 .24099732 .6014404 .1499939 .6004486 .10899353 .6004486V.5644531C.1329956 .5644531 .19898987 .5644531 .2539978 .592453V.08203125C.2539978 .04899597 .2539978 .035995485 .1539917 .035995485H.115997318V0C.13398743 .0009918213 .25698854 .0039978029 .2939911 .0039978029 .32499696 .0039978029 .45098878 .0009918213 .47299195 0V.035995485H.43499757C.33499146 .035995485 .33499146 .04899597 .33499146 .08203125V.63612368Z"/>
<path id="font_2_2" d="M.5049896 .18203736H.47099305C.46798707 .16001892 .45799256 .100997928 .44499208 .09098816 .43699647 .084991458 .3600006 .084991458 .34599305 .084991458H.1619873C.2669983 .17803955 .3019867 .20603943 .3619995 .25306703 .43598939 .312088 .5049896 .374115 .5049896 .46914674 .5049896 .5900879 .39898683 .6640625 .2709961 .6640625 .14698792 .6640625 .06298828 .57710269 .06298828 .4851532 .06298828 .43414308 .10598755 .42915345 .115997318 .42915345 .13999939 .42915345 .16899109 .44615174 .16899109 .48214723 .16899109 .5001526 .1619873 .53515627 .10998535 .53515627 .14099121 .6060791 .20899964 .62805178 .2559967 .62805178 .35598756 .62805178 .4079895 .5501404 .4079895 .46914674 .4079895 .38212586 .34599305 .3130951 .31399537 .27708436L.07299805 .038986207C.06298828 .02999878 .06298828 .027999878 .06298828 0H.47499085L.5049896 .18203736Z"/>
<path id="font_1_1" d="M.2869873 .68333438C.2869873 .6843262 .2869873 .69433596 .27398683 .69433596 .25099183 .69433596 .17799378 .6863251 .1519928 .6843262 .14399719 .68333438 .1329956 .6823273 .1329956 .6643219 .1329956 .6523285 .14199829 .6523285 .15699768 .6523285 .20498657 .6523285 .20698548 .6453247 .20698548 .6353302L.20399475 .6153412 .05899048 .039260866C.054992677 .025253296 .054992677 .023254395 .054992677 .01725769 .054992677-.0057525637 .07499695-.0107421879 .083999637-.0107421879 .09700012-.0107421879 .11199951-.0017547608 .117996219 .010253906 .12298584 .019256592 .16799927 .20431519 .17399597 .22932434 .20799256 .22631836 .2899933 .21031189 .2899933 .14428711 .2899933 .13729859 .2899933 .13328552 .2869873 .123291019 .2849884 .11128235 .2829895 .09927368 .2829895 .088272098 .2829895 .029251099 .32299806-.0107421879 .375-.0107421879 .40499879-.0107421879 .43199159 .0052490236 .45399476 .042266847 .47898866 .08627319 .48999024 .14129639 .48999024 .14329529 .48999024 .1532898 .48098756 .1532898 .47799684 .1532898 .46798707 .1532898 .46699525 .14929199 .46398927 .13528443 .44400025 .06227112 .42099 .011245728 .3769989 .011245728 .35798646 .011245728 .34498597 .022247315 .34498597 .058273317 .34498597 .07527161 .34899903 .09828186 .35299684 .11428833 .35699464 .13128662 .35699464 .13528443 .35699464 .14529419 .35699464 .21031189 .2939911 .23931885 .20899964 .2503357 .23999024 .26834107 .27198792 .30033876 .29499818 .32435609 .34298707 .37734986 .3889923 .42037965 .43798829 .42037965 .44400025 .42037965 .44499208 .42037965 .44699098 .41937257 .45899964 .41737367 .45999146 .41737367 .46798707 .4113617 .46998597 .4103546 .46998597 .40934754 .47200013 .40734864 .42399598 .4043579 .4149933 .36535646 .4149933 .35334779 .4149933 .33735658 .42599488 .31835938 .45298768 .31835938 .47898866 .31835938 .5079956 .3403473 .5079956 .37934876 .5079956 .40934754 .4850006 .4423828 .43998719 .4423828 .4119873 .4423828 .3659973 .43437196 .2939911 .35435487 .2599945 .3163452 .22099304 .27633668 .18299866 .26133729L.2869873 .68333438Z"/>
<path id="font_3_49" d="M.69200137 .25993348H.6609955C.6349945 .10997009 .6139984 .032989503 .43399049 .032989503H.2849884C.23899842 .032989503 .23699951 .039993287 .23699951 .07397461V.33691407H.33399964C.43299867 .33691407 .44699098 .30691529 .44699098 .21994019H.47799684V.4868164H.44699098C.44699098 .39988709 .43299867 .36990357 .33399964 .36990357H.23699951V.6057129C.23699951 .63967898 .23899842 .64668276 .2849884 .64668276H.4269867C.59298709 .64668276 .6139984 .5867157 .6319885 .45277406H.6629944L.6339874 .6796875H.04399109V.64668276H.06599426C.14299011 .64668276 .14498902 .63568118 .14498902 .5987091V.080963138C.14498902 .04399109 .14299011 .032989503 .06599426 .032989503H.04399109V0H.647995L.69200137 .25993348Z"/>
<path id="font_3_91" d="M.5549927-.19413758V-.16113281C.4909973-.16113281 .47898866-.16113281 .47898866-.11602783V.44140626H.45098878L.4139862 .35437013C.3809967 .4073944 .33299256 .44140626 .269989 .44140626 .14498902 .44140626 .034988405 .3443756 .034988405 .21531677 .034988405 .09025574 .13798523-.009765625 .26098634-.009765625 .33299256-.009765625 .3789978 .030227662 .40299989 .0602417V-.11602783C.40299989-.16113281 .3909912-.16113281 .32699586-.16113281V-.19413758C.36999513-.19114685 .4139862-.19114685 .44099427-.19114685 .46998597-.19114685 .5119934-.19114685 .5549927-.19413758M.4059906 .14228821C.4059906 .12626648 .4059906 .120269779 .3909912 .09425354 .35398866 .033233644 .30099488 .018234253 .2669983 .018234253 .18699646 .018234253 .12399292 .10726929 .12399292 .21531677 .12399292 .32936097 .19799805 .4104004 .2769928 .4104004 .35798646 .4104004 .4059906 .32936097 .4059906 .27433778V.14228821Z"/>
<path id="font_3_109" d="M.56199648 .00022888184V.033233644C.49398805 .033233644 .48599244 .040237428 .48599244 .08924866V.44140626L.33399964 .43040467V.3973999C.4019928 .3973999 .4099884 .39039613 .4099884 .34136964V.16726685C.4099884 .08125305 .35798646 .018234253 .2829895 .018234253 .19699097 .018234253 .19299317 .06123352 .19299317 .11126709V.44140626L.040985109 .43040467V.3973999C.116989139 .3973999 .116989139 .39439393 .116989139 .30534364V.15527344C.116989139 .08325195 .116989139-.009765625 .2769928-.009765625 .37098695-.009765625 .40699769 .0622406 .4119873 .071243289H.41299439V-.009765625L.56199648 .00022888184Z"/>
<path id="font_3_66" d="M.2599945 .0001373291V.03314209C.19499207 .03314209 .19099427 .038146974 .19099427 .07714844V.44140626L.04499817 .43045045V.39746095C.10899353 .39746095 .117996219 .39144898 .117996219 .34239198V.07814026C.117996219 .03314209 .10598755 .03314209 .041992189 .03314209V0C.08099365 .0029907227 .13699341 .0029907227 .1519928 .0029907227 .16499329 .0029907227 .22499085 .0029907227 .2599945 0V.0001373291M.20298767 .6021881C.20298767 .6351929 .1769867 .6582031 .147995 .6582031 .11898804 .6582031 .09298706 .6351929 .09298706 .6021881 .09298706 .5731964 .115997318 .54719546 .147995 .54719546 .1789856 .54719546 .20298767 .5731964 .20298767 .6021881Z"/>
<path id="font_3_72" d="M.2669983 0V.032989503C.20298767 .032989503 .19099427 .032989503 .19099427 .07801819V.69433596L.041992189 .6826172V.6496124C.10998535 .6496124 .117996219 .64260867 .117996219 .5936432V.07795715C.117996219 .032989503 .10598755 .032989503 .041992189 .032989503V0C.08099365 .0029907227 .13699341 .0029907227 .1539917 .0029907227 .17399597 .0029907227 .22799683 .0029907227 .2669983 0Z"/>
<path id="font_3_35" d="M.55400088 .21650696C.55400088 .3425293 .45098878 .44140626 .32899476 .44140626 .25 .44140626 .20098877 .39845277 .18399048 .38053895V.69433596L.034988405 .68333438V.6503296C.102996829 .6503296 .11099243 .6433258 .11099243 .5943451V.00048828127H.14199829L.17799378 .0625C.20199585 .02822876 .24899292-.009765625 .31698609-.009765625 .44400025-.009765625 .55400088 .08828735 .55400088 .21640015V.21650696M.46499635 .21740723C.46499635 .19438172 .46499635 .12332153 .42900086 .07627869 .3929901 .031234742 .34599305 .018234253 .31298829 .018234253 .2649994 .018234253 .22499085 .04324341 .19898987 .08229065 .18699646 .1013031 .18699646 .10231018 .18699646 .12132263V.3164978C.18699646 .33551026 .18699646 .3375244 .20199585 .3555298 .23098755 .39248658 .27799989 .4133911 .32299806 .4133911 .375 .4133911 .4139862 .38252259 .43399049 .35253907 .45098878 .3255005 .46499635 .29048158 .46499635 .21740723Z"/>
<path id="font_3_96" d="M.38398744 .3784027C.38398744 .4133911 .35198976 .44140626 .30799867 .44140626 .24299622 .44140626 .19898987 .39239503 .17799378 .33639527H.1769867V.44140626L.034988405 .43045045V.39746095C.102996829 .39746095 .11099243 .3904419 .11099243 .3413849V.078048709C.11099243 .032989503 .09899902 .032989503 .034988405 .032989503V0C.07398987 .0029907227 .1289978 .0029907227 .15299988 .0029907227 .21199036 .0029907227 .21398926 .0029907227 .2789917 0V.032989503H.25898744C.18598938 .032989503 .18399048 .044006349 .18399048 .08004761V.22824097C.18399048 .30332948 .21499634 .41145326 .31098939 .41345216 .30499269 .40899659 .29499818 .40098573 .29499818 .37799073 .29499818 .34700013 .31900025 .33299256 .33898927 .33299256 .36299134 .33299256 .38398744 .34899903 .38398744 .37799073V.3784027Z"/>
<path id="font_3_75" d="M.8569946 0V.032989503C.79299929 .032989503 .7809906 .032989503 .7809906 .07803345V.3032837C.7809906 .3843689 .74598696 .44140626 .6369934 .44140626 .54499819 .44140626 .49899293 .37835694 .48298646 .34933473 .46499635 .42140199 .4079895 .44140626 .34298707 .44140626 .24598694 .44140626 .19999695 .37236024 .18699646 .34532167H.18598938V.44140626L.040985109 .43045045V.39746095C.10899353 .39746095 .116989139 .3904419 .116989139 .3413849V.078048709C.116989139 .032989503 .10499573 .032989503 .040985109 .032989503V0C.083999637 .0029907227 .12799073 .0029907227 .15499878 .0029907227 .18399048 .0029907227 .22599793 .0029907227 .2689972 0V.032989503C.20498657 .032989503 .19299317 .032989503 .19299317 .078048709V.25927735C.19299317 .36434938 .27198792 .4133911 .33499146 .4133911 .3999939 .4133911 .41099549 .36235047 .41099549 .3072815V.07803345C.41099549 .032989503 .39898683 .032989503 .33499146 .032989503V0C.37799073 .0029907227 .42199708 .0029907227 .44898988 .0029907227 .47799684 .0029907227 .519989 .0029907227 .5629883 0V.032989503C.49899293 .032989503 .4869995 .032989503 .4869995 .07803345V.25923158C.4869995 .36434938 .56599429 .4133911 .6289978 .4133911 .69400027 .4133911 .7049866 .36235047 .7049866 .3072815V.07803345C.7049866 .032989503 .69299319 .032989503 .6289978 .032989503V0C.6719971 .0029907227 .71598818 .0029907227 .7429962 .0029907227 .7719879 .0029907227 .81399539 .0029907227 .8569946 0Z"/>
<path id="font_3_84" d="M.55400088 .21640015C.55400088 .34140016 .45298768 .44140626 .33198548 .44140626 .29299928 .44140626 .23498535 .43139649 .18399048 .37939454V.44140626L.034988405 .43045045V.39746095C.10598755 .39746095 .11099243 .39144898 .11099243 .34947206V-.1159668C.11099243-.16113281 .09899902-.16113281 .034988405-.16113281V-.19413758C.07798767-.19114685 .12199402-.19114685 .14898682-.19114685 .17799378-.19114685 .21998596-.19114685 .2630005-.19413758V-.16113281C.19898987-.16113281 .18699646-.16113281 .18699646-.1159668V.049545289C.23399353-.0017700195 .2849884-.009765625 .31698609-.009765625 .44400025-.009765625 .55400088 .088256839 .55400088 .2163086V.21640015M.46499635 .2163086C.46499635 .101257327 .3929901 .018234253 .31199647 .018234253 .2769928 .018234253 .23098755 .033233644 .19898987 .08325195 .18699646 .1002655 .18699646 .101257327 .18699646 .120269779V.33335877C.20999146 .37338258 .2599945 .4104004 .32299806 .4104004 .3999939 .4104004 .46499635 .32536317 .46499635 .2163086Z"/>
<path id="font_3_81" d="M.5 .21325684C.5 .3382721 .39698792 .44628907 .2649994 .44628907 .1329956 .44628907 .02999878 .3382721 .02999878 .21325684 .02999878 .08824158 .13699341-.009765625 .2649994-.009765625 .3939972-.009765625 .5 .08824158 .5 .21325684M.41099549 .22225952C.41099549 .17625427 .40899659 .12124634 .3809967 .07923889 .35398866 .039230348 .30899049 .021224976 .2649994 .021224976 .21099854 .021224976 .16899109 .047225954 .14698792 .082229617 .12199402 .12324524 .11898804 .17224121 .11898804 .22225952 .11898804 .2602539 .11898804 .32026673 .1499939 .363266 .17599488 .3982849 .21798706 .41827394 .2649994 .41827394 .31698609 .41827394 .3600006 .39328004 .3829956 .35827638 .4099884 .31626893 .41099549 .2622528 .41099549 .22225952Z"/>
<path id="font_3_98" d="M.3829956 .12924195C.3829956 .1772461 .35398866 .24725342 .23498535 .2692566 .22698975 .2712555 .17098999 .28126527 .16699219 .28126527 .13598633 .28826905 .08898926 .30926515 .08898926 .34927369 .08898926 .37927247 .11099243 .4212799 .20599365 .4212799 .31799317 .4212799 .32299806 .33926393 .32499696 .31126405 .32598878 .30326844 .33299256 .30026246 .33999635 .30026246 .35598756 .30026246 .35598756 .30726625 .35598756 .32626344V.4202881C.35598756 .4362793 .35598756 .44628907 .34298707 .44628907 .33799745 .44628907 .33499146 .44628907 .31900025 .4302826 .31698609 .4292755 .30799867 .4202881 .30499269 .4202881 .30499269 .4202881 .3019867 .4202881 .29599 .4242859 .27999879 .43528749 .25099183 .44628907 .20599365 .44628907 .06599426 .44628907 .034988405 .37026979 .034988405 .32226563 .034988405 .27226258 .07199097 .24325562 .07499695 .24024964 .114990238 .21025086 .13798523 .20625305 .20498657 .19424439 .2519989 .18525696 .32899476 .17124939 .32899476 .10324097 .32899476 .0642395 .30299378 .018234253 .21099854 .018234253 .10998535 .018234253 .08099365 .09623718 .067993167 .14924622 .06399536 .1622467 .06298828 .16725159 .050994874 .16725159 .034988405 .16725159 .034988405 .15924073 .034988405 .14024353V.016220093C.034988405 .00022888184 .034988405-.009765625 .04798889-.009765625 .053985597-.009765625 .054992677-.008773804 .07299805 .010223389 .07798767 .0152282719 .08898926 .02822876 .09399414 .033233644 .13899231-.0077667238 .18598938-.009765625 .21199036-.009765625 .33898927-.009765625 .3829956 .06323242 .3829956 .12924195Z"/>
<path id="font_3_105" d="M.35299684 .1250763V.1809845H.32199098V.12705994C.32199098 .058166505 .29100038 .021224976 .25299073 .021224976 .18598938 .021224976 .18598938 .10710144 .18598938 .12307739V.3976593H.33499146V.43066407H.18598938V.6142578H.15499878C.1539917 .52345278 .11299133 .4286499 .019989014 .42565919V.3976593H.10998535V.1250763C.10998535 .008224487 .19999695-.009765625 .24598694-.009765625 .31298829-.010009766 .35299684 .049987794 .35299684 .125V.1250763Z"/>
<path id="font_3_77" d="M.56199648 0V.032989503C.49798585 .032989503 .48599244 .032989503 .48599244 .07803345V.3032837C.48599244 .38737489 .44799806 .44140626 .34298707 .44140626 .24398804 .44140626 .19898987 .36935426 .18699646 .34532167H.18598938V.44140626L.040985109 .43045045V.39746095C.10899353 .39746095 .116989139 .3904419 .116989139 .3413849V.078048709C.116989139 .032989503 .10499573 .032989503 .040985109 .032989503V0C.083999637 .0029907227 .12799073 .0029907227 .15499878 .0029907227 .18399048 .0029907227 .22599793 .0029907227 .2689972 0V.032989503C.20498657 .032989503 .19299317 .032989503 .19299317 .078048709V.25927735C.19299317 .36434938 .272995 .4133911 .33399964 .4133911 .394989 .4133911 .4099884 .37036134 .4099884 .3072815V.07803345C.4099884 .032989503 .397995 .032989503 .33399964 .032989503V0C.3769989 .0029907227 .42099 .0029907227 .44799806 .0029907227 .47698976 .0029907227 .5189972 .0029907227 .56199648 0Z"/>
<path id="font_1_3" d="M.33399964 .30233766C.33999635 .32835389 .36299134 .42037965 .43299867 .42037965 .43798829 .42037965 .46199037 .42037965 .48298646 .40734864 .45498658 .402359 .43499757 .37734986 .43499757 .35334779 .43499757 .33735658 .44599916 .31835938 .47299195 .31835938 .49499513 .31835938 .5269928 .3363495 .5269928 .37635804 .5269928 .42837525 .46798707 .4423828 .43399049 .4423828 .37599183 .4423828 .34098817 .38935853 .32899476 .36634828 .3039856 .43237306 .25 .4423828 .22099304 .4423828 .116989139 .4423828 .05999756 .3133545 .05999756 .28834535 .05999756 .27833558 .069992069 .27833558 .07199097 .27833558 .07998657 .27833558 .08299255 .28033448 .084991458 .28933717 .11898804 .39535523 .18499756 .42037965 .21899414 .42037965 .23799134 .42037965 .272995 .4113617 .272995 .35334779 .272995 .32235719 .2559967 .25532533 .21899414 .11528015 .20298767 .053268434 .16799927 .011245728 .12399292 .011245728 .117996219 .011245728 .09498596 .011245728 .07398987 .024276734 .09899902 .029266358 .12098694 .05027771 .12098694 .07827759 .12098694 .105270389 .09899902 .11328125 .083999637 .11328125 .053985597 .11328125 .0289917 .08728027 .0289917 .055267335 .0289917 .009246826 .07899475-.0107421879 .12298584-.0107421879 .18899536-.0107421879 .22499085 .059280397 .22799683 .0652771 .23999024 .028274537 .27598573-.0107421879 .33599855-.0107421879 .43899537-.0107421879 .49598695 .118270877 .49598695 .14328003 .49598695 .1532898 .4869995 .1532898 .48399354 .1532898 .47499085 .1532898 .47299195 .14929199 .47099305 .14228821 .43798829 .03527832 .36999513 .011245728 .33799745 .011245728 .29899598 .011245728 .2829895 .043273927 .2829895 .07727051 .2829895 .09927368 .2889862 .121276859 .2999878 .16529846L.33399964 .30233766Z"/>
</defs>
<path transform="matrix(1,0,0,-1.00002,129.854,30.345288)" stroke-width=".79701" stroke-linecap="butt" stroke-miterlimit="10" stroke-linejoin="miter" fill="none" stroke="#000000" d="M-14.17339-14.17339H14.1734V14.1734H-14.17339Z"/>
<use data-text="m" xlink:href="#font_1_2" transform="matrix(9.9626,0,0,-9.962799,123.246,31.743315)"/>
<use data-text="1" xlink:href="#font_2_1" transform="matrix(6.9738,0,0,-6.97394,131.993,33.238348)"/>
<path transform="matrix(1,0,0,-1.00002,129.854,30.345288)" stroke-width=".79701" stroke-linecap="butt" stroke-miterlimit="10" stroke-linejoin="miter" fill="none" stroke="#000000" d="M99.21384-14.17339H127.56062V14.1734H99.21384Z"/>
<use data-text="m" xlink:href="#font_1_2" transform="matrix(9.9626,0,0,-9.962799,236.633,31.743315)"/>
<use data-text="2" xlink:href="#font_2_2" transform="matrix(6.9738,0,0,-6.97394,245.38,33.238348)"/>
<path transform="matrix(1,0,0,-1.00002,129.854,30.345288)" stroke-width=".3985" stroke-linecap="butt" stroke-miterlimit="10" stroke-linejoin="miter" fill="none" stroke="#000000" d="M-127.56062 0H-119.0565C-118.80745 2.35983-117.61232 4.252-116.18335 4.252-114.75438 4.252-113.55922 2.35983-113.31017 0-113.06111-2.35983-113.75816-4.252-114.68903-4.252-115.61989-4.252-116.31691-2.35983-116.06786 0-115.81862 2.35983-114.62349 4.252-113.19452 4.252-111.76555 4.252-110.57039 2.35983-110.32133 0-110.07228-2.35983-110.76933-4.252-111.7002-4.252-112.63106-4.252-113.32808-2.35983-113.07903 0-112.82979 2.35983-111.63466 4.252-110.20569 4.252-108.77672 4.252-107.58156 2.35983-107.3325 0-107.08345-2.35983-107.7805-4.252-108.71136-4.252-109.64223-4.252-110.33925-2.35983-110.0902 0-109.84096 2.35983-108.64583 4.252-107.21686 4.252-105.78789 4.252-104.59273 2.35983-104.34367 0-104.09462-2.35983-104.79167-4.252-105.72253-4.252-106.6534-4.252-107.35042-2.35983-107.10136 0-106.85213 2.35983-105.657 4.252-104.22803 4.252-102.79906 4.252-101.6039 2.35983-101.35484 0-101.10579-2.35983-101.80284-4.252-102.7337-4.252-103.66457-4.252-104.36159-2.35983-104.11253 0-103.8633 2.35983-102.66817 4.252-101.2392 4.252-99.81023 4.252-98.61507 2.35983-98.36601 0-98.11696-2.35983-98.81401-4.252-99.74487-4.252-100.67574-4.252-101.37276-2.35983-101.1237 0-100.87447 2.35983-99.67934 4.252-98.25037 4.252-96.8214 4.252-95.62624 2.35983-95.37718 0-95.12813-2.35983-95.82518-4.252-96.75604-4.252-97.6869-4.252-98.38393-2.35983-98.13487 0-97.88564 2.35983-96.6905 4.252-95.26154 4.252-93.83257 4.252-92.6374 2.35983-92.38835 0-92.1393-2.35983-92.83635-4.252-93.76721-4.252-94.69807-4.252-95.3951-2.35983-95.14604 0-94.8968 2.35983-93.70168 4.252-92.2727 4.252-90.84373 4.252-89.64857 2.35983-89.39952 0-89.15047-2.35983-89.84752-4.252-90.77838-4.252-91.70924-4.252-92.40627-2.35983-92.15721 0-91.90797 2.35983-90.71284 4.252-89.28387 4.252-87.8549 4.252-86.65974 2.35983-86.41069 0-86.16164-2.35983-86.85869-4.252-87.78955-4.252-88.72041-4.252-89.41743-2.35983-89.16838 0-88.91914 2.35983-87.72401 4.252-86.29504 4.252-84.86607 4.252-83.67091 2.35983-83.42186 0-83.1728-2.35983-83.86986-4.252-84.80072-4.252-85.73158-4.252-86.4286-2.35983-86.17955 0-85.93031 2.35983-84.73518 4.252-83.30621 4.252-81.87724 4.252-80.68208 2.35983-80.43303 0-80.18398-2.35983-80.88103-4.252-81.81189-4.252-82.74275-4.252-83.43977-2.35983-83.19072 0-82.94148 2.35983-81.74635 4.252-80.31738 4.252-78.88841 4.252-77.69325 2.35983-77.4442 0-77.19514-2.35983-77.8922-4.252-78.82306-4.252-79.75392-4.252-80.45094-2.35983-80.20189 0-79.95265 2.35983-78.75752 4.252-77.32855 4.252-75.89958 4.252-74.70442 2.35983-74.45537 0-74.20631-2.35983-74.90337-4.252-75.83423-4.252-76.76509-4.252-77.46211-2.35983-77.21306 0-76.96382 2.35983-75.76869 4.252-74.33972 4.252-72.91075 4.252-71.71559 2.35983-71.46654 0-71.21748-2.35983-71.91454-4.252-72.8454-4.252-73.77626-4.252-74.47328-2.35983-74.22423 0-73.97499 2.35983-72.77986 4.252-71.35089 4.252-69.92192 4.252-68.72676 2.35983-68.4777 0-68.22865-2.35983-68.9257-4.252-69.85657-4.252-70.78743-4.252-71.48445-2.35983-71.2354 0-70.98616 2.35983-69.79103 4.252-68.36206 4.252-66.93309 4.252-65.73793 2.35983-65.48888 0-65.23982-2.35983-65.93687-4.252-66.86774-4.252-67.7986-4.252-68.49562-2.35983-68.24657 0-67.99733 2.35983-66.8022 4.252-65.37323 4.252-63.94426 4.252-62.7491 2.35983-62.50005 0-62.25099-2.35983-62.94804-4.252-63.8789-4.252-64.80977-4.252-65.50679-2.35983-65.25774 0-65.0085 2.35983-63.81337 4.252-62.3844 4.252-60.95543 4.252-59.76027 2.35983-59.51122 0-59.26216-2.35983-59.95921-4.252-60.89008-4.252-61.82094-4.252-62.51796-2.35983-62.2689 0-62.01967 2.35983-60.82454 4.252-59.39557 4.252-57.9666 4.252-56.77144 2.35983-56.52238 0-56.27333-2.35983-56.97038-4.252-57.90125-4.252-58.8321-4.252-59.52913-2.35983-59.28008 0-59.03084 2.35983-57.83571 4.252-56.40674 4.252-54.97777 4.252-53.78261 2.35983-53.53355 0-53.2845-2.35983-53.98155-4.252-54.91241-4.252-55.84328-4.252-56.5403-2.35983-56.29124 0-56.042 2.35983-54.84688 4.252-53.41791 4.252-51.98894 4.252-50.79378 2.35983-50.54472 0-50.29567-2.35983-50.99272-4.252-51.92358-4.252-52.85445-4.252-53.55147-2.35983-53.30241 0-53.05318 2.35983-51.85805 4.252-50.42908 4.252-49.0001 4.252-47.80495 2.35983-47.5559 0-47.30684-2.35983-48.00389-4.252-48.93475-4.252-49.86562-4.252-50.56264-2.35983-50.31358 0-50.06435 2.35983-48.86922 4.252-47.44025 4.252-46.01128 4.252-44.81612 2.35983-44.56706 0-44.31801-2.35983-45.01506-4.252-45.94592-4.252-46.87679-4.252-47.5738-2.35983-47.32475 0-47.07552 2.35983-45.88039 4.252-44.45142 4.252-43.02245 4.252-41.82729 2.35983-41.57823 0-41.32918-2.35983-42.02623-4.252-42.95709-4.252-43.88795-4.252-44.58498-2.35983-44.33592 0-44.08669 2.35983-42.89156 4.252-41.46259 4.252-40.03362 4.252-38.83846 2.35983-38.5894 0-38.34035-2.35983-39.0374-4.252-39.96826-4.252-40.89912-4.252-41.59615-2.35983-41.34709 0-41.09785 2.35983-39.90273 4.252-38.47375 4.252-37.04478 4.252-35.84962 2.35983-35.60057 0-35.35152-2.35983-36.04857-4.252-36.97943-4.252-37.9103-4.252-38.60732-2.35983-38.35826 0-38.10902 2.35983-36.9139 4.252-35.48492 4.252-34.05595 4.252-32.8608 2.35983-32.61174 0-32.36269-2.35983-33.05974-4.252-33.9906-4.252-34.92146-4.252-35.61848-2.35983-35.36943 0-35.1202 2.35983-33.92506 4.252-32.4961 4.252-31.06712 4.252-29.87196 2.35983-29.62291 0-29.37386-2.35983-30.0709-4.252-31.00177-4.252-31.93263-4.252-32.62965-2.35983-32.3806 0-32.13136 2.35983-30.93623 4.252-29.50726 4.252-28.0783 4.252-26.88313 2.35983-26.63408 0-26.38503-2.35983-27.08208-4.252-28.01294-4.252-28.9438-4.252-29.64082-2.35983-29.39177 0-29.14253 2.35983-27.9474 4.252-26.51843 4.252-25.08946 4.252-23.8943 2.35983-23.64525 0H-23.64519-14.17339"/>
<use data-text="k" xlink:href="#font_1_1" transform="matrix(9.9626,0,0,-9.962799,54.158998,18.884057)"/>
<use data-text="1" xlink:href="#font_2_1" transform="matrix(6.9738,0,0,-6.97394,59.345994,20.379088)"/>
<path transform="matrix(1,0,0,-1.00002,129.854,30.345288)" stroke-width=".3985" stroke-linecap="butt" stroke-miterlimit="10" stroke-linejoin="miter" fill="none" stroke="#000000" d="M14.17339 0H22.67752C22.92657 2.35983 24.1217 4.252 25.55067 4.252 26.97964 4.252 28.17479 2.35983 28.42384 0 28.6729-2.35983 27.97586-4.252 27.045-4.252 26.11414-4.252 25.41711-2.35983 25.66617 0 25.9154 2.35983 27.11053 4.252 28.5395 4.252 29.96848 4.252 31.16362 2.35983 31.41267 0 31.66173-2.35983 30.96469-4.252 30.03383-4.252 29.10297-4.252 28.40594-2.35983 28.655 0 28.90424 2.35983 30.09937 4.252 31.52834 4.252 32.9573 4.252 34.15245 2.35983 34.4015 0 34.65056-2.35983 33.95352-4.252 33.02266-4.252 32.0918-4.252 31.39478-2.35983 31.64383 0 31.89307 2.35983 33.0882 4.252 34.51717 4.252 35.94614 4.252 37.14128 2.35983 37.39034 0 37.63939-2.35983 36.94235-4.252 36.01149-4.252 35.08063-4.252 34.3836-2.35983 34.63266 0 34.8819 2.35983 36.07703 4.252 37.506 4.252 38.93497 4.252 40.13011 2.35983 40.37917 0 40.62822-2.35983 39.93118-4.252 39.00032-4.252 38.06946-4.252 37.37244-2.35983 37.62149 0 37.87073 2.35983 39.06586 4.252 40.49483 4.252 41.9238 4.252 43.11894 2.35983 43.368 0 43.61705-2.35983 42.92001-4.252 41.98915-4.252 41.05829-4.252 40.36127-2.35983 40.61032 0 40.85956 2.35983 42.05469 4.252 43.48366 4.252 44.91263 4.252 46.10777 2.35983 46.35683 0 46.60588-2.35983 45.90884-4.252 44.97798-4.252 44.04712-4.252 43.3501-2.35983 43.59915 0 43.84839 2.35983 45.04352 4.252 46.47249 4.252 47.90146 4.252 49.0966 2.35983 49.34566 0 49.59471-2.35983 48.89767-4.252 47.96681-4.252 47.03595-4.252 46.33893-2.35983 46.58798 0 46.83722 2.35983 48.03235 4.252 49.46132 4.252 50.89029 4.252 52.08543 2.35983 52.33449 0 52.58354-2.35983 51.8865-4.252 50.95564-4.252 50.02478-4.252 49.32776-2.35983 49.57681 0 49.82605 2.35983 51.02118 4.252 52.45015 4.252 53.87912 4.252 55.07426 2.35983 55.32332 0 55.57237-2.35983 54.87534-4.252 53.94447-4.252 53.01361-4.252 52.31659-2.35983 52.56564 0 52.81488 2.35983 54.01001 4.252 55.43898 4.252 56.86795 4.252 58.0631 2.35983 58.31215 0 58.5612-2.35983 57.86417-4.252 56.9333-4.252 56.00244-4.252 55.30542-2.35983 55.55447 0 55.80371 2.35983 56.99884 4.252 58.42781 4.252 59.85678 4.252 61.05193 2.35983 61.30098 0 61.55003-2.35983 60.853-4.252 59.92213-4.252 58.99127-4.252 58.29425-2.35983 58.5433 0 58.79254 2.35983 59.98767 4.252 61.41664 4.252 62.84561 4.252 64.04076 2.35983 64.28981 0 64.53886-2.35983 63.84183-4.252 62.91096-4.252 61.9801-4.252 61.28308-2.35983 61.53214 0 61.78137 2.35983 62.9765 4.252 64.40547 4.252 65.83444 4.252 67.02959 2.35983 67.27864 0 67.5277-2.35983 66.83066-4.252 65.8998-4.252 64.96893-4.252 64.27191-2.35983 64.52097 0 64.7702 2.35983 65.96533 4.252 67.3943 4.252 68.82327 4.252 70.01842 2.35983 70.26747 0 70.51653-2.35983 69.81949-4.252 68.88863-4.252 67.95776-4.252 67.26074-2.35983 67.5098 0 67.75903 2.35983 68.95416 4.252 70.38313 4.252 71.8121 4.252 73.00725 2.35983 73.2563 0 73.50536-2.35983 72.80832-4.252 71.87746-4.252 70.9466-4.252 70.24957-2.35983 70.49863 0 70.74786 2.35983 71.943 4.252 73.37196 4.252 74.80093 4.252 75.99608 2.35983 76.24513 0 76.49419-2.35983 75.79715-4.252 74.86629-4.252 73.93542-4.252 73.2384-2.35983 73.48746 0 73.7367 2.35983 74.93182 4.252 76.3608 4.252 77.78976 4.252 78.98491 2.35983 79.23396 0 79.48302-2.35983 78.78598-4.252 77.85512-4.252 76.92426-4.252 76.22723-2.35983 76.47629 0 76.72552 2.35983 77.92065 4.252 79.34962 4.252 80.7786 4.252 81.97374 2.35983 82.2228 0 82.47185-2.35983 81.77481-4.252 80.84395-4.252 79.91309-4.252 79.21606-2.35983 79.46512 0 79.71436 2.35983 80.90948 4.252 82.33846 4.252 83.76743 4.252 84.96257 2.35983 85.21162 0 85.46068-2.35983 84.76364-4.252 83.83278-4.252 82.90192-4.252 82.2049-2.35983 82.45395 0 82.70319 2.35983 83.89832 4.252 85.32729 4.252 86.75626 4.252 87.9514 2.35983 88.20045 0H88.20053 99.21384"/>
<use data-text="k" xlink:href="#font_1_1" transform="matrix(9.9626,0,0,-9.962799,181.72,18.884057)"/>
<use data-text="2" xlink:href="#font_2_2" transform="matrix(6.9738,0,0,-6.97394,186.907,20.379088)"/>
<path transform="matrix(1,0,0,-1.00002,129.854,30.345288)" stroke-width=".79701" stroke-linecap="butt" stroke-miterlimit="10" stroke-linejoin="miter" fill="none" stroke="#000000" d="M-127.56062-14.17339V28.34679"/>
<path transform="matrix(1,0,0,-1.00002,129.854,30.345288)" stroke-width=".79701" stroke-linecap="butt" stroke-miterlimit="10" stroke-linejoin="miter" fill="none" stroke="#000000" d="M-127.56062-14.17339H99.21384"/>
<path transform="matrix(1,0,0,-1.00002,129.854,30.345288)" stroke-width=".79701" stroke-linecap="butt" stroke-miterlimit="10" stroke-linejoin="miter" fill="none" stroke="#000000" d="M127.56062-14.17339H240.94788"/>
<path transform="matrix(1,0,0,-1.00002,129.854,30.345288)" stroke-width=".79701" stroke-linecap="butt" stroke-miterlimit="10" stroke-linejoin="miter" fill="none" stroke="#000000" d="M240.94788-14.17339V28.34679"/>
<path transform="matrix(1,0,0,-1.00002,129.854,30.345288)" stroke-width=".3985" stroke-linecap="butt" stroke-dasharray="2.98883,2.98883" stroke-miterlimit="10" stroke-linejoin="miter" fill="none" stroke="#000000" d="M-70.867-28.34679V0"/>
<use data-text="E" xlink:href="#font_3_49" transform="matrix(7.9701,0,0,-7.9702599,36.93701,67.74403)"/>
<use data-text="q" xlink:href="#font_3_91" transform="matrix(7.9701,0,0,-7.9702599,42.6994,67.74403)"/>
<use data-text="u" xlink:href="#font_3_109" transform="matrix(7.9701,0,0,-7.9702599,47.170625,67.74403)"/>
<use data-text="i" xlink:href="#font_3_66" transform="matrix(7.9701,0,0,-7.9702599,51.872987,67.74403)"/>
<use data-text="l" xlink:href="#font_3_72" transform="matrix(7.9701,0,0,-7.9702599,54.224168,67.74403)"/>
<use data-text="i" xlink:href="#font_3_66" transform="matrix(7.9701,0,0,-7.9702599,56.575349,67.74403)"/>
<use data-text="b" xlink:href="#font_3_35" transform="matrix(7.9701,0,0,-7.9702599,58.92653,67.74403)"/>
<use data-text="r" xlink:href="#font_3_96" transform="matrix(7.9701,0,0,-7.9702599,63.62889,67.74403)"/>
<use data-text="i" xlink:href="#font_3_66" transform="matrix(7.9701,0,0,-7.9702599,66.92851,67.74403)"/>
<use data-text="u" xlink:href="#font_3_109" transform="matrix(7.9701,0,0,-7.9702599,69.27969,67.74403)"/>
<use data-text="m" xlink:href="#font_3_75" transform="matrix(7.9701,0,0,-7.9702599,73.982059,67.74403)"/>
<use data-text="p" xlink:href="#font_3_84" transform="matrix(7.9701,0,0,-7.9702599,36.93701,79.69928)"/>
<use data-text="o" xlink:href="#font_3_81" transform="matrix(7.9701,0,0,-7.9702599,41.87848,79.69928)"/>
<use data-text="s" xlink:href="#font_3_98" transform="matrix(7.9701,0,0,-7.9702599,46.110597,79.69928)"/>
<use data-text="i" xlink:href="#font_3_66" transform="matrix(7.9701,0,0,-7.9702599,49.450075,79.69928)"/>
<use data-text="t" xlink:href="#font_3_105" transform="matrix(7.9701,0,0,-7.9702599,51.801256,79.69928)"/>
<use data-text="i" xlink:href="#font_3_66" transform="matrix(7.9701,0,0,-7.9702599,55.09291,79.69928)"/>
<use data-text="o" xlink:href="#font_3_81" transform="matrix(7.9701,0,0,-7.9702599,57.44409,79.69928)"/>
<use data-text="n" xlink:href="#font_3_77" transform="matrix(7.9701,0,0,-7.9702599,61.67621,79.69928)"/>
<path transform="matrix(1,0,0,-1.00002,129.854,30.345288)" stroke-width=".3985" stroke-linecap="butt" stroke-dasharray="2.98883,2.98883" stroke-miterlimit="10" stroke-linejoin="miter" fill="none" stroke="#000000" d="M42.52022-28.34679V0"/>
<use data-text="E" xlink:href="#font_3_49" transform="matrix(7.9701,0,0,-7.9702599,150.32501,67.74403)"/>
<use data-text="q" xlink:href="#font_3_91" transform="matrix(7.9701,0,0,-7.9702599,156.0874,67.74403)"/>
<use data-text="u" xlink:href="#font_3_109" transform="matrix(7.9701,0,0,-7.9702599,160.55863,67.74403)"/>
<use data-text="i" xlink:href="#font_3_66" transform="matrix(7.9701,0,0,-7.9702599,165.26099,67.74403)"/>
<use data-text="l" xlink:href="#font_3_72" transform="matrix(7.9701,0,0,-7.9702599,167.61215,67.74403)"/>
<use data-text="i" xlink:href="#font_3_66" transform="matrix(7.9701,0,0,-7.9702599,169.96335,67.74403)"/>
<use data-text="b" xlink:href="#font_3_35" transform="matrix(7.9701,0,0,-7.9702599,172.31452,67.74403)"/>
<use data-text="r" xlink:href="#font_3_96" transform="matrix(7.9701,0,0,-7.9702599,177.01688,67.74403)"/>
<use data-text="i" xlink:href="#font_3_66" transform="matrix(7.9701,0,0,-7.9702599,180.3165,67.74403)"/>
<use data-text="u" xlink:href="#font_3_109" transform="matrix(7.9701,0,0,-7.9702599,182.6677,67.74403)"/>
<use data-text="m" xlink:href="#font_3_75" transform="matrix(7.9701,0,0,-7.9702599,187.37006,67.74403)"/>
<use data-text="p" xlink:href="#font_3_84" transform="matrix(7.9701,0,0,-7.9702599,150.32501,79.69928)"/>
<use data-text="o" xlink:href="#font_3_81" transform="matrix(7.9701,0,0,-7.9702599,155.26648,79.69928)"/>
<use data-text="s" xlink:href="#font_3_98" transform="matrix(7.9701,0,0,-7.9702599,159.4986,79.69928)"/>
<use data-text="i" xlink:href="#font_3_66" transform="matrix(7.9701,0,0,-7.9702599,162.83808,79.69928)"/>
<use data-text="t" xlink:href="#font_3_105" transform="matrix(7.9701,0,0,-7.9702599,165.18924,79.69928)"/>
<use data-text="i" xlink:href="#font_3_66" transform="matrix(7.9701,0,0,-7.9702599,168.4809,79.69928)"/>
<use data-text="o" xlink:href="#font_3_81" transform="matrix(7.9701,0,0,-7.9702599,170.83209,79.69928)"/>
<use data-text="n" xlink:href="#font_3_77" transform="matrix(7.9701,0,0,-7.9702599,175.06421,79.69928)"/>
<path transform="matrix(1,0,0,-1.00002,129.854,30.345288)" stroke-width=".3985" stroke-linecap="butt" stroke-miterlimit="10" stroke-linejoin="miter" fill="none" stroke="#000000" d="M-70.867-14.17339C-70.11983-15.66782-68.37631-16.66408-65.88562-16.66408H-47.50159C-45.0109-16.66408-43.26738-17.66034-42.5202-19.15477-41.77303-17.66034-40.02951-16.66408-37.53882-16.66408H-19.15477C-16.66408-16.66408-14.92056-15.66782-14.17339-14.17339"/>
<use data-text="x" xlink:href="#font_1_3" transform="matrix(9.9626,0,0,-9.962799,82.252,55.8798)"/>
<use data-text="1" xlink:href="#font_2_1" transform="matrix(6.9738,0,0,-6.97394,87.946,57.37483)"/>
<path transform="matrix(1,0,0,-1.00002,129.854,30.345288)" stroke-width=".3985" stroke-linecap="butt" stroke-miterlimit="10" stroke-linejoin="miter" fill="none" stroke="#000000" d="M42.52022-14.17339C43.2674-15.66782 45.01091-16.66408 47.5016-16.66408H65.88564C68.37633-16.66408 70.11984-17.66034 70.86702-19.15477 71.6142-17.66034 73.35771-16.66408 75.8484-16.66408H94.23245C96.72314-16.66408 98.46666-15.66782 99.21384-14.17339"/>
<use data-text="x" xlink:href="#font_1_3" transform="matrix(9.9626,0,0,-9.962799,195.639,55.8798)"/>
<use data-text="2" xlink:href="#font_2_2" transform="matrix(6.9738,0,0,-6.97394,201.33301,57.37483)"/>
</svg>
