<svg xmlns="http://www.w3.org/2000/svg" xmlns:xlink="http://www.w3.org/1999/xlink" version="1.1" width="271" height="200" viewBox="0 0 271 200">
<defs>
<path id="font_1_1" d="M.69898989 .22743225C.71499636 .22743225 .7369995 .22743225 .7369995 .25042726 .7369995 .2734375 .71499636 .2734375 .69898989 .2734375H.12599182C.10998535 .2734375 .08799744 .2734375 .08799744 .25042726 .08799744 .22743225 .10998535 .22743225 .12599182 .22743225H.69898989Z"/>
<path id="font_2_2" d="M.31399537 .63708499C.31399537 .664032 .31199647 .66503909 .2849884 .66503909 .24398804 .6251831 .19099427 .6013489 .09599304 .6013489V.5683594C.12298584 .5683594 .1769867 .5683594 .23498535 .5953522V.08203125C.23498535 .04499817 .23199463 .032989503 .13699341 .032989503H.101989749V0C.14299011 .0029907227 .22898865 .0029907227 .27398683 .0029907227 .31900025 .0029907227 .4059906 .0029907227 .44699098 0V.032989503H.4119873C.31698609 .032989503 .31399537 .04499817 .31399537 .08203125V.63708499Z"/>
<path id="font_2_1" d="M.4889984 .31877137C.4889984 .42585755 .47799684 .49090577 .44499208 .55496218 .40098573 .6430359 .31999208 .66503909 .2649994 .66503909 .13899231 .66503909 .09298706 .5709839 .07899475 .5429535 .042999269 .4698944 .040985109 .3708191 .040985109 .31877137 .040985109 .25271607 .04399109 .15162659 .09199524 .07156372 .13798523-.0024871827 .21199036-.021484375 .2649994-.021484375 .31298829-.021484375 .39898683-.0064849855 .44898988 .09257507 .48599244 .16464234 .4889984 .2537079 .4889984 .31877137M.2649994 .006515503C.23098755 .006515503 .1619873 .022521973 .14099121 .12760926 .12998963 .18466187 .12998963 .2787323 .12998963 .33078004 .12998963 .3998413 .12998963 .4698944 .14099121 .5249481 .1619873 .6270294 .23999024 .6370239 .2649994 .6370239 .29899598 .6370239 .36799623 .62002566 .3880005 .5289459 .3999939 .4738922 .3999939 .39883424 .3999939 .33078004 .3999939 .27172853 .3999939 .18165589 .3880005 .12561035 .36698915 .020523072 .2979889 .006515503 .2649994 .006515503Z"/>
<path id="font_2_10" d="M.3919983 .29478456C.3919983 .050704957 .27598573 .008514404 .21798706 .008514404 .19699097 .008514404 .14498902 .011520386 .117996219 .04270935 .1619873 .046707155 .16499329 .079711917 .16499329 .08970642 .16499329 .1197052 .14199829 .13671875 .117996219 .13671875 .099990848 .13671875 .070999149 .12571717 .070999149 .08770752 .070999149 .019577027 .1269989-.021484375 .21899414-.021484375 .35598756-.021484375 .48599244 .114715579 .48599244 .3287964 .48599244 .58898928 .37098695 .66503909 .2679901 .66503909 .1499939 .66503909 .04399109 .5729828 .04399109 .44187928 .04399109 .31278993 .14099121 .21875 .2539978 .21875 .32499696 .21875 .36799623 .26374818 .3919983 .31478883V.29478456M.2579956 .24674988C.21199036 .24674988 .18299866 .26776124 .16099549 .30477906 .13798523 .34181214 .13798523 .3898468 .13798523 .44088746 .13798523 .4999237 .13798523 .54196169 .16499329 .58299258 .18998719 .61901858 .22200012 .6390381 .2689972 .6390381 .33599855 .6390381 .36499024 .5729828 .36799623 .5679779 .3889923 .51893618 .3899994 .44088746 .3899994 .42086793 .3899994 .34181214 .34700013 .24674988 .2579956 .24674988Z"/>
<path id="font_2_9" d="M.33198548 .36080934C.3880005 .38783265 .45599366 .4378662 .45599366 .5159302 .45599366 .6110077 .35899354 .66503909 .2659912 .66503909 .1599884 .66503909 .07398987 .59199526 .07398987 .49790956 .07398987 .46089173 .08699036 .42686463 .11199951 .39782716 .1289978 .3768158 .1329956 .3748169 .19499207 .3357849 .070999149 .2807312 .04399109 .20767212 .04399109 .15162659 .04399109 .041534425 .15499878-.021484375 .2639923-.021484375 .3869934-.021484375 .48599244 .061553956 .48599244 .16764832 .48599244 .23069763 .45199586 .2727356 .43598939 .28974916 .4189911 .30575563 .41799928 .3067627 .33198548 .36080934M.1769867 .45487977C.147995 .4718933 .12399292 .5009155 .12399292 .5359497 .12399292 .598999 .19299317 .6390381 .2639923 .6390381 .34199525 .6390381 .4059906 .5859833 .4059906 .5159302 .4059906 .45788575 .36099244 .408844 .3019867 .37982179L.1769867 .45487977M.22599793 .31776429C.22999573 .31576539 .34399415 .24571228 .36099244 .23469544 .3769989 .22569275 .42900086 .19366455 .42900086 .13360596 .42900086 .056549074 .34799195 .008514404 .2659912 .008514404 .1769867 .008514404 .100997928 .06956482 .100997928 .15162659 .100997928 .22668457 .15699768 .28573609 .22599793 .31776429Z"/>
<path id="font_2_8" d="M.5059967 .608551C.5149994 .6195526 .5149994 .6215515 .5149994 .6435547H.26098634C.23599243 .6435547 .20498657 .64456179 .17999268 .64660647 .12799073 .65068057 .1269989 .6597748 .12399292 .67578127H.09298706L.05899048 .46453858H.08999634C.09199524 .47953797 .102996829 .54855349 .116989139 .5565491 .12799073 .56155398 .20298767 .56155398 .21798706 .56155398H.42999269L.32699586 .4235382C.21299744 .27153016 .18899536 .11351013 .18899536 .03451538 .18899536 .024505616 .18899536-.021484375 .23599243-.021484375 .2829895-.021484375 .2829895 .023513794 .2829895 .035507204V.08351135C.2829895 .2275238 .30699159 .34553529 .35598756 .41053773L.5059967 .608551Z"/>
<path id="font_2_7" d="M.13798523 .33073426C.13798523 .41377259 .14498902 .4868164 .18099976 .54782107 .21099854 .5978241 .2619934 .6390381 .32499696 .6390381 .34498597 .6390381 .3909912 .63601687 .4139862 .60084536 .36898805 .5988312 .36499024 .5648346 .36499024 .553833 .36499024 .5238342 .3880005 .50683596 .4119873 .50683596 .42999269 .50683596 .45899964 .51782229 .45899964 .5558319 .45899964 .615921 .4139862 .66503909 .32398988 .66503909 .18499756 .66503909 .04399109 .53282168 .04399109 .31672669 .04399109 .045532228 .16999817-.021484375 .2669983-.021484375 .31498719-.021484375 .36698915-.0084991459 .4119873 .03453064 .45199586 .07354736 .48599244 .11558533 .48599244 .20263672 .48599244 .33372499 .3869934 .42578126 .27598573 .42578126 .20399475 .42578126 .16099549 .37976075 .13798523 .33073426M.2669983 .008514404C.21398926 .008514404 .18099976 .045532228 .1659851 .07354736 .14299011 .11859131 .14099121 .18663025 .14099121 .22465515 .14099121 .32373048 .19499207 .3977661 .27198792 .3977661 .32199098 .3977661 .35198976 .37176515 .37098695 .33673097 .3919983 .29971314 .3919983 .25468446 .3919983 .2036438 .3919983 .15260315 .3919983 .10858154 .37199403 .07255554 .34599305 .026519776 .31098939 .008514404 .2669983 .008514404Z"/>
<path id="font_2_6" d="M.13999939 .5618439C.15299988 .55784609 .19299317 .54785159 .23498535 .54785159 .3600006 .54785159 .43598939 .6358948 .43598939 .6510315 .43598939 .6620331 .42900086 .66503909 .42399598 .66503909 .42199708 .66503909 .41999818 .66503909 .41099549 .6600342 .37199403 .6450348 .32598878 .632843 .27198792 .632843 .21299744 .632843 .1639862 .6480255 .1329956 .6600342 .12298584 .66503909 .12098694 .66503909 .11999512 .66503909 .10699463 .66503909 .10699463 .6540375 .10699463 .6358948V.34292604C.10699463 .32492066 .10699463 .312912 .12298584 .312912 .1309967 .312912 .13398743 .3169098 .13899231 .32492066 .15098572 .33992005 .18899536 .39093019 .27398683 .39093019 .32998658 .39093019 .35699464 .34492494 .3659973 .32591249 .3829956 .28990174 .3849945 .24389649 .3849945 .20487976 .3849945 .1678772 .38398744 .11387634 .35598756 .069732669 .33699037 .039611818 .29699708 .008514404 .24398804 .008514404 .1789856 .008514404 .114990238 .0496521 .09199524 .11488342 .09498596 .11387634 .100997928 .11387634 .101989749 .11387634 .12998963 .11387634 .1519928 .13188172 .1519928 .16288758 .1519928 .19989014 .12298584 .21289063 .102996829 .21289063 .084991458 .21289063 .052993776 .20288086 .052993776 .15988159 .052993776 .069732669 .1309967-.021484375 .24598694-.021484375 .37098695-.021484375 .47698976 .07574463 .47698976 .19989014 .47698976 .31591798 .3929901 .4189453 .2749939 .4189453 .22499085 .4189453 .17799378 .40293885 .13999939 .368927V.5618439Z"/>
<path id="font_2_5" d="M.3939972 .6468048C.3939972 .6667938 .3939972 .6748047 .37298585 .6748047 .3600006 .6748047 .35899354 .6737976 .34899903 .65979006L.02999878 .197052V.1640625H.31199647V.08100891C.31199647 .04399109 .30899049 .032989503 .23199463 .032989503H.20899964V0C.2939911 .0029907227 .29599 .0029907227 .35299684 .0029907227 .4099884 .0029907227 .4119873 .0029907227 .49699403 0V.032989503H.47399903C.39698792 .032989503 .3939972 .04399109 .3939972 .08100891V.1640625H.5V.197052H.3939972V.6468048M.31900025 .5658417V.197052H.06498718L.31900025 .5658417Z"/>
<path id="font_2_4" d="M.25299073 .33370973C.33198548 .33370973 .38198854 .27557374 .38198854 .17037964 .38198854 .045440675 .31098939 .008514404 .2579956 .008514404 .20298767 .008514404 .12799073 .0284729 .09298706 .08137512 .1289978 .08137512 .1539917 .10437012 .1539917 .13737488 .1539917 .16937256 .1309967 .19238281 .09899902 .19238281 .07199097 .19238281 .04399109 .17536927 .04399109 .13537598 .04399109 .04045105 .1459961-.021484375 .2599945-.021484375 .3929901-.021484375 .48599244 .070388797 .48599244 .17037964 .48599244 .25352479 .41999818 .32969667 .31799317 .3517456 .39698792 .37982179 .45599366 .4479828 .45599366 .52804568 .45599366 .6080475 .3659973 .66503909 .2619934 .66503909 .15499878 .66503909 .07398987 .6070404 .07398987 .53105166 .07398987 .49404908 .09899902 .4780426 .125 .4780426 .1559906 .4780426 .17599488 .5000458 .17599488 .52905276 .17599488 .56604006 .14399719 .5800476 .12199402 .5810547 .1639862 .6360321 .24099732 .6390381 .25898744 .6390381 .2849884 .6390381 .36099244 .6310272 .36099244 .52804568 .36099244 .45799256 .33198548 .41589356 .31799317 .39985658 .28799439 .36878968 .2649994 .36679078 .20399475 .3627777 .18499756 .36177064 .1769867 .36076356 .1769867 .3477478 .1769867 .33370973 .18598938 .33370973 .20298767 .33370973H.25299073Z"/>
<path id="font_2_3" d="M.28199769 .20405579C.2979889 .21907044 .33999635 .2520752 .35598756 .26608277 .41799928 .32312013 .47698976 .3781433 .47698976 .46917726 .47698976 .588089 .3769989 .66503909 .2519989 .66503909 .13198853 .66503909 .052993776 .57411196 .052993776 .48516847 .052993776 .4361725 .09199524 .4291687 .10598755 .4291687 .1269989 .4291687 .1579895 .4441681 .1579895 .48217774 .1579895 .5341797 .10798645 .5341797 .09599304 .5341797 .125 .6070709 .19198609 .6320343 .24099732 .6320343 .33399964 .6320343 .38198854 .55314639 .38198854 .46917726 .38198854 .36514283 .30899049 .28910829 .19099427 .16804505L.06498718 .037994386C.052993776 .026992798 .052993776 .024993897 .052993776 0H.44799806L.47698976 .17904663H.44599916C.44299317 .1590271 .43499757 .10900879 .4229889 .08999634 .4169922 .08198547 .34098817 .08198547 .32499696 .08198547H.14698792L.28199769 .20405579Z"/>
<clipPath id="clip_3">
<path transform="matrix(1.00008,0,0,-1.00003,11.746506,189.04128)" d="M0 0H239.10584V167.37409H0Z"/>
</clipPath>
<path id="font_4_1" d="M.36698915 .3996582H.45298768C.47299195 .3996582 .48298646 .3996582 .48298646 .41966249 .48298646 .43066407 .47299195 .43066407 .45599366 .43066407H.37298585L.3939972 .5449524C.397995 .5660095 .4119873 .6370239 .41799928 .6490326 .4269867 .66804507 .44400025 .68307498 .46499635 .68307498 .46899415 .68307498 .49499513 .68307498 .5139923 .66503909 .46998597 .661026 .45999146 .6260376 .45999146 .6110382 .45999146 .58802798 .47799684 .57603457 .49699403 .57603457 .522995 .57603457 .5519867 .5980377 .5519867 .6360321 .5519867 .6820679 .5059967 .7050781 .46499635 .7050781 .43099977 .7050781 .36799623 .68707278 .33799745 .58802798 .33198548 .56700137 .32899476 .5569763 .30499269 .43066407H.23599243C.21699524 .43066407 .20599365 .43066407 .20599365 .4116516 .20599365 .3996582 .21499634 .3996582 .23399353 .3996582H.2999878L.22499085 .0048828127C.20698548-.09207153 .18998719-.18309021 .13798523-.18309021 .13398743-.18309021 .10899353-.18309021 .08999634-.16506958 .13598633-.1620636 .14498902-.12606812 .14498902-.111068729 .14498902-.08807373 .1269989-.07606506 .10798645-.07606506 .08198547-.07606506 .052993776-.09806824 .052993776-.13606262 .052993776-.18109131 .09700012-.20507813 .13798523-.20507813 .19299317-.20507813 .23298645-.14607239 .25099183-.108062747 .2829895-.04508972 .30599977 .07583618 .30699159 .082839969L.36698915 .3996582Z"/>
<path id="font_5_1" d="M.33099366-.2400055C.33099366-.23701477 .33099366-.23500061 .31399537-.21800232 .18899536-.0920105 .15699768 .09700012 .15699768 .25 .15699768 .42399598 .19499207 .59799197 .31799317 .72299197 .33099366 .73498538 .33099366 .7369995 .33099366 .73999026 .33099366 .746994 .32699586 .75 .32099916 .75 .31098939 .75 .22099304 .6819916 .1619873 .5549927 .11099243 .44499208 .09899902 .33399964 .09899902 .25 .09899902 .17199707 .10998535 .050994874 .16499329-.06201172 .22499085-.18501282 .31098939-.25 .32099916-.25 .32699586-.25 .33099366-.24700928 .33099366-.2400055Z"/>
<path id="font_4_2" d="M.33399964 .30233766C.33999635 .32835389 .36299134 .42037965 .43299867 .42037965 .43798829 .42037965 .46199037 .42037965 .48298646 .40734864 .45498658 .402359 .43499757 .37734986 .43499757 .35334779 .43499757 .33735658 .44599916 .31835938 .47299195 .31835938 .49499513 .31835938 .5269928 .3363495 .5269928 .37635804 .5269928 .42837525 .46798707 .4423828 .43399049 .4423828 .37599183 .4423828 .34098817 .38935853 .32899476 .36634828 .3039856 .43237306 .25 .4423828 .22099304 .4423828 .116989139 .4423828 .05999756 .3133545 .05999756 .28834535 .05999756 .27833558 .069992069 .27833558 .07199097 .27833558 .07998657 .27833558 .08299255 .28033448 .084991458 .28933717 .11898804 .39535523 .18499756 .42037965 .21899414 .42037965 .23799134 .42037965 .272995 .4113617 .272995 .35334779 .272995 .32235719 .2559967 .25532533 .21899414 .11528015 .20298767 .053268434 .16799927 .011245728 .12399292 .011245728 .117996219 .011245728 .09498596 .011245728 .07398987 .024276734 .09899902 .029266358 .12098694 .05027771 .12098694 .07827759 .12098694 .105270389 .09899902 .11328125 .083999637 .11328125 .053985597 .11328125 .0289917 .08728027 .0289917 .055267335 .0289917 .009246826 .07899475-.0107421879 .12298584-.0107421879 .18899536-.0107421879 .22499085 .059280397 .22799683 .0652771 .23999024 .028274537 .27598573-.0107421879 .33599855-.0107421879 .43899537-.0107421879 .49598695 .118270877 .49598695 .14328003 .49598695 .1532898 .4869995 .1532898 .48399354 .1532898 .47499085 .1532898 .47299195 .14929199 .47099305 .14228821 .43798829 .03527832 .36999513 .011245728 .33799745 .011245728 .29899598 .011245728 .2829895 .043273927 .2829895 .07727051 .2829895 .09927368 .2889862 .121276859 .2999878 .16529846L.33399964 .30233766Z"/>
<path id="font_5_2" d="M.2889862 .25C.2889862 .32798768 .27799989 .44898988 .22299195 .56199648 .16299439 .68499758 .07699585 .75 .066986087 .75 .06098938 .75 .056991579 .74598696 .056991579 .73999026 .056991579 .7369995 .056991579 .73498538 .07598877 .71699526 .17399597 .6179962 .23098755 .45899964 .23098755 .25 .23098755 .07899475 .19400025-.09700012 .069992069-.2230072 .056991579-.23500061 .056991579-.23701477 .056991579-.2400055 .056991579-.2460022 .06098938-.25 .066986087-.25 .07699585-.25 .16699219-.18200684 .22599793-.055007936 .2769928 .054992677 .2889862 .16600037 .2889862 .25Z"/>
<path id="font_4_3" d="M.48599244 .38136292C.48999024 .39537049 .48999024 .39736939 .48999024 .40437318 .48999024 .42237855 .47599793 .43138124 .46099855 .43138124 .45098878 .43138124 .43499757 .42536927 .42599488 .41036988 .42399598 .405365 .41600038 .37435914 .4119873 .35635377 .40499879 .33035279 .397995 .30334474 .3919983 .27633668L.34700013 .09628296C.34298707 .08126831 .2999878 .011245728 .23399353 .011245728 .18299866 .011245728 .17199707 .055267335 .17199707 .0922699 .17199707 .1382904 .18899536 .20030213 .22299195 .28833009 .23899842 .3293457 .24299622 .3403473 .24299622 .36035157 .24299622 .405365 .21099854 .4423828 .16099549 .4423828 .06599426 .4423828 .0289917 .29733277 .0289917 .28833009 .0289917 .27833558 .038986207 .27833558 .040985109 .27833558 .050994874 .27833558 .051986696 .28033448 .056991579 .29634095 .083999637 .3903656 .12399292 .42037965 .1579895 .42037965 .1659851 .42037965 .18299866 .42037965 .18299866 .3883667 .18299866 .36335755 .17298889 .3373413 .1659851 .31834413 .12599182 .21231079 .10798645 .1552887 .10798645 .10827637 .10798645 .019256592 .17098999-.0107421879 .22999573-.0107421879 .2689972-.0107421879 .30299378 .0062561037 .33099366 .03425598 .31799317-.017745972 .30599977-.06674194 .2659912-.11973572 .23999024-.15385437 .20199585-.18309021 .1559906-.18309021 .14199829-.18309021 .09700012-.18005371 .07998657-.14074707 .09599304-.14074707 .10899353-.14074707 .12298584-.1287384 .1329956-.11973572 .14299011-.10673523 .14299011-.08773804 .14299011-.056747438 .115997318-.052734376 .10598755-.052734376 .08299255-.052734376 .049987794-.068740848 .049987794-.11773682 .049987794-.16796875 .09399414-.20507813 .1559906-.20507813 .25898744-.20507813 .3619995-.11373901 .3899994-.00074768069L.48599244 .38136292Z"/>
</defs>
<path transform="matrix(1.00008,0,0,-1.00003,11.746506,189.04128)" stroke-width=".09962" stroke-linecap="butt" stroke-miterlimit="10" stroke-linejoin="miter" fill="none" stroke="#e0e0e0" d="M5.97765 0V167.37409M17.93294 0V167.37409M29.88823 0V167.37409M41.84352 0V167.37409M53.79881 0V167.37409M65.7541 0V167.37409M77.7094 0V167.37409M89.66469 0V167.37409M101.61998 0V167.37409M113.57527 0V167.37409M125.53056 0V167.37409M137.48586 0V167.37409M149.44115 0V167.37409M161.39644 0V167.37409M173.35173 0V167.37409M185.30702 0V167.37409M197.26232 0V167.37409M209.2176 0V167.37409M221.1729 0V167.37409M233.12819 0V167.37409"/>
<path transform="matrix(1.00008,0,0,-1.00003,11.746506,189.04128)" stroke-width=".19925" stroke-linecap="butt" stroke-miterlimit="10" stroke-linejoin="miter" fill="none" stroke="#c0c0c0" d="M0 0V167.37409M11.95529 0V167.37409M23.91058 0V167.37409M35.86588 0V167.37409M47.82117 0V167.37409M59.77646 0V167.37409M71.73175 0V167.37409M83.68704 0V167.37409M95.64233 0V167.37409M107.59763 0V167.37409M131.50821 0V167.37409M143.4635 0V167.37409M155.4188 0V167.37409M167.37409 0V167.37409M179.32938 0V167.37409M191.28467 0V167.37409M203.23996 0V167.37409M215.19525 0V167.37409M227.15055 0V167.37409M239.10584 0V167.37409"/>
<path transform="matrix(1.00008,0,0,-1.00003,11.746506,189.04128)" stroke-width=".09962" stroke-linecap="butt" stroke-miterlimit="10" stroke-linejoin="miter" fill="none" stroke="#e0e0e0" d="M0 5.97765H239.10584M0 17.93294H239.10584M0 29.88823H239.10584M0 41.84352H239.10584M0 53.79881H239.10584M0 65.7541H239.10584M0 77.7094H239.10584M0 89.66469H239.10584M0 101.61998H239.10584M0 113.57527H239.10584M0 125.53056H239.10584M0 137.48586H239.10584M0 149.44115H239.10584M0 161.39644H239.10584"/>
<path transform="matrix(1.00008,0,0,-1.00003,11.746506,189.04128)" stroke-width=".19925" stroke-linecap="butt" stroke-miterlimit="10" stroke-linejoin="miter" fill="none" stroke="#c0c0c0" d="M0 0H239.10584M0 11.95529H239.10584M0 23.91058H239.10584M0 35.86588H239.10584M0 47.82117H239.10584M0 59.77646H239.10584M0 71.73175H239.10584M0 95.64233H239.10584M0 107.59763H239.10584M0 119.55292H239.10584M0 131.50821H239.10584M0 143.4635H239.10584M0 155.4188H239.10584M0 167.37409H239.10584"/>
<path transform="matrix(1.00008,0,0,-1.00003,11.746506,189.04128)" stroke-width=".19925" stroke-linecap="butt" stroke-miterlimit="10" stroke-linejoin="miter" fill="none" stroke="#929292" d="M5.97765 82.26935V85.10472M17.93294 82.26935V85.10472M29.88823 82.26935V85.10472M41.84352 82.26935V85.10472M53.79881 82.26935V85.10472M65.7541 82.26935V85.10472M77.7094 82.26935V85.10472M89.66469 82.26935V85.10472M101.61998 82.26935V85.10472M113.57527 82.26935V85.10472M125.53056 82.26935V85.10472M137.48586 82.26935V85.10472M149.44115 82.26935V85.10472M161.39644 82.26935V85.10472M173.35173 82.26935V85.10472M185.30702 82.26935V85.10472M197.26232 82.26935V85.10472M209.2176 82.26935V85.10472M221.1729 82.26935V85.10472M233.12819 82.26935V85.10472"/>
<path transform="matrix(1.00008,0,0,-1.00003,11.746506,189.04128)" stroke-width=".19925" stroke-linecap="butt" stroke-miterlimit="10" stroke-linejoin="miter" fill="none" stroke="#929292" d="M0 81.5607V85.81335M11.95529 81.5607V85.81335M23.91058 81.5607V85.81335M35.86588 81.5607V85.81335M47.82117 81.5607V85.81335M59.77646 81.5607V85.81335M71.73175 81.5607V85.81335M83.68704 81.5607V85.81335M95.64233 81.5607V85.81335M107.59763 81.5607V85.81335M131.50821 81.5607V85.81335M143.4635 81.5607V85.81335M155.4188 81.5607V85.81335M167.37409 81.5607V85.81335M179.32938 81.5607V85.81335M191.28467 81.5607V85.81335M203.23996 81.5607V85.81335M215.19525 81.5607V85.81335M227.15055 81.5607V85.81335M239.10584 81.5607V85.81335"/>
<path transform="matrix(1.00008,0,0,-1.00003,11.746506,189.04128)" stroke-width=".19925" stroke-linecap="butt" stroke-miterlimit="10" stroke-linejoin="miter" fill="none" stroke="#929292" d="M118.13522 5.97765H120.9706M118.13522 17.93294H120.9706M118.13522 29.88823H120.9706M118.13522 41.84352H120.9706M118.13522 53.79881H120.9706M118.13522 65.7541H120.9706M118.13522 77.7094H120.9706M118.13522 89.66469H120.9706M118.13522 101.61998H120.9706M118.13522 113.57527H120.9706M118.13522 125.53056H120.9706M118.13522 137.48586H120.9706M118.13522 149.44115H120.9706M118.13522 161.39644H120.9706"/>
<path transform="matrix(1.00008,0,0,-1.00003,11.746506,189.04128)" stroke-width=".19925" stroke-linecap="butt" stroke-miterlimit="10" stroke-linejoin="miter" fill="none" stroke="#929292" d="M117.42657 0H121.67923M117.42657 11.95529H121.67923M117.42657 23.91058H121.67923M117.42657 35.86588H121.67923M117.42657 47.82117H121.67923M117.42657 59.77646H121.67923M117.42657 71.73175H121.67923M117.42657 95.64233H121.67923M117.42657 107.59763H121.67923M117.42657 119.55292H121.67923M117.42657 131.50821H121.67923M117.42657 143.4635H121.67923M117.42657 155.4188H121.67923M117.42657 167.37409H121.67923"/>
<path transform="matrix(1.00008,0,0,-1.00003,11.746506,189.04128)" stroke-width=".3985" stroke-linecap="butt" stroke-miterlimit="10" stroke-linejoin="miter" fill="none" stroke="#000000" d="M-6.37622 83.68704H245.48206"/>
<path transform="matrix(-1.00008,-0,0,1.00003,5.3697755,105.351718)" d="M3.58653 0C2.52383 .19925 .797 .797-.3985 1.49438V-1.49438C.797-.797 2.52383-.19925 3.58653 0"/>
<path transform="matrix(1.00008,0,0,-1.00003,257.2482,105.351718)" d="M3.58653 0C2.52383 .19925 .797 .797-.3985 1.49438V-1.49438C.797-.797 2.52383-.19925 3.58653 0"/>
<path transform="matrix(1.00008,0,0,-1.00003,11.746506,189.04128)" stroke-width=".3985" stroke-linecap="butt" stroke-miterlimit="10" stroke-linejoin="miter" fill="none" stroke="#000000" d="M119.55292-6.37622V173.7503"/>
<path transform="matrix(0,1.00003,1.00008,0,131.30899,195.4177)" d="M3.58653 0C2.52383 .19925 .797 .797-.3985 1.49438V-1.49438C.797-.797 2.52383-.19925 3.58653 0"/>
<path transform="matrix(0,-1.00003,-1.00008,-0,131.30899,15.285751)" d="M3.58653 0C2.52383 .19925 .797 .797-.3985 1.49438V-1.49438C.797-.797 2.52383-.19925 3.58653 0"/>
<use data-text="&#x2212;" xlink:href="#font_1_1" transform="matrix(7.9707376,0,0,-7.9703395,4.217903,116.13409)"/>
<use data-text="1" xlink:href="#font_2_2" transform="matrix(7.9707376,0,0,-7.9703395,10.804428,116.13409)"/>
<use data-text="0" xlink:href="#font_2_1" transform="matrix(7.9707376,0,0,-7.9703395,15.036888,116.13409)"/>
<use data-text="&#x2212;" xlink:href="#font_1_1" transform="matrix(7.9707376,0,0,-7.9703395,18.29203,116.13409)"/>
<use data-text="9" xlink:href="#font_2_10" transform="matrix(7.9707376,0,0,-7.9703395,24.878556,116.13409)"/>
<use data-text="&#x2212;" xlink:href="#font_1_1" transform="matrix(7.9707376,0,0,-7.9703395,30.247986,116.13409)"/>
<use data-text="8" xlink:href="#font_2_9" transform="matrix(7.9707376,0,0,-7.9703395,36.83451,116.13409)"/>
<use data-text="&#x2212;" xlink:href="#font_1_1" transform="matrix(7.9707376,0,0,-7.9703395,42.20394,116.13409)"/>
<use data-text="7" xlink:href="#font_2_8" transform="matrix(7.9707376,0,0,-7.9703395,48.790468,116.13409)"/>
<use data-text="&#x2212;" xlink:href="#font_1_1" transform="matrix(7.9707376,0,0,-7.9703395,54.160898,116.13409)"/>
<use data-text="6" xlink:href="#font_2_7" transform="matrix(7.9707376,0,0,-7.9703395,60.74742,116.13409)"/>
<use data-text="&#x2212;" xlink:href="#font_1_1" transform="matrix(7.9707376,0,0,-7.9703395,66.11685,116.13409)"/>
<use data-text="5" xlink:href="#font_2_6" transform="matrix(7.9707376,0,0,-7.9703395,72.703388,116.13409)"/>
<use data-text="&#x2212;" xlink:href="#font_1_1" transform="matrix(7.9707376,0,0,-7.9703395,78.07281,116.13409)"/>
<use data-text="4" xlink:href="#font_2_5" transform="matrix(7.9707376,0,0,-7.9703395,84.65933,116.13409)"/>
<use data-text="&#x2212;" xlink:href="#font_1_1" transform="matrix(7.9707376,0,0,-7.9703395,90.02977,116.13409)"/>
<use data-text="3" xlink:href="#font_2_4" transform="matrix(7.9707376,0,0,-7.9703395,96.616298,116.13409)"/>
<use data-text="&#x2212;" xlink:href="#font_1_1" transform="matrix(7.9707376,0,0,-7.9703395,101.985729,116.13409)"/>
<use data-text="2" xlink:href="#font_2_3" transform="matrix(7.9707376,0,0,-7.9703395,108.57225,116.13409)"/>
<use data-text="&#x2212;" xlink:href="#font_1_1" transform="matrix(7.9707376,0,0,-7.9703395,113.94167,116.13409)"/>
<use data-text="1" xlink:href="#font_2_2" transform="matrix(7.9707376,0,0,-7.9703395,120.5282,116.13409)"/>
<use data-text="1" xlink:href="#font_2_2" transform="matrix(7.9707376,0,0,-7.9703395,141.14786,116.13409)"/>
<use data-text="2" xlink:href="#font_2_3" transform="matrix(7.9707376,0,0,-7.9703395,153.1038,116.13409)"/>
<use data-text="3" xlink:href="#font_2_4" transform="matrix(7.9707376,0,0,-7.9703395,165.06078,116.13409)"/>
<use data-text="4" xlink:href="#font_2_5" transform="matrix(7.9707376,0,0,-7.9703395,177.01673,116.13409)"/>
<use data-text="5" xlink:href="#font_2_6" transform="matrix(7.9707376,0,0,-7.9703395,188.97269,116.13409)"/>
<use data-text="6" xlink:href="#font_2_7" transform="matrix(7.9707376,0,0,-7.9703395,200.92964,116.13409)"/>
<use data-text="7" xlink:href="#font_2_8" transform="matrix(7.9707376,0,0,-7.9703395,212.88559,116.13409)"/>
<use data-text="8" xlink:href="#font_2_9" transform="matrix(7.9707376,0,0,-7.9703395,224.84156,116.13409)"/>
<use data-text="9" xlink:href="#font_2_10" transform="matrix(7.9707376,0,0,-7.9703395,236.79752,116.13409)"/>
<use data-text="1" xlink:href="#font_2_2" transform="matrix(7.9707376,0,0,-7.9703395,246.6373,116.13409)"/>
<use data-text="0" xlink:href="#font_2_1" transform="matrix(7.9707376,0,0,-7.9703395,250.86975,116.13409)"/>
<use data-text="&#x2212;" xlink:href="#font_1_1" transform="matrix(7.9707376,0,0,-7.9703395,114.84075,191.19434)"/>
<use data-text="7" xlink:href="#font_2_8" transform="matrix(7.9707376,0,0,-7.9703395,121.42728,191.19434)"/>
<use data-text="&#x2212;" xlink:href="#font_1_1" transform="matrix(7.9707376,0,0,-7.9703395,114.84075,179.23899)"/>
<use data-text="6" xlink:href="#font_2_7" transform="matrix(7.9707376,0,0,-7.9703395,121.42728,179.23899)"/>
<use data-text="&#x2212;" xlink:href="#font_1_1" transform="matrix(7.9707376,0,0,-7.9703395,114.84075,167.28263)"/>
<use data-text="5" xlink:href="#font_2_6" transform="matrix(7.9707376,0,0,-7.9703395,121.42728,167.28263)"/>
<use data-text="&#x2212;" xlink:href="#font_1_1" transform="matrix(7.9707376,0,0,-7.9703395,114.84075,155.32727)"/>
<use data-text="4" xlink:href="#font_2_5" transform="matrix(7.9707376,0,0,-7.9703395,121.42728,155.32727)"/>
<use data-text="&#x2212;" xlink:href="#font_1_1" transform="matrix(7.9707376,0,0,-7.9703395,114.84075,143.3719)"/>
<use data-text="3" xlink:href="#font_2_4" transform="matrix(7.9707376,0,0,-7.9703395,121.42728,143.3719)"/>
<use data-text="&#x2212;" xlink:href="#font_1_1" transform="matrix(7.9707376,0,0,-7.9703395,114.84075,131.41654)"/>
<use data-text="2" xlink:href="#font_2_3" transform="matrix(7.9707376,0,0,-7.9703395,121.42728,131.41654)"/>
<use data-text="&#x2212;" xlink:href="#font_1_1" transform="matrix(7.9707376,0,0,-7.9703395,114.84075,119.46018)"/>
<use data-text="1" xlink:href="#font_2_2" transform="matrix(7.9707376,0,0,-7.9703395,121.42728,119.46018)"/>
<use data-text="1" xlink:href="#font_2_2" transform="matrix(7.9707376,0,0,-7.9703395,121.428279,95.964488)"/>
<use data-text="2" xlink:href="#font_2_3" transform="matrix(7.9707376,0,0,-7.9703395,121.428279,84.00912)"/>
<use data-text="3" xlink:href="#font_2_4" transform="matrix(7.9707376,0,0,-7.9703395,121.428279,72.05276)"/>
<use data-text="4" xlink:href="#font_2_5" transform="matrix(7.9707376,0,0,-7.9703395,121.428279,60.097398)"/>
<use data-text="5" xlink:href="#font_2_6" transform="matrix(7.9707376,0,0,-7.9703395,121.428279,48.142045)"/>
<use data-text="6" xlink:href="#font_2_7" transform="matrix(7.9707376,0,0,-7.9703395,121.428279,36.185686)"/>
<use data-text="7" xlink:href="#font_2_8" transform="matrix(7.9707376,0,0,-7.9703395,121.428279,24.230332)"/>
<g clip-path="url(#clip_3)">
<path transform="matrix(1.00008,0,0,-1.00003,11.746506,189.04128)" stroke-width=".99628" stroke-linecap="butt" stroke-miterlimit="10" stroke-linejoin="miter" fill="none" stroke="#e41a1c" d="M.31766 35.39497C1.7449 31.94104 1.7449 31.94104 2.41507 33.37283 3.08524 34.80463 4.15999 40.37587 4.83017 46.48325 5.50034 52.59062 6.57509 67.55153 7.24527 77.39066 7.91545 87.22977 8.9902 107.58092 9.66039 117.39677 10.33055 127.21263 11.40529 143.3371 12.07547 148.13657 12.74565 152.93605 13.8204 155.25632 14.49059 151.9881 15.16075 148.71987 16.23549 134.68407 16.90567 124.58142 17.57585 114.47878 18.6506 91.09769 19.32079 79.17523 19.99095 67.25276 21.0657 46.71205 21.73589 38.65263 22.40607 30.59322 23.4808 22.30252 24.15099 21.08852 24.82117 19.8745 25.89589 25.15611 26.56607 29.9028 27.23625 34.64948 28.31099 47.79587 28.98117 55.2993 29.65135 62.80273 30.72609 76.68738 31.39627 83.98244 32.06645 91.27751 33.14119 102.18576 33.81137 107.87712 34.48155 113.56848 35.55629 121.37013 36.22647 125.00189 36.89665 128.63367 37.9714 133.30536 38.64159 134.05239 39.31177 134.79943 40.38649 133.86197 41.05667 130.38594 41.72685 126.90993 42.8016 117.07051 43.47179 108.9996 44.14197 100.92871 45.21669 82.6474 45.88687 72.21652 46.55705 61.78563 47.6318 41.9668 48.30199 33.82101 48.97217 25.67523 50.04688 14.8386 50.71706 13.50731 51.38724 12.17603 52.46199 17.46597 53.13217 24.22595 53.80235 30.98595 54.87709 50.56036 55.54727 62.22859 56.21745 73.89682 57.29219 97.52866 57.96237 108.32246 58.63255 119.11629 59.70729 134.90265 60.37747 140.02298 61.04765 145.14331 62.12239 146.99257 62.79257 145.2263 63.46275 143.46002 64.5375 133.71193 65.20767 127.2929 65.87785 120.87386 66.9526 106.65184 67.62279 98.9623 68.29297 91.27277 69.3677 78.53242 70.03787 71.87196 70.70805 65.2115 71.7828 55.78006 72.45299 50.95834 73.12317 46.13663 74.19789 39.60913 74.86806 37.12033 75.53824 34.63155 76.61299 32.02914 77.28317 33.02086 77.95335 34.01257 79.02809 38.64705 79.69826 44.26804 80.36844 49.889 81.44319 63.94914 82.11337 73.53304 82.78355 83.11694 83.8583 103.29019 84.52847 113.34215 85.19865 123.3941 86.27339 140.46265 86.94357 145.98055 87.61375 151.49846 88.6885 155.52425 89.35867 153.11142 90.02885 150.6986 91.10359 138.1748 91.77377 128.5905 92.44395 119.0062 93.5187 96.05193 94.18889 84.03444 94.85905 72.01697 95.9338 50.63846 96.60399 41.9768 97.27417 33.31516 98.34889 23.54733 99.01907 21.60725 99.68924 19.66716 100.76399 23.73189 101.43417 27.99388 102.10435 32.25589 103.1791 44.94708 103.84927 52.32484 104.51944 59.70259 105.5942 73.75932 106.26437 81.16759 106.93456 88.57584 108.0093 99.83623 108.67947 105.71849 109.34964 111.60074 110.4244 119.69388 111.09457 123.56282 111.76476 127.43178 112.83951 132.49745 113.50969 133.60323 114.17986 134.70902 115.2546 134.52304 115.92477 131.5326 116.59496 128.54213 117.66971 119.69885 118.33989 112.05 119.01007 104.40115 120.0848 86.7802 120.75497 76.40495 121.42516 66.02971 122.49991 45.89314 123.17009 37.2724 123.84027 28.65166 124.915 16.44095 125.58517 14.27269 126.25536 12.10443 127.33011 15.64366 128.00029 21.64503 128.67047 27.64642 129.74521 46.11438 130.41539 57.52646 131.08557 68.93854 132.16031 92.74385 132.83049 103.89542 133.50067 115.04698 134.5754 132.06735 135.24558 137.89914 135.91576 143.73094 136.9905 147.04143 137.66068 145.92699 138.33086 144.81255 139.4056 135.96497 140.07578 129.86698 140.74596 123.76897 141.8207 109.67097 142.49088 101.97684 143.16106 94.28271 144.2358 81.23578 144.90598 74.41296 145.57616 67.59015 146.65091 57.83064 147.32109 52.80267 147.99127 47.77472 149.066 40.94563 149.73618 38.1749 150.40636 35.40416 151.48111 32.2668 152.15129 32.83304 152.82147 33.39929 153.8962 37.12701 154.56638 42.25607 155.23656 47.38515 156.3113 60.50941 156.98148 69.79988 157.65166 79.09033 158.7264 98.98409 159.39656 109.21529 160.06674 119.4465 161.1415 137.34223 161.81168 143.53928 162.48186 149.73633 163.55661 155.42797 164.22678 153.87943 164.89696 152.33087 165.9717 141.3907 166.64188 132.3783 167.31206 123.3659 168.38681 100.97183 169.05698 88.92427 169.72716 76.8767 170.8019 54.77443 171.47208 45.54773 172.14226 36.32104 173.21701 25.09836 173.88718 22.42465 174.55736 19.75096 175.63211 22.53601 176.30229 26.2776 176.97248 30.01918 178.04721 42.17322 178.71738 49.39146 179.38756 56.60971 180.46231 70.7957 181.13249 78.30176 181.80268 85.80783 182.8774 97.42075 183.54758 103.49 184.21775 109.55925 185.2925 117.94685 185.96268 122.04474 186.63286 126.14264 187.7076 131.57625 188.37778 133.02484 189.04795 134.47344 190.1227 134.99745 190.79288 132.48529 191.46306 129.97315 192.53781 122.12497 193.208 114.9189 193.87816 107.71284 194.9529 90.81845 195.62308 80.549 196.29326 70.27954 197.36801 49.94656 198.0382 40.90382 198.70836 31.86107 199.7831 18.36159 200.45328 15.3752 201.12346 12.38881 202.19821 14.16765 202.8684 19.37999 203.53856 24.59235 204.61328 41.84987 205.28347 52.94218 205.95365 64.03452 207.0284 87.87314 207.69858 99.32573 208.36876 110.77834 209.4435 128.95812 210.11368 135.48453 210.78386 142.01093 211.8586 146.80365 212.52878 146.36359 213.19896 145.92354 214.2737 138.0518 214.94388 132.31291 215.61406 126.574 216.6888 112.6731 217.35898 105.00153 218.02916 97.32997 219.1039 83.99808 219.77408 77.02159 220.44426 70.0451 221.51902 59.95 222.1892 54.71983 222.85938 49.48967 223.9341 42.36685 224.60428 39.32619 225.27446 36.28552 226.34922 32.64949 227.0194 32.8047 227.68958 32.95992 228.76428 35.811 229.43447 40.44485 230.10465 45.0787 231.1794 57.24068 231.84958 66.20229 232.51976 75.1639 233.59449 94.6788 234.26467 105.03392 234.93485 115.38905 236.0096 134.0005 236.67978 140.83487 237.34996 147.66925 239.09488 154.29138 238.88294 153.48699"/>
<path transform="matrix(-.38188056,-.9241878,-.9242339,.38186149,12.064191,153.64524)" stroke-width=".79701" stroke-linecap="round" stroke-linejoin="round" fill="none" stroke="#e41a1c" d="M-1.73352 2.31136C-1.58905 1.4446 0 .14444 .43336 0 0-.14444-1.58905-1.4446-1.73352-2.31136"/>
<path transform="matrix(.2548104,-.966979,-.96702739,-.25479768,250.64853,35.549699)" stroke-width=".79701" stroke-linecap="round" stroke-linejoin="round" fill="none" stroke="#e41a1c" d="M-1.73352 2.31136C-1.58905 1.4446 0 .14444 .43336 0 0-.14444-1.58905-1.4446-1.73352-2.31136"/>
<use data-text="f" xlink:href="#font_4_1" transform="matrix(9.963397,0,0,-9.962899,182.65418,36.10869)"/>
<use data-text="(" xlink:href="#font_5_1" transform="matrix(9.963397,0,0,-9.962899,188.60465,36.10869)"/>
<use data-text="x" xlink:href="#font_4_2" transform="matrix(9.963397,0,0,-9.962899,192.47896,36.10869)"/>
<use data-text=")" xlink:href="#font_5_2" transform="matrix(9.963397,0,0,-9.962899,198.1734,36.10869)"/>
</g>
<use data-text="x" xlink:href="#font_4_2" transform="matrix(9.963397,0,0,-9.962899,264.40574,107.47883)"/>
<use data-text="y" xlink:href="#font_4_3" transform="matrix(9.963397,0,0,-9.962899,128.70886,6.208786)"/>
</svg>
