<svg xmlns="http://www.w3.org/2000/svg" xmlns:xlink="http://www.w3.org/1999/xlink" version="1.1" width="268" height="157" viewBox="0 0 268 157">
<defs>
<clipPath id="clip_1">
<path transform="matrix(1.0001,0,0,-1,11.096306,141.201)" d="M0 0H239.10279V119.55139H0Z"/>
</clipPath>
<path id="font_2_1" d="M.69898989 .22743225C.71499636 .22743225 .7369995 .22743225 .7369995 .25042726 .7369995 .2734375 .71499636 .2734375 .69898989 .2734375H.12599182C.10998535 .2734375 .08799744 .2734375 .08799744 .25042726 .08799744 .22743225 .10998535 .22743225 .12599182 .22743225H.69898989Z"/>
<path id="font_3_1" d="M.18598938 .22105408C.22698975 .20605469 .2679901 .20605469 .2849884 .20605469 .31599427 .20605469 .3809967 .20605469 .3809967 .24511719 .3809967 .27711488 .32998658 .27711488 .29699708 .27711488 .2709961 .27711488 .23599243 .27711488 .18798828 .25810243 .1599884 .2711029 .1459961 .28910829 .1459961 .30911256 .1459961 .36112977 .24899292 .39413453 .35099793 .39413453 .36999513 .39413453 .41299439 .39413453 .46099855 .36613465 .47200013 .35913087 .47299195 .35813905 .48199464 .35813905 .5 .35813905 .5139923 .37513734 .5139923 .39013673 .5139923 .4061432 .5009918 .4181366 .45700074 .4351349 .4119873 .45214845 .3769989 .45214845 .3619995 .45214845 .23399353 .45214845 .10899353 .38813783 .10899353 .30812074 .10899353 .2671051 .147995 .23905945 .14898682 .23905945 .09599304 .20704651 .06098938 .16191101 .06098938 .11074829 .06098938 .040527345 .13198853-.021484375 .2559967-.021484375 .4249878-.021484375 .47099305 .07463074 .47099305 .08566284 .47099305 .095703128 .46299745 .10171509 .45498658 .10171509 .44699098 .10171509 .44299317 .09669495 .43899537 .08866882 .4099884 .045532228 .36099244 .036514284 .2709961 .036514284 .23999024 .036514284 .19299317 .036514284 .1539917 .05155945 .12599182 .06359863 .09799194 .08465576 .09799194 .116760257 .09799194 .15489197 .13899231 .20002747 .18598938 .22105408M.33198548 .24208069C.31999208 .24006653 .30899049 .23905945 .28599549 .23905945 .2829895 .23905945 .2539978 .23905945 .2539978 .24107361 .2539978 .24409485 .2919922 .24409485 .29599 .24409485 .31698609 .24409485 .31900025 .24409485 .33198548 .24208069Z"/>
<path id="font_4_2" d="M.5379944 .18702698H.5009918C.49899293 .17301941 .4889984 .10699463 .47399903 .09599304 .46699525 .08999634 .38598634 .08999634 .37199403 .08999634H.18499756L.31298829 .19403076C.34700013 .22103882 .43598939 .28504945 .46699525 .31506349 .49699403 .3450775 .5379944 .39608766 .5379944 .46710206 .5379944 .5920563 .4249878 .66503909 .29100038 .66503909 .1619873 .66503909 .07199097 .58006289 .07199097 .48609925 .07199097 .43510438 .114990238 .42910768 .12599182 .42910768 .15098572 .42910768 .17999268 .44709779 .17999268 .48310853 .17999268 .50509646 .16699219 .5371094 .12298584 .5371094 .1459961 .5880585 .20698548 .6260376 .27598573 .6260376 .3809967 .6260376 .43699647 .5480957 .43699647 .46710206 .43699647 .39608766 .3899994 .32305909 .31999208 .25904847L.08299255 .041992189C.07299805 .03199768 .07199097 .0309906 .07199097 0H.5069885L.5379944 .18702698Z"/>
<path id="font_4_1" d="M.35899354 .6349335C.35899354 .66503909 .35499574 .66503909 .32499696 .66503909 .25898744 .60058596 .15699768 .60058596 .12098694 .60058596V.5615845C.14698792 .5615845 .21299744 .5615845 .272995 .58958438V.08496094C.272995 .051986696 .272995 .038986207 .16999817 .038986207H.1269989V0C.18199158 .0039978029 .2599945 .0039978029 .31599427 .0039978029 .37199403 .0039978029 .44999696 .0039978029 .5049896 0V.038986207H.46199037C.35899354 .038986207 .35899354 .051986696 .35899354 .08496094V.6349335Z"/>
<clipPath id="clip_5">
<path transform="matrix(1.0001,0,0,-1,11.096306,141.201)" d="M0 0H239.10279V119.55139H0Z"/>
</clipPath>
<path id="font_6_2" d="M.20599365 .3996582H.2999878C.31999208 .3996582 .32998658 .3996582 .32998658 .41966249 .32998658 .43066407 .31999208 .43066407 .3019867 .43066407H.21398926C.25 .5724945 .25498963 .59246829 .25498963 .59846499 .25498963 .61546328 .24299622 .62545779 .22599793 .62545779 .22299195 .62545779 .19499207 .62446597 .18598938 .58947756L.14698792 .43066407H.052993776C.032989503 .43066407 .022994996 .43066407 .022994996 .4116516 .022994996 .3996582 .0309906 .3996582 .050994874 .3996582H.13899231C.066986087 .11608887 .06298828 .099121097 .06298828 .08114624 .06298828 .02722168 .100997928-.0107421879 .15499878-.0107421879 .25698854-.0107421879 .31399537 .13505554 .31399537 .14305115 .31399537 .1530304 .30599977 .1530304 .3019867 .1530304 .29299928 .1530304 .2919922 .15003968 .2869873 .13905335 .24398804 .035217287 .19099427 .011245728 .15699768 .011245728 .13598633 .011245728 .12599182 .024230957 .12599182 .057174684 .12599182 .08114624 .12799073 .088134769 .13198853 .10510254L.20599365 .3996582Z"/>
<path id="font_6_3" d="M.48599244 .38136292C.48999024 .39537049 .48999024 .39736939 .48999024 .40437318 .48999024 .42237855 .47599793 .43138124 .46099855 .43138124 .45098878 .43138124 .43499757 .42536927 .42599488 .41036988 .42399598 .405365 .41600038 .37435914 .4119873 .35635377 .40499879 .33035279 .397995 .30334474 .3919983 .27633668L.34700013 .09628296C.34298707 .08126831 .2999878 .011245728 .23399353 .011245728 .18299866 .011245728 .17199707 .055267335 .17199707 .0922699 .17199707 .1382904 .18899536 .20030213 .22299195 .28833009 .23899842 .3293457 .24299622 .3403473 .24299622 .36035157 .24299622 .405365 .21099854 .4423828 .16099549 .4423828 .06599426 .4423828 .0289917 .29733277 .0289917 .28833009 .0289917 .27833558 .038986207 .27833558 .040985109 .27833558 .050994874 .27833558 .051986696 .28033448 .056991579 .29634095 .083999637 .3903656 .12399292 .42037965 .1579895 .42037965 .1659851 .42037965 .18299866 .42037965 .18299866 .3883667 .18299866 .36335755 .17298889 .3373413 .1659851 .31834413 .12599182 .21231079 .10798645 .1552887 .10798645 .10827637 .10798645 .019256592 .17098999-.0107421879 .22999573-.0107421879 .2689972-.0107421879 .30299378 .0062561037 .33099366 .03425598 .31799317-.017745972 .30599977-.06674194 .2659912-.11973572 .23999024-.15385437 .20199585-.18309021 .1559906-.18309021 .14199829-.18309021 .09700012-.18005371 .07998657-.14074707 .09599304-.14074707 .10899353-.14074707 .12298584-.1287384 .1329956-.11973572 .14299011-.10673523 .14299011-.08773804 .14299011-.056747438 .115997318-.052734376 .10598755-.052734376 .08299255-.052734376 .049987794-.068740848 .049987794-.11773682 .049987794-.16796875 .09399414-.20507813 .1559906-.20507813 .25898744-.20507813 .3619995-.11373901 .3899994-.00074768069L.48599244 .38136292Z"/>
<path id="font_6_1" d="M.5159912 .68333438C.5159912 .6843262 .5159912 .69433596 .5029907 .69433596 .48799134 .69433596 .3929901 .68533328 .37599183 .68333438 .36799623 .6823273 .3619995 .6773224 .3619995 .6643219 .3619995 .6523285 .37098695 .6523285 .38598634 .6523285 .43399049 .6523285 .43598939 .6453247 .43598939 .6353302L.43299867 .6153412 .37298585 .37835694C.35499574 .41537477 .32598878 .4423828 .2809906 .4423828 .1639862 .4423828 .039993287 .29533387 .039993287 .14929199 .039993287 .055267335 .09498596-.0107421879 .17298889-.0107421879 .19299317-.0107421879 .24299622-.0067443849 .30299378 .06427002 .31098939 .022247315 .34599305-.0107421879 .3939972-.0107421879 .42900086-.0107421879 .45199586 .012252808 .46798707 .044265748 .4850006 .08027649 .49798585 .14129639 .49798585 .14329529 .49798585 .1532898 .4889984 .1532898 .48599244 .1532898 .47599793 .1532898 .47499085 .14929199 .47200013 .13528443 .45498658 .07026672 .43699647 .011245728 .3959961 .011245728 .36898805 .011245728 .3659973 .037261964 .3659973 .057266237 .3659973 .08126831 .36799623 .088272098 .37199403 .105285648L.5159912 .68333438M.30799867 .119277957C.30299378 .10127258 .30299378 .09927368 .28799439 .08227539 .24398804 .027252198 .20298767 .011245728 .1749878 .011245728 .125 .011245728 .11099243 .06626892 .11099243 .105285648 .11099243 .1552887 .14299011 .27833558 .1659851 .32434083 .19699097 .38336183 .24198914 .42037965 .28199769 .42037965 .34700013 .42037965 .36099244 .3383484 .36099244 .33235169 .36099244 .32633973 .35899354 .32034303 .35798646 .31533814L.30799867 .119277957Z"/>
<path id="font_7_1" d="M.1659851 .22332764C.20399475 .20831299 .23399353 .20831299 .2630005 .20831299 .29499818 .20831299 .35398866 .20831299 .35398866 .24537659 .35398866 .27238465 .31599427 .27638246 .272995 .27638246 .25898744 .27638246 .21598816 .27638246 .16699219 .25637818 .14399719 .26737977 .1289978 .2863617 .1289978 .3083191 .1289978 .3622284 .22599793 .39616395 .32699586 .39616395 .34298707 .39616395 .38598634 .39616395 .43099977 .36820985 .43699647 .3642273 .44299317 .35923768 .45098878 .35923768 .46499635 .35923768 .48298646 .37420655 .48298646 .39117433 .48298646 .41116334 .44999696 .4251709 .43099977 .4331665 .3880005 .45117188 .35299684 .45117188 .33799745 .45117188 .21598816 .45117188 .09498596 .3871765 .09498596 .30732728 .09498596 .26638795 .1329956 .24034119 .13398743 .2393341 .09700012 .21731568 .04699707 .1733551 .04699707 .11039734 .04699707 .037460329 .11898804-.01953125 .22999573-.01953125 .38198854-.01953125 .43598939 .07043457 .43598939 .08642578 .43598939 .09341431 .42999269 .09941101 .42199708 .09941101 .41600038 .09941101 .41299439 .09541321 .4099884 .091415408 .3849945 .052444459 .35198976 .035461427 .24598694 .035461427 .22099304 .035461427 .17399597 .035461427 .13798523 .049453737 .09799194 .064437869 .08099365 .091415408 .08099365 .11639404 .08099365 .13937378 .09799194 .18833924 .1659851 .22332764M.20999146 .24034119C.22099304 .24336243 .24099732 .24838257 .2709961 .24838257 .29299928 .24838257 .2979889 .24737549 .31799317 .24336243 .30299378 .23731995 .2999878 .23632813 .2630005 .23632813 .24798584 .23632813 .22799683 .23632813 .20999146 .24034119Z"/>
<path id="font_8_1" d="M.33099366-.2400055C.33099366-.23701477 .33099366-.23500061 .31399537-.21800232 .18899536-.0920105 .15699768 .09700012 .15699768 .25 .15699768 .42399598 .19499207 .59799197 .31799317 .72299197 .33099366 .73498538 .33099366 .7369995 .33099366 .73999026 .33099366 .746994 .32699586 .75 .32099916 .75 .31098939 .75 .22099304 .6819916 .1619873 .5549927 .11099243 .44499208 .09899902 .33399964 .09899902 .25 .09899902 .17199707 .10998535 .050994874 .16499329-.06201172 .22499085-.18501282 .31098939-.25 .32099916-.25 .32699586-.25 .33099366-.24700928 .33099366-.2400055Z"/>
<path id="font_8_2" d="M.2889862 .25C.2889862 .32798768 .27799989 .44898988 .22299195 .56199648 .16299439 .68499758 .07699585 .75 .066986087 .75 .06098938 .75 .056991579 .74598696 .056991579 .73999026 .056991579 .7369995 .056991579 .73498538 .07598877 .71699526 .17399597 .6179962 .23098755 .45899964 .23098755 .25 .23098755 .07899475 .19400025-.09700012 .069992069-.2230072 .056991579-.23500061 .056991579-.23701477 .056991579-.2400055 .056991579-.2460022 .06098938-.25 .066986087-.25 .07699585-.25 .16699219-.18200684 .22599793-.055007936 .2769928 .054992677 .2889862 .16600037 .2889862 .25Z"/>
</defs>
<path transform="matrix(1.0001,0,0,-1,11.096306,141.201)" stroke-width=".19925" stroke-linecap="butt" stroke-miterlimit="10" stroke-linejoin="miter" fill="none" stroke="#929292" d="M119.55139-1.41743V1.41745"/>
<path transform="matrix(1.0001,0,0,-1,11.096306,141.201)" stroke-width=".19925" stroke-linecap="butt" stroke-miterlimit="10" stroke-linejoin="miter" fill="none" stroke="#929292" d="M89.66354-2.12598V2.12598M149.43924-2.12598V2.12598"/>
<path transform="matrix(1.0001,0,0,-1,11.096306,141.201)" stroke-width=".19925" stroke-linecap="butt" stroke-miterlimit="10" stroke-linejoin="miter" fill="none" stroke="#929292" d=""/>
<path transform="matrix(1.0001,0,0,-1,11.096306,141.201)" stroke-width=".19925" stroke-linecap="butt" stroke-miterlimit="10" stroke-linejoin="miter" fill="none" stroke="#929292" d="M117.4254 59.7757H121.67737"/>
<path transform="matrix(1.0001,0,0,-1,11.096306,141.201)" stroke-width=".3985" stroke-linecap="butt" stroke-miterlimit="10" stroke-linejoin="miter" fill="none" stroke="#000000" d="M-6.37622 0H245.47902"/>
<path transform="matrix(-1.0001,-0,0,1,4.719448,141.201)" d="M3.58653 0C2.52383 .19925 .797 .797-.3985 1.49438V-1.49438C.797-.797 2.52383-.19925 3.58653 0"/>
<path transform="matrix(1.0001,0,0,-1,256.59989,141.201)" d="M3.58653 0C2.52383 .19925 .797 .797-.3985 1.49438V-1.49438C.797-.797 2.52383-.19925 3.58653 0"/>
<path transform="matrix(1.0001,0,0,-1,11.096306,141.201)" stroke-width=".3985" stroke-linecap="butt" stroke-miterlimit="10" stroke-linejoin="miter" fill="none" stroke="#000000" d="M119.55139-6.37622V125.92761"/>
<path transform="matrix(0,1,1.0001,0,130.65966,147.57723)" d="M3.58653 0C2.52383 .19925 .797 .797-.3985 1.49438V-1.49438C.797-.797 2.52383-.19925 3.58653 0"/>
<path transform="matrix(0,-1,-1.0001,-0,130.65966,15.273392)" d="M3.58653 0C2.52383 .19925 .797 .797-.3985 1.49438V-1.49438C.797-.797 2.52383-.19925 3.58653 0"/>
<g clip-path="url(#clip_1)">
<path transform="matrix(1.0001,0,0,-1,11.096306,141.201)" d="M89.66354 59.7757H89.9639 90.26428 90.56465 90.86502 91.16539 91.46576 91.76614 92.06651 92.36688 92.66725 92.96764 93.268 93.56837 93.86876 94.16913 94.4695 94.76987 95.07025 95.37062 95.671 95.97137 96.27173 96.57211 96.87248 97.17287 97.47322 97.7736 98.07397 98.37434 98.67471 98.97508 99.27547 99.57584 99.87622 100.17657 100.47696 100.77733 101.0777 101.37808 101.67845 101.97882 102.27919 102.57957 102.87994 103.18031 103.4807 103.78105 104.08144 104.3818 104.68219 104.98256 105.28291 105.5833 105.88367 106.18405 106.4844 106.78479 107.08516 107.38554 107.6859 107.98627 108.28665 108.58702 108.8874 109.18777 109.48814 109.78851 110.08888 110.38927 110.68964 110.99002 111.29037 111.59076 111.89113 112.1915 112.49188 112.79224 113.09262 113.39299 113.69337 113.99373 114.29411 114.59448 114.89485 115.19522 115.49559 115.79597 116.09634 116.39673 116.6971 116.99745 117.29784 117.5982 117.89859 118.19896 118.49934 118.7997 119.10007 119.40045 119.70082 120.00122 120.30156 120.60196 120.9023 121.2027 121.50308 121.80342 122.10382 122.40416 122.70456 123.00494 123.3053 123.60568 123.90602 124.20642 124.5068 124.80716 125.10754 125.4079 125.70828 126.00867 126.30902 126.6094 126.90976 127.21014 127.51054 127.81088 128.11128 128.41162 128.712 129.0124 129.31275 129.61315 129.91349 130.21389 130.51427 130.8146 131.115 131.41535 131.71575 132.01613 132.31649 132.61687 132.9172 133.2176 133.51799 133.81835 134.11873 134.41909 134.71947 135.01987 135.3202 135.62059 135.92095 136.22133 136.52173 136.82207 137.12247 137.4228 137.72319 138.02359 138.32393 138.62433 138.92467 139.22507 139.52545 139.8258 140.12619 140.42653 140.72693 141.02732 141.32767 141.62805 141.9284 142.22879 142.52918 142.82953 143.12992 143.43027 143.73065 144.03105 144.33139 144.63178 144.93213 145.23252 145.53292 145.83325 146.13365 146.43399 146.73439 147.03478 147.33512 147.63552 147.93585 148.23625 148.53664 148.83699 149.13738 149.43924V0H89.66354Z" fill="#0000ff" fill-opacity=".05"/>
</g>
<use data-text="&#x2212;" xlink:href="#font_2_1" transform="matrix(7.970897,0,0,-7.9701,94.452648,152.679)"/>
<use data-text="&#x03b5;" xlink:href="#font_3_1" transform="matrix(5.978198,0,0,-5.9776,102.30843,149.421)"/>
<path transform="matrix(1.0001,0,0,-1,11.348335,24.478)" stroke-width=".3587" stroke-linecap="butt" stroke-miterlimit="10" stroke-linejoin="miter" fill="none" stroke="#000000" d="M90.878-126.209H94.531"/>
<use data-text="2" xlink:href="#font_4_2" transform="matrix(5.978198,0,0,-5.9776,102.23542,155.805)"/>
<use data-text="&#x03b5;" xlink:href="#font_3_1" transform="matrix(5.978198,0,0,-5.9776,158.79608,149.421)"/>
<path transform="matrix(1.0001,0,0,-1,74.42365,24.478)" stroke-width=".3587" stroke-linecap="butt" stroke-miterlimit="10" stroke-linejoin="miter" fill="none" stroke="#000000" d="M84.291-126.209H87.944"/>
<use data-text="2" xlink:href="#font_4_2" transform="matrix(5.978198,0,0,-5.9776,158.72309,155.805)"/>
<use data-text="1" xlink:href="#font_4_1" transform="matrix(5.978198,0,0,-5.9776,120.164218,70.197)"/>
<path transform="matrix(1.0001,0,0,-1,35.864786,-54.746004)" stroke-width=".3587" stroke-linecap="butt" stroke-miterlimit="10" stroke-linejoin="miter" fill="none" stroke="#000000" d="M84.291-126.209H87.944"/>
<use data-text="&#x03b5;" xlink:href="#font_3_1" transform="matrix(5.978198,0,0,-5.9776,120.23722,76.58099)"/>
<g clip-path="url(#clip_5)">
<path transform="matrix(1.0001,0,0,-1,11.096306,141.201)" stroke-width=".79701" stroke-linecap="butt" stroke-miterlimit="10" stroke-linejoin="miter" fill="none" stroke="#0000ff" d="M89.66354 59.7757H89.9639 90.26428 90.56465 90.86502 91.16539 91.46576 91.76614 92.06651 92.36688 92.66725 92.96764 93.268 93.56837 93.86876 94.16913 94.4695 94.76987 95.07025 95.37062 95.671 95.97137 96.27173 96.57211 96.87248 97.17287 97.47322 97.7736 98.07397 98.37434 98.67471 98.97508 99.27547 99.57584 99.87622 100.17657 100.47696 100.77733 101.0777 101.37808 101.67845 101.97882 102.27919 102.57957 102.87994 103.18031 103.4807 103.78105 104.08144 104.3818 104.68219 104.98256 105.28291 105.5833 105.88367 106.18405 106.4844 106.78479 107.08516 107.38554 107.6859 107.98627 108.28665 108.58702 108.8874 109.18777 109.48814 109.78851 110.08888 110.38927 110.68964 110.99002 111.29037 111.59076 111.89113 112.1915 112.49188 112.79224 113.09262 113.39299 113.69337 113.99373 114.29411 114.59448 114.89485 115.19522 115.49559 115.79597 116.09634 116.39673 116.6971 116.99745 117.29784 117.5982 117.89859 118.19896 118.49934 118.7997 119.10007 119.40045 119.70082 120.00122 120.30156 120.60196 120.9023 121.2027 121.50308 121.80342 122.10382 122.40416 122.70456 123.00494 123.3053 123.60568 123.90602 124.20642 124.5068 124.80716 125.10754 125.4079 125.70828 126.00867 126.30902 126.6094 126.90976 127.21014 127.51054 127.81088 128.11128 128.41162 128.712 129.0124 129.31275 129.61315 129.91349 130.21389 130.51427 130.8146 131.115 131.41535 131.71575 132.01613 132.31649 132.61687 132.9172 133.2176 133.51799 133.81835 134.11873 134.41909 134.71947 135.01987 135.3202 135.62059 135.92095 136.22133 136.52173 136.82207 137.12247 137.4228 137.72319 138.02359 138.32393 138.62433 138.92467 139.22507 139.52545 139.8258 140.12619 140.42653 140.72693 141.02732 141.32767 141.62805 141.9284 142.22879 142.52918 142.82953 143.12992 143.43027 143.73065 144.03105 144.33139 144.63178 144.93213 145.23252 145.53292 145.83325 146.13365 146.43399 146.73439 147.03478 147.33512 147.63552 147.93585 148.23625 148.53664 148.83699 149.13738 149.43772"/>
<path transform="matrix(1.0001,0,0,-1,11.096306,141.201)" stroke-width=".79701" stroke-linecap="butt" stroke-miterlimit="10" stroke-linejoin="miter" fill="none" stroke="#0000ff" d="M-29.88785 0H-29.28711-28.68637-28.08562-27.48488-26.88412-26.28337-25.68265-25.0819-24.48114-23.88039-23.27965-22.6789-22.07816-21.4774-20.87668-20.27592-19.67519-19.07443-18.47368-17.87292-17.27219-16.67143-16.0707-15.46996-14.8692-14.26846-13.66771-13.06697-12.46622-11.86548-11.26474-10.66399-10.06323-9.4625-8.86174-8.26099-7.66025-7.05951-6.45877-5.85802-5.25728-4.65652-4.05577-3.45503-2.85428-2.25354-1.6528-1.05205-.4513 .14943 .75018 1.35092 1.95168 2.5524 3.15315 3.7539 4.35464 4.9554 5.55615 6.1569 6.75763 7.35838 7.95912 8.55988 9.16061 9.76137 10.3621 10.96286 11.5636 12.16435 12.76509 13.36584 13.96658 14.56734 15.16808 15.76883 16.36955 16.9703 17.57106 18.17181 18.77255 19.3733 19.97406 20.57478 21.17554 21.77628 22.37703 22.97777 23.57852 24.17928 24.78001 25.38075 25.9815 26.58224 27.183 27.78375 28.38449 28.98524 29.58598 30.18672 30.7875 31.3882 31.98898 32.58968 33.19046 33.79124 34.39194 34.9927 35.5934 36.19418 36.79497 37.39566 37.99644 38.59714 39.1979 39.79869 40.39938 41.00017 41.60086 42.20166 42.80243 43.40312 44.0039 44.60458 45.20537 45.80617 46.40685 47.00763 47.60834 48.20912 48.80988 49.41058 50.01137 50.61205 51.21283 51.81363 52.4143 53.01508 53.61578 54.21657 54.81734 55.41805 56.01883 56.6195 57.2203 57.82108 58.42175 59.02255 59.62325 60.22403 60.82481 61.4255 62.02629 62.62697 63.22775 63.82854 64.42923 65.03001 65.6307 66.23149 66.83226 67.43295 68.03374 68.63443 69.23521 69.836 70.43669 71.03748 71.63815 72.23894 72.83972 73.44041 74.0412 74.64189 75.24268 75.84346 76.44414 77.04492 77.64561 78.24641 78.84718 79.44788 80.04868 80.64935 81.25012 81.85092 82.4516 83.05238 83.65309 84.25388 84.85464 85.45534 86.05612 86.6568 87.2576 87.85838 88.45906 89.05986 89.66055"/>
<path transform="matrix(1.0001,0,0,-1,11.096306,141.201)" stroke-width=".79701" stroke-linecap="butt" stroke-miterlimit="10" stroke-linejoin="miter" fill="none" stroke="#0000ff" d="M149.43924 0H150.04 150.64075 151.24152 151.84227 152.44301 153.04376 153.64453 154.24529 154.84604 155.44681 156.04756 156.64832 157.24907 157.84983 158.45058 159.05135 159.6521 160.25286 160.85363 161.45436 162.05513 162.65589 163.25664 163.8574 164.45816 165.05892 165.65966 166.26042 166.86118 167.46195 168.0627 168.66345 169.26422 169.86498 170.46573 171.06647 171.66724 172.26799 172.86876 173.46952 174.07027 174.67102 175.27178 175.87255 176.4733 177.07405 177.6748 178.27558 178.87633 179.47707 180.07784 180.67859 181.27936 181.88011 182.48087 183.08162 183.68239 184.28313 184.88388 185.48465 186.0854 186.68618 187.28693 187.88768 188.48842 189.08919 189.68994 190.2907 190.89147 191.49222 192.09297 192.69374 193.29448 193.89525 194.49599 195.09676 195.69751 196.29828 196.89904 197.49977 198.10054 198.7013 199.30207 199.90282 200.50357 201.10433 201.7051 202.30583 202.90659 203.50736 204.10811 204.70888 205.30963 205.91039 206.51113 207.1119 207.71265 208.3134 208.91417 209.51493 210.1157 210.71642 211.3172 211.91791 212.5187 213.11949 213.7202 214.321 214.9217 215.52249 216.12328 216.72399 217.32477 217.92548 218.52628 219.12708 219.72779 220.32855 220.92926 221.53006 222.13085 222.73155 223.33235 223.93306 224.53385 225.13463 225.73534 226.33614 226.93685 227.53763 228.13843 228.73912 229.3399 229.94062 230.54141 231.1422 231.7429 232.3437 232.94441 233.54521 234.14598 234.74669 235.34748 235.94818 236.54898 237.14978 237.75049 238.35126 238.95197 239.55277 240.15355 240.75426 241.35506 241.95577 242.55655 243.15734 243.75804 244.35884 244.95955 245.56034 246.16114 246.76183 247.36261 247.96332 248.56412 249.16492 249.76561 250.36641 250.96712 251.56792 252.16869 252.7694 253.3702 253.97089 254.57169 255.17249 255.7732 256.374 256.97468 257.57548 258.17625 258.77696 259.37776 259.9785 260.57929 261.18006 261.78077 262.38157 262.98225 263.58305 264.18385 264.78456 265.3853 265.98603 266.58683 267.18763 267.78834 268.3891 268.9898"/>
</g>
<use data-text="t" xlink:href="#font_6_2" transform="matrix(9.963596,0,0,-9.9626,263.74559,144.265)"/>
<use data-text="y" xlink:href="#font_6_3" transform="matrix(9.963596,0,0,-9.9626,128.06,6.208008)"/>
<path transform="matrix(1.0001,0,0,-1,11.096306,141.201)" d="M185.55821 100.02394H234.12044V116.96059H185.55821Z" fill="#ffffff"/>
<path transform="matrix(1.0001,0,0,-1,11.096306,141.201)" stroke-width=".3985" stroke-linecap="butt" stroke-miterlimit="10" stroke-linejoin="miter" fill="none" stroke="#000000" d="M185.55821 100.02394H234.12044V116.96059H185.55821Z"/>
<path transform="matrix(1.0001,0,0,-1,200.06021,32.709009)" stroke-width=".79701" stroke-linecap="butt" stroke-miterlimit="10" stroke-linejoin="miter" fill="none" stroke="#0000ff" d="M0 0H8.50412 17.00826"/>
<use data-text="d" xlink:href="#font_6_1" transform="matrix(9.963596,0,0,-9.9626,219.46216,35.698007)"/>
<use data-text="&#x03b5;" xlink:href="#font_7_1" transform="matrix(6.974498,0,0,-6.9738,224.64768,37.193)"/>
<use data-text="(" xlink:href="#font_8_1" transform="matrix(9.963596,0,0,-9.9626,228.9101,35.698007)"/>
<use data-text="t" xlink:href="#font_6_2" transform="matrix(9.963596,0,0,-9.9626,232.78549,35.698007)"/>
<use data-text=")" xlink:href="#font_8_2" transform="matrix(9.963596,0,0,-9.9626,236.38285,35.698007)"/>
</svg>
